<?xml version="1.0" encoding="utf-8"?>
<!-- Generator: Adobe Illustrator 24.3.0, SVG Export Plug-In . SVG Version: 6.00 Build 0)  -->
<svg version="1.1" id="Layer_1" xmlns="http://www.w3.org/2000/svg" xmlns:xlink="http://www.w3.org/1999/xlink" x="0px" y="0px"
	 viewBox="0 0 3938 640" enable-background="new 0 0 3938 640" xml:space="preserve">
<g id="Group_340_2_">
	<g id="Group_340_3_" transform="translate(-1.613 -2386)">
		<g id="Group_197_1_" transform="translate(1.613 2403.402)">
			<g id="Path_1229_1_">
				<path fill="#EFC928" d="M2383.9,401.6c0,76-20.9,147.1-57.2,208h-699.3c0,0,0,0,0-0.1c-23.6-39.5-40.7-83.4-49.8-130.1
					c-4.9-25.2-7.5-51.2-7.5-77.8c0-46.2,7.7-90.5,21.9-131.9c0.1-0.2,0.1-0.5,0.2-0.7c2.2-6.3,4.5-12.5,6.9-18.6c0,0,0,0,0,0
					c0.3-0.7,0.6-1.5,0.9-2.2c2.1-5.2,4.4-10.4,6.7-15.5C1670.9,92.4,1812.6-5.2,1976.9-5.2c179,0,331.1,115.7,385.5,276.3
					c1.7,4.9,3.2,9.7,4.7,14.7c0.2,0.8,0.4,1.5,0.7,2.3C2378.2,324.1,2383.9,362.2,2383.9,401.6z"/>
			</g>
			<g id="Path_1230_1_">
				<path fill="#E16241" d="M2284.3,401.4v0.2c0,72.1-24.8,138.4-66.3,190.9c-4.6,5.9-9.5,11.5-14.5,17c0,0,0,0,0,0h-456.3
					c0,0,0,0,0-0.1c-19.8-21.8-36.4-46.6-49.2-73.5c-1.3-2.8-2.6-5.6-3.9-8.5c-2.7-6.2-5.2-12.5-7.5-18.9c-0.8-2.3-1.6-4.6-2.4-6.9
					c-3.4-10.2-6.3-20.6-8.6-31.3c-0.6-2.9-1.2-5.9-1.8-8.8c-1.6-8.4-2.8-16.7-3.7-25c-0.4-4-0.8-8-1.1-12
					c-4.3-58.9,8-114.6,32.6-162.9c4.8-9.3,10-18.4,15.7-27.2c4-6.2,8.2-12.1,12.5-18c7.7-10.2,15.9-19.9,24.8-29.1
					c2.7-2.8,5.5-5.6,8.4-8.3c55.3-53.1,130.4-85.7,213-85.7c120.3-0.1,224.5,68.8,275.3,169.3c4.3,8.4,8.2,17.1,11.7,26
					c1,2.4,1.9,4.8,2.8,7.3c3.3,8.9,6.1,18.1,8.6,27.4c2.9,11.1,5.2,22.5,6.9,34.1C2283.2,371.8,2284.2,386.5,2284.3,401.4z"/>
			</g>
			<g id="Path_1281_1_">
				<path fill="#547F41" d="M3930,609.6H24c0,0,733.8-270,1568-339.9c36.3-3,72.8-5.7,109.5-8c8.2-0.5,16.5-1,24.7-1.5
					c1.1-0.1,2.1-0.1,3.2-0.2c30.8-1.7,61.7-3.1,92.6-4.2c0.3,0,0.6,0,0.8,0c0.6,0,1.2,0,1.8-0.1c5.2-0.2,10.4-0.3,15.7-0.5
					c6.5-0.2,13.1-0.4,19.6-0.6c0.8,0,1.5,0,2.2-0.1c5.1-0.1,10.2-0.3,15.4-0.4c2.1,0,4.2-0.1,6.4-0.1c0.8,0,1.5,0,2.3,0
					c3.1-0.1,6.2-0.1,9.3-0.2c0.2,0,0.5,0,0.7,0c0.2,0,0.5,0,0.7,0c4.3-0.1,8.7-0.1,13-0.2c0.2,0,0.3,0,0.5,0c0,0,0,0,0,0
					c0.6,0,1.2,0,1.8,0c10.6-0.1,21.1-0.2,31.7-0.3c0.8,0,1.5,0,2.3,0c1,0,2,0,3,0c0.2,0,0.4,0,0.5,0c6.2,0,12.4,0,18.6,0
					c6.8,0,13.6,0,20.4,0.1c87.7,0.4,175.4,3.7,262.4,9.3c37.2,2.4,74.3,5.2,111.2,8.4C3193.2,343.2,3930,609.6,3930,609.6z"/>
			</g>
			<g id="Path_1236_1_">
				<path fill="#2D2D2D" d="M1436.7,609.6c60.4-94.7,158.1-142.1,204.5-161.5c67.2-28.1,145.8-47.3,182.3-55.9
					c36.5-8.6,98.6-24.1,180.9-34.9c96-12.5,166-12.2,167.6-24.2c1.3-10.1-47.6-16.2-46.9-25.2c2-23.3,334.1-23.1,334.1-22.5
					c0,0.5-223.3,2.3-225.1,21.4c-0.8,9.2,128.8,32.4,48.1,50.5c-80.8,18.1-145.1,27.7-157.1,90.8c-12,63.1,86.1,132.2,109,161.5
					L1436.7,609.6z"/>
			</g>
			<g id="Artwork_152_1_" transform="translate(964.513 21.578) rotate(3)">
				<g>
					<defs>
						
							<rect id="SVGID_1_" x="1208.4" y="-183.1" transform="matrix(5.233596e-02 -0.9986 0.9986 5.233596e-02 1141.7408 1376.8302)" width="175.7" height="540"/>
					</defs>
					<clipPath id="SVGID_2_">
						<use xlink:href="#SVGID_1_"  overflow="visible"/>
					</clipPath>
					<g id="Group_170_1_" transform="translate(0 0)" clip-path="url(#SVGID_2_)">
						<g id="Path_1111_1_">
							<path fill="#43372B" d="M1049.2,168.5c-4.3,0-8.5-1.7-11.6-4.7c-3.7-3.2-6.4-7.3-7.8-11.9c-1.4-4.7-2.3-9.5-2.8-14.3
								c-0.5-5-0.7-11.5-0.7-19.5c0-4.6,0.2-9.7,0.6-15.2c0.1-4.3,1.1-8.5,2.9-12.4c0.9-1.9,2.8-3.1,4.8-3.1c4.1,0,7.1,5.3,8.9,15.8
								c1.1,6.3,2,13.1,2.8,20.3c1.4,12.4,2.7,20.7,4.2,24.9c0.9,2.8,2.1,4.3,3.5,4.2c1.3,0.1,2.6-0.6,3.2-1.8
								c5.1-5.6,8.5-14,10.2-25.3c1.1-7.8,2.8-12.5,4.8-14c1.2-0.9,2.6-1.3,4.1-1.3c2.8,0,5.1,1.9,5.8,4.6c1.1,3.1,2,6.3,2.5,9.6
								c0.4,2.6,1,5.1,1.7,7.6c0.9,3,2.1,5.9,3.7,8.7c2.2,3.9,3.9,5.8,5.1,5.8c3.3,0,5.3-8.6,5.8-25.8c0.3-9.2,1-14.7,2-16.8
								c1.2-2.9,4-4.8,7.1-4.8c6.6,0,9.9,6.7,9.9,20c0,1.6-0.1,4-0.3,7.3c-0.3,4.1-0.9,8.2-1.8,12.2c-0.9,4.7-2.4,9.2-4.2,13.6
								c-1.6,3.8-3.9,7.2-6.8,10.1c-2.5,2.5-5.8,3.9-9.3,3.8c-5.2-0.1-10.1-2.5-13.2-6.6c-2.9-3.5-5.3-7.3-7.2-11.4
								c-1.2-2.4-2.1-3.8-2.6-3.9c-0.5-0.2-1.3,1-2.1,3.6c-1.4,3-3.1,5.9-4.8,8.7c-2,3.3-4.6,6.2-7.7,8.6
								C1056.9,167.3,1053.1,168.5,1049.2,168.5"/>
						</g>
						<g id="Path_1112_1_">
							<path fill="#43372B" d="M1169.7,167.3c-2.4,0-4.6-1.6-5.4-3.8c-1.5-4.1-2.4-8.5-2.5-12.8c-0.5-6.2-0.8-14.6-0.8-25.3
								c0-2.9,0.1-6.5,0.2-10.9c0.3-12,2.1-20.4,5.2-25.1c0.8-1.4,2.3-2.2,3.8-2.2c1.3,0.1,2.5,0.6,3.4,1.6c1.4,1.4,2.4,2,3.2,2
								c1.3-0.3,2.5-1,3.4-2c3.5-3.3,8.2-5.1,13-5.1c6.3,0,11.4,3.1,15.4,9.2c5.1,7.9,7.7,17.7,7.7,29.5c0,7.1-1.2,14.1-3.6,20.8
								c-2.1,6.2-5.6,11.8-10.1,16.5c-4.2,4.6-10.2,7.1-16.4,7.1c-2.4,0-4.8-0.4-7.1-1.1c-1-0.3-2-0.5-3-0.5c-0.7,0-1.4,0.2-2,0.6
								c-1.3,0.8-2.7,1.3-4.2,1.3 M1182.6,151.9h0.7c7.2-0.7,12.2-5.8,15.1-15.4c1.6-5.3,2.4-10.9,2.4-16.4c0.2-6.4-1-12.8-3.5-18.6
								c-1.6-3.4-3.4-5.1-5.4-5.1c-3.3,0-6.1,2.7-8.6,8c-2.5,5.6-4.3,11.4-5.3,17.4c-1.4,6.5-2.1,13-2.2,19.6c0,4.5,0.6,7.2,1.7,8.3
								c1.3,1.4,3.2,2.3,5.1,2.4"/>
						</g>
						<g id="Path_1113_1_">
							<path fill="#43372B" d="M1234.9,174.7c-3.1,0.1-6-1.7-7.4-4.5c-2.4-4.4-3.6-14.7-3.6-30.9c0-3.3,0.1-8.2,0.3-14.5
								c0.2-6.4,0.7-13.3,1.6-20.8c0.3-5.1,1.3-10.2,2.9-15c0.9-2.4,3.1-4,5.6-4.2c2.6,0.2,4.2,1,4.7,2.4c0.5,1.4,0.8,2.9,0.8,4.4
								c0,2,0.2,2.9,0.7,2.9c1-0.3,1.9-0.8,2.7-1.6c4.5-3.7,8.8-5.5,12.7-5.5c3-0.1,6,0.8,8.6,2.4c2.5,1.6,4.5,3.8,6,6.3
								c2.3,3.9,3.5,8.4,3.5,12.9c0,1.6-0.2,3.1-0.5,4.7c-2.1,9.9-8.3,16.7-18.5,20.4c-2,0.7-2.9,1.3-2.9,1.7c0,0.4,2.3,2.5,7,6.1
								c2.6,1.7,5.2,3.5,7.7,5.5c3.8,3.1,5.6,6,5.6,8.9c0,3.4-2.7,6.1-6.1,6c0,0-0.1,0-0.1,0c-3.3,0-9.2-3.7-17.7-11.2
								c-1.8-1.6-2.9-2.4-3.4-2.4l-0.5,0.2c-0.5,2.2-0.7,4.4-0.5,6.6c0.1,4.5-0.4,8.9-1.5,13.2c-0.9,3.3-3.8,5.7-7.2,5.8
								L1234.9,174.7z M1247,121.7c2.4,0.1,4.8-0.9,6.4-2.7c1.6-1.8,2.8-4,3.4-6.3c0.7-2.2,1-4.4,1.1-6.7c0.2-2.6-1.1-5.1-3.4-6.4
								c-0.7-0.4-1.5-0.6-2.3-0.6c-3.2,0-5.8,2.9-7.8,8.8c-1.1,2.9-1.7,5.9-1.7,9v2.5C1242.7,120.9,1244.1,121.7,1247,121.7"/>
						</g>
						<g id="Path_1114_1_">
							<path fill="#43372B" d="M1475.5,171.2c-5.1,0.1-10.1-0.9-14.6-3.1c-8.2-4.1-13.8-11.1-16.8-21.1c-1.4-4.9-2.2-9.9-2.1-15
								c0-8.3,1.7-16.6,5-24.2c3.1-7.4,8.1-13.9,14.5-18.9c6.9-5.2,15.3-7.9,23.9-7.7c5.7-0.2,11.3,1.4,15.9,4.6
								c1,0.6,1.6,1.6,1.6,2.8v1c-0.1,0.6-0.7,1.2-1.8,1.9c-3.6,1.7-7.4,2.9-11.3,3.4l-4.1,0.8c-5.7,0.9-11,3.5-15.2,7.5
								c-3.9,3.7-7,8.4-8.8,13.5c-1.8,5-2.7,10.3-2.7,15.6c-0.1,4.4,0.6,8.8,1.9,13.1c1,3.5,2.9,6.7,5.5,9.4
								c2.3,2.3,5.4,3.6,8.7,3.6c3.6-0.2,7.1-1,10.4-2.5c3.9-1.6,7.4-3.8,10.5-6.6c2.6-2.1,4.2-5.2,4.2-8.6c0-4-4.1-6-12.4-6
								c-1.4,0-2.7,0.1-4.1,0.2c0.1,1.9-0.5,3.8-1.7,5.3c-1.3,1.4-3.2,2.2-5.1,2c-5.8,0-8.7-3.1-8.7-9.3c0-3,0.5-5.9,1.5-8.7
								c2.3-7,5-10.5,8.2-10.5c1.9,0.2,3.8,1.1,5.1,2.5c1,0.9,3.3,1.4,6.9,1.4c3.5,0,7.1,0.4,10.5,1.1c9.4,1.8,14.1,8.1,14.1,18.8
								c0,6.1-2,12-5.8,16.8c-4,5.2-9.2,9.3-15,12.3C1488.1,169.4,1481.9,171.1,1475.5,171.2"/>
						</g>
						<g id="Path_1115_1_">
							<path fill="#43372B" d="M1548.5,167.3c-3.7,0-8.7-0.2-15.2-0.6l-5.8-0.2c-6.2,0-9.2-1.4-9.2-4.3c0-1.1,0.5-2.2,1.3-2.9
								c0.9-0.8,1.3-1.9,1.3-3.1l-0.2-13.5c0-12.7,1-25.5,2.9-38.1c0.1-0.9,0.3-1.7,0.5-2.5c0.1-0.5,0.2-1,0.2-1.6
								c0-0.3-0.1-0.6-0.2-0.9c-0.1-0.3-0.7-0.8-1.9-1.5c-1.2-0.7-2.2-1.9-2.7-3.2c0-1.6,1-3.1,2.4-3.8c4.3-2.6,11.2-3.9,20.7-3.9
								c11.4,0,18.4,0.7,20.9,2c1.7,0.7,2.7,2.3,2.7,4.1c0.2,2.5-1.6,4.6-4.1,4.8c-1.2,0.2-2.4,0.3-3.6,0.3c-2.4,0-4.7-0.2-7-0.5
								c-2.6-0.3-5.1-0.5-7.7-0.5c-2.1,0-3.3,0.7-3.8,2c-0.8,1.7-1.2,5.3-1.2,11c0,1.4,0.1,2.6,0.2,3.8c0,1.1,0.8,2,1.9,2
								c1,0,2.1-0.2,3-0.6c1.9-0.6,3.9-0.9,6-0.8c3.4,0,5.7,1.1,6.9,3.2c0.5,0.9,0.8,1.8,0.8,2.9c0,0.8-0.2,1.6-0.5,2.4
								c-0.9,2.3-3,3.8-5.5,3.8c-3.1,0.1-6.2,0.6-9.2,1.3c-2,0.4-3.5,2-3.7,4c-0.4,4-0.6,8.1-0.6,12.2c-0.2,2.7,0,5.4,0.5,8.1
								c0.3,0.4,2.3,0.6,6,0.4c9.6,0,15.2,1.4,16.8,4.2c0.5,0.9,0.8,1.8,0.8,2.8c0.2,3.1-1.8,5.8-4.8,6.5c-2.9,0.6-5.9,0.9-8.8,0.8"
								/>
						</g>
						<g id="Line_113_1_">
							
								<rect x="1295" y="140" transform="matrix(0.6938 -0.7201 0.7201 0.6938 299.457 986.6424)" fill="#4D5052" width="30.2" height="2.3"/>
						</g>
						<g id="Line_114_1_">
							
								<rect x="1302.8" y="143.7" transform="matrix(0.3198 -0.9475 0.9475 0.3198 759.1758 1347.283)" fill="#4D5052" width="30.3" height="2.3"/>
						</g>
						<g id="Line_115_1_">
							
								<rect x="1325.4" y="129.8" transform="matrix(0.9927 -0.1209 0.1209 0.9927 -7.7872 161.4778)" fill="#4D5052" width="2.3" height="30.3"/>
						</g>
						<g id="Line_116_1_">
							
								<rect x="1333.3" y="126.1" transform="matrix(0.8451 -0.5346 0.5346 0.8451 131.25 735.3173)" fill="#4D5052" width="2.3" height="30.2"/>
						</g>
						<g id="Line_117_1_">
							
								<rect x="1338.8" y="119.3" transform="matrix(0.5338 -0.8456 0.8456 0.5338 510.9624 1195.7217)" fill="#4D5052" width="2.3" height="30.3"/>
						</g>
						<g id="Line_118_1_">
							
								<rect x="1340.8" y="110.9" transform="matrix(0.1171 -0.9931 0.9931 0.1171 1059.7689 1443.9987)" fill="#4D5052" width="2.3" height="30.2"/>
						</g>
						<g id="Line_119_1_">
							
								<rect x="1325.1" y="116.3" transform="matrix(0.946 -0.3241 0.3241 0.946 34.2667 440.709)" fill="#4D5052" width="30.2" height="2.3"/>
						</g>
						<g id="Line_120_1_">
							
								<rect x="1319.8" y="109.5" transform="matrix(0.716 -0.6981 0.6981 0.716 301.9596 963.4169)" fill="#4D5052" width="30.2" height="2.3"/>
						</g>
						<g id="Line_121_1_">
							
								<rect x="1312.1" y="105.5" transform="matrix(0.3461 -0.9382 0.9382 0.3461 767.8624 1314.9318)" fill="#4D5052" width="30.3" height="2.3"/>
						</g>
						<g id="Line_122_1_">
							
								<rect x="1317.4" y="91.3" transform="matrix(0.9958 -9.137768e-02 9.137768e-02 0.9958 -4.2032 120.9301)" fill="#4D5052" width="2.3" height="30.2"/>
						</g>
						<g id="Line_123_1_">
							
								<rect x="1309.4" y="94.7" transform="matrix(0.8584 -0.513 0.513 0.8584 129.236 687.8608)" fill="#4D5052" width="2.3" height="30.2"/>
						</g>
						<g id="Line_124_1_">
							
								<rect x="1303.8" y="101.3" transform="matrix(0.5572 -0.8304 0.8304 0.5572 481.2069 1135.1821)" fill="#4D5052" width="2.3" height="30.3"/>
						</g>
						<g id="Line_125_1_">
							
								<rect x="1301.5" y="109.7" transform="matrix(0.1464 -0.9892 0.9892 0.1464 988.416 1395.0854)" fill="#4D5052" width="2.3" height="30.3"/>
						</g>
						<g id="Line_126_1_">
							
								<rect x="1289" y="132.2" transform="matrix(0.9549 -0.2968 0.2968 0.9549 19.1985 393.1165)" fill="#4D5052" width="30.2" height="2.3"/>
						</g>
						<g id="Path_1116_1_">
							<path fill="#43372B" d="M1322.1,167.4c-23.2,0-41.9-18.8-41.9-41.9s18.8-41.9,41.9-41.9c23.2,0,41.9,18.8,41.9,41.9
								S1345.2,167.4,1322.1,167.4L1322.1,167.4 M1322.1,89.8c-19.7,0-35.7,16-35.7,35.7s16,35.7,35.7,35.7s35.7-16,35.7-35.7
								S1341.8,89.8,1322.1,89.8L1322.1,89.8"/>
						</g>
						<g id="Path_1117_1_">
							<path fill="#2D2D2D" d="M1322.1,95.7c16.5,0,29.8,13.4,29.8,29.8c0,16.5-13.4,29.8-29.8,29.8c-16.5,0-29.8-13.4-29.8-29.8
								l0,0C1292.3,109,1305.6,95.7,1322.1,95.7L1322.1,95.7 M1322.1,90.7c-19.2,0-34.8,15.6-34.8,34.8c0,19.2,15.6,34.8,34.8,34.8
								s34.8-15.6,34.8-34.8C1356.9,106.3,1341.3,90.7,1322.1,90.7L1322.1,90.7"/>
						</g>
						<g id="Path_1118_1_">
							<path fill="#2D2D2D" d="M1327.9,125.7c0,3.1-2.5,5.6-5.6,5.6c-3.1,0-5.6-2.5-5.6-5.6c0-3.1,2.5-5.6,5.6-5.6l0,0
								C1325.4,120,1327.9,122.5,1327.9,125.7"/>
						</g>
						<g id="Path_1119_1_">
							<path fill="#43372B" d="M1326,125.6c0,2-1.6,3.7-3.7,3.7c-2,0-3.7-1.6-3.7-3.7c0-2,1.6-3.7,3.7-3.7l0,0
								C1324.4,122,1326,123.6,1326,125.6"/>
						</g>
						<g id="Path_1120_1_">
							<path fill="#43372B" d="M1322,162.9c-20.6,0-37.3-16.7-37.3-37.3s16.7-37.3,37.3-37.3c20.6,0,37.3,16.7,37.3,37.3
								c0,0,0,0,0,0C1359.3,146.2,1342.6,162.9,1322,162.9 M1322,93.9c-17.5,0-31.7,14.2-31.7,31.7s14.2,31.7,31.7,31.7
								c17.5,0,31.7-14.2,31.7-31.7S1339.5,93.9,1322,93.9L1322,93.9"/>
						</g>
						<g id="Line_127_1_">
							
								<rect x="1368.2" y="141.7" transform="matrix(0.6956 -0.7185 0.7185 0.6956 318.5049 1037.379)" fill="#4D5052" width="30.2" height="2.3"/>
						</g>
						<g id="Line_128_1_">
							
								<rect x="1376.1" y="145.5" transform="matrix(0.3172 -0.9483 0.9483 0.3172 810.7993 1419.4309)" fill="#4D5052" width="30.3" height="2.3"/>
						</g>
						<g id="Line_129_1_">
							
								<rect x="1398.7" y="131.6" transform="matrix(0.9929 -0.1187 0.1187 0.9929 -7.5107 167.2648)" fill="#4D5052" width="2.3" height="30.2"/>
						</g>
						<g id="Line_130_1_">
							
								<rect x="1406.6" y="127.8" transform="matrix(0.8439 -0.5365 0.5365 0.8439 143.1065 777.5986)" fill="#4D5052" width="2.3" height="30.3"/>
						</g>
						<g id="Line_131_1_">
							
								<rect x="1412" y="121.1" transform="matrix(0.5319 -0.8468 0.8468 0.5319 546.2366 1260.4902)" fill="#4D5052" width="2.3" height="30.2"/>
						</g>
						<g id="Line_132_1_">
							
								<rect x="1414.1" y="112.6" transform="matrix(0.1143 -0.9934 0.9934 0.1143 1126.5392 1519.0786)" fill="#4D5052" width="2.3" height="30.2"/>
						</g>
						<g id="Line_133_1_">
							
								<rect x="1398.3" y="118.1" transform="matrix(0.9472 -0.3205 0.3205 0.9472 36.3641 459.3767)" fill="#4D5052" width="30.3" height="2.3"/>
						</g>
						<g id="Line_134_1_">
							
								<rect x="1393.1" y="111.2" transform="matrix(0.716 -0.6981 0.6981 0.716 321.5612 1015.0271)" fill="#4D5052" width="30.2" height="2.3"/>
						</g>
						<g id="Line_135_1_">
							
								<rect x="1385.4" y="107.2" transform="matrix(0.3468 -0.9379 0.9379 0.3468 813.082 1384.3143)" fill="#4D5052" width="30.2" height="2.3"/>
						</g>
						<g id="Line_136_1_">
							
								<rect x="1390.6" y="93" transform="matrix(0.9958 -9.134563e-02 9.134563e-02 0.9958 -4.0543 127.5837)" fill="#4D5052" width="2.3" height="30.2"/>
						</g>
						<g id="Line_137_1_">
							
								<rect x="1382.7" y="96.5" transform="matrix(0.8603 -0.5098 0.5098 0.8603 136.4435 721.0783)" fill="#4D5052" width="2.3" height="30.2"/>
						</g>
						<g id="Line_138_1_">
							
								<rect x="1377" y="103.1" transform="matrix(0.5552 -0.8317 0.8317 0.5552 514.7054 1198.7938)" fill="#4D5052" width="2.3" height="30.2"/>
						</g>
						<g id="Line_139_1_">
							
								<rect x="1374.7" y="111.5" transform="matrix(0.144 -0.9896 0.9896 0.144 1052.4963 1469.8573)" fill="#4D5052" width="2.3" height="30.2"/>
						</g>
						<g id="Line_140_1_">
							
								<rect x="1362.3" y="133.9" transform="matrix(0.9557 -0.2943 0.2943 0.9557 21.2317 411.296)" fill="#4D5052" width="30.2" height="2.3"/>
						</g>
						<g id="Path_1121_1_">
							<path fill="#43372B" d="M1395.4,169.1c-23.2,0-41.9-18.8-41.9-41.9s18.8-41.9,41.9-41.9c23.2,0,41.9,18.8,41.9,41.9
								S1418.6,169.1,1395.4,169.1L1395.4,169.1 M1395.4,91.5c-19.7,0-35.7,16-35.7,35.7s16,35.7,35.7,35.7s35.7-16,35.7-35.7
								S1415.1,91.5,1395.4,91.5L1395.4,91.5"/>
						</g>
						<g id="Path_1122_1_">
							<path fill="#2D2D2D" d="M1395.4,97.4c16.5,0,29.9,13.4,29.8,29.9s-13.4,29.9-29.9,29.8c-16.5,0-29.9-13.4-29.8-29.9
								C1365.5,110.7,1378.9,97.4,1395.4,97.4 M1395.3,92.4c-19.2,0-34.8,15.6-34.8,34.8c0,19.2,15.6,34.8,34.8,34.8
								c19.2,0,34.8-15.6,34.8-34.8S1414.5,92.4,1395.3,92.4L1395.3,92.4"/>
						</g>
						<g id="Path_1123_1_">
							<path fill="#2D2D2D" d="M1401.1,127.5c0,3.1-2.5,5.6-5.6,5.6s-5.6-2.5-5.6-5.6s2.5-5.6,5.6-5.6l0,0
								C1398.6,121.8,1401.1,124.3,1401.1,127.5"/>
						</g>
						<g id="Path_1124_1_">
							<path fill="#43372B" d="M1399.2,127.4c0,2-1.6,3.7-3.7,3.7c-2,0-3.7-1.6-3.7-3.7c0-2,1.6-3.7,3.7-3.7l0,0
								C1397.6,123.8,1399.2,125.4,1399.2,127.4"/>
						</g>
						<g id="Path_1125_1_">
							<path fill="#43372B" d="M1395.2,164.7c-20.6,0-37.3-16.7-37.3-37.3s16.7-37.3,37.3-37.3c20.6,0,37.3,16.7,37.3,37.3v0
								C1432.5,148,1415.8,164.7,1395.2,164.7 M1395.2,95.7c-17.5,0-31.7,14.2-31.7,31.7s14.2,31.7,31.7,31.7
								c17.5,0,31.7-14.2,31.7-31.7S1412.8,95.7,1395.2,95.7L1395.2,95.7"/>
						</g>
					</g>
				</g>
			</g>
			<g id="Group_188_1_" transform="matrix(0.998, -0.07, 0.07, 0.998, 3350.396, -8346.611)">
				<g id="Path_1223_1_">
					<path fill="#43372B" d="M-2441.9,8446c-2.1-1.7-4.3-3.3-6.5-4.8c-4-3.1-6-4.9-6-5.3c0-0.4,0.8-1,2.5-1.5
						c8.2-2.5,14.2-9.4,15.7-17.8c0.3-1.3,0.4-2.7,0.4-4.1c0-3.9-1-7.8-2.9-11.2c-1.3-2.2-3-4.1-5.1-5.6c-2.1-1.3-4.6-2-7.1-2
						c-4.1,0.3-7.9,2-10.8,4.8c-0.6,0.6-1.4,1.1-2.3,1.3c-0.4,0-0.6-0.8-0.6-2.5c0-1.3-0.3-2.7-0.8-3.9c-0.5-1.2-1.8-1.9-4-2.1
						c-2.2,0.3-4,1.7-4.8,3.8c-1.4,4.2-2.3,8.6-2.5,13.1c-0.6,6.5-1.1,12.6-1.3,18.1c-0.2,5.6-0.3,9.8-0.3,12.7
						c0,14.2,1,23.1,3,26.9c1.1,2.4,3.5,3.9,6.2,3.9l0.4,0.1c2.9-0.2,5.4-2.2,6.1-5c1-3.8,1.4-7.7,1.3-11.6c-0.1-1.9,0-3.9,0.4-5.8
						l0.4-0.2c0.4,0,1.3,0.7,2.8,2c7.2,6.5,12.3,9.8,15.1,9.8c1.4,0.1,2.7-0.5,3.7-1.5c1-1,1.6-2.4,1.6-3.8
						C-2437.2,8451.2-2438.8,8448.6-2441.9,8446z M-2458.8,8423.4l0-0.1c-2.5,0-3.7-0.7-3.7-2l0-2.2c0-2.7,0.6-5.4,1.5-7.9
						c1.7-5.1,3.9-7.7,6.6-7.7c0.7,0,1.4,0.2,2,0.6c1.9,1.1,3,3.3,2.8,5.6c0,2-0.3,4-0.9,5.9c-0.5,2-1.5,4-2.9,5.6
						C-2454.7,8422.6-2456.7,8423.5-2458.8,8423.4z"/>
				</g>
				<g id="Path_1224_1_">
					<path fill="#43372B" d="M-2389.4,8466.5c-1.3,0-2.6-0.3-3.8-0.9c-0.9-0.5-1.6-1.4-2-2.4c-0.3-1-0.6-2.1-0.7-3.1
						c0-0.8-0.2-1.6-0.4-2.3c-0.1-0.6-0.7-1-1.3-0.9h-0.8c-1.1,0.3-2.1,0.9-3,1.6c-3,2-6.6,3-10.2,3l-5-0.4
						c-2.6-0.3-5.6-2.7-9.1-7.2c-3.6-4.7-5.8-10.3-6.3-16.2c-0.1-1.8-0.2-3.9-0.2-6.2s0.1-4.6,0.2-6.8c0.2-3.7,0.7-7.3,1.5-10.9
						c0.6-3.6,2.1-7.1,4.3-10c0.9-1.4,2.4-2.2,4-2.3l1.7,0.2c2.7,0.5,4.1,7.3,4.3,20.2c-0.1,5.8,0.6,11.5,2.2,17.1
						c1.2,3.5,2.6,5.2,4.1,5c4.3,0,6.9-6.2,7.9-18.6c0.4-5,0.7-10.1,0.9-15.1c0.3-8.8,0.8-14.2,1.6-16.2c1.1-3.1,4-5.1,7.3-4.9
						c2.9-0.1,5.5,1.6,6.7,4.2c0.9,1.8,2,12.1,3,31c1.1,17.5,1.6,28.9,1.6,34.1c0.1,2.1-0.7,4.2-2.3,5.7c-1.8,1.6-4.2,2.4-6.6,2.3
						L-2389.4,8466.5z"/>
				</g>
				<g id="Path_1225_1_">
					<path fill="#43372B" d="M-2352.1,8468.3c-2.1,0-4.2-0.7-6.1-1.8c-2.4-1.3-3.8-3.9-3.6-6.6c0-1.6,0.5-3.2,1.4-4.6
						c1.1-1.6,2.8-2.7,4.8-3c2.2-0.4,4.3-1,6.4-1.8c1.6-0.4,2.8-1.8,2.8-3.4c0.2-1.3-0.7-2.5-2-2.7c0,0-0.1,0-0.1,0
						c-1.8-1-3.6-1.8-5.5-2.4c-3.4-1.4-6.7-3-9.9-4.8c-8.9-5-13.4-12.2-13.4-21.6c-0.1-5.1,1.2-10.1,3.7-14.5
						c2.5-4.2,5.9-7.6,10.1-10.1c11-6.6,25.2-4.6,33.9,4.9c1.4,1.5,2.6,3.3,3.4,5.2c0.7,1.6,1.1,3.4,1.1,5.2c0,0.4,0,1.1-0.1,2.3
						c-0.3,1.6-1.2,3-2.5,4c-0.7,0.7-1.6,1.1-2.6,1.2c-1.2,0-2.8-1.2-4.9-3.7c-1.6-1.9-3.5-3.5-5.5-4.9c-2.2-1.3-4.6-1.9-7.2-1.8
						c-3.4-0.1-6.7,1.3-9.1,3.8c-2,2-3.1,4.7-3,7.4c0,2.9,1.4,5.7,3.9,7.3c2.9,2.1,5.9,3.9,9.1,5.4c3,1.5,5.8,3.1,8.6,4.9
						c2.7,1.7,5,4,6.8,6.7c1.9,2.9,2.8,6.3,2.7,9.8c0,3.9-1.4,7.6-4,10.6c-3.3,3.6-7.5,6.1-12.3,7.3c-2.2,0.7-4.5,1.2-6.8,1.2
						L-2352.1,8468.3z"/>
				</g>
				<g id="Path_1226_1_">
					<path fill="#43372B" d="M-2302.7,8463.7h-5.9c-3.6-0.1-7.1-0.7-10.5-1.8c-4-0.9-6.7-4.6-6.4-8.7c0-2.1,0.8-4.2,2.3-5.8
						c1.7-1.8,4.6-4.6,8.9-8.3c17.3-15.5,25.9-24.6,25.9-27.2c0-0.9-0.7-1.5-2.2-1.9c-2.2-0.5-4.4-0.7-6.6-0.9l-7.2-0.8
						c-1.7-0.2-3.4-0.8-4.9-1.7c-1.7-0.9-2.8-2.6-2.7-4.6c0-1.7,1-3.3,2.5-4.1c3.1-1.8,6.5-2.8,10.1-2.9l6.9-0.2
						c5.3-0.1,10.5,0.2,15.7,1c7.1,1.3,10.6,4.1,10.6,8.6s-2.4,9.3-7.2,14.6c-6.3,7-13,13.7-20,20c-4,3.6-6,5.9-6,6.9
						c0,1,1,1.3,3.1,0.9h6.3c2.9,0,5.7,0.2,8.6,0.6c3.5,0.5,6.8,2.1,9.2,4.7c1.2,1,1.8,2.5,1.8,4c0,1.3-0.8,2.4-2,3
						c-4.3,2.1-8.8,3.4-13.6,3.9c-5.6,0.7-11.2,1.1-16.8,1.1L-2302.7,8463.7z"/>
				</g>
				<g id="Path_1227_1_">
					<path fill="#43372B" d="M-2213,8457.5c0.1-10.9-0.6-21.7-1.8-32.5c0-0.4-0.1-0.8-0.1-1.2c-2.8-24.2-10.9-36.4-24.2-36.4
						c-13.3,0-21.1,11.2-23.3,33.7c-0.8,8-1.1,15.9-1.1,23.9l0,5.3c0,8.7,2,13,5.9,13c1.9,0.1,3.6-1.3,3.9-3.1c1.1-4,1.7-8,1.7-12.1
						c0.1-5,1-7.8,2.6-8.4c1.9-0.7,3.9-1.3,6-1.7c2.2-0.4,4.4-0.7,6.6-0.7c2.5-0.2,5.1,0.5,7,2.1c0.5,0.8,0.9,1.7,1.2,2.6
						c0.8,1.9,1.2,3.9,1.4,6c0.3,3.3,0.5,6.4,0.8,9.3c0.1,2.2,0.4,4.5,0.8,6.7c0.3,1.3,1,2.4,2.1,3.2c0.7,0.5,1.5,0.9,2.3,1.1
						c0.4,0.1,0.9,0.2,1.3,0.2l0.2,0l0,0.1c0.6,0,1.1-0.1,1.6-0.2C-2214.8,8467.5-2213,8463.9-2213,8457.5z M-2232.7,8425.9
						c-1.9,0.7-3.9,1.3-5.9,1.6c-1.6,0.3-3.2,0.4-4.9,0.4l0-0.1c-3.4-0.7-5.1-1.4-5.1-2.2c0-0.8,0.1-2.4,0.3-4.7
						c1.9-12.7,4.9-19.1,8.8-19.1c3.9,0,6.7,4.6,8.4,13.7c0.6,2.7,1,5.4,1.1,8.1C-2229.8,8424.4-2230.8,8425.2-2232.7,8425.9z"/>
				</g>
				<g id="Path_1228_1_">
					<path fill="#43372B" d="M-2185.8,8466.7c-3.3,0.1-6.6-0.8-9.4-2.4c-5.4-3.4-9.3-8.7-10.8-14.9c-1.1-3.6-1.6-7.4-1.6-11.1
						c0-2.4,0.3-4.9,0.9-7.2c0.5-2.2,1.4-4.2,2.8-6c1.2-1.5,3-2.4,4.9-2.4c1.2,0,2.2,0.6,2.7,1.7c0.7,1.4,1.2,2.9,1.4,4.4
						c0.3,1.9,0.5,3.8,0.8,5.8c0.2,4.3,1.1,8.6,2.7,12.6c1.3,2.6,2.8,3.9,4.6,3.9c1.9,0,3.8-1.7,5.9-5.1c2.3-4.1,4.1-8.4,5.3-12.9
						c2-6.5,3-13.3,3.1-20.1c0-3.1-0.4-6.2-1.3-9.2c-0.6-2.8-3-4.9-5.9-5l-7.9-0.8c-4.9-0.4-7.4-1.4-7.4-3c0-3.2,6.1-4.8,18.3-4.8
						h1.7c6.4,0.1,10.7,3.9,13.1,11.6c1.7,6,2.5,12.1,2.4,18.3c0,15.6-2.5,27.6-7.6,36c-5.1,8.4-11.3,12-18.9,10.9L-2185.8,8466.7z"
						/>
				</g>
			</g>
		</g>
	</g>
</g>
<g>
	<g>
		<g>
			<g>
				<g>
					<g>
						
							<rect x="2001.1" y="391.1" transform="matrix(0.8152 -0.5792 0.5792 0.8152 117.4659 1239.6984)" fill="#9B9B9B" width="0.7" height="89.4"/>
					</g>
				</g>
				<g>
					<g>
						
							<rect x="2001.2" y="391.2" transform="matrix(0.6925 -0.7214 0.7214 0.6925 301.0723 1578.0093)" fill="#9B9B9B" width="0.7" height="89.4"/>
					</g>
				</g>
				<g>
					<g>
						
							<rect x="2001.2" y="391.1" transform="matrix(0.5477 -0.8366 0.8366 0.5477 540.6429 1871.7249)" fill="#9B9B9B" width="0.7" height="89.4"/>
					</g>
				</g>
				<g>
					<g>
						
							<rect x="2001.4" y="391.2" transform="matrix(0.396 -0.9182 0.9182 0.396 808.7397 2101.3291)" fill="#9B9B9B" width="0.7" height="89.4"/>
					</g>
				</g>
			</g>
			<g>
				<g>
					<g>
						
							<rect x="2001.3" y="391.5" transform="matrix(0.2354 -0.9719 0.9719 0.2354 1106.6532 2278.947)" fill="#9B9B9B" width="0.7" height="89.4"/>
					</g>
				</g>
				<g>
					<g>
						
							<rect x="2001.4" y="391.5" transform="matrix(4.926458e-02 -0.9988 0.9988 4.926458e-02 1467.5474 2414.0483)" fill="#9B9B9B" width="0.7" height="89.4"/>
					</g>
				</g>
				<g>
					<g>
						
							<rect x="1957.1" y="435.7" transform="matrix(0.9908 -0.1354 0.1354 0.9908 -40.6115 275.0673)" fill="#9B9B9B" width="89.4" height="0.7"/>
					</g>
				</g>
				<g>
					<g>
						
							<rect x="1957.3" y="435.7" transform="matrix(0.9529 -0.3033 0.3033 0.9529 -37.9499 627.7812)" fill="#9B9B9B" width="89.4" height="0.7"/>
					</g>
				</g>
			</g>
			<g>
				<g>
					<g>
						
							<rect x="1957.7" y="436" transform="matrix(0.1239 -0.9923 0.9923 0.1239 1321.2739 2369.2791)" fill="#9B9B9B" width="89.4" height="0.7"/>
					</g>
				</g>
				<g>
					<g>
						
							<rect x="2002" y="391.8" transform="matrix(0.998 -6.392019e-02 6.392019e-02 0.998 -23.8055 128.8845)" fill="#9B9B9B" width="0.7" height="89.4"/>
					</g>
				</g>
				<g>
					<g>
						
							<rect x="2002.1" y="391.8" transform="matrix(0.9691 -0.2467 0.2467 0.9691 -45.791 507.4081)" fill="#9B9B9B" width="0.7" height="89.4"/>
					</g>
				</g>
				<g>
					<g>
						
							<rect x="2002.1" y="392" transform="matrix(0.9124 -0.4093 0.4093 0.9124 -3.2975 857.8901)" fill="#9B9B9B" width="0.7" height="89.4"/>
					</g>
				</g>
			</g>
			<g>
				<g>
					<g>
						
							<rect x="1957.9" y="436.3" transform="matrix(0.7715 -0.6362 0.6362 0.7715 179.7584 1373.8373)" fill="#9B9B9B" width="89.4" height="0.7"/>
					</g>
				</g>
				<g>
					<g>
						
							<rect x="1957.9" y="436.2" transform="matrix(0.6391 -0.7691 0.7691 0.6391 386.8714 1697.7301)" fill="#9B9B9B" width="89.4" height="0.7"/>
					</g>
				</g>
				<g>
					<g>
						
							<rect x="1957.9" y="436.2" transform="matrix(0.4865 -0.8737 0.8737 0.4865 646.8293 1973.6849)" fill="#9B9B9B" width="89.4" height="0.7"/>
					</g>
				</g>
				<g>
					<g>
						
							<rect x="1958" y="436" transform="matrix(0.3292 -0.9442 0.9442 0.3292 931.2228 2183.6963)" fill="#9B9B9B" width="89.4" height="0.7"/>
					</g>
				</g>
			</g>
			<g>
				<g>
					
						<rect x="1956.7" y="437" transform="matrix(0.8774 -0.4798 0.4798 0.8774 35.4734 1013.5444)" fill="#9B9B9B" width="88.1" height="0.7"/>
				</g>
			</g>
			<g>
				<circle fill="#282828" cx="2002.4" cy="437.6" r="7.4"/>
			</g>
			<g>
				<g>
					<path fill="#282828" d="M2046.6,434.5c-0.2-4-0.8-7.9-2-11.6c-0.1-0.2-0.2-0.5-0.2-0.7c-5.1-15.8-18.6-28.3-36.1-31.2
						c-7-1.2-13.9-0.7-20.2,1.1c-1.7,0.5-3.4,1.1-5,1.8c-0.1,0-0.2,0.1-0.4,0.2c-1.1,0.5-2.2,1-3.3,1.6c-5.1,2.7-9.7,6.2-13.4,10.6
						c-2.4,2.7-4.4,5.7-6.1,8.9c-2.2,4.2-3.8,8.8-4.6,13.7c-2.7,15.9,3.1,31.2,14.1,41.4c4.6,4.2,10,7.6,16.1,9.8
						c2.4,0.8,4.9,1.5,7.5,1.9c2,0.3,4,0.5,6,0.6c2.3,0.1,4.5,0,6.7-0.2c5.6-0.6,10.9-2.2,15.8-4.7c12.6-6.4,22.1-18.4,24.7-33.4
						C2046.6,440.8,2046.8,437.6,2046.6,434.5z M2036.5,458.2c-0.1,0.2-0.3,0.4-0.4,0.6c-1.3,2-2.7,3.9-4.2,5.6
						c-0.2,0.2-0.3,0.4-0.5,0.5c-1.6,1.7-3.4,3.3-5.3,4.8c-0.2,0.2-0.4,0.3-0.6,0.5c-1.7,1.3-3.6,2.4-5.5,3.4
						c-0.1,0.1-0.3,0.1-0.4,0.2c-0.2,0.1-0.4,0.2-0.7,0.3c-1.9,0.9-3.9,1.7-5.9,2.3c-0.2,0.1-0.5,0.1-0.7,0.2
						c-2.2,0.7-4.5,1.1-6.9,1.4c-0.2,0-0.5,0.1-0.8,0.1c-2.3,0.2-4.7,0.3-7.1,0.1c-0.2,0-0.5,0-0.7-0.1c-1.1-0.1-2.1-0.2-3.2-0.4
						c-1.6-0.3-3.1-0.6-4.6-1.1c-0.2-0.1-0.5-0.1-0.7-0.2c-0.3-0.1-0.5-0.2-0.8-0.2c-1.8-0.6-3.6-1.3-5.4-2.2
						c-0.2-0.1-0.5-0.2-0.7-0.3c-2.1-1.1-4.1-2.4-6-3.8c-0.2-0.1-0.4-0.3-0.6-0.4c-1.6-1.2-3.1-2.6-4.4-4c-0.3-0.3-0.6-0.7-1-1
						c-0.2-0.2-0.3-0.4-0.5-0.6c-1.7-1.9-3.2-4-4.5-6.2c-0.1-0.2-0.3-0.4-0.4-0.7c-1.3-2.3-2.4-4.8-3.3-7.4
						c-0.1-0.2-0.2-0.5-0.2-0.7c-0.7-2.1-1.2-4.3-1.5-6.5c0-0.2-0.1-0.5-0.1-0.7c-0.3-2.3-0.4-4.7-0.3-7.2c0-0.2,0-0.5,0.1-0.8
						c0.1-1.4,0.2-2.9,0.5-4.3c0.2-1,0.4-2,0.6-3c0.1-0.2,0.1-0.5,0.2-0.7c0.3-1.3,0.7-2.5,1.2-3.7c0.3-0.9,0.7-1.8,1.1-2.7
						c0.1-0.2,0.2-0.5,0.3-0.7c0.9-2,2-3.9,3.3-5.8c0.1-0.2,0.3-0.4,0.4-0.6c0.7-1,1.5-2,2.2-2.9c0.7-0.9,1.5-1.7,2.3-2.5
						c0.2-0.2,0.4-0.4,0.5-0.5c1.7-1.7,3.6-3.2,5.5-4.5c0.2-0.1,0.4-0.3,0.6-0.4c0.9-0.6,1.9-1.2,2.8-1.7c1.2-0.7,2.4-1.2,3.6-1.8
						c0.2-0.1,0.4-0.2,0.6-0.3c0.2-0.1,0.5-0.2,0.7-0.3c1.3-0.5,2.6-1,3.9-1.3c0.8-0.2,1.6-0.4,2.4-0.6c0.2,0,0.5-0.1,0.7-0.2
						c2.3-0.5,4.6-0.7,7-0.8c0.2,0,0.5,0,0.8,0c2.3,0,4.7,0.1,7.1,0.5c0.1,0,0.3,0,0.4,0.1c0.1,0,0.2,0,0.3,0.1
						c2.8,0.5,5.4,1.2,8,2.2c0.2,0.1,0.5,0.2,0.7,0.3c2,0.8,3.9,1.8,5.7,2.9c0.2,0.1,0.4,0.3,0.6,0.4c2,1.2,3.8,2.6,5.5,4.2
						c0.2,0.2,0.4,0.3,0.6,0.5c1.7,1.6,3.3,3.2,4.7,5.1c0.2,0.2,0.3,0.4,0.5,0.6c1.3,1.8,2.5,3.7,3.6,5.6c0.1,0.2,0.2,0.4,0.3,0.7
						c1,1.9,1.8,3.9,2.5,6c0.1,0.2,0.1,0.5,0.2,0.7c0.6,2,1.1,4,1.4,6.1c0,0.2,0.1,0.5,0.1,0.7c0.3,2.2,0.4,4.5,0.3,6.9
						c0,0.2,0,0.5,0,0.8c-0.1,1.6-0.2,3.2-0.5,4.8c-0.1,0.7-0.2,1.4-0.4,2.1c0,0.2-0.1,0.5-0.2,0.7c-0.5,1.9-1.1,3.8-1.8,5.7
						c-0.1,0.2-0.2,0.5-0.3,0.7C2038.5,454.5,2037.6,456.4,2036.5,458.2z"/>
				</g>
			</g>
		</g>
		<g>
			<path fill="#E16241" d="M1959.7,409.8c12.5-14.5,31.2-21.4,48.5-17.7c17.2,3.7,27.9,16.8,31.2,22.4c3.2,5.5,4.6,11.1,4.6,11.1
				c0.9,3.6,1.1,6.7,1.1,9c2.2-0.1,4.4-0.2,6.6-0.3c0.4-4.1,0.4-10.6-2-17.9c-5.6-16.9-19.9-24.7-24.2-27c-4.4-2.4-18-9.1-35.5-6
				c-21.6,3.8-33.4,19.6-35.9,23.1C1956,407.5,1957.9,408.6,1959.7,409.8z"/>
		</g>
	</g>
	<g>
		<g>
			<path fill="#EDAC29" d="M1772.7,354.1c1.7-5.4,1.4-7.5,2.1-9.6c2.7-7.9,19.2-9.5,22.2-9.7c54.6-4.6,66.2-4.4,66.2-4.4
				s45.1,1.1,88.5,10.7c2.6,0.6,10.5,2.4,15.1,9c0.6,0.9,4.8,6.8,2.4,10.1c-1.6,2.2-5.9,2.8-7.6,1.1c-2.2-2.1,0.9-6.1-0.4-9.9
				c-2.3-6.7-16.9-7.4-19.4-7.5c-31.7-1.5-12-6.3-68.1-8.3c-55.2-2-33.8,4-68.5,2.8c-4.9-0.2-19.7-0.8-23.8,6.7
				c-2.8,5.2,0.7,11.9-3.7,15.6c-2.3,1.9-6,2.4-7,1.1C1769.9,360.7,1771.3,358.7,1772.7,354.1z"/>
		</g>
		<g>
			<path fill="#ED9437" d="M1754.6,340.3c21.7-17.8,61.4-45.4,117.9-61.1c49.4-13.7,91.9-12.7,118.5-10c-22.8,17-59.7,40.4-110,55.9
				C1828.7,341.1,1783.4,342,1754.6,340.3z"/>
		</g>
		<g>
			<path fill="#A38062" d="M1751.1,328.2c24.5-13.7,68.4-34,126.8-39.5c51-4.8,92.7,3.6,118.4,10.9c-25.4,12.8-65.9,29.4-118.1,35.8
				C1824,342,1779.2,334.9,1751.1,328.2z"/>
		</g>
		<g>
			<path fill="#43372B" d="M1650.1,523c-3.8,7.6,7.4,19.6,8.8,21.2c8.5,9.2,21,12.7,31.9,11.1c10.2-1.5,23.3-8.1,23.3-15.7
				c0-1.6-0.6-5.2-8.5-10.6C1686.6,515.6,1655.3,512.5,1650.1,523z"/>
		</g>
		<g>
			<path fill="#43372B" d="M1809,527.8c-5.6,22,18.8,42.2,21,44c3.9,3.1,9.6,7.6,18.3,8.7c9.8,1.3,17.4-2.5,19.7-3.8
				c8.2-4.5,12-11.3,15.2-17.1c1.6-2.8,7-13.3,7.4-28.3c0.3-10.4,0.5-21.2-7.2-30.4c-10.5-12.6-27-12-27.8-12
				c-12.1,0.6-19.9,7.9-30.4,17.8C1815.7,515.6,1811,520.1,1809,527.8z"/>
		</g>
		<g>
			<path fill="#43372B" d="M1968.2,475.1c-1.4,7-7.1,35.5,8.4,55.6c4.3,5.6,8,7.7,10.9,8.8c9.7,3.6,18.7-1.3,19.7-1.8
				c7.8-4.4,10.5-11.9,13.4-20c2.1-5.8,6.3-18,2.7-33.2c-1.6-7-4.6-19.5-16.2-26.9c-8.1-5.1-21.7-8.4-30.4-1.9
				C1971.4,459.6,1970.2,465.3,1968.2,475.1z"/>
		</g>
		<g>
			<path fill="#EFC928" d="M1646.5,457.4c4-6.4,9.9-9.3,21.7-14.9c4.6-2.2,9.2-4.1,32.8-11.1c20.6-6.1,26.6-7.5,32.3-13.9
				c2.9-3.2,3.8-5.5,7.6-14.6c11-26,16.7-39.1,21.6-43.7c5.4-5.1,14.7-7,33.2-10.7c5.8-1.2,20-3.8,53.1-5.5
				c17.4-0.9,26.1-1.3,35.6-1c25.3,0.8,41.6,4.6,62,9.5c21.6,5.2,30.4,9.3,34.8,17.4c1,1.8,1.1,2.6,4.4,14.1
				c4.1,14.4,6.2,21.6,7.6,25.7c7.9,23.1,18.8,40.3,18.8,40.3c4.5,7,8.2,11.7,6.4,14.7c-2.3,3.9-10.5-1-19.7,2.7
				c-11.5,4.6-16.2,19.3-19.9,31.1c-2.9,9.3-3.8,17.3-4.1,22.4c-28,5.1-56.1,10.2-84.1,15.3c0.3-3.8,0.8-15.2-6.6-26
				c-2.2-3.2-9.1-13.3-19.9-14.3c-12.4-1.1-21.9,10.4-28,17.8c-13,15.7-16.4,33.6-17.4,44.5c-30.5-0.6-56.8-2.5-77.8-4.6
				c-68.7-6.8-38.6-11.2-75-15.7c-4.2-0.5-16.4-1.9-20.3-9.8c-1.4-2.8-2.5-8.2-0.9-13.3c1.1-3.3,2.5-3.8,3.3-6.6
				c1.5-5.5-2.2-10.3-4-13.9C1637.9,481.8,1641.1,466,1646.5,457.4z"/>
		</g>
		<g>
			<path fill="#E16241" d="M1766.6,474.4c2.3-6.5,9.2-8.9,11.1-9.5c1.3-0.4,10.8-3.4,17.9,2.6c6.4,5.4,7.9,15.8,3.7,21.3
				c-2.3,3-5.9,3.9-10.4,5c-4.3,1.1-8.4,2.1-12.5,0.5C1769.4,491.6,1763.8,482.2,1766.6,474.4z"/>
		</g>
		<g>
			<path fill="#E16241" d="M1646.7,454.6c2.6-2.5,7.5-1.8,10.5-0.4c7.4,3.5,7.5,13.7,7.5,14.7c0,1.9,0,5.7-2.7,8.9
				c-2.9,3.5-8.5,5.9-11.8,4c-1.1-0.6-2.1-1.8-3.6-12.9C1645,457.1,1645.7,455.6,1646.7,454.6z"/>
		</g>
		<g>
			<path fill="#E6DCC1" d="M1649,455c-3.9,0.4-7.1,8-6.6,14.2c0.5,6.2,4.8,13.4,9.3,13.1c3.7-0.3,6.4-5.6,7.1-9.7
				C1660.2,464.1,1653.7,454.5,1649,455z"/>
		</g>
		<g>
			<path fill="#E6DCC1" d="M1768.6,470.7c-4.8,4.8-4.7,13.6-0.1,18.9c3.7,4.2,10.6,6.7,16.4,3.6c6-3.3,7.6-10.8,5.7-16.5
				c-1.6-4.6-5.7-8.5-10.9-9.3C1779.1,467.4,1772.9,466.5,1768.6,470.7z"/>
		</g>
		<g>
			<path fill="#E6DCC1" d="M1786,513.6c2.7-1,6.9,2.4,7.5,6.3c0.4,2.5-0.6,6-3.1,6.8c-2.7,0.8-5.5-1.8-6.6-4.3
				C1782.4,519.2,1783.5,514.5,1786,513.6z"/>
		</g>
		<g>
			<path fill="#E6DCC1" d="M1651.7,498.6c2-0.6,5.5,2.6,5.5,5.9c0,1.7-0.8,3.9-2.4,4.3c-2,0.5-4.4-2-5-4.5
				C1649.4,502,1650.1,499.1,1651.7,498.6z"/>
		</g>
		<g>
			<path fill="#E16241" d="M1661.1,519.4c-7-9.5,0.9-25.7,2.3-28.2c1.6-3.1,5.6-10.9,13.7-13.5c4-1.3,7.5-0.8,9.4-0.5
				c16.6,2.3,60.5,6.8,62.3,6.9c1.8,0.2,5,0.5,8.8,2.1c2.1,0.9,8.6,4,14.6,13.7c7,11.1,13.1,30.6,6.1,36.2c-2.7,2.2-5.8,1-17.6-0.9
				c-9.4-1.6-19-2.2-28.4-3.5c-7.9-1.1-19.4-2.5-42.3-5.2C1668.4,523.9,1664.2,523.6,1661.1,519.4z"/>
		</g>
		<g>
			<path fill="#E6DCC1" d="M1849.4,516.8c-10.1,6.3-9.5,20.9-9.3,25.3c0.2,4.3,0.9,20.1,11.1,23.9c6.3,2.3,13.6-1,17.6-4.8
				c7.6-7,6.5-17.8,5.9-24.6c-0.7-6.9-1.7-17.5-9.6-21.3C1859.8,512.8,1853.4,514.3,1849.4,516.8z"/>
		</g>
		<g>
			<path fill="#E6DCC1" d="M2003.1,481.4c-6.1-0.5-10.8,7.7-12.2,10.2c-5,8.6-7.1,22.9,0.5,30.2c0.4,0.4,5.6,5.2,11.2,3.9
				c6.3-1.5,8.7-9.8,10.2-15.1c1.1-3.9,3.3-11.2,0-19C2011.9,489.5,2008.7,481.9,2003.1,481.4z"/>
		</g>
		<g>
			<path fill="#99D7CA" d="M1742.8,414.1c8.4-16.8,16.8-33.6,25.2-50.5c12.9-4.3,34.2-9.6,60.7-8.3c27,1.3,48,8.9,60.5,14.5
				c-0.1,8.8-0.9,16.2-1.8,21.9c-1.4,9.1-3.3,16-5,22.3c-1.8,6.5-3.6,11.9-5,16c-5.2-1.9-13.2-4.7-23.1-7.1
				c-18.3-4.5-31.6-5.1-62.3-6.5C1781.1,415.9,1761.4,415,1742.8,414.1z"/>
		</g>
		<g>
			<path fill="#81C1B2" d="M1761.9,404.6c-1.3-3.3,19.1-16.2,41.2-23.7c4.4-1.5,18.7-3.8,47.3-8.4c18.8-3,25.2-3.9,28.2,0
				c4.4,5.7-1.1,17.9-5.3,27.1c-3.9,8.5-5.9,12.8-9.2,14.9c-11,7-21.9-8.2-51.9-10.7c-5.8-0.5-17.5-0.9-31.3,0
				C1767.9,404.7,1762.5,406.1,1761.9,404.6z"/>
		</g>
		<g>
			<path fill="#99D7CA" d="M1894,430c0.2-12.7,1.8-27.7,6.5-43.8c1.2-4.1,2.5-8,3.8-11.7c12.9-0.6,25.9-1.2,38.8-1.8
				c2.4,17,4.8,34,7.2,50.9C1931.5,425.8,1912.7,427.9,1894,430z"/>
		</g>
		<g>
			<path fill="#81C1B2" d="M1913,381.3c-6.1,8.6,5,22.4,7.3,25.2c6.5,8.1,17.5,15.1,21.4,12.2c2.4-1.8,0.1-5.8-0.8-21.4
				c-0.7-11.6,0.3-13.7-1.9-16.4C1933.7,374.4,1918.3,373.8,1913,381.3z"/>
		</g>
		<g>
			<path fill="#99D7CA" d="M1951.3,372.7c3.4,17.1,6.8,34.2,10.3,51.2c3.4,0.6,8.7,1,14.9-0.2c5.1-1,9.1-2.8,11.8-4.3
				c-0.6-6.4-1.9-14.4-4.9-23.4c-2.8-8.6-6.3-15.6-9.5-20.9c-2.1-1.1-5.3-2.6-9.5-3.2C1958.7,371,1954,372,1951.3,372.7z"/>
		</g>
		<g>
			<path fill="#81C1B2" d="M1958,384.7c-2.3,9.2,7.8,21.3,9.8,23.7c5.9,7.1,14.5,12.4,16.6,9.1c1.2-2.1-1.1-5.7-4.7-20.8
				c-2.7-11.3-2.5-13.4-4.5-15.8C1970.3,375.3,1960,376.7,1958,384.7z"/>
		</g>
		<g>
			<path fill="#EDAC29" d="M1896.2,439.2c7.6-7.3,19.1,4,41.3-3.9c4.6-1.7,10.3-4.3,13.4-1.8c2.6,2.2,1.6,6.6,1.6,13.5
				c0,3,1.1,9.1,3.3,21.2c5.2,29,13.8,41.3,8.2,46.9c-2.3,2.3-5.5,2-9.4,2c-31.9,0-45.4,15.9-54.3,9c-6.2-4.8-0.6-13.3-1.6-39.6
				C1897.5,456.3,1889.3,445.8,1896.2,439.2z"/>
		</g>
		<g opacity="0.5">
			<path fill="#FFFFFF" d="M1930.2,445.3c-0.1-0.5,10.2-6,15.4-1.6c2,1.7,3.5,5.1,2.4,6.5c-0.6,0.7-1.9,1-2.8,0.6
				c-1.7-0.7-1.4-2.9-2.6-4.5C1939.6,442.5,1930.3,445.8,1930.2,445.3z"/>
		</g>
		<g>
			<g>
				
					<rect x="1831" y="214.3" transform="matrix(0.9716 -0.2368 0.2368 0.9716 -1.3389 440.6411)" fill="#43372B" width="5.1" height="23.2"/>
			</g>
			<g>
				
					<rect x="1857.8" y="207.8" transform="matrix(0.9716 -0.2368 0.2368 0.9716 0.9733 446.8094)" fill="#43372B" width="5.1" height="23.2"/>
			</g>
			<g>
				<path fill="#43372B" d="M1860.2,207.8l-0.1-0.5c-0.3-1.2-1.5-2-2.8-1.7l-27.4,6.7c-1.2,0.3-2,1.5-1.7,2.8l0.1,0.5
					c0.3,1.2,1.5,2,2.8,1.7l27.4-6.7C1859.8,210.2,1860.5,209,1860.2,207.8z"/>
			</g>
		</g>
		<g>
			<path fill="#547F41" d="M1895.2,317.9l-47.1,11.5c-6,1.5-12.1-2.2-13.6-8.3l-16.6-67.9c-1.5-6,2.2-12.1,8.3-13.6l47.1-11.5
				c6-1.5,12.1,2.2,13.6,8.3l16.6,67.9C1904.9,310.4,1901.2,316.5,1895.2,317.9z"/>
		</g>
		<g opacity="0.29">
			<path fill="#FFFFFF" d="M1897.1,317.1c-14.4,3.5-28.8,7-43.2,10.5c12.3-13.8,12.9-21.2,11.1-25.5c-3.5-8.4-17.4-7.2-22.8-19.3
				c-0.6-1.4-3.1-6.8-1.4-12.6c2.7-9.2,13.8-9.1,21.8-18.2c3.7-4.2,7.5-11.2,7.9-23.4c2.7-0.7,7.5-1.5,11.4,0.9
				c3.6,2.3,4.8,6.3,5.4,8.2c7.9,25.8,9.8,39.1,16.6,68.1c0.2,0.8,0.7,3.5-0.7,6.4C1901.3,316,1897.7,317,1897.1,317.1z"/>
		</g>
		<g>
			<g>
				
					<rect x="1903.1" y="217.2" transform="matrix(0.9894 0.1451 -0.1451 0.9894 53.3384 -274.0192)" fill="#43372B" width="5.1" height="23.2"/>
			</g>
			<g>
				
					<rect x="1930.5" y="221.2" transform="matrix(0.9894 0.1451 -0.1451 0.9894 54.2086 -277.9407)" fill="#43372B" width="5.1" height="23.2"/>
			</g>
			<g>
				<path fill="#43372B" d="M1937.2,221.9l0.1-0.5c0.2-1.3-0.7-2.4-1.9-2.6l-27.9-4.1c-1.3-0.2-2.4,0.7-2.6,1.9l-0.1,0.5
					c-0.2,1.3,0.7,2.4,1.9,2.6l27.9,4.1C1935.9,224.1,1937,223.2,1937.2,221.9z"/>
			</g>
		</g>
		<g>
			<path fill="#48CCCC" d="M1928.3,337.2l-48-7c-6.1-0.9-10.4-6.6-9.5-12.8l10.1-69.2c0.9-6.1,6.6-10.4,12.8-9.5l48,7
				c6.1,0.9,10.4,6.6,9.5,12.8l-10.1,69.2C1940.1,333.8,1934.4,338.1,1928.3,337.2z"/>
		</g>
		<g opacity="0.3">
			<path fill="#FFFFFF" d="M1930.4,337.2c-14.7-2.2-29.3-4.3-44-6.5c16.5-8.2,19.9-14.9,19.9-19.4c0-9.1-13.4-13.2-13.9-26.4
				c-0.1-1.6-0.3-7.5,3.4-12.2c6-7.6,16.2-3.2,27.1-8.7c5-2.5,11.2-7.5,16.1-18.7c2.8,0.3,7.5,1.4,10.2,5.1c2.5,3.5,2.1,7.7,2,9.6
				c-2.4,26.9-5.6,39.9-10.2,69.4c-0.1,0.8-0.6,3.5-3.1,5.6C1934.7,337.7,1930.9,337.3,1930.4,337.2z"/>
		</g>
		<g>
			<path fill="#E16241" d="M1873.6,331.3l-51.5,3.4c-5.5,0.4-10.4-3.9-10.7-9.4l-2.1-31.8c-0.4-5.5,3.9-10.4,9.4-10.7l51.5-3.4
				c5.5-0.4,10.4,3.9,10.7,9.4l2.1,31.8C1883.4,326.1,1879.1,331,1873.6,331.3z"/>
		</g>
		<g>
			<path fill="#E6DCC1" d="M1810.2,308.8l71.7-4.7l-1-15.3c-0.4-5.5-5.2-9.8-10.7-9.4l-51.5,3.4c-5.5,0.4-9.8,5.2-9.4,10.7
				L1810.2,308.8z"/>
		</g>
		<g>
			<path fill="#43372B" d="M1852,310.3l-11.4,0.7c-1.7,0.1-3.2-1.2-3.4-2.9l-0.1-1.1c-0.1-1.7,1.2-3.2,2.9-3.4l11.4-0.7
				c1.7-0.1,3.2,1.2,3.4,2.9l0.1,1.1C1855.1,308.7,1853.8,310.2,1852,310.3z"/>
		</g>
		<g>
			<g>
				<path fill="#FAAF40" d="M1790.4,339.3l12.5-26.1l12.6-26c4.2-8.7,8.2-17.4,12.7-26c2.2-4.3,4.4-8.6,6.7-12.8l3.5-6.4
					c1.2-2.1,2.4-4.2,3.6-6.3l0.2,0.1c-0.9,2.2-1.9,4.4-2.8,6.7l-3,6.6c-2,4.4-4.1,8.7-6.1,13.1c-4.2,8.7-8.7,17.2-13.1,25.8
					l-13.2,25.7l-13.3,25.7L1790.4,339.3z"/>
			</g>
			<g>
				<path fill="#FAAF40" d="M1869.3,335.8l-3.9-25.8l-3.8-25.8c-1.3-8.6-2.7-17.2-3.7-25.8c-0.5-4.3-1-8.6-1.4-13l-0.6-6.5
					c-0.2-2.2-0.3-4.3-0.5-6.5l0.2,0c0.5,2.1,0.8,4.3,1.3,6.4l1.1,6.4c0.8,4.3,1.4,8.6,2.1,12.9c1.3,8.6,2.2,17.3,3.2,25.9l3.1,25.9
					l3,25.9L1869.3,335.8z"/>
			</g>
			<g>
				<path fill="#FAAF40" d="M1905,338l-8.8-27.4l-8.7-27.4c-2.9-9.1-5.9-18.2-8.6-27.4c-1.3-4.6-2.6-9.2-3.8-13.9l-1.8-7
					c-0.6-2.3-1.2-4.7-1.7-7l0.2-0.1c0.9,2.2,1.6,4.5,2.5,6.8l2.4,6.8c1.6,4.5,3,9.1,4.5,13.7c2.9,9.1,5.5,18.4,8.1,27.6l8,27.6
					l7.9,27.6L1905,338z"/>
			</g>
			<g>
				<path fill="#FAAF40" d="M1912.8,338l-1.1-24.2l-1-24.2c-0.3-8.1-0.8-16.2-0.9-24.2c0-4-0.1-8.1,0-12.1l0.1-6.1
					c0.1-2,0.1-4,0.2-6.1l0.2,0c0.2,2,0.4,4,0.6,6.1l0.4,6.1c0.3,4,0.5,8.1,0.7,12.1c0.4,8.1,0.3,16.2,0.4,24.3l0.3,24.3l0.2,24.3
					L1912.8,338z"/>
			</g>
			<g>
				<path fill="#FAAF40" d="M1947,344.3l-1.1-24.7l-1-24.7c-0.3-8.2-0.8-16.4-0.9-24.7c0-4.1-0.1-8.2,0-12.4l0.1-6.2
					c0.1-2.1,0.1-4.1,0.2-6.2l0.2,0c0.2,2.1,0.4,4.1,0.6,6.2l0.4,6.2c0.3,4.1,0.5,8.2,0.7,12.3c0.4,8.2,0.3,16.5,0.4,24.7l0.3,24.7
					l0.2,24.7L1947,344.3z"/>
			</g>
		</g>
	</g>
</g>
</svg>
