<svg xmlns="http://www.w3.org/2000/svg" xmlns:xlink="http://www.w3.org/1999/xlink" viewBox="0 0 1416.39 731.62"><defs><style>.cls-1{isolation:isolate;}.cls-2{fill:#e8e8e8;opacity:0.5;}.cls-10,.cls-3,.cls-6,.cls-8{mix-blend-mode:multiply;}.cls-3{fill:url(#radial-gradient);}.cls-4{fill:#fff;}.cls-5{fill:#e16241;}.cls-6{fill:url(#radial-gradient-2);}.cls-7{fill:#efc928;}.cls-8{fill:url(#radial-gradient-3);}.cls-9{fill:#547f41;}.cls-10{fill:url(#radial-gradient-4);}.cls-11{fill:#48cccc;}</style><radialGradient id="radial-gradient" cx="225.83" cy="349.25" r="127.07" gradientUnits="userSpaceOnUse"><stop offset="0.68" stop-color="#acc2d4"/><stop offset="0.72" stop-color="#bbcddc"/><stop offset="0.84" stop-color="#e0e8ef"/><stop offset="0.94" stop-color="#f7f9fb"/><stop offset="1" stop-color="#fff"/></radialGradient><radialGradient id="radial-gradient-2" cx="545.99" cy="349.25" r="127.07" xlink:href="#radial-gradient"/><radialGradient id="radial-gradient-3" cx="866.15" cy="349.25" r="127.07" xlink:href="#radial-gradient"/><radialGradient id="radial-gradient-4" cx="1186.31" cy="349.25" r="127.07" xlink:href="#radial-gradient"/></defs><g class="cls-1"><g id="Layer_1" data-name="Layer 1"><path class="cls-2" d="M161.05,162c2.61,0,2.93.94,5.16,0s8.83-5.29,11.06-5.89,3.66.2.37,2-9.89,5.79-8.71,5.49a83.19,83.19,0,0,0,9.25-4c4.73-2.22,4.3-1.23,5.52-3.61l1.86-3.61s7.49,7.67,8.18,8,1-.05,1.33-1,1.17-2.28,2.24-1.83.15,2.27.79,2.52,1.7,0,3.67-.69.95-2.08.95-2.08-.21,0,2.08-.25,9.46,2.43,11.58,3.27,8.56,1.53,10.37,2.12,2.49-1,5,.3,4.36,3.12,2.49,4.06-6.53,1.63-4.14,2.23a36.8,36.8,0,0,0,9.46,1.24c3.45-.11,9.67-1.39,11.58-1.39s3.08,1.19,4.89,4.21,3.24,4.2,3.93,4.45-.69-1.43-.32-2.92-.37-4.41-.79-5.39,0-1.49-.85-2.93-2.23-1.18.32-2.42,4.3-3.06,7.39-2.67,3.93,4.31,6.59,4.6,3.14,1.33,7.7,1.68,2.66.06,7.76.4,3.25-.55,4.31-3.17,2.23-3.12,3.45-3,5.52.7,5.52,1.24-1.8,3.36-.9,4.75,4.58,3.66,4.58,3.66-.8-3.16-.8-3.51-.26-2.82.27-3.27,3.56.25,5.47-3.46-1.28-3.52-1.28-3.52-1.17.06-.58-1.48,4-2.47,4-2.47.22.69-.21-.55-2.65-1-5.05-1.14-4-.49-4.46-2.52a58.22,58.22,0,0,1-.59-9.21c0-2.92,2.34-1.88,2.77-3.51s-.11-9.6-.69-11.24.84-5.15,1.17-7.47,2.71-1.29,2.71-1.29c-.43-.79.68-3,3.88-4s9.25,0,9.25,0-.54,0-2,2-.53,5.35-2.77,7.77-7.92,1.64-7.92,1.64,1.76,4,1,5.29a15.76,15.76,0,0,0-1.22,3.92s5,1.38,5.26,4.55,2.76,3.71,3.35,6.63-2.44,5.34-1.81,5.79.85.64,2.66.74,4.25.44,4.25.44a3,3,0,0,0-.1,3.07c.9,1.59.21,2.58.31,4.26s1.12,3.12,1.54,2.82,2.4-4.6,2.82-6.53.75-3,1.59-3,3.73,2.63,4,3.57.54,2.22-1.06,4.79-1.43,3.77-.05,4.76,1.44.69,3.93,1.88,2,1.08,3.56.64-.64-4.36-.48-4.45,3.67-.5,2.88-2.48-1.6-3,.05-4,2.81-1.78,2.81-1.78a19.27,19.27,0,0,1-2.07-4.65c-1.16-3.32,1-2.42,5.59-2.08s4.77,1.93,7.22,3.17.91,1.68,1.7,3.66-2,2.28-2,2.28-1.86.34-1.43,1.87a27.59,27.59,0,0,0,2.6,5.75c1.33,2.38-.37,4-2.44,5.94a10,10,0,0,1-7,2.52c-2.45.05-3.51,1-3.67.35s-1.33-1.34-2.66-1-4.36,1.48-3.3,1.88,3.88.3,2.72,2.47-2.19,2.18-4.52,1.93-4.52-.24-6-.35l-8.83-.54a50.6,50.6,0,0,0,8.89,4.26,19.1,19.1,0,0,0,8.08.49s-1.6,3-3.52,6.14-3.72,1.78-5.31,2-2.55,1.49-5.52,1.88-9.2-.84-8.25-.39,1.39,1.23,3.09,1.48a7.3,7.3,0,0,1,4.25,1.78c1.49,1.24-1,1.54-2.92,1.88s-2.5.7-3.4,1.93-4.26,6-5.32,7.53a16.18,16.18,0,0,0-2.44,6.87c-.43,2.93-2.93,6.44-1.81,7.18s5.31.84,7.07,1.93,3.72,6.44,5,8.46,2.4,3.57,3.88,2,4.42-1.19,7.18-.2,8.4,4.9,10.16,6.63,4.83,1.44,8.28,1.93,3.85,1.79,3.85,1.79,3.59.19,2.11,1.72-1.92,0-.43,2.63a11.61,11.61,0,0,1,1,7.77c-.43,1.73,4.76.86,6.95,2.14s2.3,6.52,3.42,5.88,3-1.79,3.18-3.17a26.88,26.88,0,0,0-.26-5.6c-.22-2.37-.8-6.73-2-8.46s2.11-2.42,1.58-3.17-.41-2.22,1.82-2.82,2.4,0,3.62-1,1.43-5.34,1.64-6.93a17.23,17.23,0,0,0-.9-6.28,41,41,0,0,0-3.5-6.29c-.81-.89-1.81-1.14.37-3.91s.9-2.17.58-3-.79-2.92-1.22-4.8.9-4,.1-6.63-1.64-2.08-1.48-2.67,5.2-.45,8.93-.05,5.2-.4,6.26-.4,3,1,5.06,2.38,2.87,1,3.93,2.62,1.65,2.53,3.82,2.43a11.57,11.57,0,0,1,4.53.94s-1.55.89-1.28,3.81-.32,5-.27,6.23.64,1.24,1.64,1.39,3.73,2.57,6.54,3.56,3.56.69,4.47-1.58,1.12-2.08,2.23-2.23,1.49.25,2-.24-.85-1.49-.54-3.07a11.06,11.06,0,0,1,3.14-4.85c1.28-1.19,2.18,1.19,3.3,3.36s5,9.26,6.11,11.58,2.55,2.48,1.22,4.66-2,3.11.11,4.1,3.93,2.73,3.78,4.36-.59,1.68.1,2.13,3.19-.89,5-.1,4,1.54,5.26,2.82,1.17,1.73-.64,2.37a32.52,32.52,0,0,0-4.52,1.83c-.91.55-2.34,1.59-2.29,2.43s-.37,2.23,1.07,1.14a19,19,0,0,1,5.47-2.67c1.7-.49.43-.06,2-.25s3,.74,5.16,1.33,1.54,1.93,1,3.17-1,2.42-.16,3.82-.36,2.62-2.23,4.3-3.24,1.93-6.27,2.33-4.47,2.22-6.59,4.2-3.19,1.48-6.27,1.63-1.86-1.53-2.81-1.18-2.18,1.38-4.15,1.59-8.62.29-11.17,1-1.75,2.48-2.39,3.91-1.65.84-3.56,1.49-4.2,3.46-6.43,7.32a24,24,0,0,1-5.26,6.24,16.53,16.53,0,0,0,5.31-4c1.55-1.87,8-6.33,9.94-7.71s6.22-3.42,7.23-3.12,3.51,2.23,3.51,3.22-.74,1.78-2.55,3.46-4.2,0-4,.69a4.63,4.63,0,0,0,2.82,2.62c1.38.35,1.32,2,1.32,2.88s-.79,1.93,2.39,4.6,5.43,2.87,7.77,2.72,1.11.79,2.07.7,1.17-1.93,1.48-3.42a6.15,6.15,0,0,1,1.71-3.51c.85-.65,1.48-1.84,1.75.44s-.95,5.4-2.18,6.09-.95,1.58-.95,2.27-1.39.75-4.68,2.58-4.36,2.27-4.94,2-1.81.3-3.4,1.73-3.3,3.37-4.46,3.31-2.19-.54-.59-2.17,2.13-3.91,3.72-4.7a6.4,6.4,0,0,1,3.67-.7c1.32,0,.69-.79,1.75-1.58s-.8-.55-2.61-.84-.42-1.88-.42-1.88L416,296a23.33,23.33,0,0,1-3.56,1.58c-.73.1-.58.59-.79.89s-2.87.5-2.87.5-1.38,2.82-3.46,3.21-.63.25-2.12.89-1.22-.74-1.54-.35a9.83,9.83,0,0,1-2.23,2c-1.65,1.24-2.61,1.63-3.78,6.14s.21,6.13.16,6.83-2.07-.45-2.65.09-1.92,2.23-3.67,2.73-5.21,1.38-6,2.23-.85,2-1.22,3.75a37.67,37.67,0,0,1-2.45,5.8,2.8,2.8,0,0,0-1-2.83c-1.43-1.18-1.21-2.27-1.21-2.27a7.32,7.32,0,0,0,.21,3.31c.54,1.68,1.59,3.37,1.12,5.2s-1.39,4.11-2.5,4.75.26-1.24.26-2.72-.74-1.58-1.22-2.32-.48-2.63.37-5.16-.8-1-1.75.7-1.64,4.8-.16,6.83-1,1.83,0,4.75-1.22,4.36-.8,4.8,1.6-.19,2.13,1.24-1.06.79-1.59,1.19-.27.94.05,1.73,1,.29.69.55a5.77,5.77,0,0,1-2.39,1.68c-1.38.44-1.49-.25-2.34.74s-1.49,1.88-2.39,3-1.54.75-2.5,1.54-1.33,1.44-2.5,2.43-3.83,2.52-5.26,4.45-1.07,2.43-1.76,5.55,1.76,8.56,3.3,13.71,2.18,3.71,2,5.34a8.82,8.82,0,0,1-2,4.75c-1.11,1.14-1.74-.79-3.28-1.93s-.33-1.93-1.81-4.3a8.29,8.29,0,0,1-1.54-5,22.32,22.32,0,0,0-1.22-6.08c-.8-1.89-2.51-4.26-5.06-3.32s-1.91.5-3.29.1-5-1.88-6.91-.89-7.75-.3-9,0-2.13.4-2.13,1.24-.53,1,1.65,1.58,1.86,1.24,1.71,2.18-1.77-.5-2.62-.84-1.64.69-3.13.69-1.75-1.44-3.09-1.63a11.07,11.07,0,0,1-3.13-.5c-1.27-.5-3-1.33-4.46-1.24s-7.23,3.92-9.94,5.94-4.79,4-5.42,5.64-.7,1.79,1.49,4.21,1.16,2,.74,3.42-1.7,3.07-3.24,6.63-.64,5.3,1.22,8.71a31.44,31.44,0,0,0,5,7.32c1.49,1.44,2.54,3,3.82,3.52a5,5,0,0,1,2.13,1.34c.58.59.42.84,2.45.29s3.5-1.33,4.94-1.33,2.76,0,3.56.79.9.3.9-.1a10.24,10.24,0,0,1,.85-2.28c.21-.39,2.13-3.11,2.44-4.6s.32-4.46,2.19-4.65,5.84-1.14,9.46-.89,2,2,1.06,3.9-1.34,2.08-1.34,3.52.43,1.44-.73,2.28-.43-.5-.91.35a7.6,7.6,0,0,1-2,1.83c.21-.2.74,1.43.74,2.22s-.16,1.19-.16,3.12-3.78,3.91-3.78,3.91a7.49,7.49,0,0,0,3.41.79,15.4,15.4,0,0,1,6.59,1c2.12,1,6.16-.8,9.14.69s1.92,2.37,2.12,3.76a41.86,41.86,0,0,1,.33,7.22c-.22,1.09-1.6,4.16-2.35,6.34s2.13,3.76,4.79,5.54a22.16,22.16,0,0,0,6.38,3c1.37.4,3.93-2.08,8.61-1.78a7.38,7.38,0,0,1,6.27,4.26,20.08,20.08,0,0,1,2.66-5.85c2.13-3.36,2.22-4.35,5.09-5.44s3.84-1.28,8.51-2.77,3.83-.39,6.26-.2a67.83,67.83,0,0,1,13.73,2.38c5.63,1.68,14.24,2.17,17.53,3.56s4.79,5.25,8.19,8.41,7.65,6,9.46,7.53,11.9,2.87,14.14,3.76,5.31,4.55,5.52,6.73,2.45,3.26,5.53,4.55,4,2.78,6.06,6.73,1.38,5.05,4.14,6,21.9,6.14,26.68,8,10.85,6.93,12.44,7.52,4.47-.5,5.74.2-.75,4.45.85,7.13,1.7,2.87.75,4.85-4.79,6.73-6.27,9.1-4.68,3.86-6.49,4.86-3.4,0-1.81,2,.11,3.66-1.27,5.44.11,1.58-.32,7.33,0,12-.64,14.45-4.35-2.18-8.61,3.17-5.42,9.4-8,10-8.5,3.57-10.52,5.44a12.81,12.81,0,0,0-3.73,5.35c-1.27,2.77-2.54,8.41-3.93,11.88s-3.61,5.44-8.71,10.09-7.34,9.41-10.64,13.07-2.44,2.87-3.13,3.56c-1.76,1.77-9-2.85-7.14-.29,1.38,1.88-.78,0,.39,1.78s2,2.47-.53,5.64-5.49,2.54-7.51,3-5-2.08-5.25-.79-1.38,4.48-3,5.27-5.84,2-5.74,2.48c2,9.38,6.14,10.36,1.77,9.93-12-1.17-3.44-4-11.77,13.43-1.27,2.67-2.54,1.29-2.33,4.45s0,5.55,1.7,7.53.53,1.88-2.34,4.55-3.08,2.28-5.74,6.34-5.21,3.86-4.26,6.93,1.18,7.62,2.77,12.17,4.89,3.76,10.1,6.93,5.85,1.48,8.4,2.28-1.81,1-6.39,1.78-7.54,1.68-10.73,1-10.73-5.05-13.28-6.93-6.7-5.25-8.19-8.51-2.55-6.54-4.46-11-.54-7.23.32-17,1.49-17.42,2.87-22.66,5.63-28.61,6.8-34.65,6.59-30.59,7-34.45a93.84,93.84,0,0,1,1.6-10.69c.85-3.86.32-11.68.32-12.07s-.32-.7-1.49-4.36-3.08-5.15-5.74-6.73-5.42-3.56-7.55-5a32.37,32.37,0,0,1-6.8-6.23c-2.13-2.68-4.15-8.12-5.21-10.4a140.12,140.12,0,0,0-8.61-15.34c-3.61-5.34-3.82-5.45-5.63-11.09s1.59-5.74,2.23-8.91,2.76-6.33,5.1-10.78,5.42-5.75,7.23-9.71.43-4-.21-7.82.21-3.26-1-5.34-1.79-4.65-2.86-5.34-2.65-1.2-3.61-.1-2.66,4.25-3.72,4.45-1.49-1-2.13-1.69-3.72-.69-4.36-1.38-2.23-.79-3.29-1.28a48.19,48.19,0,0,1-6.38-3.67,8.47,8.47,0,0,1-2.66-5.94c0-2.57-2.22-3.56-7.22-7.12s-7.13-4.07-13.19-5.55-8.5-5.74-10.52-6.93-1.8-2.47-6.27-2-9.88-2-13.29-3.36-9.46-2.38-12-4.06-7-2.28-8.92-6.34-1.59-2.47-.85-6-4.36-6.54-7.44-9.9-5.42-3.86-7-8-3.93-4-7-6.93-3.19-6.73-4.47-10.1-9.77-8.21-9.77-8.21,2.23,5.64,3.18,7.92A86.35,86.35,0,0,0,241.05,385c2.54,4.06,4.78,5.05,7.12,9.1s.11,6.53-.75,5-4.25-2.29-4.25-4.16-.85-3.07-1.59-4.56-4-3.17-7.23-5.74-5.42-3.76-3.41-3.76,4.9,1.88,4.36.69-4.14-4.85-5.84-7.42-2.24-5.45-3.94-9.8-8-8.52-11.05-8.81-3.93-1.78-5-4.95-1.28-6.53-2.66-9-7.34-10.79-7.44-13.95-1.81-12.38.32-17.53,1.59-16.62,1.27-18.9-4.15-6.63-4.15-8.32,2.24-.69,3.94-.2,5.31,2,5.31,2-2.76-5.14-4.46-6.92-6.7-4.06-8.93-4.56-5.1-1.28-6.27-3.16-2.44-4.36-3.3-5.95-4.47-3.45-5.31-5.14-.64-5-1.81-6.63-2.87-2.68-4.79-2-2.54-1-4-3.47-4.78-3.66-5.74-4-4.25-4.65-4.46-5.74-5.43-6.83-7.13-8-18.17-6.53-18.59-6.53-5.22.69-6.49.3-5.64-4.16-7.86-4.95-3.84.89-4.89,3.37-6.28,6.72-9.15,8.6-5.21,2.09-5,1.1a19,19,0,0,1,1.07-5c.95-2.37,1.49-3.06,4.46-4.55s2.87-1.58,1.71-1.48-2-.2.31-1.58,3.3-1.59,3.19-2.78-5.1,1.59-8.29,4.16a28.73,28.73,0,0,0-7.86,8.91c-2.77,4.55.31,2.87-2,5.84s-10.31,9-12.64,11.28-12,7.32-16,8.52-5.53,1.68-7.44,3.26-6.69,2.08-5.1,1,4.57-3.57,6.59-4.75a85,85,0,0,1,9-4,29.17,29.17,0,0,0,8.3-5.84,50.54,50.54,0,0,0,5.2-7.72c1.49-2.38,1.81-3.47-1.27-2.47a13.11,13.11,0,0,1-7.87,0c-1.59-.6-5.74,1.87-7.23.79s.11-3.37-.85-4.46-4.25-.39-6.38-.79-5.1-2.08-5.1-5-2.12-5.54-1-7.82,2.88-2.87,4.79-4.15a27.64,27.64,0,0,1,8.29-3c1.07,0,2.55-1.09,3.51-2.08s-2.24-4.56-2.24-4.56.54-.39,1.81-1.19.32-2.47-1.91-2.17-7,2.58-10,3.36-7,.3-6.9-1,.74-2.07-.32-3.07-1.92-2.08-.85-2.57,7.65-4.15,7.65-4.15,2.34,2.57,4.89,2.86,8-4.45,8-4.45c-3.4-2.08-2.65-2.67-2.65-2.67s-5.53-.1-6.81-.89-1.7-2.38-2-3.76-5.74-2.48-4.25-4.76,4.25-3.06,6.06-5.34,3.4-6.54,8.61-8.91,11.49-4.55,14.25-6.53,4-.1,5.1.19,7.65-.29,10.2-.29,3,2.87,3.83,3.56S121,162.34,121,162.34s19,.3,22.85,1.38,10.73,4,10.73,4C158.83,167.14,158.46,162,161.05,162ZM416.65,47.22s-1.92,7.92-9.57,10.09S385.39,65.63,384.76,66s.85,4.74,2.76,6.92,3.72,3.66,5.42,5.84,4.68,2,7,4.26,4,1.48,10.41,1.58,4.68.6,11.8,1,14.57,1,17,3.17,5.95,10.69,8.19,15.84,6.16,13.66,6.16,14.45-2.44,7-2.44,8,1.27,2.67,2.44,4.06.53,2.47.32,3.76,1.27,4.55,1.49,5,3.39-3.17,5.42-3.76,7,3.56,7,6.43c0,6.51,1.77,4.29-8.83,12-1.39,1-2.76,8.81-1.7,12.56s3.62,8.22,5.63,13.57,8,12.86,9.89,16.33,2.45,8.22,6.69,9.31,8.3,2.57,11.38,3.26,5.1,1.68,6.59-1.18,4.46-13.76,6.91-21.68-.22-10.3,5.53-12.08,14.88-5.34,17.32-6.43,2-8.91,7.44-11.49,6.17-2.37,11.48-4.05a72.73,72.73,0,0,0,18.08-8.81c5.31-3.77,6.8-1.78,8.71-5.25s-1.91-8.52-2.34-13.66,1.71-5.44,2.76-10.1,1.6-7.72,5.74-10.89S585.44,99,584.7,96s-2.87-7.43-2.87-10.69.74-1.39-1-5.94-1.7-5.15-.11-9.41,5.85-3.16,5.53-5-6.8-4.75-6.9-10,1.17-6.83,2.23-8.12,11.9-9.9,12.65-10.69-.21-3,5.1-5.54,7.12-4.26,9.14-5.05,5.21-.69-1-2.48S600,20.49,596,21s-5.42,2.77-12.65,3.46-15.42,4.06-15.42,4.06,2.45-2.18.32-4.26,5.53-8.91,6.81-9.7S565,11,559.19,9.9s-17.33-4.55-23.92-4.06-16.26.4-19.56,1.48-2.86,5.35-6.59,5.55-10.62-2.18-15.94-1.39-13.82,4.46-14.78,4.66,3.3,2.77,6.06,3.36,6.38,6.34,6.38,6.34-7.44-2.48-15-4.56-16.37,0-19.45.89-7.12,2.57-13.29,2.87-13.18,5.35-16.68,7.72S412,41.47,409.21,43s-1.71,2.18,1.27,3S416.65,47.22,416.65,47.22ZM259.12,129.05c.84,3.62.84,8.84-1.14,6.59s-3.61-6.79-6.8-4.95-6.66,1.33-6.1.93-.07-2.38-1.7-3-2.62.33-4.31,1.32-7.09,2.31-4.9.59,1.49-2.64.71-4.62-6.38,1.39-9.36,3.5-4.74,5.34-6.52,7.52-.49,3.57,2.2,4.36,7,1.32,3.4,2.64-6.38,2.24-4.53,3.37,5,1.31,8.22.92,5.88-1.25,11,.13a31.63,31.63,0,0,0,8.14,1.32,16.15,16.15,0,0,1-5.31,1.79c-3.4.58-9.64,0-12.83.58s-8.22,1.45-6.94,2.64,2.26,3,6.66,4.43,5.17.07,7.79.72,1.21,3.63,1.92,4.09,5.67-.39,10.63-1.31,3.11-1.72,7-2.71,4-4,6.3-4.62.64,1.52,3.33,2.18,1.2.86,4.11,1.32,2.34,1.58,5.17,1.38,6.17-2.11,5.74-2.44a2.48,2.48,0,0,1-.56-2.51c.28-1.31-2.85.26-4,.93s-1.06-1.79,1.34-3,4.55,0,6,0,.14-4.1-2.41-4.75-3.69-2.25-7.52-4.36-1.84-3-3-5.8-3.55-11-5.67-12.41-4.4-1.06-6.52-2.51A14.59,14.59,0,0,0,259.12,129.05Zm-58.82-5.61c.92,2.63,1.06,1-.78,3.89s-.78,4-2.06,6.14-4.67,5.08-3.61,6.53,4.46,2.31,5.88,3.43,2.83,3.43,5.38,2.57a28.37,28.37,0,0,0,5.18-2.37c1.78-.93,3.26-2,3.19-4.29s-.14-3.43.57-3.23,1.84,1.25,2.4-.27a14,14,0,0,1,2.77-4.68c1.2-1.19,4.67-2.38,6.3-3.76s4.4-2.91,5.18-4.09-1.42-2.11-2.77-2.65-2.9-2.63-6-2.63-4.82,2.37-4.68,1.31-2.12-1.58-3.39-2-2.49-1.19-6.53-.73a46.42,46.42,0,0,0-8.93,1.65C195.62,119,199.38,120.79,200.3,123.44Zm92.26,31.61c-.42.59-2.26,1.18-3.39,2.5s2.4.6,3.53,1,2,1.52,2.91,1.85,5.88.53,7.94-.46,2.26-1.32,2.05-1.78a30.92,30.92,0,0,0-7.23-6c-3-1.58-3.05-1.64-3.68-1.25S293,154.45,292.56,155.05Zm-13.4-30.89c-1.92,1-3.31,2.11-.06,3.76s4.32,3,6.52,4.43,3.12,5.34,7.72,3.56,6.45-3.89,7.1-5.74-.65-2.25-1.78-4-1.41-2.43-3.76-2.17-3.12.26-3.12.26a13.08,13.08,0,0,1,4.11-3.23c2.56-1.26.42-2.11,1.63-3.3s-3-1.78-4.88-1.32-1.92-.13-5-.26-7.86,2.64-7.65,3.62,2.48.6,4.61,1.79,2.76,1,.63,4.42-3.25-.79-4-1.32S281.16,123.17,279.16,124.16Zm-13.59-6.07c-3.19.3-4.26,2.51-3.05,2.84s2-.33,3.89,1.71,3.62,3.17,4.4-.19S270.45,117.62,265.57,118.09ZM214.4,92.55c-3.55,2.84-4.25,5.08-7,6.87s-2.13,3.3-1.21,4.28,3.68-.06,5-.72,2.34-2.31,3.12-1.32,4-3.36,5.31-4.82,3.26-3,3.62-2.9-1.21,1.72-.64,3.1,3.11,1.45,5.38-.92.22-4.56,2-6.4,3.26-1.59-.21-3.24-5.67.2-6.38,1.06S221.35,87,214.4,92.55ZM236,97c-2,.09-2.9.4-6.23,1.85s-4.75,5.21-5.53,7.26.35,2,3.4,3.23,7.3-.33,8.29-3.17,2.21.66,1.63,2.12,2.13.13,3.41-.54,5.1-.92,5.38-.92-3.12,2.58-6.45,3.7a46.71,46.71,0,0,1-6.95,1.84c-.92.14.86,1.52,4.75,2.32s6.24-2.38,11.84-4.49,5.32-2.51,7.16-2,3.82-.93,6.09-1.46,3.19.34,4.19-3,2.75-6.6-.43-6.8-3.41-.2-3.83,3.44-.71,1.38-.71,1.38-2.13-3.17-3.4-4.82-2.2-4.22-3.61-5.61-2.06.6-4.26,3-.42,3.36,1.77,4.42,3.76,3.76,2.7,4.49-2.27-.13-6.31.33-3.9-1.25-5-1.78,1.91-1.65-2.42-3.43S237.43,97,236,97Zm-13.11,3.43c.45-.76-5.38,3.44-6.26,4.79s.88,1.12,2.65,1S221.42,103,222.9,100.47Zm11.2-8.74c-1.45.65-1.45,1.15.92,1.41s3.76-.79,3.26-1.78S235.27,91.2,234.1,91.73Zm12.08-12.54c-1.55.26-6.16,1.88-6.41,2.67a6.26,6.26,0,0,0,.74,3.86c.71,1.35,1,1.55,4.93.5s6.7-3.11,5.38-3.47a27.89,27.89,0,0,0-3.29-1.12c-1.17-.16,1-.79,3.65-1.61S254.69,77.77,246.18,79.19Zm-13.42,2.08c-1.12.51-1.53.52.81,1.42s4.86.82,4.53.1A3.88,3.88,0,0,0,232.76,81.27Zm9.13-6.5a6.42,6.42,0,0,0-3.22,3.1c-.49.63,2.52-.46,3.9-.79s1.7.49,3.05-.7,4,0,6.41-.49,2.8-2.11,2.27-3.49S248.24,72.26,241.89,74.77Zm24,6c-.66.31-.43,1.35.14,2.58s.71.92,1.91,1.38a9.2,9.2,0,0,1,2.69,1.71c.29.3.46.4,1-.79s-.24-1-1.59-2.57S267.62,79.91,265.92,80.74ZM274.1,91.1c-1.83-.5-2.87.56-3.54.89s.35,1.09.82,2.5.07,1.89,2.76,2.09,3.51-.3,3.72-2S275.81,91.56,274.1,91.1Zm10.46,3.1c-1.67-1.22-2.48-2.21-4.18-1.51s-.29,1.54-.29,2,2.06-.07,2.09,1.06.67,1.57-1.8,1.71-3.16,0-4.12.76,1.85-.1,2.7,1,2.3,1.25,4.67.89,5.6-.89,5.6-.89a19.41,19.41,0,0,0-2.44,2.8c-.71,1.16-1,2.81.24,3.63s1.39-.85,4.83-.92,4.46-1.85,4.46-1.85a3.21,3.21,0,0,1-.67-2.47,7.08,7.08,0,0,0,0-2.11,14.49,14.49,0,0,1,1.7,1.38s-.25-1-.74-2.87-.11-2-.64-4.49-.43-3-3-3-4.36,1-6.49,1-3.05.4-1.48,1.19,1.77,1.75,2.51,2.64.6,3,.64,2.94S284.56,94.2,284.56,94.2Zm-12.94,9.41-.11,0a3.09,3.09,0,0,0-1.52,2.56c-.07.86,1.42.36,3.8-.46S275,102.52,271.62,103.61Zm33.45-4.49a17.5,17.5,0,0,0-4.68,3.79c-1.13,1.29-.14,1.45,2.8,2.94s6.1,1.78,7.48.23S310,96.41,305.07,99.12Zm13.68-11.51c-3.78.37-2.61.93-7-.5a40.89,40.89,0,0,0-11.32-1.59c-1.49,0-.79.7.75,3.23s2,3.41,5.16,2.61,5.79-1.33,8.13,2,3.56,4.41,1.64,5.65-1,3.21.11,5.79,3.66,2.47,7.23,2.47,26.09-.34,29.6-1,6.64-3.61,8.51-5,2.87-3.41.32-5-6.17-3-9-3-5.32,1.49-9.68,1.93S339.8,97.9,335.86,98s-2,1.83-6.86-.15-8.39-4.46-6.1-4.81,4.14-.64,2.86-1.72S322.25,87.26,318.75,87.61ZM273.68,69.19c2.34.79,2.92,1.39.32,2.08s-4.63,2.52-2,2.18,4.83.24,8.18.79,3.08.2,4.57,2.08,3.08,1.88,5.37,1.34,2.6-.7,1.12-2.33-3-4.65-5.05-5.84-3.72-2.88-5.74-2.67-2.5.24-4.26-2.13-3.13-1.24-5.68-.6-3.37,2.47-4.36,3.27C264.11,69,271.34,68.4,273.68,69.19ZM304.3,44.94c-2.77,3.46-5,6.38-1.87,6.73s4.52-.25,4.73.75-.53,1.68-5.21,1.68-3.24,1-.64,4.1,2.88,2,6.86,1.93,5.31-1.53,8.61-.68,4.31,1.68,1.33,2.57-10,2.57-8.4,4,6.54,5.05,8.77,5.4,2.71-1.49,7.55-.94,3.67,1,4.2-.3,3.19-4.75,3.72-6,1.86-2,4.52-2.62,3.5-1.44,1-2.33-5.31-1.28-5-2,1.81-2.72.74-3.76-2.76-1-4.15-1.53-2.92-3.07-4.68-4.16-3.29-1.19-5.42-2.82-5.52-5.62-9.77-5.39C308.28,39.79,307.05,41.47,304.3,44.94Zm-5.43,29c-1.06.54-3.72.63-1.75,2.27s1.43,1.68,3.92.74,6.12-3.27,6.44-4-2.5-2-4.41-2.62-3.24-2.13-7.23-3.22C290,65.53,299.93,73.34,298.87,73.9Zm130-51.49c-4.39-1.19-20.12-4.23-25.22-3s-4.83-2.64-11.91-1.71-18,.39-21.4.92,1.7,2,3.54,3.16-8.78-1.31-16.86.93-13.33,3.43-4.67,6.73,9.77,4.22,9.77,4.22-11-2-15.73-3.82-2.12-1.72-10.92.79-17.28,3.83-16.86,6.46,7.09,6.21,11.48,7.13,13.47-1.32,14.18-1.59-3.55,3.57-3.55,3.57,4.53-.92,9.64-2.25,9.07-2.76,13.89-4.48A42,42,0,0,0,370,37.18s-8.36,6.48-14.18,8.71a63.12,63.12,0,0,1-16.86,3.84c-3.54.13-3,2.37.56,4.22s6.24,5.8,8.08,7.12a5.58,5.58,0,0,1,2.13,3.44,9.81,9.81,0,0,0-11.62,0c-6.1,4.35-5.25,6.59-3.69,7.12s6.95,1.06,7.94,2.9,8.08-1.71,8.08-1.71-3.54,4.49-6.95,4.49-3.25-2.91-8.22-2.38-4.68,1.72-2.54,3.43,3.82,2.25.14,4-5.39,2.24-5.53,4.35,4.82,2.11,7.93,2.11,6.1-.27,11.77-.39,5-2,7.08-2,4.26.66,3.41,2.78.84.79,7.08-1.45,3.4-5.69,3-6.87-2.7-1.58-4.11-2.24,4.25-6.47,3.4-8.45,6.94-.4,10.48-5,2.27-8.06-.28-8.85,4.68-.26,7-1.58,7.23-2.9,9.21-5.41,2.69-3.44-2.12-2.9,6.93-2.12,12.61-5.82,12.19-8,13.6-9.1,2.7-.53-4-.13-14.6-.53-10.2-1.06,17.44-2.11,20.84-4.61A40.15,40.15,0,0,1,428.9,22.41ZM349.54,114c-7.09-.66-17.43-2.38-19.56,3.69a190.45,190.45,0,0,0-5.67,22.05c-.28,2.5,8.51,6.2,14.6,6.46s16,.66,14-.79-.28-2.24,5.39-2,6.23-1.19,6.23-2.37,1,1.44,5,3.56,7.38,8,10.92,11.48,11.48,8.05,9.92,10.69,1.7,11.88-10.5,14-12.89.65-12.74,3.43.7,3.95,5.52,3.95,11.48-3.95,13.75-1a14.54,14.54,0,0,0,7.37,4.62c2,.66-2.41,1.84-3.55,2.24s2.42.79,9.36,4.09,15.3,3.7,11.19,1.32-6.09-6.73-7.93-8.18-.14-.27,3.12.53,6.23,3.43,7.65,4.62,2.12-.4,3.12-5-.43-4.62-6-8.31-7.22-6.6-7.79-9.24,2.83-3.17,4.25-5,5.39,3.3,8.08,6.33,5,8.32,7.09,4.49,4.1-12.4,4.1-14.38-2.12.13-11.19-4.36-13.75-6.2-14.59-6.2,2.4-1.72,6.37-3.7,5.67-1.71-2.84-9.76-10.91-9.77-16.44-10.3-7.08-6.33-11.05-8.31-13.18,2.37-15.88,3-1.84,1.71-5.24-3.17S349.54,114,349.54,114Zm6.37,0c-3.52.42,2.13,6.86,6.66,7.13s8.37-2,9.36-2.25S361.44,113.34,355.91,114ZM340,179.46a33.46,33.46,0,0,0-2.24,8.12,14.7,14.7,0,0,1-1.16,4.75c-.53,1.68,1.7-.3,3.19,2.18s.84,3.16,3.5.29,5.64-3.86,9.35-2.67,6.6,1.68,5.32-.59-3-2.08-5.53-5.15-4.46-3.86-7.65-5S341.28,176.39,340,179.46Zm26.74,231.27c-1.1-2.29-2.75-6-9.64-7.28s-9.22,1.28-11.77,2.14,2.38,1.28,5.66,0,5.78-.28,6.23.31-1.11,1-1.67.32-.66,1.54,3,2.88,4.61,2,5,3.56.34,2.44,1.19,3.77,1.16,1.88-.4,2.46-1,.51.14,1.22a15.22,15.22,0,0,0,6.7,2.16c3.24.27,4.31.88,2.06-2.09S367.1,411.45,366.75,410.73Zm10.3,14.49c1.79,1.84,1.27,3.84,1.15,4.9s-2.07.24-5.63-.7-3-.48.08,1.18,5.1,1.27,5,3.49,2.84.21,4.16-1.08,1.22-.15,6.72.68,6.62,1.82,5.75-.59,2.52-2.21-2.37-4.51S375,423.13,377.05,425.22ZM361.4,426.6c-2.07-2.29-4.66-2.63-4.68-.68s.7,1.83,2.61,2.37S362.72,428.05,361.4,426.6Zm39.92,9.93c-2.25-.78-2.71.92-1.22,2.33s3.8.92,6.06.81S405.24,437.88,401.32,436.53ZM375.46,160.31c-3,1.26-4.73,2.12-2.13,5.54s4.15,5.54,5.15,3.07S380.5,158.18,375.46,160.31ZM351.6,197c-4.49.72-6,.85-5.25,3.37s1.91,2.11,5,.59S356.48,196.16,351.6,197Zm9.35,3.83c-.77.23-1,2,0,3.56s2.9-.53,3.75-2.44S363.78,199.92,361,200.78ZM311.91,79c-4.25.14-10.63,1.65-7.09,1.71s6.45.8,12.2.47,6.3-.73,6.44-3.5S319.71,78.69,311.91,79ZM285.34,55.67c-4.34,1.34-3.26,2.24,1.83,4.48s5.25,1.19,4.69-3S287.89,54.87,285.34,55.67ZM588.25,166.12c-5.37,1.5-7.17.6-8.18,3.33s-3.13,1.26-4.34,1.6-2.93,7.93-3.78,6.8a20.8,20.8,0,0,1-2.4-4.35c-1.23-2.62.41-2.15-1.95-4.91s-7-2.44-7.36-1.31,3.22,2.08,2,3.35-4.1,2.84-5.2,3.76,2.1.52,4.11,0,3.39,1.51,4.21,2.92-.92,2.77-1.79,3.45,2.92.52,4.43.8,2.31,1.55,1.28,3.27,4.5.24,7.57.06,3.87,2.11,8.51.65,6.84-1.35,11.07-4.47,3.9-2.4,6.7-4.42,2.13-2.63,2.25-4.87,1.85.63,1.19-2.75-4.12-2.45-6.53-2.71-2.34-2.16-3.55-2.76S593.7,164.6,588.25,166.12ZM947,456.88a10.48,10.48,0,0,0-.57,3.49c0,1.79-.21,3.7-.07,5.48s.24,3,1.24,3.43a3.28,3.28,0,0,0,3.29,0c1.64-.76,3.16-2.12,2.35-4.16a57.92,57.92,0,0,0-3.23-6.37C949.15,457.28,947.45,455.36,947,456.88Zm-1.3-2.45c.17.75.41.6.77,1.12s.75.06.25-.63-.43-.77-.43-.77-.63-.22-.63.41m153,105.21c0,.08-.12.12-.17.18-2.91,2.95-5.56,2.13-10.56,3.68s-13.92,6.73-14.56,9,0,2.57-.64,2.27a7.75,7.75,0,0,1-1.7-1.68,10.83,10.83,0,0,0-1.07,5.24c.32,2.47,1.49,4,1.39,7.13s-1.28,5-1.17,7.22,3.71,6.34,4.68,8.92,1.59,1.88,2.12,6.53,3,7.22.53,9.7-4.25,2-1.27,4.55,5.42,4.26,10.2,2.58,3.51-3.17,7.23-4,4.46-1.58,7.65-1.78,5.42.1,6.6-2.17.31-2.18,3.5-3.77,2.87-2,5-2.37,3.5,1.09,6.37-1.19.75-2.47,7.12-2.47,9,.89,11.38,1.68,6.17,2.87,7.12,4.35,2.23,3.27,2.65,3.27,1,.1,2.45-1.38a64.06,64.06,0,0,1,5.74-4.46s-.21,3.17-1.17,4.36a5.6,5.6,0,0,0-1,3.47c0,.58,2.45-1.89,2.77-2s.64,4.36,1,4.75,1.28.2,2.23,1.49,2.23,2.28,3.19,4.75,5,5,7.55,5.34a21.06,21.06,0,0,0,6.69-.1c1.91-.29,2-2.57,4-1.67s-.1,2.76,4.68,2.37,6.06-2,8-3.27,2.13,1.78,4.57-1.58,2.87-2.58,3.3-6.64.31-4.85,2.65-8.71,2.88-2,4.47-7.61,3.61-11,3.4-15.64.1-1.59-1-6.84-.32-4.65-3.72-6.82-4.25-1.59-5.1-4.66.21-4-1.38-4-3,.69-3.93-1.38-.85-2.87-2.66-4.85-3.5-1.59-6.8-3.07-1.61-1.88-1.61-4.46.19-5.31-2.43-6.5-1.07.66-1.07-3.56,0-3.63-2.12-4.35-2.84-.66-4.18-3.24-3.12-6.8-3.76-8.51-1.41.2-2.27,1.45a13.27,13.27,0,0,0-2,6.6c0,2.57,1.13,4,1.13,7.46s-2.4,6.86-3.9,8.84-2.69.19-4-.33-1.55-2.45-4.25-3.77-7.65-2.5-9.92-4.55-.71-2.11,0-4.22a10.76,10.76,0,0,1,3.41-5.22c1.7-1.38,1.2-1.91-.92-3.1s-5.11-1.25-8.72-1.25-5.74-.26-5.53,1.78,2.33,2.84-.7,2.25-5.68-.86-7,.59-1.64,2.31-2.41,5.41.21,3.3-1.06,3.3-6.31-2.44-8-3.16-2.62-.67-4.61,1.18-8.86,7.86-11.41,9.3S1101.33,551.65,1098.74,559.77Zm-94.56-89.22c-1.51-.21-2.34-.6-.5,1.78a28.36,28.36,0,0,0,4.11,4.49c1.77,1.65,2.41-1.2,3.76,2s.85,3.24,2.19,4.42,2.49,1.53,2.84,2.71a8.23,8.23,0,0,0,2.34,4.36c1.56,1.32,1.56,1.12,2.47,3.69s2.34,4.42,3.06,6.6,4.74,4.22,6.79,6.86,5.54,6.47,6.1,5.42,2.05,0,3.12-.4,1.42-1.91,2.13-5.61-.64-5.41-1.64-6.27-2.83-1.05-3.32-1.85-1.35-3.49-2.55-4.35-1.5.06-1.5-2.05,1.42-1.91-.35-3.1a9.3,9.3,0,0,1-2.56-2.64c-.56-.59-4.38-1.52-5.38-2.57s-5.17-3-7.15-5-4.19-3.56-4.82-5S1010.69,471.4,1004.18,470.55Zm41.24,42.56c-1.7,0-2.55-1-3.68,1.06s-1,2,.78,2,1.41.93,1.34,1.19-.85-.2,2.76,1.25,6.17.86,7.16.33,1.35,1.32,6.31,2.11,7.58-.45,10.77.33,2.41-.39.14-2.1-2-.8-4.32-2.45-5.46-1.71-6.94-2,1.27,1.59-3.26,1-2.91.4-5.25-1.12-2.34-1.78-3.9-2S1045.42,513.11,1045.42,513.11Zm36,7.26c-1.28.4-3.9,1.12-2.69,1.65s.27.86,4,.53,7-.79,7.51-1.59-.63-.26-2.2-.73-1.41.33-3.54.6A4.58,4.58,0,0,1,1081.42,520.37Zm13.18-.27c-2.51.31-2.2.86-.21,1.46a10.25,10.25,0,0,0,5.31.46,24.07,24.07,0,0,1,4.47-1.25c2.76-.47,3.68-.4,5.87-.67l2.21-.26s-.22-.46-1.71-.39-2.54.13-4,.13-4,1.32-5.1,1.25-3.11-.72-3.61-.4S1097.3,519.77,1094.6,520.1Zm14.17,3.24s-.06,0-.09.06c-1.75,1.2-1.83,1.53-1.67,2.49a1.76,1.76,0,0,1-.19,1.38,7.53,7.53,0,0,0,4.55-2.1c2-2,2-2,4.06-2.68a15.27,15.27,0,0,0,4.31-2.91,12.87,12.87,0,0,1-3.35.19,6.31,6.31,0,0,0-4,1.39C1111.79,521.63,1112.9,521.76,1108.77,523.34Zm-14.81,1c-1.85-1.32-3.63-1.14-3.77-.32s-1.6.76,1,1.73,5.08,2.23,4.9.91S1094.76,524.94,1094,524.38Zm-16.93-55c-1.07,1.52,1,1.12-.57,2.44s-2.76.73-4.32,2.7a22.34,22.34,0,0,1-4.89,4.1c-1,.73-4.19,1.58-5.6,3.5a1.88,1.88,0,0,0,.5,3s-.86.4-3.12-.46-2.41-1.91-2.41-1.91-1.63-.07-2.55,2.37-1.42,2.71.2,4.16-1.12,1.52-.77,2.51.36,2.84,1.34,3,1.21-.93,2.42.59.21,5.8,1.77,6,2.69-.46,4,.13,2.34,1.13,4.12.53a6.06,6.06,0,0,1,4.6.53,15.15,15.15,0,0,0,5.88,1.52c1.64-.13,1.91.27,2.2-2.05s.07-4.48,2.05-6.26,2.06-1.79,2.2-3.44.14-3.36,1.35-5.08,1.91,1,2.55-.33,1.28-1.31.92-2-2.2-.66-2.9-1.91.21-1.92-.64-4.49-1.35-1.58-.14-3,2.19-1.71,2.33-2.83.64-1.19,2.13-2.25-.24-.56-1.65-1.61-4.07-5-5.72-5C1081.45,463.83,1078.09,467.84,1077,469.36Zm209.39,140.1c-.68-.5-1.27-.14.29,1.71s1.7,1.32,2.69,1.38,1.85,3.7,2.41,4.63a16,16,0,0,0,1.63,2s.57,4,.07,5.74-1.56,2.58-1.91,4.23,1.63,1.19,2.91,1.71,1.06.53.56,2-2,2.11-2,2.38,2.9,1.91,4.39.13,3.82-4.42,4.47-6.33-1.14-1.06.92-2.45,1.77-.72,2.83-2.44,2.2-3.5,1-4.42-2.55,1.12-3.63,1.52a3.69,3.69,0,0,1-3.39-.27c-1.49-.72-1.78-.72-2.34-2a7.33,7.33,0,0,0-1.28-2.05s-.43,2.24-1.48,1.52-.79-1.52-1.56-2.77a27.41,27.41,0,0,1-1.28-2.57c-.49-.93-.07-2.71-2.55-3S1287.06,609.92,1286.42,609.46Zm.43,23.95a26.41,26.41,0,0,0-3.75,4.16,18.49,18.49,0,0,0-2.63,4.68c-.56,1.32-2.62,2.91-6,4.69s-4.68,2.51-5.81,4.16-5.18,6.79-5.67,7.39,1.91,1.19,4.4,1.19,6.37,2.24,8.5-.07,4.25-7.79,5.6-9.77,2.62-2.7,4.74-4.62,5.67-5.47,5.67-6.86a12.77,12.77,0,0,0-.92-3.63,2.66,2.66,0,0,1-2.63,1.32C1286.49,635.85,1286.85,633.41,1286.85,633.41Zm-16.71,25.35c-2.49-1.32-3,1.14-3.38,3.65s1.07.38,3.24-.75S1271.09,659.26,1270.14,658.76Zm-84.27-17.3c-2.8-.93-2.34,1.72-1.91,3.7a14.79,14.79,0,0,0,2,5.21c1.07,1.65,5,2.24,6.6,1.52s2.68-3.17,4.25-5.48,2.26-4.95,2-6.33-2.26,1.25-3.55,1.84-3,2.12-5.38,1.46S1186.87,641.79,1185.87,641.46Zm-35.29-141.68c-2.26.53-3.4-1.45-5.24-5.28s-3.26-4.35-7.94-2.64-4,1.32-.85,2.51,3.55,1.58,4,1.58,5,.66,4,1.32-5.25,1.32-2.56,3.17,1.56.53,8.65,4.09,8.22.93,10.49,5.54,2.27,3.83.43,5-4.26,2.38-3.26,2.51a64,64,0,0,0,7.65.79c4.82.26.28,3,5.67,3s6.8-1.71,8.93-4.22,2.55-1.19,7.08-.13,6.1,5,11.77,6.6,8.07,3.69,4.53.39-4.82-5.67-9.64-9.5-5.1-4.22-6.51-7.13-6.38-6.33-11.91-8.58-8.69-2.55-15.17-4.35C1154,492.65,1152.85,499.25,1150.58,499.78Zm-37.28-13.2c-2.12,1.48-2.39.58-4-.4s-1.15,2.05-4.68.4-4.85-2.46-8.65.33-1.41,3.95-1.51,5.92-3.17,7.56-4.32,9.62-1.14,2.79-.27,4.11,2.13.82,2.65,1.48,0,5.83-.62,7.56,1.51,2,3.71,1.56.27-.66.27-2.46,1.06-2.64,1.06-6v-4.92s.62-.34,1.41.81,1.95,4.36,2.91,6,1.94,2.87,3.45,1.72,2.9-2.47,2.9-2.47-2.9-.9-2.9-1.89,1.23-1.8-.8-5.09-3.09-3.45-.53-3.62,2.48-2.71,4-3.45a7.6,7.6,0,0,1,3.62-.49,3.94,3.94,0,0,0-3.79-.91c-2.3.66-4.33,1-6.27,2.06s-3.62,1.73-4-.25a13.42,13.42,0,0,1-.35-5.18c.26-2.71,3.35-.66,5.64-1.31s2.3-.5,7.33-.17,5.39-.82,6.89-2.87a21.09,21.09,0,0,0,2.37-4.45S1115.41,485.1,1113.3,486.58Zm11.91-7.19c.45-.82-3.68,2.83-4.46,3.56s0,1.78.56,2.84.43,4.69.64,5.47,2.34,1.52,2.34,1.52-.07-2.44.71-3.56,0-2.51,0-4.55S1123.87,481.83,1125.21,479.39Zm-8.15,21.67c-3.25-1.25-4.46-.43-4.46,1.27s-.36,2.55,3.1,2.55S1123.08,503.35,1117.06,501.06Zm6.48-1.11c-.8.25-1.64,2.81-1.18,4.33s1,.51,2.83.17,1.54-1.78,3.82-1.95,7,1.61,7,1.61,1-1.19-2.63-3.48S1128.09,498.51,1123.54,500ZM1058.71,416s-3.26.09-3.76.09-1.63,1.26-2.44,1.76-.82,1.18-.25,2.46,1.52,1.36,3.12,1.79,1-.69,2.2-1.12a3.09,3.09,0,0,0,1.74-2.44,3.74,3.74,0,0,1,1.3-1.72c.28-.33-.92-1.45-.92-1.55S1058.71,416,1058.71,416Zm38.37,4.58c-1.28-.95-2,2.38-2.34,4.09s-.78,2.84-.14,4.09.36,1.66.36,1.66l-1.85-1.4a12,12,0,0,0-.49,3c0,1.38-.58,2,1.56,3s2.83.46,3.11,2,.28,2.17,1.7,2.44,3,.85,3.62,1.78.28-2.44,1.27-2.24,2.13,1.45,2.84,2.57a2.46,2.46,0,0,0,1.76,1.19s-1.62-2.71-.91-3,.91-.59-.93-1.71-3.32-.86-4.74-1.06-1.42,1-2.48-1.78a8.08,8.08,0,0,1-.21-5.08c0-.59.77.92,1.63-1a10.07,10.07,0,0,0,.92-5.27c-.14-1.85,1.27-2.58.21-2.64S1097.79,421.12,1097.08,420.59Zm16.86,35.46c.22,1.34-1.27-.37-1.83.4s-.85.61-1.75,1a18.87,18.87,0,0,0-3.08,2.4s0-1.31,0-1.61-.66-1.83-1.32-.79a6.18,6.18,0,0,1-2.8,2.45,4.27,4.27,0,0,0-2.6,3.16c-.19,1.34.9,1.29.9,1.29a8.06,8.06,0,0,0,1.57-2c1-1.53,1.17-1.48,3-1.71s1.64-.19,2.21.77.13,2.43.18,3.49-.05,2.35,1.78,3,1,.05,2.63-.1,1.65-.1,1.41-.94a15.19,15.19,0,0,1-.86-2.57c-.1-1,1-1.41,1.31-1.61s.56,1,1.07,2.23.71,1.18.93.24a14.36,14.36,0,0,0,.58-4.35,17.07,17.07,0,0,1-.32-3.09,3.85,3.85,0,0,0-1.3-2.53c-.48-.35-2.13-1.8-2.13-1.8S1113.74,454.72,1113.94,456.05Zm-8.15-8.08s0-.84-1.5-2.35-1.58-1.94-3.93-2.35-4.69.2-3.7,2.72,1.28,2.89,3.26,3.19a4.1,4.1,0,0,0,3.19-.77s.15.4-1.72,1.58-2.09,3.42-.63,4.3,1.43,2.21,2.28,1.54,1.46-3,3.19-4.6,1.83-1.84,2-3.56a13.36,13.36,0,0,0,0-3.09Zm4-4.83c-.21.17-1.44-.13-.16,1.11s2.44,1.51,2.28,2.42-.05,1.09-.76,1-.94-.27-1.25-.29-.37.59-.16,1.16.16-.07.77.89a4.74,4.74,0,0,1,.64,2.4c.18,1.11.66.57.66.57s-.16-2.67-.08-3.21-.21-1.86.69-1.44.66,2,1.19.52a6.79,6.79,0,0,0,0-4c-.27-1.19-1.2-1.24-2.29-1.24A8,8,0,0,0,1109.8,443.14Zm-18.33,4.57c-.53.13-.86.65-1.17,2.46a6.7,6.7,0,0,1-2.42,3.8c-1.09,1.07-4.05,3.92-4.2,4.49s-.19.22,2-.83,4-2.42,4.21-3.83-.25-.54,1.69-1.46,1-1.21,1-2.65S1092.44,447.47,1091.47,447.71Zm117.33,54.05c-.24,1.83.53,2.38-1.17,3.73s-3.61,1.35-5.43,1.65-.48-.3-2.72-.37-2.81.1-1.77,1.22.77,2.21,4.07,2.08,6-1.91,8.15-2.57,2-2.37,2.13-3.16S1209,499.78,1208.8,501.76Zm9.21,4c.91,1.29.56,1.09,1.73,2.8s3,2,4.4,2.48,0-.5-1-1.88-1.1-2.15-2.62-3.53S1216.41,503.44,1218,505.72Zm-119.69-111c-4.54,2.89-6.59,2.68-4.78,6.34s2.94,5.21,3.19,5.91,1.17-.47,2.4-3.37,1.39-6.7,1.88-7.85S1099.88,393.76,1098.32,394.75Zm77.77-142.37c.5,1.92,1,4.88-.14,5.21s-1.91,2.45-2.19,4.63-.85,4.94.35,6.66.35,1.84.35,3.3.43,5.15-.28,7.32-1.13,2.71-.85,5,0,2.77,0,6.07-.21,5.94-.07,7.25.85-.65,1.34-1.11a2.94,2.94,0,0,1,3.48.39l1.07,1.13s1.69.72-.65-4.29-2.76-4-2.12-8.52,1-4.61,3.4-5.08,3.68,2.84,4,3.17-.22-1.13-1.07-3.69-1.63-3.44-1.91-6.67-1.28-5.94-2.55-6.86-.64-2.45-.07-3.7a10.35,10.35,0,0,0,.5-5.35,55.94,55.94,0,0,0-1.28-6.4c-.36-1.19-1.77.73-1.77.73ZM1174,302.93a6.34,6.34,0,0,1-.71,4.42c-1,1.65-.28,2-.85,4.35s-3.33,0-3.33.47a4.81,4.81,0,0,1-1.14,2.7c-.7.6-3.12.73-2.41,3a32.68,32.68,0,0,0,2,4.75,11.42,11.42,0,0,1,1.84-1.45l1.56-.46s-.21-.66-1.77-1.39a2.13,2.13,0,0,1-1.21-2.7c.22-.47,2.2.13,3.48,0s2.34-.8,3.9.46a10.37,10.37,0,0,0,3.83,1.72,11.67,11.67,0,0,1,1-3.17c.71-1.32,2.77-.73,4.82-1.32s3.62-.93,2.91-1.79-.64-2.77-1.07-4.22-1.77-.07-2.83.46-2.41.13-3.83-.79-4-4.42-4.89-5.81C1175.24,302.2,1173.82,301.48,1174,302.93Zm-6.35,21.64c-.67.34-1.54,2.08-1.38,4s1.81-.15-.32,5.79-3.19,7.28-5.26,8.82-4,1.53-4.78,1.13.21-1.73.8-2.13-1.82-.54-2.82-.39-.06,1.29-.16,2.22-2.07,3.47-1.86,4.61.21,1.49-1.06,1.88-2.13-.94-2.5-1.14-2.29.35-4.79.69-3.13,1.19-4.19,3-3.57,2.13-5.37,2.82-1.12,3.27-3.09,4.16-2,2.52-2.12,3.86,1.22.4,1.43.3.22-1.88,1.44-1.68,1.38.24.74,1.63-1,2.08-1.64,3.26.21,1.74,1.16,2.93,1.87-.35,3.88-2.48,2.19-2.62,2-5.05-1-2.47-2.45-3.16-1.81,0-.16-1.89,2.39,0,3.51-.89,3.83-.79,6.43-1.43,5.11-1.48,5.21-.65.91,3.67,1,4.26,1.82-.84,3.56-1.49.12-.93,0-2.07a2,2,0,0,1,.8-1.79s.91,1.89,3.72.55,3-1.88,3.78-1.69,1.22.95,2.39.21,1.38-.06,1.17.54,3.4-1.14,4.19-1.68.38,0,.06-2.13-1.33-2.23-.74-4.9a23.83,23.83,0,0,0,.58-4.61c.16-1.68.8-1.92,1.22-2s.43-2.33,1.33-3.51.69-1.74.69-4.46-1.49-2.23-1.59-4.16a14.26,14.26,0,0,1,.37-3.81s-3,1.14-3.35,1.83l-.32.69S1168.64,324.08,1167.62,324.57Zm-19.84,29.75a55.68,55.68,0,0,0-7.21,1.45c-1.87.6-2.26,1.42-2,3.28a39.87,39.87,0,0,0,1.27,4.69c.26,1,1.28,0,3-.93s1.64-3.65,3.32-3.65,1,1.94,3.31-.78.55-2.95.62-4.32S1147.78,354.32,1147.78,354.32Zm198.6-146.58c-3.36-.65-4.33-1.38-4.64-.17s-.68,1.62,1.45,2.38,3.18-.56,5.17.92,2.55,1.42,4.07,1.22a3.26,3.26,0,0,0,2.13-1S1348.93,208.23,1346.38,207.74ZM1308,154.86c-1.23.35-2.23-.84-1.91,2.18s1,3.37,4.88,2.82,1-.15,6.28-.54,6.42-1.14,6.42-1.14a9.27,9.27,0,0,0-2.54-2.87c-1.81-1.38-4.21.94-8.3.25A44.46,44.46,0,0,0,1308,154.86Zm-119.74-44.59c0,1.16,5.31,4.4,7.22,5.35s3.4.54,7.45.09,4.36-2.17,4.83-3.16-1.91-.64-4.62-1.19-4.94.49-5.9,0,1.43-1-1-1.88-3,.29-3.51-.1-.63-1.24-1.8-1.33S1188.19,109.19,1188.25,110.27Zm-20.84,6.78c-1.83.73-1.7,1.39.37,3.12s1.39,1.33.48,2.57,0,0,3,1.29,4.2,3.76,6.06,4.31a4.38,4.38,0,0,0,3.13-.15,16.91,16.91,0,0,0-2.39-4.36c-1.75-2.37-5.53-3.06-6.22-5.14S1170,116,1167.41,117.05Zm19-9.7s-2.7-1.63-6.8-4.21-5.63-3.26-7-3.46-1.17,1.44-1.71,2.72-.9,1-3,0-4.25-2.62-6.42-3.12-3.51,1.29-6,3.76-1.06,3.17,2,6.83,4.36,3.87,6.8,2.43,1.75-2.38,3.51-1.68,7.81-.7,8-.7-.38,3.37,2.28,2.48,5.1-1.34,6.32-2.67S1186.38,107.35,1186.38,107.35ZM1002.33,36.66c-.77.65-5.31.26-7.65,4s-4,1.13-5.18,3.37a48.14,48.14,0,0,0-2.19,5s2.13,2.51,4.4,2.32a10,10,0,0,1,8.43,3.82c2.19,3,3.82,3,9.14,3.89s2.9,1.59,5.67,1.33,6.58.32,5.74-1.06a6,6,0,0,1-1.13-4.95c.35-2.71,2.82-2.58-.08-4.36s-5-.32-4.82-.66,2.63-1.32,1.64-1.38-5.89-.33-6.45-3.1,1.34-3,2.33-3.18.71-.52-2.13-2.57-6.65-4.15-6.65-4.15C1001.63,35.8,1003.11,36,1002.33,36.66Zm26.65,20c-2.06.4-3.76,2.45-5,4.23a32.66,32.66,0,0,1-5.1,5.67c-1.49,1.19-1.07,1.52,1.34,2.38s6.66-1.52,7.87-1.59,2.12,1.79,5.95,1.32,9.64-1.19,6.8-3.23a60.53,60.53,0,0,1-5-3.56,13.65,13.65,0,0,0-7.08-2.71s6.45-2.18,4.89-2.31S1029,56.65,1029,56.65ZM865.15,24.12c-3.71,1.33-2.41,2-4.83,3.9s-.78,2.43,4.4,1.18,5.45-1.78,8.79-3.3S870.67,22.14,865.15,24.12Zm8.21,9.31c-3.48,1.54-2.55,3.16-1.62,4.48s3.46-.79,4.17.67.92.85,4.19-1.33,2-1.51.78-3.82S879.32,30.79,873.36,33.43Zm-19.36-1c-2.23,1.06-2.23.94-.11,1.93s7.28,1.78,9.94.05,2.45-1.39-.9-1.88S856.49,31.28,854,32.47Zm-32.84,4a50.87,50.87,0,0,1,9.41-.14c2.75.3,1.74,2.67-3.36,3.22s.48,1.33,4.09,1.19,1.28-3.13,4.31-4.16,4.94-.4,8.56-1.69-2.07-2.52-6.28-2.42a83.45,83.45,0,0,1-9.14.1c-3.56-.25-6.43,1.35-10.1,2C811.11,35.83,817.7,36.77,821.16,36.47Zm27.09,1c-3,0-10.36,1.68-4.19,2.27s5.69,1,8.24.05S851.45,37.42,848.25,37.42Zm21.49,1.29c-4.33-1.43-4.43-.85-7.77-.7s-4.67,2.23-2.49,3.12,3.66.54,5.47.25,1.7-.84.53-1.29S872.28,39.55,869.74,38.71Zm18.17-5.35c-3.32.41-3.51,1-3.83,2.08s.48.84,4,.39a18.26,18.26,0,0,0,7.44-2.17c2.28-1.24-.48-4.26-.48-4.81s-3.24,1.64-4.14,2.43S891.83,32.87,887.91,33.36ZM627.63,223.21c-1.67,4.61-4.43,6.74-1.17,5.46s6.52-5.25,6.36-1.84-3.35,2.91-2.35,6.25.26,3,5.69,4.26,1,.78,2.34,4,2.25,4.19.83,5.11-5.6-2.91-5.84-1.28.58,2.84,1.58,5.11-.67,3.56-3.84,5.05-.42,2.41,2,2.27,8.53-1.28,7.52.85-3.92-.35-6,3.2S625,268.23,629,268s3.43-1.28,15.39-3,3.66-.14,11.52-2.56,5.36-3.06,1-2.34,2.85-4.27,1.84-8.88-3.84-.21-5.69-3.13-1.59-3.76,1.93-2.7,3.18-.7-3.6-5-2.59-3.48-5.68-7.1-8.36-3.2-8.36-3.2a10.62,10.62,0,0,0,3.59-4c1.34-2.63,1.59-2.42,3-5.61s-1.42-2.91-5-2.13-4.77,1.14-4-.29a14.77,14.77,0,0,1,2.92-3.76c1.68-1.78,2-2.7-1.09-2s-3.56.64-6.18,1.85C626.55,216,629.3,218.59,627.63,223.21Zm-8.44,10.86c-5.47,2.16-3.93,3.56-3,4.33s2.59-.71-2.51,2.21-5.18,6.1-2.51,6.74,2.35-1.56-.49,3.77-4.77,8.95,1,7.6,7.35-4.33,10.11-4.69,3.26-2.56,3.26-5.9-1.83-3.4.34-6.17,2.34-5.69-1.93-7S622.62,232.72,619.19,234.07Zm68.65,74.54c-.29.74.36,2.77-1.84,4.15s1.06,2.65,1.77,4,1.63-4.48,1.41-7.26S688.76,306.23,687.84,308.61Zm-1.06,10.95c-3.6,1.71-3.82,3-4.25,5.68s2.91.52,2.05,2.89-.06,3.64,3.69,1.4,1.63-4.29,2.2-7.13S691.53,317.32,686.78,319.56Zm55.56,29.16c-3.17-.3-4.58,1.69.85,2.28s7.86.7,9.88.2.32-.1-2.34-1.88S746.37,349.12,742.34,348.72Zm30.18,1.69c-4.37-.94-3.18,4.36,1.28,3.57s2.76.29,4.78-3S777.09,351.4,772.52,350.41ZM664,325.83c-3.55.45-3.82,1.65-1.06,2.38s2.41-.14,4-1.26S665.52,325.63,664,325.83ZM449.28,261.22c-2.18,1.73-4.68,4.26-7.77,9.8s-2.75,5-5.73,8-1.49,2.37,7.76,4.16,8.5,3.17,10.63,2.57,2.55,1.19,2.55,3.07,2,.79,3-2.17-1-8.32-2.86-11.39-2.35-3.07-5.32-2.28-2-.69-3.08-3.06-2.77-.5-.21-4.06S451.4,259.54,449.28,261.22Zm-282.92-6.33c0,2.94,3.11,8,5.45,9.64s1.85.73.78-2.78-.21-3.5-.71-5.74S166.36,253.83,166.36,254.89ZM181.88,271a27,27,0,0,0,5.73,5.48,20.08,20.08,0,0,0,7.52,3.43c3.4,1,4.88-.33,2.69-2.31s-.36-1.78-4.33-2.71-4.81-.59-6.8-1.84S180.53,269.61,181.88,271ZM95.47,238.16c-2.55-.58-3.56-.69-5.31.69s-2.23,2.58-1.28,4.11.37.7,2.6-.84,1.18-1.73,4-2.43,2.24-1.63,2.24-1.63A3.08,3.08,0,0,1,95.47,238.16Zm-.9-3.41c-1.72,1-2.29,1.88-.37,1.48s1.64-1.48,2.87-1.24,1.65-.24,1.65-.24S96.38,233.66,94.57,234.75Zm-49.06-7.87c-2.33,1.14-4.55-.2-3.1.66a8.77,8.77,0,0,0,4.94,1.51c1.54-.17,2.55-.19,2-.94a2.38,2.38,0,0,1-.74-1.7C48.54,225.37,47.86,225.74,45.51,226.88ZM830,549.4c-2.7,6-8.37,3-12.91,7.39s-3.82,3-.42,9.11-2.83,5.41-4.4,12.54,1.85,5.81,3.69,11.88,2.69,4.22,6.1,3.43a19.87,19.87,0,0,0,5.81-2.38,84.41,84.41,0,0,1,2.83-13.06c2.27-7.79,3.82-13.46,4.25-18.61s.85-8.84,2-7.26,1.27,1.58,1.27-.93-1.36-9.56-3.54-11.21C830.84,537.39,832.68,543.47,830,549.4Zm4-406c-3.72.85-5.48,3.12-2.77,4s2.44.4,6.91-1.19S837.63,142.59,834,143.43ZM903.4,76c-1.26-2-2.4.66-15.44,6.34s-12.9.78-25.08,10.42-9.5,8.44-10.21,14.26-3.54,3.29-4.68,8.57-7.36,5.55-4.25,9.91,7.22,6.86,13.74,8.71,8.37-.14,7-.8-6.38-8.45-5.39-17.29,4.25-7.52,7.09-10.82,10.2-11.88,15-14.79,17.15-6.76,23.43-8.92c.18-.07.4,0,.52-.18C910.07,75.86,904.68,78,903.4,76Zm-35.14,59.32c-1.54.22-2.26.27.57,3s5.32,4.88,4.39,1.19S869.68,135.12,868.26,135.31Zm46.56-26.85c-2.07-1-3.19-2-3.69-.4s2.35,3.7,5.11,4.22S916.8,109.38,914.82,108.46ZM426.92,274.55c-3.15-1.58-6.23-2.83-8.29-2.83s.43,2.17,3.68,4S428.76,275.48,426.92,274.55Zm-7.51,13.27c.17-2.62-1.74,3,.6,4.26s3.55,1.58,5,.06.27-.56-1.78-.92S419.27,290,419.41,287.82Zm928.49-90.94a15.91,15.91,0,0,1-6.69-.69s-.22,3.07-1.38,4.55a2.91,2.91,0,0,0-.33,3.07s-3.82-1.68-6-2.47-4.25-.1-5.54-3.47-5.09-2.77-8.07-2.77-2.12-3.86-2.12-3.86l-1.81.1c-1.81.1-1.49,4.46-3.83,5.84s-9.67,2.28-9.67,2.28,4.67,3.36,5.64,6.13a26.12,26.12,0,0,0,2.76,5.45s-.43,1.29-6.07.19-5.31,1.1-11.37,3.57-13,6.24-14.67,7.62-1.8.6-7.12-.69-6.37,1.48-7.76,2.18-.85-3.17-.85-3.17a10.34,10.34,0,0,0-4.25,1.19c-24.23,12.31-7.52,11.66-8.29,14.15l-2.55,9.6c-3.57,10.61-6,5.06-9,13.46-9.56,26.73-15.1-4.12-15.1-11.18,0-4.36-1-10,1.82-11.29,23.78-11.07,2.23-1.53,24.55-16.82,7.23-4.95,3.29-7.92,4.89-9.31a9.62,9.62,0,0,1,4.15-1.78l-3.94-.39c-3.93-.4-4,.49-7.12,3.86s-5.53,4-4.89,1.38.74-5.24-1.59-3.86-3.3,1.19-7.65,2.08a21.39,21.39,0,0,0-13,7.92c-3.94,4.95-1.7,4.35-.43,5.54s-6.27.89-9.88.6-1.71-1,.42-1.69-3.19-1.28-7.87-2.27-2.87.79-5.63,1.88-2.66-1-4-1.29-7.55-.69-11.9-1.19-4,.3-5.21,1.78-9.25,8.62-12.76,12.68-7.86,5-11.8,8.71-4.57,3.56-1.38,4.16,3.62.29,4.14,3.26,2,4,5.43,4,2.44.89,3.08-1.69-.85-5.53,2-3.26,5.21,4,6.06,7.23-.22,5.64-1.7,11.09-2,13.26-4,17.22-3.62,6.93-5.85,11.28-13.08,15.34-15.51,16.33-4,1.09-5.22-1.09-2-1.78-4.78.7-4,4-5.1,7.91-3.41,4-5.85,6.93-3.08,2.28-1.28,5.65,4.78,6.93,5.11,10.19-1.49,8-2.66,10.1-6.69,3.07-6.59,2.08a78.84,78.84,0,0,0,0-8.81c-.22-2.87-2.34-2.87-1.6-3.76s3.83-2.38,1.6-4.46-3.83-.3-4.78-2.77.42-4.46-.1-5.34-2.13-1.88-5.43-2.18-4,3-4.79.09.33-3.16-1.16-4.35-2.77-.4-6.59,2.87-4.58,2.58-7.76,4-3.19,2.18-2.45,3.27,3.4,5.84,5.63,6.33,3.84-1,7.23-1,4,.5,3.19,1.78-3.19,2.58-7.33,6.73-2.88,3.37-1.49,5.06a29.13,29.13,0,0,1,4.89,7c1.49,3.26,0,4.44-.21,6.32a8.67,8.67,0,0,0,2.23,7.73c2.77,3,.85,2,.53,3.07s-5,9.6-7.12,13.86-2.13,4.65-9,9.5-10,5.34-13.72,6a46.54,46.54,0,0,0-8.82,2.58c-1.91.79-1.17,2.37-1.37,3.36s-2,.1-1.72-1.38.12-2.58-.84-3a6,6,0,0,0-7,1.38c-3.08,3-6.8,3.17-8.08,6.94s-1.06,2.47.33,4.05,8.07,8,9.67,11.48a22.44,22.44,0,0,1,2,9.8c.1,3.77-7.66,10.7-11.06,13s-4.15,4.45-3.61.89-1.49-5.64-3.93-8.31-9.89-4.85-11.28-5.15.54-2.47-.42-2.38-3.19-.49-2.87,3-2.23,2.38-2.76,5.85-1.17,7,1.06,6.73,1.81,3.07,3.51,6.83,1.06,1.68,5.31,5.14,3.19,2.87,4.15,6.34.64,5.44,2.77,8.61,2.23,3.86-1.28,2.08-6.38-4-7.76-6.14-2.23-7.72-3.08-10.49-6.59-6-8.5-8-.75-3.56.21-8.12-.43-8.91-.75-11.67a80.36,80.36,0,0,0-3.62-13.17c-1.06-2.62-.63-2.28-2.28,0s-2.92,3.66-4.52,3.66-3.93-.25-3.72-1.29,1.81-5,1.33-6.48-2-6.24-4.2-7.92a17.08,17.08,0,0,1-6.22-7.92c-1.43-3.9-1.8-2.77-4.57-.74s-9.09,2.28-12.12,2.52-.53,1.74-1.27,3.22-4.3,3.41-11.48,10.89-8.25,7.72-10.11,8.52-3,.54-3,3.6.33,4.74,0,7.48a16,16,0,0,1-2,5.61,33.26,33.26,0,0,0-1.87,6.57c-.24,1.64-1.84,3.56-4.18,5.24s-2.34,1.38-3.4-1.09-6.59-12-11.05-20.88-3.4-10.5-3.84-13.07-.5-18-.31-19.2c.11-.66-2.16,1.81-2.8,3.06s-.6,2.78-3.15,3-3.09.26-5.49-2.15-3.52-3.76-3.1-3.69a13.27,13.27,0,0,0,4.8-1.06c1.59-.79,1.05-1.65,1.05-1.65s-1.72.2-3.78.3-1.14-.46-3.87-1.55-3.33-1.19-3.79-2.41-1.13-2.94-1.52-3.86-.71-1-1.17-2.14-1.77.19-4.71.26-2.27.19-5.81,1.58-4.08.89-8.08.76-6.8-1.85-8.83-2.54-2.33-.4-5.31-.83-2.34-1.94-3.08-3.2-2-1.55-5.89-1.25-4,.1-6.23-.49-2.38-1.39-4.22-3.24-1.23-.39-2.44-1.35a10.33,10.33,0,0,1-3.37-4.85c-1-2.57-.74-3.14-1.84-4.32s-1-.89-4.47-.89-1.87.22-2.3.46a24,24,0,0,0-2.44,2.93c-.95,1.19.77,2.84,2.16,4.46s.17,1.45,2.38,3.89,1.44,2.21,3,5.61,2.55,4.26,2.9,5.28.67-.4,1-1.32-.14-4.23-.14-4.23a21.43,21.43,0,0,1,1.27,3.84c.6,2.44.18,2.47.6,4s0,1.35,2.66,1.35a26.47,26.47,0,0,0,7.23-.59c3-.69,4.21-3.36,5.6-4.16s1.38-3.56,2.3-3.26,0,3.26.89,5.21,1.06,1.25,3.12,2.11,2.62,1.35,4.7,2.14.68.9,1.81,3,1.07.92,2.17,1.64.67.2-.11,2.68-.92,2.5-2.76,4.52-1.85,1.38-2.13,1.32-.85-1.49-.85-1.49a15.73,15.73,0,0,0-1.35,5.22c-.17,2.8.93,1.77-2.44,3.13s-5.39,1.92-6.7,3-1.3,2.6-2,3.33-1.78.06-4,.85-1.63.63-3.55,2.09-.21,1.32-2.65,2.24-6.87,3.07-9.11,3.3-1.77.82-2.33,1.65-.61,1.25-3.44,1.68-6.38.83-8.12,1.68-4.29,2.78-6.13,2.41-1.34-.43-2-2.08a19.8,19.8,0,0,1-1.2-5.54,25.79,25.79,0,0,0-2.81-9.44c-1.55-2.6-1.52-2.77-3.22-5.51s-2.83-5.05-4.32-6.1-2.23-1.12-2.94-1.91-.29-3.5-1-5.81-1.25-4.55-2.35-5.84a28.82,28.82,0,0,1-4.32-5.51c-1.52-2.74-1.62-3-3.82-7.26s-3-4.75-4.43-7.59-.5-2.28-1-4-1.92,2.74-3,3.6-1.66.43-2.55-2.08-1.64-4.72-2.3-3.73-1.21,2-.29,4.66,1.35,2.1,2.55,4.64,4.5,8.92,5.84,11.55.82,1.35,2.06,5.35,2,4.49,3.61,6.13,1.39.79,2.13,3.5.47,5.87.57,7.53,1,2.5,3,4.15,1,1.06,1.91,2.81a37.57,37.57,0,0,1,2.38,5.94,5.25,5.25,0,0,0,2.73,3.66,26.15,26.15,0,0,0,3.54,1.42c1.56.56,1,1,2.09,2.31s3.12,2.37,4.4,4.52.42,1.52.35,3.6-.74,1.12.18,2.21,2.51,2,5.2,3.75.54.54,2.94.47,2.91-.7,5.5-1.26,5.91-1.52,9.1-2.27,6.3-1.25,7.94-1.79,1.67,1.26.42,4-1.84,5.08-2.9,7.33-1.46,2.44-2.23,4.26-6,9.23-7.12,11.57a28.75,28.75,0,0,1-4,6.18c-1.59,1.94-6.59,5.47-8.93,7.35s-1.73,1.88-3.47,4.1-7,8.34-8.44,10.52a46.61,46.61,0,0,0-3.29,5.11c-1.06,2.15-4.07,5.18-4.25,6.73s-1.87,1.75-.6,3.11,2,1.58,2.41,3.29-1.42,3.67-.21,6.8.35.9,2.16,3.4,1.74,4.09,1.91,7.76.35,7.29-.21,9.66a45.82,45.82,0,0,1-2.16,6.08c-.81,2.14-5.28,3.59-7.91,4.74s-2.51.7-3.72,2.15-4.67,4.49-5.84,6.73-2.05,2-1.59,3.43,1.44,3.27,2.65,5.91.36,2.44.07,4.72-.25,1.92-.56,4.68-3.58,2.84-7.3,4.29-2.38.73-2.81,2.74-.16,6-.31,8.35-1.28,1.42-3.3,4.35-2.83,4.33-5,7.86-2,3-4.72,5.24-4.89,2.77-6.09,5.31-2.59.86-8.43,2.74-1.6,1-7.16,1.59-7.55,1.06-10.49,1.58-2.55-.16-4.36-2.14-2.09-1.82-2.9-3.47-.21-2-.46-5-.5-3.06-1.59-4.91-1-2.14-2.24-5.08a24.05,24.05,0,0,0-3.08-5.74c-1.35-2-1.74-1.35-3-2.64s-1.27-2.41-1.56-4.23-.71-6.1-1.31-10.62-.07-2.11-.78-4-1.56-4.22-2.76-6.76a37.65,37.65,0,0,0-2.62-5,30.25,30.25,0,0,1-2.84-5.44c-1.17-2.74-1.34-1.52-1.41-2.58s.6-3,.67-4.81.67-4,1.13-6.83-.63-2.8.57-4.75a31.55,31.55,0,0,0,3.23-5.94c.78-2.21.67-2.31.67-5.11s-.29-2.57-1.14-4.92-1.16-5.08-2.19-8.84-1-3.63-1.14-5.09a35.12,35.12,0,0,0-1.56-6.69c-.7-2-1.06-1.19-2.62-2.47s-.53-.73-1.87-2.15-1.1-1.88-2.41-3.43a19.07,19.07,0,0,1-2.56-3.37c-1.06-1.75-.49-.69-.35-3.63s1-8.55,1.53-11.78.64-3.07-.61-4.42-2.13-3.3-3.08-3.63-3.26.33-6.63.26-3.22-.82-4.67-2.5-3.37-4-4-4.65-1.84-.6-7.57-.17-2.27.53-6.1,1.12-5.32,2.61-8.26,3.63-3.79.76-9-.26-7.76,1.19-10.38,2.31-3.9.59-5.81-.73a37.45,37.45,0,0,0-6-3.86c-2.94-1.45-2.27-2.24-5.17-3.66s-2-1.49-4.36-3.76-2.59-4.59-4.25-7-3.09-5.7-5.32-8.21-4.43-7.56-5.53-9.07-1.94-1.66-1.91-2.38,2.16-5,3-7.19,1.13-1.92,1.52-3.3-.53-5.38-1.38-7.56-1.81-6.76-2.48-8.91.35-2.18,1.17-3.39a73.88,73.88,0,0,0,4.78-7.52c2-3.77,3.16-5.62,4.22-7.37s3.5-7.12,5.11-8.57a49.75,49.75,0,0,1,7.39-5.25c1.74-.89,3.16-1.39,3.44-2.18s1-7.32,1.53-10.06-.18-4.26,1.8-5.31,5.18-3,6.85-4,1.91-2.31,2.75-4.31,1.21-4.56,2.49-5.39.92.37,2.58,1.49a7,7,0,0,0,2.73,1.39c.78.2,1.49-.64,3.44-.66a4.78,4.78,0,0,1,3.33.86c1.16.62.53.62,3.86-1.42a52.74,52.74,0,0,1,10.35-4.92,44.86,44.86,0,0,1,9.35-2.74c2-.23,1,0,3.26.93s2.38,1.28,2.83.62,2-2.51,2.91-2.44,2.06.46,4.5.89,3.47.2,4.47-.33,2.26-1.58,2.51-1.58a41.4,41.4,0,0,1,4,1.35c1.7.63,1.73.73,1.38,1.15a8.92,8.92,0,0,0-1.66,2.74c-.82,1.85-.43.86.35,2.81s1.35,1.84,1,3.26-1.95,2.74-3.12,4.13-.88,1.61,2,3.23a39.83,39.83,0,0,0,5.42,2.8c3.22,1.46,3.36.93,7.12,2s3.3,1.25,4.6,2.78,1.39,3,3.65,3.75,4.68.8,6,1.62,2.38,2,4.15,2.35,1.77.56,2.62-.73,1.56-2.44,1.24-3.11-1.28-1.68-1.07-2.3a43.73,43.73,0,0,1,2.17-3.89c.46-.76,1.63-1,4.43-1.1s4.75-.52,5.21,1.13.35.89,2.51,1.78,2.38.89,4.18,1.58.89,1.68,1.81,1.62a10.92,10.92,0,0,1,4.11.3c1.7.49,4.82,2,8.11,2.11a8.24,8.24,0,0,0,5.07-1.1c.5-.22,2.83-3.09,4.22-1.11s3.19,2,6.66,1.81,3.51-.72,4.29-1.62a23.82,23.82,0,0,0,3.54-6.56c.67-2.31,2.51-7.36,3-9.64a13.54,13.54,0,0,0-.21-5.4,7.41,7.41,0,0,1,.68-3.8c.52-1.52-1.67-.6-2.56-.3s-1.13-.46-1.94-.69-1.67-.43-2.28,1.09-.32,2.27-3.58,2.11-2.65-.36-3.71-1.52-2.87-1.45-4.33-1.88-1.59-.36-1.7.56-.14,1.55-1.2,1.92-3.47-.07-5.49-1A13.17,13.17,0,0,1,755,340c-2-1.94-1.7-1.94-2.52-4.94s-.81-5.58-.45-6.47.92-1.15-.61-.69-2.55.72-1.53-1.55,2-2.38,3.06-2.68a29,29,0,0,1,4.71-.46,11.37,11.37,0,0,0,4.28-1.45c.71-.3,2.17-.79,1.42-1s-3-.43-2.59-1.06.64-.59,1.84-.72,3.09-.2,4.69-.3,2.54.2,3.08-.76a7.73,7.73,0,0,1,2.44-3.13c1.24-.76,2.59-.37,5.85-.5s2.76.66,3.82,1.42,1.77.4,3.16.66.53,1.09,1.59,1.52,3,.86,5.39,1.62.81.43,3.71.43a19.69,19.69,0,0,0,5.11-.37c2.3-.39,3.26-1.25,4.89-2.41s.5-3.66-.1-5.61-3.16-3.19-4.33-4.08-3.68-3.74-5-4.89-2.91-1.48-4.4-2.31-4.14-2.18-4.39-3.27.57-1.11,2.77-1.64,1.49-1,1.91-2.15.6-1.12,2.41-1.78-2.09-2.05-2.63-2.8,1.21-.53,3-1a2.47,2.47,0,0,0,2.2-2.05c.25-.76.17-1.12-1.95-1.09s-4.82.93-8.4,1.88-2,1-4.11,2.68-2.3.95-2,1.87.42,1.82,2.62,3,1.27,1.18,1.88,1.35,2.09.39,1.42.6-1.28,1.24-2.27,1.24-1.42,1-3.12,2a9,9,0,0,1-3.68,1.29c-1.24.2-2.13-.2-1.95-2.31s-.64-.69-2-1.18a4.88,4.88,0,0,1-1.81-1.06,14.49,14.49,0,0,0,2.62-1.29,5.08,5.08,0,0,0,2.56-2.93c.63-1.62-1.42-.73-2.91-.93s-1.07-.33-2.51-.53a2.71,2.71,0,0,1-2-1.35,4.23,4.23,0,0,0,1.91.13c1.24-.13,1-.46,1.41-.79s.83-.63.47-.63-1.88.17-2.91.1a11.11,11.11,0,0,0-3.12,0c-1.49.23-.89.79-2,1.48a3.85,3.85,0,0,0-1.66,2c-.56,1-.75.85-1.14,1.51a9.36,9.36,0,0,0-.35,3.44,3.34,3.34,0,0,1-1,2.4c-.67.93-.67.53-1.81,1.09s-.38,1-.52,2.08a28.35,28.35,0,0,0-.65,3c-.1,1.44-.67,1.51-1.55,2.53s-1.38,1-1.45,2.08a12.32,12.32,0,0,0,0,3.56c.24,2,.81,1.52,2.41,3.6s2.44,1.29,1.87,2.34-.46.67-2.41.43-2.26.07-3.68,1.42-1.71,2.12-2.45,2.61-.49-1-.77-1.69-3.55-.92-5.78-1.58a27.87,27.87,0,0,0-3.4-1.06c-.57,0-1.43-.13-3.78,1.16s-1.8,2-1.64,3.71,2,2,1.48,6,2,2.13,3,4.56.11,2.22-.52,2.52-1.28,2.37-1.76,4.35,0,2.23-.53,2.13-1.28.35-2.39-1.29-2-.09-2.18-1-1.55-2.53-1-4.7,1.38-2.38-.54-3.52-1.43-1.29-2.33-3.61a13.16,13.16,0,0,0-2.87-4.9c-1.76-2.13-1.6-1.53-1.12-3.67s.85-4.89-.21-6.38a35.58,35.58,0,0,0-9.09-7.52c-3.62-1.93-4.36-.45-6-3.52s-2.32-6.28-5-8.16-1.32-2-3.88-1.09-2.6,1.34-2.39,2.08a6.23,6.23,0,0,1,.42,3.76c-.37,2-.9,1.39,1.76,3s1.54,1.25,2.87,4.16,1.54,3.47,2.61,4.66,1.43,2.22,4.09,2.82,2.23-.15,2.92.5-1.86.88-1.38,1.18a23.74,23.74,0,0,0,3.29,2.53c2.23,1.38,4.52,2.82,5.11,3.91s2.55,5.19-.32,2.17-2.92-1.63-3.72.45.73,3.66.64,5.2-1.44.94-2.35,2.17-1.38,2.72-2.44,3.52-.75-.89-1.33-.89-.79.74-1.54,2.17,0,2,.32,4,.85,2.07-1.22,2-1.6-2-3.51-3.32-3-.84-4.63-1.84.7-1.23,4.68-1.73,4.47-.88,5.69-1.82.79-1.2,2.13-3.07,0-2.63-.91-4.91a8.31,8.31,0,0,0-3.19-3.76,32.61,32.61,0,0,1-3.08-3.06c-1.17-1.29-2.39-1.49-4.41-2s-1.65-2.33-2.77-2.87-2.23-2.14-4.78-4.51-1.59-4.16-2.76-6.23-2.34-3.67-4.89-3.67-4.47,1.78-7,4.26-2,3.66-5,1.78-4-1.68-6.17.1-2.55,3.57-2.55,7.13-2.55,2.08-4.57,3.06-3.83,3.47-6.91,9.31.21,3.07-.43,5.05.22,3.56-2.65,6.13-1.6-.29-3.3,1.79a8.28,8.28,0,0,1-8.07,3.26c-4-.49-2.88,1.09-5.43,1.69s-3.93,1.48-3.29-1.39.1-2.47-4.79-2.28-6.59,1.49-6.16.8.64-1.89,1.17-4.66,1.28-3.66.54-3.66-2.35.4-1.18-4.55,1.6-5.84,1.06-8.71.21-6.74-.42-8.42,1.28-3.36.42-4.26-1.8-2.07-1.16-2.07a45,45,0,0,1,6.69.69c3.41.59,6.91-.49,8.93-.3s6.27,1.09,10.52,1.79,4.15-.6,3.73-6.84.31-9.1-1-10.39-2.65-1.18-4-2.87-.32-4.16-3.29-5.05-6.28-.2-4.68-.79,2.23-.79.53-2.08-2.13-2.67-.85-2.87,4.88-.2,4.88-.2.33,1.79,2.24,1,4.36-1.58,3.83-2.87-1.49-2.87-1.18-2.87,1.07,1.78,5.11,1.78,3.72-.59,3.4-2.27,2.66-1.59,4.68-3-.75-3-.32-4.26,2.76-2.08,6.91-2.37,3.4-1,3-1.49.1-2.57.42-5.24-.32-3.57,1.81-4.85,1.48-.79,5.84-1.2,1.7-1.38,2.44-1.57,6-1.49,6.92-1.89.85-.29,0-2.18-2-3-3-11.67-.74-8.71,4.57-10.3,4.15-1.09,3.72,3.76-2.76,4.85-3.3,8.41-.1,5.74,2.13,9.51,2,1.88,6.8,1.88,3.72,1.18,6.91,2.27,2.13-2,5.22-3.07,2.44.7,9.66-.39c2.76-.41,3.7-.51,3.92-.53-.22,0-1,0-.2-.46,1.71-1,2.13-2.77,4.58-3.07s4.14.7,4-3.07-1.48-3.16-1.06-6,.53-1.58.74-3.86-.31-2.67,2.77-3.46,1,2.77,4.67,3.56,3.2,1.39,3.84-1.48,2.65-6.64.84-6.43-2.23-.1-4-2.78-2.86-3.26-1.69-3.26,5.1-1.09,10.73-.9,7.23.7,7.54.1-1-1.18,1-2.37,8.19.59,7.23-.5-6.48-2.57-10.2-2-12.76,1.68-14.14,1.58a9.9,9.9,0,0,1-4.57-1.78c-.64-.7-2.66-1.19-2.66-4.46s1.17-4.55-.74-7.72,3.5-5.84,7.23-9.2,2.76-6.14,5-6.34,3.09-1.38,2-2.48-5-4.85-6.91-5.24-4.78-2.57-7.76,2.58.21,5.64.75,8.31-4.15,4.65-7.66,7.13-4.78,1.88-5.85,8.21-2.12,6.54,1.81,8.71,4.68,3.27,2.88,5.15-5.64,1.78-8,6.24-1.38,6.63-2.34,8.61-3.93,2.87-4.78,4.85-.85,5.74-4.46,5.15-1.6-5.45-3.2-7.93-2.87-4.55-4.78-7.62-.42-6-2.23-7.62-2.23-4.75-2.23-4.75l-.64,1.49c-.63,1.48-.32,2.37-3.93,6.83s-9,4.75-11.7,3.66-2.23-3.66-2.23-6.93-.64-7.62-.1-12.77,2-4.75,7.66-8.12,5.73-3.16,7.11-5.34,5.43-5.25,7.76-7.23,6.38-9.5,8.51-14.85,6.05-8.61,9.88-14.35,10.63-10.79,19.35-14.45,7.23-4.06,9.24-6.93,2.88-1.19,6.27-1.88,2.87,0-.53,3.36-4.88,6.93-2,4.26,5.1-5.84,9.57-5.64,2.66,0,7,2,5.1,2.17,2.66,3.76-6.6,1.19-6.6,1.19a6.87,6.87,0,0,0,5.42,3.76c4,.5,6.27-3.17,8.93-1.78s3.41,2.37-.21,2.08-4.67,2-.21,3.56a37.3,37.3,0,0,0,10.73,2.57c5.85.8,8.4,5.05,12.86,6.93s9.68.3,8.19,4.36,1.17,8-6.59,9.9-7.55-.6-14-2.58a116,116,0,0,1-11.05-4,42.42,42.42,0,0,0,4.67,5.05c3,2.77,3.3,5.35,3,10.4s-1.71,6.43,3.4,8.9,4.36,1.78,5.95,1.39,4.25-.89,3.61-1.69-1.17-2.27-2.87-3.06a1.89,1.89,0,0,1-.1-3.57c1.7-.89,3.29.79,7,.6s0-1.39,1.81-3.27,1.92-5,6.27-6.73,9,.79,10.21-1.09,2.44-4.05,0-6.93-4.36-3.85-2.87-5.25,4.46-5,5.85-3,4.89,4.36.42,4-1.39,6.63,2.66,6.23,3.72-1.68,7-3.26,9.77-6.83,14.34-8.42,5.53-1.19,7.33-.39,1.81,2.27,6.81,1.28,6.48-2.17,11.16-3-.32,1.69,1.81,2.38,2.34,1.29,3.93.2,6.7-2.87,4.36-4.65-4-3-4-3a6.37,6.37,0,0,1,6.17-3.46c4.46.3,11.26,4.46,15.62,7.43s9.68,9.3,9.68,9.3,1.9-3.26.31-8.71-5.63-4.16-5.63-9.3-3.73-3.77-2.45-7.43,4.89-5,5.85-9.7,1.81-8.51,5.1-8.51,10.42,1,10.42,1a30.32,30.32,0,0,1-2.66,10.59c-2.65,6.33,1.38,7,.75,14.75s-.75,8.71,1.06,10.49,5.21,4,3.93,7.32-1.91,5.45-6.69,7.33-10.84.79-8.62,2.28a21.1,21.1,0,0,0,8.29,3.26c3.2.5,1.6-.19,4.15-2.27s8.29-6.24,8.08-8.22-3.3-5.05-1.17-6.54,3-3.75,6.27-1.88,6.49,8.92,6.49,8.62-.64-6.93-4.57-10.89-10.42-.2-10.42-3.66,1.81-8.22,1.38-12-1.91-7.53.53-10.79a11.56,11.56,0,0,0,2.55-5.84,14,14,0,0,1,.21,6.93c-.84,3.86.43,6.14,2.24,6.14s9.88.1,5.53-1.19-5.63-2.48-1.28-4.85,4.15-.79,10.52.69,7.86,2.58,10,2.48,1.8-.3,1.06-2.18a8.55,8.55,0,0,0-3.72-4.46c-2-1.28-3.4.3-4-1.68s-1.8-6.93-2.34-8.81,1.6-.4,5-.4,12.65-.49,19.78-.69.11-7.62-.43-12.87,13.18-5.44,19.87-6.43,14.46-.69,27-3.66,4.47-2.48,6.28-6,4.89-4.16,8.61-4.16,7.12.69,5.74,1.19-5.53,2.57,1,4,4.79,1.28,1.39,2.47-.53,3.37,6,3.37,2.66-.59,1.6-2.77,1-1.39,6.38-.5,7.55,1.79,10.52,4.55,3.51,2.09,4.57,6-.1,3.26-4.67,6.83-7.34,3.56-13.93,7.72-5,6.33-8.61,9.1-2.66,2,5,0,11.8-3.26,15.74-2.87,5.84,1.88,8.82,1.88-.21.5,9.15.5,8,0,4.56,2.67.64,3.47,4.79,3.47,9.24.19,13.07-.4.53-3.46,5.1-3.66,6.06-.6,11-.6,3.4,2,5.1,3.77,4,3,2.45,6.53-2.45,3.66-1.5,8.51,3.41,5.54,6.39,6.43,3-4.35,5.84-6.13,3.51,3.56,6.81,2.77a19.5,19.5,0,0,1,9.88.49,16.07,16.07,0,0,0,9.36.5c4-.89,2.76-2.47,1.38-5s-1.49-2.28,1.06-4.85,4.25-1.29,12.54.89,5.64,2.18,10.31,3.46,3.19,1,10.32,4.26,5.74,7.13,9,9.2,3.51,0,10.1-.59,6.48.79,13.71,2.68,5.31,4.25,5.31,6.33-2,3.67,2.45,4.65,6.27,1.88,10.1.9.42,1,8.93,1.08,5.63-1,8.19.79,3.18,5.35,7.33,5,3.82-.3,2.12-4-2.76-4.27-.31-4.16,7.43,1.18,16.68,2.67,9.56,3.17,17.12,7.92,9.66,5.15,15.2,9.4a13.25,13.25,0,0,1,2.57,2.21,13.21,13.21,0,0,1,2.85,1.16c6,2.77,4.89,1.88,10,4.35a58,58,0,0,1,9.45,5.94S1351.73,196.49,1347.9,196.88ZM852,297.49s-.56.76,2.42-1.62-1.39-.1-3.09-.6-2.24-1.29-1.7-3.46-.21-2.18-2-5.05c0,0-1-.59-3,.59s-3.18-1.18-5.63-.29-5.1.49-6.59,4.16-3.19,1.28-3.72,4.25-5.11,4.55-5.11,4.55,1.82,1.79,3.19,3.47.43.6,1.81,6.14,2.34,5.05,4.26,5.84a42.61,42.61,0,0,1,4.88,2.67s-1.8-1.09-1.8,1.88-2.87,5.05-2.56,9.4-3.93,8.42-.52,8.82,2.33,1.88,6.05,2.87a35.07,35.07,0,0,0,11.27,1.68c5.42,0,2.44-2.08,1.7-5.15a41.85,41.85,0,0,1-1.38-8.41c-.21-3.37-1.49-2.48-2.34-4.55s.42-3.27,3-3.27,2.88-.1,1.49-2.38-.52-3.17-2.24-4.16-2.44,3.27-2.44,3.27-1.06-1-.63-5.15.74-2.17-.53-3-2,.2-3.72-2.57-.21-2.18-2.23-5.54-1-1.59,1.27-1.59,1.06-.49,0-1.58-1.81-2.77,1.06-2.57,6.59.79,8,.89S852,297.49,852,297.49ZM455.4,145c-1,1.69,1.66,3.86,3.58,3.19s2.54.07,3.63-.8,1.19-2.15-.1-3.4-.77-2-1-2.13C459.08,140.34,456.38,143.28,455.4,145ZM980.86,35.83c-2.87.1-6.06.2-3.4,1.09s1.6,5.35,6.69,2.87,4.05-2.67,7.56-4.16,1.47-.77-2.77-1.88C986.29,33.06,983.73,35.74,980.86,35.83Z"/><circle class="cls-3" cx="225.83" cy="349.25" r="127.07"/><circle class="cls-4" cx="227.38" cy="330.06" r="111.11"/><circle class="cls-5" cx="227.35" cy="330.06" r="100.12" transform="translate(-166.8 257.43) rotate(-45)"/><circle class="cls-6" cx="545.99" cy="349.25" r="127.07"/><circle class="cls-4" cx="547.54" cy="330.06" r="111.11"/><circle class="cls-7" cx="547.54" cy="330.06" r="100.12" transform="translate(99.01 785.65) rotate(-76.53)"/><circle class="cls-8" cx="866.15" cy="349.25" r="127.07"/><circle class="cls-4" cx="867.7" cy="330.06" r="111.11"/><circle class="cls-9" cx="867.7" cy="330.06" r="100.12" transform="translate(20.75 710.23) rotate(-45)"/><circle class="cls-10" cx="1186.31" cy="349.25" r="127.07"/><circle class="cls-4" cx="1187.86" cy="330.06" r="111.11"/><circle class="cls-11" cx="1187.86" cy="330.06" r="100.12" transform="translate(593.52 1410.21) rotate(-76.71)"/><path d="M1187.86,469.15C1112,469.15,1050,408,1048.79,332.4h-44.33a2.34,2.34,0,0,1-2.34-2.34c0-74.12-60.3-134.42-134.42-134.42s-134.42,60.3-134.42,134.42a2.34,2.34,0,0,1-2.34,2.34H686.61C685.36,408,623.45,469.15,547.54,469.15S409.72,408,408.47,332.4H364.14a2.34,2.34,0,0,1-2.34-2.34c0-74.12-60.3-134.42-134.42-134.42S93,255.94,93,330.06a2.34,2.34,0,0,1-2.34,2.34H11.78a2.34,2.34,0,0,1,0-4.67H88.31C89.56,252.11,151.46,191,227.38,191S365.2,252.11,366.45,327.73h44.33a2.33,2.33,0,0,1,2.34,2.33c0,74.12,60.3,134.42,134.42,134.42S682,404.18,682,330.06a2.33,2.33,0,0,1,2.34-2.33h44.33C729.88,252.11,791.78,191,867.7,191s137.82,61.14,139.07,136.76h44.33a2.33,2.33,0,0,1,2.34,2.33c0,74.12,60.3,134.42,134.42,134.42s134.42-60.3,134.42-134.42a2.33,2.33,0,0,1,2.34-2.33H1401a2.34,2.34,0,1,1,0,4.67h-74.09C1325.68,408,1263.77,469.15,1187.86,469.15Z"/><path d="M1400.58,321.28a8.78,8.78,0,1,1-8.78,8.78A8.79,8.79,0,0,1,1400.58,321.28Z"/><path d="M12.22,321.28A8.78,8.78,0,1,0,21,330.06,8.78,8.78,0,0,0,12.22,321.28Z"/><path class="cls-4" d="M581.41,331.16c0-1.06-.06-2.12-.16-3.16l10.06-5.18a43.86,43.86,0,0,0-3.37-10.29l-11.18,1.72a33.86,33.86,0,0,0-3.7-5.08l5.09-10.11a44.42,44.42,0,0,0-8.74-6.4l-8,8a33.13,33.13,0,0,0-6-1.95l-1.83-11.16a40.83,40.83,0,0,0-10.82,0l-1.83,11.16a33.13,33.13,0,0,0-6,1.95l-8-8a44.13,44.13,0,0,0-8.74,6.4l5.1,10.11a33.23,33.23,0,0,0-3.71,5.08l-11.18-1.72A43.4,43.4,0,0,0,505,322.82L515,328c-.1,1-.15,2.1-.15,3.16s0,2.12.15,3.15L505,339.5a43.4,43.4,0,0,0,3.37,10.29l11.18-1.72a34.33,34.33,0,0,0,3.71,5.09l-5.1,10.1a43.69,43.69,0,0,0,8.74,6.39l8-8a32.34,32.34,0,0,0,6,1.94l1.83,11.17a40.83,40.83,0,0,0,10.82,0l1.83-11.17a32.34,32.34,0,0,0,6-1.94l8,8a44,44,0,0,0,8.74-6.39l-5.09-10.1a35,35,0,0,0,3.7-5.09l11.18,1.72a43.86,43.86,0,0,0,3.37-10.29l-10.06-5.19C581.35,333.28,581.41,332.23,581.41,331.16ZM548.13,352A20.85,20.85,0,1,1,569,331.16,20.86,20.86,0,0,1,548.13,352Z"/><g id="Icon_awesome-phone-alt" data-name="Icon awesome-phone-alt"><path id="Icon_awesome-phone-alt-2" data-name="Icon awesome-phone-alt" class="cls-4" d="M267,346.85l-18-7.7a3.85,3.85,0,0,0-4.49,1.11l-8,9.72a59.44,59.44,0,0,1-28.41-28.43l9.72-7.95a3.83,3.83,0,0,0,1.1-4.49l-7.7-18a3.88,3.88,0,0,0-4.41-2.23l-16.68,3.85a3.86,3.86,0,0,0-3,3.75,74.42,74.42,0,0,0,74.41,74.43h0a3.86,3.86,0,0,0,3.76-3l3.84-16.68A3.89,3.89,0,0,0,267,346.85Z"/></g><g id="Icon_ionic-ios-time" data-name="Icon ionic-ios-time"><path id="Icon_ionic-ios-time-2" data-name="Icon ionic-ios-time" class="cls-4" d="M867.7,280.47a46.65,46.65,0,1,0,46.65,46.65,46.65,46.65,0,0,0-46.65-46.65Zm3.14,50.68a3.13,3.13,0,0,1-3.14,3.14H846.17a3.14,3.14,0,1,1,0-6.28h18.39v-29.6a3.14,3.14,0,1,1,6.28,0Z"/></g><g id="Icon_awesome-hand-holding" data-name="Icon awesome-hand-holding"><path id="Icon_awesome-hand-holding-2" data-name="Icon awesome-hand-holding" class="cls-4" d="M1245.86,311.38a6.74,6.74,0,0,0-8.66,0l-18.8,15a13,13,0,0,1-8.14,2.85h-24.07a3.26,3.26,0,0,1-.13-6.51h16.06a6.78,6.78,0,0,0,6.78-5.41,6.52,6.52,0,0,0-5.33-7.52,5.77,5.77,0,0,0-1.1-.1h-32.55a24.07,24.07,0,0,0-15.08,5.35l-9.46,7.67h-11.27a3.26,3.26,0,0,0-3.25,3.26v19.53a3.25,3.25,0,0,0,3.25,3.25h72.59a13,13,0,0,0,8.14-2.85l30.76-24.61a6.5,6.5,0,0,0,1-9.15A7.14,7.14,0,0,0,1245.86,311.38Z"/></g></g></g></svg>