<?xml version="1.0" encoding="utf-8"?>
<!-- Generator: Adobe Illustrator 24.3.0, SVG Export Plug-In . SVG Version: 6.00 Build 0)  -->
<svg version="1.1" id="Layer_1" xmlns="http://www.w3.org/2000/svg" xmlns:xlink="http://www.w3.org/1999/xlink" x="0px" y="0px"
	 viewBox="0 0 1416.4 731.6" enable-background="new 0 0 1416.4 731.6" xml:space="preserve">
<g opacity="0.5">
	<path fill="#E8E8E8" d="M161.1,162c2.6,0,2.9,0.9,5.2,0c2.2-0.9,8.8-5.3,11.1-5.9c2.2-0.6,3.7,0.2,0.4,2c-3.3,1.8-9.9,5.8-8.7,5.5
		c1.2-0.3,4.5-1.7,9.2-4c4.7-2.2,4.3-1.2,5.5-3.6c1.2-2.4,1.9-3.6,1.9-3.6s7.5,7.7,8.2,8c0.7,0.3,1-0.1,1.3-1
		c0.4-0.9,1.2-2.3,2.2-1.8c1.1,0.4,0.2,2.3,0.8,2.5c0.6,0.2,1.7,0,3.7-0.7c2-0.6,1-2.1,1-2.1s-0.2-0.1,2.1-0.3
		c2.3-0.2,9.5,2.4,11.6,3.3c2.1,0.8,8.6,1.5,10.4,2.1c1.8,0.6,2.5-1,5,0.3c2.5,1.3,4.4,3.1,2.5,4.1c-1.9,0.9-6.5,1.6-4.1,2.2
		c2.4,0.6,6,1.3,9.5,1.2c3.5-0.1,9.7-1.4,11.6-1.4c1.9,0,3.1,1.2,4.9,4.2c1.8,3,3.2,4.2,3.9,4.5c0.7,0.2-0.7-1.4-0.3-2.9
		c0.4-1.5-0.4-4.4-0.8-5.4c-0.4-1,0-1.5-0.9-2.9c-0.8-1.4-2.2-1.2,0.3-2.4c2.6-1.2,4.3-3.1,7.4-2.7c3.1,0.4,3.9,4.3,6.6,4.6
		c2.7,0.3,3.1,1.3,7.7,1.7c4.6,0.3,2.7,0.1,7.8,0.4c5.1,0.3,3.2-0.6,4.3-3.2c1.1-2.6,2.2-3.1,3.5-3c1.2,0.1,5.5,0.7,5.5,1.2
		c0,0.5-1.8,3.4-0.9,4.7c0.9,1.4,4.6,3.7,4.6,3.7s-0.8-3.2-0.8-3.5c0-0.3-0.3-2.8,0.3-3.3c0.5-0.4,3.6,0.2,5.5-3.5
		c1.9-3.7-1.3-3.5-1.3-3.5s-1.2,0.1-0.6-1.5c0.6-1.5,4-2.5,4-2.5s0.2,0.7-0.2-0.6c-0.4-1.2-2.6-1-5-1.1c-2.4-0.1-4-0.5-4.5-2.5
		c-0.4-2-0.6-6.3-0.6-9.2c0-2.9,2.3-1.9,2.8-3.5c0.4-1.6-0.1-9.6-0.7-11.2c-0.6-1.6,0.8-5.1,1.2-7.5c0.3-2.3,2.7-1.3,2.7-1.3
		c-0.4-0.8,0.7-3,3.9-4c3.2-0.9,9.3,0,9.3,0s-0.5,0.1-2,2c-1.5,1.9-0.5,5.4-2.8,7.8c-2.2,2.4-7.9,1.6-7.9,1.6s1.8,4,1,5.3
		c-0.7,1.3-1.2,3.9-1.2,3.9s5,1.4,5.3,4.6c0.3,3.2,2.8,3.7,3.3,6.6c0.6,2.9-2.4,5.3-1.8,5.8c0.6,0.4,0.9,0.6,2.7,0.7
		c1.8,0.1,4.2,0.4,4.2,0.4s-1,1.5-0.1,3.1c0.9,1.6,0.2,2.6,0.3,4.3c0.1,1.7,1.1,3.1,1.5,2.8c0.4-0.3,2.4-4.6,2.8-6.5
		c0.4-1.9,0.7-3,1.6-3c0.9,0,3.7,2.6,4,3.6c0.3,0.9,0.5,2.2-1.1,4.8c-1.6,2.6-1.4,3.8-0.1,4.8c1.4,1,1.4,0.7,3.9,1.9
		c2.5,1.2,2,1.1,3.6,0.6c1.5-0.4-0.6-4.4-0.5-4.5c0.2-0.1,3.7-0.5,2.9-2.5c-0.8-2-1.6-3,0-4c1.7-1,2.8-1.8,2.8-1.8
		c-0.7-1.2-0.9-1.3-2.1-4.7c-1.2-3.3,1-2.4,5.6-2.1c4.6,0.4,4.8,1.9,7.2,3.2c2.4,1.2,0.9,1.7,1.7,3.7c0.8,2-2,2.3-2,2.3
		s-1.9,0.3-1.4,1.9c0.4,1.5,1.3,3.4,2.6,5.7c1.3,2.4-0.4,4-2.4,5.9c-2.1,1.9-4.5,2.5-7,2.5c-2.4,0-3.5,1-3.7,0.3
		c-0.2-0.7-1.3-1.3-2.7-1c-1.3,0.3-4.4,1.5-3.3,1.9c1.1,0.4,3.9,0.3,2.7,2.5c-1.2,2.2-2.2,2.2-4.5,1.9c-2.3-0.2-4.5-0.2-6-0.4
		c-1.5-0.1-8.8-0.5-8.8-0.5s5,3,8.9,4.3c3.9,1.2,8.1,0.5,8.1,0.5s-1.6,3-3.5,6.1c-1.9,3.2-3.7,1.8-5.3,2c-1.6,0.2-2.6,1.5-5.5,1.9
		c-3,0.4-9.2-0.8-8.2-0.4c1,0.4,1.4,1.2,3.1,1.5c1.7,0.2,2.8,0.5,4.3,1.8c1.5,1.2-1,1.5-2.9,1.9c-2,0.3-2.5,0.7-3.4,1.9
		c-0.9,1.2-4.3,6-5.3,7.5c-1.1,1.5-2,4-2.4,6.9c-0.4,2.9-2.9,6.4-1.8,7.2c1.1,0.7,5.3,0.8,7.1,1.9c1.8,1.1,3.7,6.4,5,8.5
		c1.3,2,2.4,3.6,3.9,2c1.5-1.6,4.4-1.2,7.2-0.2c2.8,1,8.4,4.9,10.2,6.6c1.8,1.7,4.8,1.4,8.3,1.9c3.5,0.5,3.8,1.8,3.8,1.8
		s3.6,0.2,2.1,1.7c-1.5,1.5-1.9,0-0.4,2.6c1.5,2.6,1.4,6,1,7.8c-0.4,1.7,4.8,0.9,6.9,2.1c2.2,1.3,2.3,6.5,3.4,5.9
		c1.1-0.6,3-1.8,3.2-3.2c0.2-1.4-0.1-3.2-0.3-5.6c-0.2-2.4-0.8-6.7-2-8.5c-1.2-1.7,2.1-2.4,1.6-3.2c-0.5-0.7-0.4-2.2,1.8-2.8
		c2.2-0.6,2.4,0,3.6-1c1.2-0.9,1.4-5.3,1.6-6.9c0.2-1.6-0.4-5-0.9-6.3c-0.5-1.3-2.7-5.4-3.5-6.3c-0.8-0.9-1.8-1.1,0.4-3.9
		c2.2-2.8,0.9-2.2,0.6-3c-0.3-0.8-0.8-2.9-1.2-4.8c-0.4-1.9,0.9-4,0.1-6.6c-0.8-2.7-1.6-2.1-1.5-2.7c0.2-0.6,5.2-0.4,8.9,0
		c3.7,0.4,5.2-0.4,6.3-0.4c1.1,0,3,1,5.1,2.4c2.1,1.3,2.9,1,3.9,2.6c1.1,1.6,1.6,2.5,3.8,2.4c2.2-0.1,4.5,0.9,4.5,0.9
		s-1.5,0.9-1.3,3.8c0.3,2.9-0.3,5-0.3,6.2c0.1,1.2,0.6,1.2,1.6,1.4c1,0.1,3.7,2.6,6.5,3.6c2.8,1,3.6,0.7,4.5-1.6
		c0.9-2.3,1.1-2.1,2.2-2.2c1.1-0.1,1.5,0.2,2-0.2c0.5-0.5-0.9-1.5-0.5-3.1c0.3-1.6,1.9-3.7,3.1-4.9c1.3-1.2,2.2,1.2,3.3,3.4
		c1.1,2.2,5,9.3,6.1,11.6c1.1,2.3,2.6,2.5,1.2,4.7c-1.3,2.2-2,3.1,0.1,4.1c2.1,1,3.9,2.7,3.8,4.4c-0.2,1.6-0.6,1.7,0.1,2.1
		c0.7,0.4,3.2-0.9,5-0.1c1.8,0.8,4,1.5,5.3,2.8c1.3,1.3,1.2,1.7-0.6,2.4c-1.8,0.6-3.6,1.3-4.5,1.8c-0.9,0.5-2.3,1.6-2.3,2.4
		c0.1,0.8-0.4,2.2,1.1,1.1c1.4-1.1,3.8-2.2,5.5-2.7c1.7-0.5,0.4-0.1,2-0.2c1.5-0.2,3,0.7,5.2,1.3c2.1,0.6,1.5,1.9,1,3.2
		c-0.5,1.2-1,2.4-0.2,3.8c0.9,1.4-0.4,2.6-2.2,4.3c-1.9,1.7-3.2,1.9-6.3,2.3c-3,0.4-4.5,2.2-6.6,4.2c-2.1,2-3.2,1.5-6.3,1.6
		c-3.1,0.1-1.9-1.5-2.8-1.2c-1,0.4-2.2,1.4-4.1,1.6c-2,0.2-8.6,0.3-11.2,1c-2.5,0.7-1.7,2.5-2.4,3.9c-0.6,1.4-1.6,0.8-3.6,1.5
		c-1.9,0.6-4.2,3.5-6.4,7.3c-2.2,3.9-5.3,6.2-5.3,6.2c0.6-0.1,3.8-2.1,5.3-4c1.5-1.9,8-6.3,9.9-7.7c2-1.4,6.2-3.4,7.2-3.1
		c1,0.3,3.5,2.2,3.5,3.2c0,1-0.7,1.8-2.6,3.5c-1.8,1.7-4.2,0-4,0.7c0.2,0.7,1.4,2.3,2.8,2.6c1.4,0.3,1.3,2,1.3,2.9
		c0,0.8-0.8,1.9,2.4,4.6c3.2,2.7,5.4,2.9,7.8,2.7c2.3-0.1,1.1,0.8,2.1,0.7c1-0.1,1.2-1.9,1.5-3.4c0.3-1.5,0.9-2.9,1.7-3.5
		c0.9-0.6,1.5-1.8,1.8,0.4c0.3,2.3-1,5.4-2.2,6.1c-1.2,0.7-0.9,1.6-0.9,2.3c0,0.7-1.4,0.7-4.7,2.6c-3.3,1.8-4.4,2.3-4.9,2
		c-0.6-0.2-1.8,0.3-3.4,1.7c-1.6,1.4-3.3,3.4-4.5,3.3c-1.2,0-2.2-0.5-0.6-2.2c1.6-1.6,2.1-3.9,3.7-4.7c1.6-0.8,2.3-0.7,3.7-0.7
		c1.3,0,0.7-0.8,1.8-1.6c1.1-0.8-0.8-0.6-2.6-0.8c-1.8-0.3-0.4-1.9-0.4-1.9l-1.9,1c0,0-2.8,1.5-3.6,1.6c-0.7,0.1-0.6,0.6-0.8,0.9
		c-0.2,0.3-2.9,0.5-2.9,0.5s-1.4,2.8-3.5,3.2c-2.1,0.4-0.6,0.2-2.1,0.9c-1.5,0.6-1.2-0.7-1.5-0.3c-0.3,0.4-0.6,0.7-2.2,2
		c-1.6,1.2-2.6,1.6-3.8,6.1c-1.2,4.5,0.2,6.1,0.2,6.8c-0.1,0.7-2.1-0.4-2.7,0.1c-0.6,0.5-1.9,2.2-3.7,2.7c-1.8,0.5-5.2,1.4-6,2.2
		c-0.8,0.8-0.9,2-1.2,3.8c-0.4,1.7-2.4,5.8-2.4,5.8s0.5-1.6-1-2.8c-1.4-1.2-1.2-2.3-1.2-2.3s-0.3,1.6,0.2,3.3
		c0.5,1.7,1.6,3.4,1.1,5.2c-0.5,1.8-1.4,4.1-2.5,4.8c-1.1,0.6,0.3-1.2,0.3-2.7c0-1.5-0.7-1.6-1.2-2.3c-0.5-0.7-0.5-2.6,0.4-5.2
		c0.9-2.5-0.8-1-1.8,0.7c-1,1.7-1.6,4.8-0.2,6.8c1.5,2-1,1.8,0.1,4.7c1,2.9-1.2,4.4-0.8,4.8c0.4,0.4,1.6-0.2,2.1,1.2
		c0.5,1.4-1.1,0.8-1.6,1.2c-0.5,0.4-0.3,0.9,0.1,1.7c0.3,0.8,1,0.3,0.7,0.5c-0.3,0.2-1,1.2-2.4,1.7c-1.4,0.4-1.5-0.3-2.3,0.7
		c-0.8,1-1.5,1.9-2.4,3c-0.9,1.1-1.5,0.7-2.5,1.5c-1,0.8-1.3,1.4-2.5,2.4c-1.2,1-3.8,2.5-5.3,4.5c-1.4,1.9-1.1,2.4-1.8,5.5
		c-0.7,3.1,1.8,8.6,3.3,13.7c1.5,5.1,2.2,3.7,2,5.3c-0.2,1.6-0.9,3.6-2,4.8c-1.1,1.1-1.7-0.8-3.3-1.9c-1.5-1.1-0.3-1.9-1.8-4.3
		c-1.5-2.4-1.4-3.2-1.5-5c-0.2-1.7-0.4-4.2-1.2-6.1c-0.8-1.9-2.5-4.3-5.1-3.3c-2.6,0.9-1.9,0.5-3.3,0.1c-1.4-0.4-5-1.9-6.9-0.9
		c-1.9,1-7.8-0.3-9,0c-1.2,0.3-2.1,0.4-2.1,1.2c0,0.8-0.5,1,1.7,1.6c2.2,0.6,1.9,1.2,1.7,2.2c-0.2,0.9-1.8-0.5-2.6-0.8
		c-0.9-0.3-1.6,0.7-3.1,0.7c-1.5,0-1.8-1.4-3.1-1.6c-1.3-0.2-1.9,0-3.1-0.5c-1.3-0.5-3-1.3-4.5-1.2c-1.5,0.1-7.2,3.9-9.9,5.9
		c-2.7,2-4.8,4-5.4,5.6c-0.6,1.6-0.7,1.8,1.5,4.2c2.2,2.4,1.2,2,0.7,3.4c-0.4,1.4-1.7,3.1-3.2,6.6c-1.5,3.6-0.6,5.3,1.2,8.7
		c1.9,3.4,3.5,5.9,5,7.3c1.5,1.4,2.5,3,3.8,3.5c1.3,0.5,1.5,0.7,2.1,1.3c0.6,0.6,0.4,0.8,2.4,0.3c2-0.5,3.5-1.3,4.9-1.3
		c1.4,0,2.8,0,3.6,0.8c0.8,0.7,0.9,0.3,0.9-0.1c0-0.4,0.6-1.9,0.9-2.3c0.2-0.4,2.1-3.1,2.4-4.6c0.3-1.5,0.3-4.5,2.2-4.7
		c1.9-0.2,5.8-1.1,9.5-0.9c3.6,0.2,2,2,1.1,3.9c-1,1.9-1.3,2.1-1.3,3.5c0,1.4,0.4,1.4-0.7,2.3c-1.2,0.8-0.4-0.5-0.9,0.3
		c-0.5,0.8-2.2,2-2,1.8c0.2-0.2,0.7,1.4,0.7,2.2c0,0.8-0.2,1.2-0.2,3.1c0,1.9-3.8,3.9-3.8,3.9s1.4,0.8,3.4,0.8c2,0,4.5,0,6.6,1
		c2.1,1,6.2-0.8,9.1,0.7c3,1.5,1.9,2.4,2.1,3.8c0.2,1.4,0.5,6.1,0.3,7.2c-0.2,1.1-1.6,4.2-2.3,6.3c-0.7,2.2,2.1,3.8,4.8,5.5
		c2.7,1.8,5,2.6,6.4,3c1.4,0.4,3.9-2.1,8.6-1.8c4.7,0.3,6.3,4.3,6.3,4.3s0.5-2.5,2.7-5.8c2.1-3.4,2.2-4.4,5.1-5.4
		c2.9-1.1,3.8-1.3,8.5-2.8c4.7-1.5,3.8-0.4,6.3-0.2c2.5,0.2,8.1,0.7,13.7,2.4c5.6,1.7,14.2,2.2,17.5,3.6c3.3,1.4,4.8,5.3,8.2,8.4
		c3.4,3.2,7.6,6,9.5,7.5c1.8,1.5,11.9,2.9,14.1,3.8c2.2,0.9,5.3,4.6,5.5,6.7c0.2,2.2,2.4,3.3,5.5,4.6c3.1,1.3,4,2.8,6.1,6.7
		c2,4,1.4,5,4.1,6c2.8,1,21.9,6.1,26.7,8c4.8,1.9,10.8,6.9,12.4,7.5c1.6,0.6,4.5-0.5,5.7,0.2c1.3,0.7-0.7,4.5,0.9,7.1
		c1.6,2.7,1.7,2.9,0.7,4.9c-1,2-4.8,6.7-6.3,9.1c-1.5,2.4-4.7,3.9-6.5,4.9c-1.8,1-3.4,0-1.8,2c1.6,2,0.1,3.7-1.3,5.4
		c-1.4,1.8,0.1,1.6-0.3,7.3c-0.4,5.7,0,12-0.6,14.4c-0.6,2.5-4.4-2.2-8.6,3.2c-4.2,5.3-5.4,9.4-8,10c-2.6,0.6-8.5,3.6-10.5,5.4
		c-2,1.9-2.4,2.6-3.7,5.3c-1.3,2.8-2.5,8.4-3.9,11.9c-1.4,3.5-3.6,5.4-8.7,10.1c-5.1,4.7-7.3,9.4-10.6,13.1
		c-3.3,3.7-2.4,2.9-3.1,3.6c-1.8,1.8-9-2.9-7.1-0.3c1.4,1.9-0.8,0,0.4,1.8c1.2,1.8,2,2.5-0.5,5.6c-2.5,3.2-5.5,2.5-7.5,3
		c-2,0.5-5-2.1-5.2-0.8c-0.2,1.3-1.4,4.5-3,5.3c-1.6,0.8-5.8,2-5.7,2.5c2,9.4,6.1,10.4,1.8,9.9c-12-1.2-3.4-4-11.8,13.4
		c-1.3,2.7-2.5,1.3-2.3,4.5c0.2,3.2,0,5.5,1.7,7.5c1.7,2,0.5,1.9-2.3,4.6c-2.9,2.7-3.1,2.3-5.7,6.3c-2.7,4.1-5.2,3.9-4.3,6.9
		c1,3.1,1.2,7.6,2.8,12.2c1.6,4.6,4.9,3.8,10.1,6.9c5.2,3.2,5.8,1.5,8.4,2.3c2.6,0.8-1.8,1-6.4,1.8c-4.6,0.8-7.5,1.7-10.7,1
		c-3.2-0.7-10.7-5.1-13.3-6.9c-2.6-1.9-6.7-5.2-8.2-8.5c-1.5-3.3-2.6-6.5-4.5-11c-1.9-4.5-0.5-7.2,0.3-17c0.9-9.8,1.5-17.4,2.9-22.7
		c1.4-5.3,5.6-28.6,6.8-34.7c1.2-6,6.6-30.6,7-34.4c0.4-3.9,0.7-6.8,1.6-10.7c0.9-3.9,0.3-11.7,0.3-12.1s-0.3-0.7-1.5-4.4
		c-1.2-3.7-3.1-5.1-5.7-6.7c-2.7-1.6-5.4-3.6-7.5-5.1c-2.1-1.5-4.7-3.6-6.8-6.2c-2.1-2.7-4.1-8.1-5.2-10.4c-1.1-2.3-5-10-8.6-15.3
		c-3.6-5.3-3.8-5.4-5.6-11.1c-1.8-5.6,1.6-5.7,2.2-8.9c0.6-3.2,2.8-6.3,5.1-10.8c2.3-4.5,5.4-5.7,7.2-9.7c1.8-4,0.4-4-0.2-7.8
		c-0.6-3.9,0.2-3.3-1-5.3c-1.2-2.1-1.8-4.6-2.9-5.3c-1.1-0.7-2.7-1.2-3.6-0.1c-1,1.1-2.7,4.3-3.7,4.5c-1.1,0.2-1.5-1-2.1-1.7
		c-0.6-0.7-3.7-0.7-4.4-1.4c-0.6-0.7-2.2-0.8-3.3-1.3c-1.1-0.5-5.2-2.7-6.4-3.7c-1.2-1-2.7-3.4-2.7-5.9c0-2.6-2.2-3.6-7.2-7.1
		c-5-3.6-7.1-4.1-13.2-5.5c-6.1-1.5-8.5-5.7-10.5-6.9c-2-1.2-1.8-2.5-6.3-2c-4.5,0.5-9.9-2-13.3-3.4c-3.4-1.4-9.5-2.4-12-4.1
		c-2.5-1.7-7-2.3-8.9-6.3c-1.9-4.1-1.6-2.5-0.9-6c0.7-3.6-4.4-6.5-7.4-9.9c-3.1-3.4-5.4-3.9-7-8c-1.6-4.2-3.9-4-7-6.9
		c-3.1-3-3.2-6.7-4.5-10.1c-1.3-3.4-9.8-8.2-9.8-8.2s2.2,5.6,3.2,7.9c1,2.3,3.2,7.7,5.7,11.8c2.5,4.1,4.8,5,7.1,9.1
		c2.3,4.1,0.1,6.5-0.7,5c-0.9-1.6-4.3-2.3-4.3-4.2c0-1.9-0.8-3.1-1.6-4.6c-0.7-1.5-4-3.2-7.2-5.7c-3.2-2.6-5.4-3.8-3.4-3.8
		c2,0,4.9,1.9,4.4,0.7c-0.5-1.2-4.1-4.9-5.8-7.4c-1.7-2.6-2.2-5.4-3.9-9.8c-1.7-4.4-8-8.5-11.1-8.8c-3.1-0.3-3.9-1.8-5-4.9
		c-1.1-3.2-1.3-6.5-2.7-9c-1.4-2.5-7.3-10.8-7.4-14c-0.1-3.2-1.8-12.4,0.3-17.5c2.1-5.1,1.6-16.6,1.3-18.9c-0.3-2.3-4.1-6.6-4.1-8.3
		c0-1.7,2.2-0.7,3.9-0.2c1.7,0.5,5.3,2,5.3,2s-2.8-5.1-4.5-6.9c-1.7-1.8-6.7-4.1-8.9-4.6c-2.2-0.5-5.1-1.3-6.3-3.2
		c-1.2-1.9-2.4-4.4-3.3-5.9c-0.8-1.6-4.5-3.5-5.3-5.1c-0.9-1.7-0.6-4.9-1.8-6.6c-1.2-1.7-2.9-2.7-4.8-2c-1.9,0.7-2.5-1-4-3.5
		c-1.5-2.5-4.8-3.7-5.7-4c-1-0.3-4.2-4.7-4.5-5.7c-0.2-1.1-5.4-6.8-7.1-8c-1.7-1.2-18.2-6.5-18.6-6.5c-0.4,0-5.2,0.7-6.5,0.3
		c-1.3-0.4-5.6-4.2-7.9-4.9c-2.2-0.8-3.8,0.9-4.9,3.4c-1.1,2.5-6.3,6.7-9.1,8.6c-2.9,1.9-5.2,2.1-5,1.1c0.2-1,0.1-2.6,1.1-5
		c1-2.4,1.5-3.1,4.5-4.6c3-1.5,2.9-1.6,1.7-1.5c-1.2,0.1-2-0.2,0.3-1.6c2.3-1.4,3.3-1.6,3.2-2.8c-0.1-1.2-5.1,1.6-8.3,4.2
		c-3.2,2.6-5.1,4.4-7.9,8.9c-2.8,4.6,0.3,2.9-2,5.8c-2.3,3-10.3,9-12.6,11.3c-2.3,2.3-12,7.3-15.9,8.5c-3.9,1.2-5.5,1.7-7.4,3.3
		c-1.9,1.6-6.7,2.1-5.1,1c1.6-1.1,4.6-3.6,6.6-4.8c2-1.2,7.4-3.4,9-4c1.6-0.6,6.1-3.4,8.3-5.8c2.2-2.5,3.7-5.3,5.2-7.7
		c1.5-2.4,1.8-3.5-1.3-2.5c-3.1,1-6.3,0.6-7.9,0c-1.6-0.6-5.7,1.9-7.2,0.8c-1.5-1.1,0.1-3.4-0.9-4.5c-0.9-1.1-4.2-0.4-6.4-0.8
		c-2.1-0.4-5.1-2.1-5.1-5c0-3-2.1-5.5-1-7.8c1.2-2.3,2.9-2.9,4.8-4.2c1.9-1.3,7.2-3,8.3-3c1.1,0,2.6-1.1,3.5-2.1
		c1-1-2.2-4.6-2.2-4.6s0.5-0.4,1.8-1.2c1.3-0.8,0.3-2.5-1.9-2.2c-2.2,0.3-7,2.6-10,3.4c-3,0.8-7,0.3-6.9-1c0.1-1.3,0.7-2.1-0.3-3.1
		c-1.1-1-1.9-2.1-0.9-2.6c1.1-0.5,7.7-4.2,7.7-4.2s2.3,2.6,4.9,2.9c2.6,0.3,8-4.5,8-4.5c-3.4-2.1-2.7-2.7-2.7-2.7s-5.5-0.1-6.8-0.9
		c-1.3-0.8-1.7-2.4-2-3.8c-0.3-1.4-5.7-2.5-4.2-4.8c1.5-2.3,4.2-3.1,6.1-5.3c1.8-2.3,3.4-6.5,8.6-8.9c5.2-2.4,11.5-4.6,14.2-6.5
		c2.8-2,4-0.1,5.1,0.2c1.1,0.3,7.7-0.3,10.2-0.3c2.6,0,3,2.9,3.8,3.6c0.8,0.7,23.3,1.4,23.3,1.4s19,0.3,22.9,1.4
		c3.8,1.1,10.7,4,10.7,4C158.8,167.1,158.5,162,161.1,162z M416.6,47.2c0,0-1.9,7.9-9.6,10.1c-7.7,2.2-21.7,8.3-22.3,8.7
		c-0.6,0.4,0.9,4.7,2.8,6.9c1.9,2.2,3.7,3.7,5.4,5.8c1.7,2.2,4.7,2,7,4.3c2.3,2.3,4,1.5,10.4,1.6c6.4,0.1,4.7,0.6,11.8,1
		c7.1,0.4,14.6,1,17,3.2c2.4,2.2,5.9,10.7,8.2,15.8c2.2,5.1,6.2,13.7,6.2,14.5c0,0.8-2.4,7-2.4,8c0,1,1.3,2.7,2.4,4.1
		c1.2,1.4,0.5,2.5,0.3,3.8c-0.2,1.3,1.3,4.6,1.5,5c0.2,0.4,3.4-3.2,5.4-3.8c2-0.6,7,3.6,7,6.4c0,6.5,1.8,4.3-8.8,12
		c-1.4,1-2.8,8.8-1.7,12.6c1.1,3.8,3.6,8.2,5.6,13.6c2,5.3,8,12.9,9.9,16.3c1.9,3.5,2.4,8.2,6.7,9.3c4.3,1.1,8.3,2.6,11.4,3.3
		c3.1,0.7,5.1,1.7,6.6-1.2c1.5-2.9,4.5-13.8,6.9-21.7c2.4-7.9-0.2-10.3,5.5-12.1c5.7-1.8,14.9-5.3,17.3-6.4c2.4-1.1,2-8.9,7.4-11.5
		c5.4-2.6,6.2-2.4,11.5-4.1c5.3-1.7,12.8-5,18.1-8.8c5.3-3.8,6.8-1.8,8.7-5.2c1.9-3.5-1.9-8.5-2.3-13.7c-0.4-5.1,1.7-5.4,2.8-10.1
		c1.1-4.6,1.6-7.7,5.7-10.9c4.1-3.2,6.4-4.9,5.6-7.9c-0.7-3-2.9-7.4-2.9-10.7c0-3.3,0.7-1.4-1-5.9c-1.7-4.6-1.7-5.1-0.1-9.4
		c1.6-4.3,5.9-3.2,5.5-5.1c-0.3-1.9-6.8-4.7-6.9-10c-0.1-5.2,1.2-6.8,2.2-8.1c1.1-1.3,11.9-9.9,12.6-10.7c0.7-0.8-0.2-3,5.1-5.5
		c5.3-2.6,7.1-4.3,9.1-5c2-0.8,5.2-0.7-1-2.5c-6.2-1.8-7.5-2.6-11.6-2.1c-4,0.5-5.4,2.8-12.6,3.5c-7.2,0.7-15.4,4.1-15.4,4.1
		s2.4-2.2,0.3-4.3c-2.1-2.1,5.5-8.9,6.8-9.7c1.3-0.8-10-3.6-15.8-4.6c-5.8-1.1-17.3-4.6-23.9-4.1c-6.6,0.5-16.3,0.4-19.6,1.5
		c-3.3,1.1-2.9,5.3-6.6,5.5c-3.7,0.2-10.6-2.2-15.9-1.4c-5.3,0.8-13.8,4.5-14.8,4.7c-1,0.2,3.3,2.8,6.1,3.4c2.8,0.6,6.4,6.3,6.4,6.3
		s-7.4-2.5-15-4.6c-7.6-2.1-16.4,0-19.5,0.9c-3.1,0.9-7.1,2.6-13.3,2.9c-6.2,0.3-13.2,5.3-16.7,7.7c-3.5,2.4-14.5,8.7-17.2,10.2
		c-2.8,1.5-1.7,2.2,1.3,3C413.5,46.7,416.6,47.2,416.6,47.2z M259.1,129c0.8,3.6,0.8,8.8-1.1,6.6c-2-2.2-3.6-6.8-6.8-5
		c-3.2,1.9-6.7,1.3-6.1,0.9c0.6-0.4-0.1-2.4-1.7-3c-1.6-0.6-2.6,0.3-4.3,1.3c-1.7,1-7.1,2.3-4.9,0.6c2.2-1.7,1.5-2.6,0.7-4.6
		c-0.8-2-6.4,1.4-9.4,3.5c-3,2.1-4.7,5.3-6.5,7.5c-1.8,2.2-0.5,3.6,2.2,4.4c2.7,0.8,7,1.3,3.4,2.6c-3.6,1.3-6.4,2.2-4.5,3.4
		c1.8,1.1,5,1.3,8.2,0.9c3.2-0.4,5.9-1.2,11,0.1c5.1,1.4,8.1,1.3,8.1,1.3s-1.9,1.2-5.3,1.8c-3.4,0.6-9.6,0-12.8,0.6
		c-3.2,0.6-8.2,1.4-6.9,2.6c1.3,1.2,2.3,3,6.7,4.4c4.4,1.4,5.2,0.1,7.8,0.7c2.6,0.7,1.2,3.6,1.9,4.1c0.7,0.5,5.7-0.4,10.6-1.3
		c5-0.9,3.1-1.7,7-2.7c3.9-1,4-4,6.3-4.6c2.3-0.7,0.6,1.5,3.3,2.2c2.7,0.7,1.2,0.9,4.1,1.3c2.9,0.5,2.3,1.6,5.2,1.4
		c2.8-0.2,6.2-2.1,5.7-2.4c-0.4-0.3-0.9-1.2-0.6-2.5c0.3-1.3-2.8,0.3-4,0.9c-1.1,0.7-1.1-1.8,1.3-3c2.4-1.2,4.5,0,6,0
		c1.4,0,0.1-4.1-2.4-4.7c-2.6-0.7-3.7-2.2-7.5-4.4c-3.8-2.1-1.8-3-3-5.8c-1.1-2.8-3.5-11-5.7-12.4c-2.1-1.5-4.4-1.1-6.5-2.5
		C258.7,123.4,258.3,125.4,259.1,129z M200.3,123.4c0.9,2.6,1.1,1-0.8,3.9c-1.8,2.9-0.8,4-2.1,6.1c-1.3,2.2-4.7,5.1-3.6,6.5
		c1.1,1.4,4.5,2.3,5.9,3.4c1.4,1.1,2.8,3.4,5.4,2.6c2.6-0.9,3.4-1.5,5.2-2.4c1.8-0.9,3.3-2,3.2-4.3c-0.1-2.3-0.1-3.4,0.6-3.2
		c0.7,0.2,1.8,1.3,2.4-0.3c0.6-1.5,1.6-3.5,2.8-4.7c1.2-1.2,4.7-2.4,6.3-3.8c1.6-1.4,4.4-2.9,5.2-4.1c0.8-1.2-1.4-2.1-2.8-2.6
		c-1.3-0.5-2.9-2.6-6-2.6c-3.1,0-4.8,2.4-4.7,1.3c0.1-1.1-2.1-1.6-3.4-2c-1.3-0.5-2.5-1.2-6.5-0.7c-4,0.5-5.7,0.7-8.9,1.6
		C195.6,119,199.4,120.8,200.3,123.4z M292.6,155c-0.4,0.6-2.3,1.2-3.4,2.5c-1.1,1.3,2.4,0.6,3.5,1c1.1,0.4,2,1.5,2.9,1.9
		c0.9,0.3,5.9,0.5,7.9-0.5c2.1-1,2.3-1.3,2.1-1.8c-0.2-0.5-4.2-4.4-7.2-6c-3-1.6-3-1.6-3.7-1.3C294.1,151.3,293,154.4,292.6,155z
		 M279.2,124.2c-1.9,1-3.3,2.1-0.1,3.8c3.3,1.6,4.3,3,6.5,4.4c2.2,1.4,3.1,5.3,7.7,3.6c4.6-1.8,6.4-3.9,7.1-5.7
		c0.6-1.9-0.6-2.2-1.8-4c-1.1-1.7-1.4-2.4-3.8-2.2c-2.3,0.3-3.1,0.3-3.1,0.3s1.6-2,4.1-3.2c2.6-1.3,0.4-2.1,1.6-3.3
		c1.2-1.2-3-1.8-4.9-1.3c-1.8,0.5-1.9-0.1-5-0.3c-3-0.1-7.9,2.6-7.7,3.6c0.2,1,2.5,0.6,4.6,1.8c2.1,1.2,2.8,1.1,0.6,4.4
		c-2.1,3.4-3.3-0.8-4-1.3C280.6,124.2,281.2,123.2,279.2,124.2z M265.6,118.1c-3.2,0.3-4.3,2.5-3,2.8c1.2,0.3,2-0.3,3.9,1.7
		c1.9,2,3.6,3.2,4.4-0.2C271.6,119.1,270.5,117.6,265.6,118.1z M214.4,92.5c-3.6,2.8-4.2,5.1-7,6.9c-2.8,1.8-2.1,3.3-1.2,4.3
		c0.9,1,3.7-0.1,5-0.7c1.3-0.7,2.3-2.3,3.1-1.3c0.8,1,4-3.4,5.3-4.8c1.3-1.4,3.3-3,3.6-2.9c0.4,0.1-1.2,1.7-0.6,3.1
		c0.6,1.4,3.1,1.5,5.4-0.9c2.3-2.4,0.2-4.6,2-6.4c1.8-1.9,3.3-1.6-0.2-3.2c-3.5-1.6-5.7,0.2-6.4,1.1C222.6,88.4,221.3,87,214.4,92.5
		z M236,97c-2,0.1-2.9,0.4-6.2,1.8c-3.3,1.5-4.7,5.2-5.5,7.3c-0.8,2,0.4,2,3.4,3.2c3,1.2,7.3-0.3,8.3-3.2c1-2.8,2.2,0.7,1.6,2.1
		c-0.6,1.4,2.1,0.1,3.4-0.5c1.3-0.7,5.1-0.9,5.4-0.9c0.3,0-3.1,2.6-6.5,3.7c-3.3,1.1-6,1.7-6.9,1.8c-0.9,0.1,0.9,1.5,4.7,2.3
		c3.9,0.8,6.2-2.4,11.8-4.5c5.6-2.1,5.3-2.5,7.2-2c1.8,0.5,3.8-0.9,6.1-1.5c2.3-0.5,3.2,0.3,4.2-3c1-3.4,2.8-6.6-0.4-6.8
		c-3.2-0.2-3.4-0.2-3.8,3.4c-0.4,3.6-0.7,1.4-0.7,1.4s-2.1-3.2-3.4-4.8c-1.3-1.6-2.2-4.2-3.6-5.6c-1.4-1.4-2.1,0.6-4.3,3
		c-2.2,2.4-0.4,3.4,1.8,4.4c2.2,1.1,3.8,3.8,2.7,4.5c-1.1,0.7-2.3-0.1-6.3,0.3c-4,0.5-3.9-1.3-5-1.8c-1.1-0.5,1.9-1.6-2.4-3.4
		C237.2,96.6,237.4,97,236,97z M222.9,100.5c0.4-0.8-5.4,3.4-6.3,4.8c-0.9,1.4,0.9,1.1,2.7,1.1C221.1,106.2,221.4,103,222.9,100.5z
		 M234.1,91.7c-1.5,0.7-1.5,1.2,0.9,1.4c2.4,0.3,3.8-0.8,3.3-1.8C237.8,90.4,235.3,91.2,234.1,91.7z M246.2,79.2
		c-1.6,0.3-6.2,1.9-6.4,2.7c-0.2,0.8,0,2.5,0.7,3.9c0.7,1.4,1,1.6,4.9,0.5c4-1.1,6.7-3.1,5.4-3.5c-1.3-0.4-2.1-1-3.3-1.1
		c-1.2-0.2,1-0.8,3.6-1.6C253.8,79.2,254.7,77.8,246.2,79.2z M232.8,81.3c-1.1,0.5-1.5,0.5,0.8,1.4c2.3,0.9,4.9,0.8,4.5,0.1
		C237.8,82.1,235.9,79.8,232.8,81.3z M241.9,74.8c-2.2,0.9-2.7,2.5-3.2,3.1c-0.5,0.6,2.5-0.5,3.9-0.8c1.4-0.3,1.7,0.5,3.1-0.7
		c1.3-1.2,4,0,6.4-0.5c2.4-0.5,2.8-2.1,2.3-3.5C253.8,71,248.2,72.3,241.9,74.8z M265.9,80.7c-0.7,0.3-0.4,1.4,0.1,2.6
		c0.6,1.2,0.7,0.9,1.9,1.4c1.2,0.5,2.4,1.4,2.7,1.7c0.3,0.3,0.5,0.4,1-0.8c0.5-1.2-0.2-1-1.6-2.6C268.7,81.5,267.6,79.9,265.9,80.7z
		 M274.1,91.1c-1.8-0.5-2.9,0.6-3.5,0.9c-0.7,0.3,0.4,1.1,0.8,2.5c0.5,1.4,0.1,1.9,2.8,2.1c2.7,0.2,3.5-0.3,3.7-2
		C278.1,92.8,275.8,91.6,274.1,91.1z M284.6,94.2c-1.7-1.2-2.5-2.2-4.2-1.5c-1.7,0.7-0.3,1.5-0.3,2c0,0.5,2.1-0.1,2.1,1.1
		c0,1.1,0.7,1.6-1.8,1.7c-2.5,0.1-3.2,0-4.1,0.8c-0.9,0.7,1.8-0.1,2.7,1c0.9,1.1,2.3,1.3,4.7,0.9c2.4-0.4,5.6-0.9,5.6-0.9
		s-1.7,1.6-2.4,2.8c-0.7,1.2-1,2.8,0.2,3.6c1.2,0.8,1.4-0.9,4.8-0.9c3.4-0.1,4.5-1.8,4.5-1.8s-0.8-0.8-0.7-2.5c0.1-1.7,0-2.1,0-2.1
		s1.4,1,1.7,1.4c0,0-0.2-1-0.7-2.9c-0.5-1.8-0.1-2-0.6-4.5c-0.5-2.5-0.4-3-3-3c-2.6,0.1-4.4,1-6.5,1c-2.1,0-3,0.4-1.5,1.2
		c1.6,0.8,1.8,1.7,2.5,2.6c0.7,0.9,0.6,3,0.6,2.9C288.1,97,284.6,94.2,284.6,94.2z M271.6,103.6c0,0-0.1,0-0.1,0
		c-1.1,0.5-1.4,1.7-1.5,2.6c-0.1,0.9,1.4,0.4,3.8-0.5C276.2,104.9,275,102.5,271.6,103.6z M305.1,99.1c-2,1.1-3.5,2.5-4.7,3.8
		c-1.1,1.3-0.1,1.4,2.8,2.9c2.9,1.5,6.1,1.8,7.5,0.2C312,104.5,310,96.4,305.1,99.1z M318.7,87.6c-3.8,0.4-2.6,0.9-7-0.5
		c-4.4-1.4-9.8-1.6-11.3-1.6c-1.5,0-0.8,0.7,0.7,3.2c1.5,2.5,2,3.4,5.2,2.6c3.2-0.8,5.8-1.3,8.1,2c2.3,3.4,3.6,4.4,1.6,5.6
		c-1.9,1.2-1,3.2,0.1,5.8c1.1,2.6,3.7,2.5,7.2,2.5c3.6,0,26.1-0.3,29.6-1c3.5-0.6,6.6-3.6,8.5-4.9c1.9-1.3,2.9-3.4,0.3-5
		c-2.6-1.5-6.2-3-9-3c-2.9,0-5.3,1.5-9.7,1.9c-4.4,0.4-3.4,2.5-7.3,2.6c-3.9,0.1-2,1.8-6.9-0.1c-4.8-2-8.4-4.5-6.1-4.8
		c2.3-0.3,4.1-0.6,2.9-1.7C324.5,90.2,322.3,87.3,318.7,87.6z M273.7,69.2c2.3,0.8,2.9,1.4,0.3,2.1c-2.6,0.7-4.6,2.5-2,2.2
		c2.6-0.3,4.8,0.2,8.2,0.8c3.4,0.5,3.1,0.2,4.6,2.1c1.5,1.9,3.1,1.9,5.4,1.3c2.3-0.5,2.6-0.7,1.1-2.3c-1.5-1.6-3-4.6-5.1-5.8
		c-2-1.2-3.7-2.9-5.7-2.7c-2,0.2-2.5,0.2-4.3-2.1c-1.8-2.4-3.1-1.2-5.7-0.6c-2.5,0.6-3.4,2.5-4.4,3.3
		C264.1,69,271.3,68.4,273.7,69.2z M304.3,44.9c-2.8,3.5-5,6.4-1.9,6.7c3.1,0.3,4.5-0.2,4.7,0.7c0.2,1-0.5,1.7-5.2,1.7
		c-4.7,0-3.2,1-0.6,4.1c2.6,3.1,2.9,2,6.9,1.9c4-0.1,5.3-1.5,8.6-0.7c3.3,0.8,4.3,1.7,1.3,2.6c-3,0.9-10,2.6-8.4,4.1
		c1.6,1.5,6.5,5,8.8,5.4c2.2,0.3,2.7-1.5,7.5-0.9c4.8,0.5,3.7,1,4.2-0.3c0.5-1.3,3.2-4.7,3.7-6c0.5-1.2,1.9-2,4.5-2.6
		c2.7-0.6,3.5-1.4,1-2.3c-2.5-0.9-5.3-1.3-5-2c0.3-0.7,1.8-2.7,0.7-3.8c-1.1-1-2.8-1-4.1-1.5c-1.4-0.5-2.9-3.1-4.7-4.2
		c-1.7-1.1-3.3-1.2-5.4-2.8c-2.1-1.6-5.5-5.6-9.8-5.4C308.3,39.8,307.1,41.5,304.3,44.9z M298.9,73.9c-1.1,0.5-3.7,0.6-1.7,2.3
		c2,1.6,1.4,1.7,3.9,0.7c2.5-0.9,6.1-3.3,6.4-4c0.3-0.7-2.5-2-4.4-2.6c-1.9-0.6-3.2-2.1-7.2-3.2C290,65.5,299.9,73.3,298.9,73.9z
		 M428.9,22.4c-4.4-1.2-20.1-4.2-25.2-3c-5.1,1.2-4.8-2.6-11.9-1.7c-7.1,0.9-18,0.4-21.4,0.9c-3.4,0.5,1.7,2,3.5,3.2
		c1.8,1.2-8.8-1.3-16.9,0.9c-8.1,2.2-13.3,3.4-4.7,6.7c8.6,3.3,9.8,4.2,9.8,4.2s-11.1-2-15.7-3.8c-4.7-1.8-2.1-1.7-10.9,0.8
		c-8.8,2.5-17.3,3.8-16.9,6.5c0.4,2.6,7.1,6.2,11.5,7.1c4.4,0.9,13.5-1.3,14.2-1.6c0.7-0.3-3.5,3.6-3.5,3.6s4.5-0.9,9.6-2.2
		c5.1-1.3,9.1-2.8,13.9-4.5c4.8-1.7,5.7-2.2,5.7-2.2s-8.4,6.5-14.2,8.7c-5.8,2.2-13.3,3.7-16.9,3.8c-3.5,0.1-3,2.4,0.6,4.2
		c3.5,1.8,6.2,5.8,8.1,7.1c1.8,1.3,2.1,3.4,2.1,3.4s-5.5-4.4-11.6,0c-6.1,4.4-5.2,6.6-3.7,7.1c1.6,0.5,6.9,1.1,7.9,2.9
		c1,1.8,8.1-1.7,8.1-1.7s-3.5,4.5-6.9,4.5c-3.4,0-3.3-2.9-8.2-2.4c-5,0.5-4.7,1.7-2.5,3.4c2.1,1.7,3.8,2.2,0.1,4
		c-3.7,1.7-5.4,2.2-5.5,4.4c-0.1,2.1,4.8,2.1,7.9,2.1c3.1,0,6.1-0.3,11.8-0.4c5.7-0.1,5-2,7.1-2c2.1,0,4.3,0.7,3.4,2.8
		c-0.8,2.1,0.8,0.8,7.1-1.4c6.2-2.2,3.4-5.7,3-6.9c-0.4-1.2-2.7-1.6-4.1-2.2c-1.4-0.7,4.3-6.5,3.4-8.4c-0.8-2,6.9-0.4,10.5-5
		c3.5-4.6,2.3-8.1-0.3-8.8c-2.5-0.8,4.7-0.3,6.9-1.6c2.3-1.3,7.2-2.9,9.2-5.4c2-2.5,2.7-3.4-2.1-2.9c-4.8,0.5,6.9-2.1,12.6-5.8
		c5.7-3.7,12.2-8,13.6-9.1c1.4-1.1,2.7-0.5-4-0.1c-6.7,0.4-14.6-0.5-10.2-1.1c4.4-0.5,17.4-2.1,20.8-4.6
		C427.3,23.2,428.9,22.4,428.9,22.4z M349.5,114c-7.1-0.7-17.4-2.4-19.6,3.7c-2.1,6.1-5.4,19.5-5.7,22c-0.3,2.5,8.5,6.2,14.6,6.5
		c6.1,0.3,16,0.7,14-0.8c-2-1.4-0.3-2.2,5.4-2c5.7,0.3,6.2-1.2,6.2-2.4c0-1.2,1,1.4,5,3.6c4,2.1,7.4,8.1,10.9,11.5
		c3.5,3.4,11.5,8,9.9,10.7c-1.6,2.6,1.7,11.9-10.5,14c-12.2,2.1-12.9,0.7-12.7,3.4c0.1,2.8,0.7,4,5.5,4c4.8,0,11.5-4,13.7-1.1
		c2.3,2.9,5.4,4,7.4,4.6c2,0.7-2.4,1.8-3.5,2.2c-1.1,0.4,2.4,0.8,9.4,4.1c6.9,3.3,15.3,3.7,11.2,1.3c-4.1-2.4-6.1-6.7-7.9-8.2
		c-1.8-1.4-0.1-0.3,3.1,0.5c3.3,0.8,6.2,3.4,7.6,4.6c1.4,1.2,2.1-0.4,3.1-5c1-4.6-0.4-4.6-6-8.3c-5.5-3.7-7.2-6.6-7.8-9.2
		c-0.6-2.6,2.8-3.2,4.3-5c1.4-1.8,5.4,3.3,8.1,6.3c2.7,3,5,8.3,7.1,4.5c2.1-3.8,4.1-12.4,4.1-14.4c0-2-2.1,0.1-11.2-4.4
		c-9.1-4.5-13.8-6.2-14.6-6.2c-0.9,0,2.4-1.7,6.4-3.7c4-2,5.7-1.7-2.8-9.8c-8.5-8.1-10.9-9.8-16.4-10.3c-5.5-0.5-7.1-6.3-11.1-8.3
		c-4-2-13.2,2.4-15.9,3c-2.7,0.7-1.8,1.7-5.2-3.2C352.2,117.6,349.5,114,349.5,114z M355.9,114c-3.5,0.4,2.1,6.9,6.7,7.1
		c4.5,0.3,8.4-2,9.4-2.2C372.9,118.6,361.4,113.3,355.9,114z M340,179.5c-0.6,1.4-2,5.4-2.2,8.1c-0.2,2.7-0.6,3.1-1.2,4.7
		c-0.5,1.7,1.7-0.3,3.2,2.2c1.5,2.5,0.8,3.2,3.5,0.3c2.7-2.9,5.6-3.9,9.4-2.7c3.7,1.2,6.6,1.7,5.3-0.6c-1.3-2.3-3-2.1-5.5-5.1
		c-2.6-3.1-4.5-3.9-7.6-5.1C341.6,180.2,341.3,176.4,340,179.5z M366.8,410.7c-1.1-2.3-2.7-6-9.6-7.3c-6.9-1.3-9.2,1.3-11.8,2.1
		c-2.6,0.9,2.4,1.3,5.7,0c3.3-1.3,5.8-0.3,6.2,0.3c0.4,0.6-1.1,0.9-1.7,0.3c-0.6-0.6-0.7,1.5,3,2.9c3.7,1.3,4.6,2,5,3.6
		c0.4,1.6,0.3,2.4,1.2,3.8c0.8,1.3,1.2,1.9-0.4,2.5c-1.6,0.6-1,0.5,0.1,1.2c1.1,0.7,3.4,1.9,6.7,2.2c3.2,0.3,4.3,0.9,2.1-2.1
		C371,417.2,367.1,411.4,366.8,410.7z M377,425.2c1.8,1.8,1.3,3.8,1.1,4.9c-0.1,1.1-2.1,0.2-5.6-0.7c-3.6-0.9-3-0.5,0.1,1.2
		c3.1,1.7,5.1,1.3,5,3.5c-0.1,2.2,2.8,0.2,4.2-1.1c1.3-1.3,1.2-0.1,6.7,0.7c5.5,0.8,6.6,1.8,5.8-0.6c-0.9-2.4,2.5-2.2-2.4-4.5
		C387,426.3,375,423.1,377,425.2z M361.4,426.6c-2.1-2.3-4.7-2.6-4.7-0.7c0,1.9,0.7,1.8,2.6,2.4
		C361.3,428.8,362.7,428.1,361.4,426.6z M401.3,436.5c-2.2-0.8-2.7,0.9-1.2,2.3c1.5,1.4,3.8,0.9,6.1,0.8
		C408.4,439.6,405.2,437.9,401.3,436.5z M375.5,160.3c-3,1.3-4.7,2.1-2.1,5.5c2.6,3.4,4.1,5.5,5.1,3.1
		C379.5,166.4,380.5,158.2,375.5,160.3z M351.6,196.9c-4.5,0.7-6,0.9-5.2,3.4c0.7,2.5,1.9,2.1,5,0.6
		C354.4,199.4,356.5,196.2,351.6,196.9z M360.9,200.8c-0.8,0.2-1,2,0,3.6c1,1.6,2.9-0.5,3.8-2.4C365.6,200,363.8,199.9,360.9,200.8z
		 M311.9,79c-4.2,0.1-10.6,1.6-7.1,1.7c3.5,0.1,6.5,0.8,12.2,0.5c5.7-0.3,6.3-0.7,6.4-3.5C323.6,74.9,319.7,78.7,311.9,79z
		 M285.3,55.7c-4.3,1.3-3.3,2.2,1.8,4.5c5.1,2.2,5.2,1.2,4.7-3C291.3,52.9,287.9,54.9,285.3,55.7z M588.3,166.1
		c-5.4,1.5-7.2,0.6-8.2,3.3c-1,2.7-3.1,1.3-4.3,1.6c-1.2,0.3-2.9,7.9-3.8,6.8c-0.9-1.1-1.2-1.7-2.4-4.4c-1.2-2.6,0.4-2.1-2-4.9
		c-2.4-2.8-7-2.4-7.4-1.3c-0.3,1.1,3.2,2.1,2,3.3c-1.2,1.3-4.1,2.8-5.2,3.8c-1.1,0.9,2.1,0.5,4.1,0c2-0.5,3.4,1.5,4.2,2.9
		c0.8,1.4-0.9,2.8-1.8,3.5c-0.9,0.7,2.9,0.5,4.4,0.8c1.5,0.3,2.3,1.6,1.3,3.3c-1,1.7,4.5,0.2,7.6,0.1c3.1-0.2,3.9,2.1,8.5,0.6
		c4.6-1.5,6.8-1.4,11.1-4.5c4.2-3.1,3.9-2.4,6.7-4.4c2.8-2,2.1-2.6,2.2-4.9c0.1-2.2,1.9,0.6,1.2-2.7c-0.6-3.4-4.1-2.5-6.5-2.7
		c-2.4-0.3-2.3-2.2-3.5-2.8C595.3,163,593.7,164.6,588.3,166.1z M947,456.9c-0.2,0.8-0.6,1.7-0.6,3.5c0,1.8-0.2,3.7-0.1,5.5
		c0.1,1.8,0.2,3,1.2,3.4c1,0.4,1.7,0.8,3.3,0c1.6-0.8,3.2-2.1,2.3-4.2c-0.8-2-2.3-4.9-3.2-6.4C949.2,457.3,947.5,455.4,947,456.9z
		 M945.7,454.4c0.2,0.8,0.4,0.6,0.8,1.1c0.4,0.5,0.7,0.1,0.2-0.6s-0.4-0.8-0.4-0.8s-0.6-0.2-0.6,0.4 M1098.7,559.8
		c0,0.1-0.1,0.1-0.2,0.2c-2.9,2.9-5.6,2.1-10.6,3.7c-5.1,1.6-13.9,6.7-14.6,9c-0.6,2.3,0,2.6-0.6,2.3c-0.6-0.3-1.7-1.7-1.7-1.7
		s-1.4,2.8-1.1,5.2c0.3,2.5,1.5,4,1.4,7.1c-0.1,3.2-1.3,5-1.2,7.2c0.1,2.2,3.7,6.3,4.7,8.9c1,2.6,1.6,1.9,2.1,6.5
		c0.5,4.6,3,7.2,0.5,9.7c-2.4,2.5-4.2,2-1.3,4.6c3,2.6,5.4,4.3,10.2,2.6c4.8-1.7,3.5-3.2,7.2-4c3.7-0.8,4.5-1.6,7.6-1.8
		c3.2-0.2,5.4,0.1,6.6-2.2c1.2-2.3,0.3-2.2,3.5-3.8c3.2-1.6,2.9-2,5-2.4c2.1-0.4,3.5,1.1,6.4-1.2c2.9-2.3,0.7-2.5,7.1-2.5
		c6.4,0,9,0.9,11.4,1.7c2.3,0.8,6.2,2.9,7.1,4.4c1,1.5,2.2,3.3,2.7,3.3c0.4,0,1,0.1,2.4-1.4c1.5-1.5,5.7-4.5,5.7-4.5
		s-0.2,3.2-1.2,4.4c-1,1.2-1,2.9-1,3.5c0,0.6,2.4-1.9,2.8-2c0.3-0.1,0.6,4.4,1,4.7c0.3,0.4,1.3,0.2,2.2,1.5c1,1.3,2.2,2.3,3.2,4.8
		c1,2.5,5,4.9,7.5,5.3c2.6,0.4,4.8,0.2,6.7-0.1c1.9-0.3,2-2.6,4-1.7c2,0.9-0.1,2.8,4.7,2.4c4.8-0.4,6.1-2,8-3.3
		c1.9-1.3,2.1,1.8,4.6-1.6c2.4-3.4,2.9-2.6,3.3-6.6c0.4-4.1,0.3-4.9,2.7-8.7c2.3-3.9,2.9-2,4.5-7.6c1.6-5.6,3.6-11,3.4-15.6
		c-0.2-4.7,0.1-1.6-1-6.8c-1.1-5.2-0.3-4.6-3.7-6.8c-3.4-2.2-4.2-1.6-5.1-4.7c-0.8-3.1,0.2-4-1.4-4c-1.6,0-3,0.7-3.9-1.4
		c-1-2.1-0.8-2.9-2.7-4.9c-1.8-2-3.5-1.6-6.8-3.1c-3.3-1.5-1.6-1.9-1.6-4.5c0-2.6,0.2-5.3-2.4-6.5c-2.6-1.2-1.1,0.7-1.1-3.6
		c0-4.2,0-3.6-2.1-4.4c-2.1-0.7-2.8-0.7-4.2-3.2c-1.3-2.6-3.1-6.8-3.8-8.5c-0.6-1.7-1.4,0.2-2.3,1.4c-0.9,1.3-2.1,4-2.1,6.6
		c0,2.6,1.1,4,1.1,7.5s-2.4,6.9-3.9,8.8c-1.5,2-2.7,0.2-4-0.3c-1.3-0.5-1.6-2.4-4.2-3.8c-2.7-1.3-7.7-2.5-9.9-4.6
		c-2.3-2-0.7-2.1,0-4.2c0.7-2.1,1.7-3.8,3.4-5.2c1.7-1.4,1.2-1.9-0.9-3.1c-2.1-1.2-5.1-1.3-8.7-1.3c-3.6,0-5.7-0.3-5.5,1.8
		c0.2,2,2.3,2.8-0.7,2.2c-3.1-0.6-5.7-0.9-7,0.6c-1.3,1.5-1.6,2.3-2.4,5.4c-0.8,3.1,0.2,3.3-1.1,3.3c-1.3,0-6.3-2.4-8-3.2
		c-1.7-0.7-2.6-0.7-4.6,1.2c-2,1.8-8.9,7.9-11.4,9.3C1101.2,552,1101.3,551.6,1098.7,559.8z M1004.2,470.5c-1.5-0.2-2.3-0.6-0.5,1.8
		c1.8,2.4,2.3,2.8,4.1,4.5c1.8,1.6,2.4-1.2,3.8,2c1.3,3.2,0.9,3.2,2.2,4.4c1.3,1.2,2.5,1.5,2.8,2.7c0.4,1.2,0.8,3,2.3,4.4
		c1.6,1.3,1.6,1.1,2.5,3.7c0.9,2.6,2.3,4.4,3.1,6.6c0.7,2.2,4.7,4.2,6.8,6.9c2.1,2.6,5.5,6.5,6.1,5.4c0.6-1.1,2.1,0,3.1-0.4
		c1.1-0.4,1.4-1.9,2.1-5.6c0.7-3.7-0.6-5.4-1.6-6.3c-1-0.9-2.8-1.1-3.3-1.8c-0.5-0.8-1.3-3.5-2.6-4.4c-1.2-0.9-1.5,0.1-1.5-2
		c0-2.1,1.4-1.9-0.4-3.1c-1.8-1.2-2-2-2.6-2.6c-0.6-0.6-4.4-1.5-5.4-2.6c-1-1.1-5.2-3-7.2-5c-2-2-4.2-3.6-4.8-5
		C1012.7,472.6,1010.7,471.4,1004.2,470.5z M1045.4,513.1c-1.7,0-2.5-1-3.7,1.1c-1.1,2-1,2,0.8,2c1.8,0,1.4,0.9,1.3,1.2
		c-0.1,0.3-0.8-0.2,2.8,1.3c3.6,1.4,6.2,0.9,7.2,0.3c1-0.5,1.3,1.3,6.3,2.1c5,0.8,7.6-0.5,10.8,0.3c3.2,0.8,2.4-0.4,0.1-2.1
		c-2.3-1.7-2.1-0.8-4.3-2.4c-2.3-1.6-5.5-1.7-6.9-2c-1.5-0.3,1.3,1.6-3.3,1c-4.5-0.6-2.9,0.4-5.2-1.1c-2.3-1.5-2.3-1.8-3.9-2
		C1045.8,512.5,1045.4,513.1,1045.4,513.1z M1081.4,520.4c-1.3,0.4-3.9,1.1-2.7,1.6c1.2,0.5,0.3,0.9,4,0.5c3.8-0.3,7-0.8,7.5-1.6
		c0.5-0.8-0.6-0.3-2.2-0.7c-1.6-0.5-1.4,0.3-3.5,0.6C1082.4,521.1,1081.4,520.4,1081.4,520.4z M1094.6,520.1
		c-2.5,0.3-2.2,0.9-0.2,1.5c2,0.6,3.8,0.9,5.3,0.5c1.5-0.4,1.7-0.8,4.5-1.3c2.8-0.5,3.7-0.4,5.9-0.7c2.2-0.3,2.2-0.3,2.2-0.3
		s-0.2-0.5-1.7-0.4c-1.5,0.1-2.5,0.1-4,0.1c-1.5,0-4,1.3-5.1,1.3c-1.1-0.1-3.1-0.7-3.6-0.4C1097.3,520.8,1097.3,519.8,1094.6,520.1z
		 M1108.8,523.3C1108.7,523.4,1108.7,523.4,1108.8,523.3c-1.8,1.3-1.9,1.6-1.8,2.6c0.2,1-0.2,1.4-0.2,1.4s2.6-0.1,4.5-2.1
		c2-2,2-2,4.1-2.7c2-0.7,4.3-2.9,4.3-2.9s-1.6,0.3-3.3,0.2c-1.8-0.1-3.5,0.9-4,1.4C1111.8,521.6,1112.9,521.8,1108.8,523.3z
		 M1094,524.4c-1.8-1.3-3.6-1.1-3.8-0.3c-0.1,0.8-1.6,0.8,1,1.7c2.6,1,5.1,2.2,4.9,0.9C1095.9,525.4,1094.8,524.9,1094,524.4z
		 M1077,469.4c-1.1,1.5,1,1.1-0.6,2.4c-1.6,1.3-2.8,0.7-4.3,2.7c-1.6,2-3.9,3.4-4.9,4.1c-1,0.7-4.2,1.6-5.6,3.5
		c-1.4,1.9,0.5,3,0.5,3s-0.9,0.4-3.1-0.5c-2.3-0.9-2.4-1.9-2.4-1.9s-1.6-0.1-2.5,2.4c-0.9,2.4-1.4,2.7,0.2,4.2
		c1.6,1.4-1.1,1.5-0.8,2.5c0.4,1,0.4,2.8,1.3,3c1,0.2,1.2-0.9,2.4,0.6c1.2,1.5,0.2,5.8,1.8,6c1.6,0.2,2.7-0.5,4,0.1
		c1.4,0.6,2.3,1.1,4.1,0.5c1.8-0.6,3.7,0,4.6,0.5c0.9,0.5,4.2,1.6,5.9,1.5c1.6-0.1,1.9,0.3,2.2-2c0.3-2.3,0.1-4.5,2.1-6.3
		c2-1.8,2.1-1.8,2.2-3.4c0.1-1.6,0.1-3.4,1.4-5.1c1.2-1.7,1.9,1,2.6-0.3c0.6-1.3,1.3-1.3,0.9-2c-0.4-0.7-2.2-0.7-2.9-1.9
		c-0.7-1.3,0.2-1.9-0.6-4.5c-0.9-2.6-1.3-1.6-0.1-3c1.2-1.4,2.2-1.7,2.3-2.8c0.1-1.1,0.6-1.2,2.1-2.2c1.5-1.1-0.2-0.6-1.7-1.6
		c-1.4-1.1-4.1-5-5.7-5C1081.5,463.8,1078.1,467.8,1077,469.4z M1286.4,609.5c-0.7-0.5-1.3-0.1,0.3,1.7c1.6,1.9,1.7,1.3,2.7,1.4
		c1,0.1,1.8,3.7,2.4,4.6c0.6,0.9,1.6,2,1.6,2s0.6,4,0.1,5.7c-0.5,1.8-1.6,2.6-1.9,4.2c-0.4,1.6,1.6,1.2,2.9,1.7
		c1.3,0.5,1.1,0.5,0.6,2c-0.5,1.5-2,2.1-2,2.4c0,0.3,2.9,1.9,4.4,0.1c1.5-1.8,3.8-4.4,4.5-6.3c0.6-1.9-1.1-1.1,0.9-2.4
		c2.1-1.4,1.8-0.7,2.8-2.4c1.1-1.7,2.2-3.5,1-4.4c-1.2-0.9-2.5,1.1-3.6,1.5c-1.1,0.4-1.9,0.5-3.4-0.3c-1.5-0.7-1.8-0.7-2.3-2
		c-0.6-1.3-1.3-2-1.3-2s-0.4,2.2-1.5,1.5c-1.1-0.7-0.8-1.5-1.6-2.8c-0.8-1.3-0.8-1.6-1.3-2.6c-0.5-0.9-0.1-2.7-2.5-3
		C1286.7,609.9,1287.1,609.9,1286.4,609.5z M1286.8,633.4c0,0-2,1.7-3.8,4.2c-1.8,2.4-2.1,3.4-2.6,4.7c-0.6,1.3-2.6,2.9-6,4.7
		c-3.4,1.8-4.7,2.5-5.8,4.2c-1.1,1.7-5.2,6.8-5.7,7.4c-0.5,0.6,1.9,1.2,4.4,1.2c2.5,0,6.4,2.2,8.5-0.1c2.1-2.3,4.3-7.8,5.6-9.8
		c1.3-2,2.6-2.7,4.7-4.6c2.1-1.9,5.7-5.5,5.7-6.9c0-1.4-0.9-3.6-0.9-3.6s-0.8,1.5-2.6,1.3C1286.5,635.9,1286.8,633.4,1286.8,633.4z
		 M1270.1,658.8c-2.5-1.3-3,1.1-3.4,3.7c-0.4,2.5,1.1,0.4,3.2-0.8C1272.2,660.5,1271.1,659.3,1270.1,658.8z M1185.9,641.5
		c-2.8-0.9-2.3,1.7-1.9,3.7c0.4,2,1,3.6,2.1,5.2c1.1,1.7,5,2.2,6.6,1.5c1.6-0.7,2.7-3.2,4.2-5.5c1.6-2.3,2.3-4.9,2-6.3
		c-0.3-1.4-2.3,1.3-3.5,1.8c-1.3,0.6-3,2.1-5.4,1.5C1187.5,642.7,1186.9,641.8,1185.9,641.5z M1150.6,499.8
		c-2.3,0.5-3.4-1.5-5.2-5.3s-3.3-4.4-7.9-2.6c-4.7,1.7-4,1.3-0.9,2.5c3.1,1.2,3.5,1.6,4,1.6c0.4,0,5,0.7,4,1.3
		c-1,0.7-5.2,1.3-2.6,3.2s1.6,0.5,8.6,4.1c7.1,3.6,8.2,0.9,10.5,5.5c2.3,4.6,2.3,3.8,0.4,5c-1.8,1.2-4.3,2.4-3.3,2.5
		c1,0.1,2.8,0.5,7.6,0.8c4.8,0.3,0.3,3,5.7,3c5.4,0,6.8-1.7,8.9-4.2c2.1-2.5,2.6-1.2,7.1-0.1c4.5,1.1,6.1,5,11.8,6.6
		c5.7,1.6,8.1,3.7,4.5,0.4c-3.5-3.3-4.8-5.7-9.6-9.5c-4.8-3.8-5.1-4.2-6.5-7.1c-1.4-2.9-6.4-6.3-11.9-8.6c-5.5-2.2-8.7-2.6-15.2-4.4
		C1154,492.7,1152.9,499.3,1150.6,499.8z M1113.3,486.6c-2.1,1.5-2.4,0.6-4-0.4c-1.6-1-1.1,2.1-4.7,0.4c-3.5-1.6-4.9-2.5-8.6,0.3
		c-3.8,2.8-1.4,3.9-1.5,5.9c-0.1,2-3.2,7.6-4.3,9.6c-1.1,2.1-1.1,2.8-0.3,4.1c0.9,1.3,2.1,0.8,2.6,1.5c0.5,0.7,0,5.8-0.6,7.6
		c-0.6,1.7,1.5,2.1,3.7,1.6c2.2-0.5,0.3-0.7,0.3-2.5c0-1.8,1.1-2.6,1.1-6c0-3.4,0-4.9,0-4.9s0.6-0.3,1.4,0.8c0.8,1.2,1.9,4.4,2.9,6
		c1,1.6,1.9,2.9,3.4,1.7c1.5-1.1,2.9-2.5,2.9-2.5s-2.9-0.9-2.9-1.9c0-1,1.2-1.8-0.8-5.1c-2-3.3-3.1-3.5-0.5-3.6
		c2.6-0.2,2.5-2.7,4-3.5c1.5-0.7,3.6-0.5,3.6-0.5s-1.5-1.6-3.8-0.9c-2.3,0.7-4.3,1-6.3,2.1c-1.9,1.1-3.6,1.7-4-0.2
		c-0.4-2-0.6-2.5-0.4-5.2c0.3-2.7,3.4-0.7,5.6-1.3c2.3-0.7,2.3-0.5,7.3-0.2c5,0.3,5.4-0.8,6.9-2.9c1.5-2.1,2.4-4.4,2.4-4.4
		S1115.4,485.1,1113.3,486.6z M1125.2,479.4c0.4-0.8-3.7,2.8-4.5,3.6c-0.8,0.7,0,1.8,0.6,2.8c0.6,1.1,0.4,4.7,0.6,5.5
		c0.2,0.8,2.3,1.5,2.3,1.5s-0.1-2.4,0.7-3.6c0.8-1.1,0-2.5,0-4.6C1125,482.6,1123.9,481.8,1125.2,479.4z M1117.1,501.1
		c-3.3-1.2-4.5-0.4-4.5,1.3c0,1.7-0.4,2.5,3.1,2.5C1119.2,504.9,1123.1,503.3,1117.1,501.1z M1123.5,500c-0.8,0.3-1.6,2.8-1.2,4.3
		c0.4,1.5,1,0.5,2.8,0.2c1.8-0.3,1.5-1.8,3.8-2c2.3-0.2,7,1.6,7,1.6s1-1.2-2.6-3.5C1129.7,498.3,1128.1,498.5,1123.5,500z
		 M1058.7,416c0,0-3.3,0.1-3.8,0.1c-0.5,0-1.6,1.3-2.4,1.8c-0.8,0.5-0.8,1.2-0.2,2.5c0.6,1.3,1.5,1.4,3.1,1.8c1.6,0.4,1-0.7,2.2-1.1
		c1.2-0.4,1.5-1.5,1.7-2.4c0.2-1,1-1.4,1.3-1.7c0.3-0.3-0.9-1.4-0.9-1.6C1059.7,415.2,1058.7,416,1058.7,416z M1097.1,420.6
		c-1.3-0.9-2,2.4-2.3,4.1c-0.4,1.7-0.8,2.8-0.1,4.1c0.6,1.3,0.4,1.7,0.4,1.7l-1.8-1.4c0,0-0.5,1.6-0.5,3c0,1.4-0.6,2,1.6,3
		c2.1,1,2.8,0.5,3.1,2c0.3,1.5,0.3,2.2,1.7,2.4c1.4,0.3,3,0.9,3.6,1.8c0.6,0.9,0.3-2.4,1.3-2.2c1,0.2,2.1,1.5,2.8,2.6
		c0.7,1.1,1.8,1.2,1.8,1.2s-1.6-2.7-0.9-3c0.7-0.3,0.9-0.6-0.9-1.7c-1.8-1.1-3.3-0.9-4.7-1.1c-1.4-0.2-1.4,1-2.5-1.8
		c-1.1-2.8-0.2-4.5-0.2-5.1c0-0.6,0.8,0.9,1.6-1c0.8-1.9,1.1-3.4,0.9-5.3c-0.1-1.8,1.3-2.6,0.2-2.6
		C1100.9,421.1,1097.8,421.1,1097.1,420.6z M1113.9,456.1c0.2,1.3-1.3-0.4-1.8,0.4c-0.6,0.8-0.9,0.6-1.8,1c-0.9,0.4-3.1,2.4-3.1,2.4
		s0-1.3,0-1.6c0.1-0.3-0.7-1.8-1.3-0.8c-0.7,1-1.3,1.7-2.8,2.4c-1.5,0.7-2.4,1.8-2.6,3.2c-0.2,1.3,0.9,1.3,0.9,1.3s0.6-0.4,1.6-2
		c1-1.5,1.2-1.5,2.9-1.7c1.8-0.2,1.6-0.2,2.2,0.8c0.6,1,0.1,2.4,0.2,3.5c0.1,1.1-0.1,2.3,1.8,3c1.8,0.6,1,0.1,2.6-0.1
		c1.7-0.1,1.6-0.1,1.4-0.9c-0.2-0.8-0.7-1.6-0.9-2.6c-0.1-1,1-1.4,1.3-1.6c0.3-0.2,0.6,1,1.1,2.2c0.5,1.2,0.7,1.2,0.9,0.2
		c0.2-0.9,0.8-3.2,0.6-4.4c-0.2-1.2-0.3-2.1-0.3-3.1c0-1-0.8-2.2-1.3-2.5c-0.5-0.4-2.1-1.8-2.1-1.8S1113.7,454.7,1113.9,456.1z
		 M1105.8,448c0,0,0-0.8-1.5-2.4c-1.5-1.5-1.6-1.9-3.9-2.4c-2.3-0.4-4.7,0.2-3.7,2.7c1,2.5,1.3,2.9,3.3,3.2c2,0.3,3.2-0.8,3.2-0.8
		s0.1,0.4-1.7,1.6c-1.9,1.2-2.1,3.4-0.6,4.3c1.5,0.9,1.4,2.2,2.3,1.5c0.8-0.7,1.5-3,3.2-4.6c1.7-1.6,1.8-1.8,2.1-3.6
		c0.2-1.7,0-3.1,0-3.1L1105.8,448z M1109.8,443.1c-0.2,0.2-1.4-0.1-0.2,1.1c1.3,1.2,2.4,1.5,2.3,2.4c-0.2,0.9-0.1,1.1-0.8,1
		c-0.7-0.1-0.9-0.3-1.3-0.3c-0.3,0-0.4,0.6-0.2,1.2c0.2,0.6,0.2-0.1,0.8,0.9c0.6,1,0.5,1.3,0.6,2.4c0.2,1.1,0.7,0.6,0.7,0.6
		s-0.2-2.7-0.1-3.2c0.1-0.5-0.2-1.9,0.7-1.4c0.9,0.4,0.7,2,1.2,0.5c0.5-1.5,0.3-2.8,0-4c-0.3-1.2-1.2-1.2-2.3-1.2
		C1110.3,443,1109.8,443.1,1109.8,443.1z M1091.5,447.7c-0.5,0.1-0.9,0.6-1.2,2.5c-0.3,1.8-1.3,2.7-2.4,3.8c-1.1,1.1-4,3.9-4.2,4.5
		c-0.2,0.6-0.2,0.2,2-0.8c2.2-1,4-2.4,4.2-3.8c0.3-1.4-0.3-0.5,1.7-1.5c1.9-0.9,1-1.2,1-2.7C1092.7,448.3,1092.4,447.5,1091.5,447.7
		z M1208.8,501.8c-0.2,1.8,0.5,2.4-1.2,3.7c-1.7,1.4-3.6,1.4-5.4,1.7c-1.8,0.3-0.5-0.3-2.7-0.4c-2.2-0.1-2.8,0.1-1.8,1.2
		c1,1.1,0.8,2.2,4.1,2.1c3.3-0.1,6-1.9,8.2-2.6c2.1-0.7,1.9-2.4,2.1-3.2C1212.2,503.5,1209,499.8,1208.8,501.8z M1218,505.7
		c0.9,1.3,0.6,1.1,1.7,2.8c1.2,1.7,3,2,4.4,2.5c1.4,0.5,0-0.5-1-1.9c-1-1.4-1.1-2.1-2.6-3.5C1219,504.2,1216.4,503.4,1218,505.7z
		 M1098.3,394.8c-4.5,2.9-6.6,2.7-4.8,6.3c1.8,3.7,2.9,5.2,3.2,5.9c0.2,0.7,1.2-0.5,2.4-3.4c1.2-2.9,1.4-6.7,1.9-7.9
		C1101.5,394.6,1099.9,393.8,1098.3,394.8z M1176.1,252.4c0.5,1.9,1,4.9-0.1,5.2c-1.1,0.3-1.9,2.4-2.2,4.6c-0.3,2.2-0.9,4.9,0.4,6.7
		c1.2,1.7,0.4,1.8,0.4,3.3c0,1.4,0.4,5.1-0.3,7.3c-0.7,2.2-1.1,2.7-0.8,5c0.3,2.3,0,2.8,0,6.1c0,3.3-0.2,5.9-0.1,7.3
		c0.1,1.3,0.8-0.7,1.3-1.1c0.5-0.5,2.4-0.7,3.5,0.4c1.1,1.1,1.1,1.1,1.1,1.1s1.7,0.7-0.6-4.3c-2.3-5-2.8-4-2.1-8.5
		c0.6-4.6,1-4.6,3.4-5.1c2.4-0.5,3.7,2.8,4,3.2c0.3,0.3-0.2-1.1-1.1-3.7c-0.8-2.6-1.6-3.4-1.9-6.7c-0.3-3.2-1.3-5.9-2.6-6.9
		c-1.3-0.9-0.6-2.4-0.1-3.7c0.6-1.3,0.8-3.2,0.5-5.3c-0.3-2.2-0.9-5.2-1.3-6.4c-0.4-1.2-1.8,0.7-1.8,0.7L1176.1,252.4z M1174,302.9
		c0.1,1.4,0.3,2.8-0.7,4.4c-1,1.6-0.3,2-0.9,4.4c-0.6,2.3-3.3,0-3.3,0.5c0,0.5-0.4,2.1-1.1,2.7c-0.7,0.6-3.1,0.7-2.4,3
		c0.7,2.3,2,4.7,2,4.7s1.4-1.3,1.8-1.4c0.4-0.1,1.6-0.5,1.6-0.5s-0.2-0.7-1.8-1.4c-1.6-0.7-1.4-2.2-1.2-2.7c0.2-0.5,2.2,0.1,3.5,0
		c1.3-0.1,2.3-0.8,3.9,0.5c1.6,1.3,3.8,1.7,3.8,1.7s0.3-1.9,1-3.2c0.7-1.3,2.8-0.7,4.8-1.3c2.1-0.6,3.6-0.9,2.9-1.8
		c-0.7-0.9-0.6-2.8-1.1-4.2c-0.4-1.5-1.8-0.1-2.8,0.5c-1.1,0.5-2.4,0.1-3.8-0.8c-1.4-0.9-4-4.4-4.9-5.8
		C1175.2,302.2,1173.8,301.5,1174,302.9z M1167.6,324.6c-0.7,0.3-1.5,2.1-1.4,4c0.2,1.9,1.8-0.1-0.3,5.8c-2.1,5.9-3.2,7.3-5.3,8.8
		c-2.1,1.5-4,1.5-4.8,1.1c-0.8-0.4,0.2-1.7,0.8-2.1c0.6-0.4-1.8-0.5-2.8-0.4c-1,0.1-0.1,1.3-0.2,2.2c-0.1,0.9-2.1,3.5-1.9,4.6
		c0.2,1.1,0.2,1.5-1.1,1.9c-1.3,0.4-2.1-0.9-2.5-1.1c-0.4-0.2-2.3,0.4-4.8,0.7c-2.5,0.3-3.1,1.2-4.2,3c-1.1,1.8-3.6,2.1-5.4,2.8
		c-1.8,0.7-1.1,3.3-3.1,4.2c-2,0.9-2,2.5-2.1,3.9c-0.2,1.3,1.2,0.4,1.4,0.3c0.2-0.1,0.2-1.9,1.4-1.7c1.2,0.2,1.4,0.2,0.7,1.6
		c-0.6,1.4-1,2.1-1.6,3.3c-0.6,1.2,0.2,1.7,1.2,2.9c1,1.2,1.9-0.4,3.9-2.5c2-2.1,2.2-2.6,2-5.1c-0.2-2.4-1-2.5-2.4-3.2
		c-1.5-0.7-1.8,0-0.2-1.9c1.6-1.9,2.4,0,3.5-0.9c1.1-0.8,3.8-0.8,6.4-1.4c2.6-0.6,5.1-1.5,5.2-0.6c0.1,0.8,0.9,3.7,1,4.3
		c0.1,0.6,1.8-0.8,3.6-1.5c1.8-0.6,0.1-0.9-0.1-2.1c-0.2-1.1,0.8-1.8,0.8-1.8s0.9,1.9,3.7,0.5c2.8-1.3,3-1.9,3.8-1.7
		c0.7,0.2,1.2,0.9,2.4,0.2c1.2-0.7,1.4-0.1,1.2,0.5c-0.2,0.6,3.4-1.1,4.2-1.7c0.8-0.5,0.4-0.1,0.1-2.1c-0.3-2.1-1.3-2.2-0.7-4.9
		c0.6-2.7,0.4-2.9,0.6-4.6c0.2-1.7,0.8-1.9,1.2-2c0.4-0.1,0.4-2.3,1.3-3.5c0.9-1.2,0.7-1.7,0.7-4.5c0-2.7-1.5-2.2-1.6-4.2
		c-0.1-1.9,0.4-3.8,0.4-3.8s-3,1.1-3.3,1.8c-0.3,0.7-0.3,0.7-0.3,0.7S1168.6,324.1,1167.6,324.6z M1147.8,354.3
		c-3.1,0.5-5.4,0.9-7.2,1.5c-1.9,0.6-2.3,1.4-2,3.3c0.3,1.9,1,3.7,1.3,4.7c0.3,1,1.3,0,3-0.9c1.7-0.9,1.6-3.6,3.3-3.6
		c1.7,0,1.1,1.9,3.3-0.8c2.3-2.7,0.5-2.9,0.6-4.3C1150.2,352.7,1147.8,354.3,1147.8,354.3z M1346.4,207.7c-3.4-0.7-4.3-1.4-4.6-0.2
		c-0.3,1.2-0.7,1.6,1.4,2.4c2.1,0.8,3.2-0.6,5.2,0.9c2,1.5,2.5,1.4,4.1,1.2c1.5-0.2,2.1-1,2.1-1S1348.9,208.2,1346.4,207.7z
		 M1308,154.9c-1.2,0.3-2.2-0.8-1.9,2.2c0.3,3,1,3.4,4.9,2.8c3.9-0.5,1-0.1,6.3-0.5c5.3-0.4,6.4-1.1,6.4-1.1s-0.7-1.5-2.5-2.9
		c-1.8-1.4-4.2,0.9-8.3,0.2C1308.7,154.9,1308,154.9,1308,154.9z M1188.2,110.3c0.1,1.2,5.3,4.4,7.2,5.3c1.9,0.9,3.4,0.5,7.4,0.1
		c4-0.4,4.4-2.2,4.8-3.2c0.5-1-1.9-0.6-4.6-1.2c-2.7-0.6-4.9,0.5-5.9,0c-1-0.5,1.4-1-1-1.9c-2.4-0.9-3,0.3-3.5-0.1
		c-0.5-0.4-0.6-1.2-1.8-1.3C1189.8,107.9,1188.2,109.2,1188.2,110.3z M1167.4,117.1c-1.8,0.7-1.7,1.4,0.4,3.1
		c2.1,1.7,1.4,1.3,0.5,2.6c-0.9,1.2,0-0.1,3,1.3c3,1.3,4.2,3.8,6.1,4.3c1.9,0.5,3.1-0.1,3.1-0.1s-0.6-2-2.4-4.4
		c-1.8-2.4-5.5-3.1-6.2-5.1C1171.1,116.6,1170,116,1167.4,117.1z M1186.4,107.4c0,0-2.7-1.6-6.8-4.2c-4.1-2.6-5.6-3.3-7-3.5
		c-1.4-0.2-1.2,1.4-1.7,2.7c-0.5,1.3-0.9,1-3,0c-2.1-1-4.3-2.6-6.4-3.1c-2.2-0.5-3.5,1.3-6,3.8c-2.5,2.5-1.1,3.2,2,6.8
		c3,3.7,4.4,3.9,6.8,2.4c2.4-1.4,1.8-2.4,3.5-1.7c1.8,0.7,7.8-0.7,8-0.7c0.2,0-0.4,3.4,2.3,2.5c2.6-0.9,5.1-1.3,6.3-2.7
		C1185.5,108.4,1186.4,107.4,1186.4,107.4z M1002.3,36.7c-0.8,0.7-5.3,0.3-7.7,4c-2.3,3.7-4,1.1-5.2,3.4c-1.2,2.2-2.2,4.9-2.2,4.9
		s2.1,2.5,4.4,2.3c2.3-0.2,6.2,0.8,8.4,3.8c2.2,3,3.8,3,9.1,3.9c5.3,0.9,2.9,1.6,5.7,1.3c2.8-0.3,6.6,0.3,5.7-1.1
		c-0.9-1.4-1.5-2.2-1.1-4.9c0.4-2.7,2.8-2.6-0.1-4.4c-2.9-1.8-5-0.3-4.8-0.7c0.1-0.3,2.6-1.3,1.6-1.4c-1-0.1-5.9-0.3-6.4-3.1
		c-0.6-2.8,1.3-3,2.3-3.2c1-0.2,0.7-0.5-2.1-2.6c-2.8-2-6.7-4.2-6.7-4.2C1001.6,35.8,1003.1,36,1002.3,36.7z M1029,56.7
		c-2.1,0.4-3.8,2.4-5,4.2c-1.2,1.8-3.6,4.5-5.1,5.7c-1.5,1.2-1.1,1.5,1.3,2.4c2.4,0.9,6.7-1.5,7.9-1.6c1.2-0.1,2.1,1.8,6,1.3
		c3.8-0.5,9.6-1.2,6.8-3.2c-2.8-2-1.8-1.1-5-3.6c-3.1-2.5-7.1-2.7-7.1-2.7s6.4-2.2,4.9-2.3C1032.2,56.7,1029,56.7,1029,56.7z
		 M865.1,24.1c-3.7,1.3-2.4,2-4.8,3.9c-2.4,1.9-0.8,2.4,4.4,1.2c5.2-1.3,5.5-1.8,8.8-3.3C876.8,24.4,870.7,22.1,865.1,24.1z
		 M873.4,33.4c-3.5,1.5-2.6,3.2-1.6,4.5c0.9,1.3,3.5-0.8,4.2,0.7c0.7,1.4,0.9,0.9,4.2-1.3c3.3-2.2,2.1-1.5,0.8-3.8
		C879.6,31.1,879.3,30.8,873.4,33.4z M854,32.5c-2.2,1.1-2.2,0.9-0.1,1.9c2.1,1,7.3,1.8,9.9,0c2.7-1.7,2.5-1.4-0.9-1.9
		C859.6,32.1,856.5,31.3,854,32.5z M821.2,36.5c3.5-0.3,6.6-0.4,9.4-0.1c2.8,0.3,1.7,2.7-3.4,3.2c-5.1,0.5,0.5,1.3,4.1,1.2
		c3.6-0.1,1.3-3.1,4.3-4.2c3-1,4.9-0.4,8.6-1.7c3.6-1.3-2.1-2.5-6.3-2.4c-4.2,0.1-5.6,0.3-9.1,0.1c-3.6-0.2-6.4,1.4-10.1,2
		C811.1,35.8,817.7,36.8,821.2,36.5z M848.3,37.4c-3,0-10.4,1.7-4.2,2.3c6.2,0.6,5.7,1,8.2,0.1C854.9,38.8,851.4,37.4,848.3,37.4z
		 M869.7,38.7c-4.3-1.4-4.4-0.8-7.8-0.7c-3.3,0.1-4.7,2.2-2.5,3.1c2.2,0.9,3.7,0.5,5.5,0.3c1.8-0.3,1.7-0.8,0.5-1.3
		C864.3,39.6,872.3,39.5,869.7,38.7z M887.9,33.4c-3.3,0.4-3.5,1-3.8,2.1c-0.3,1.1,0.5,0.8,4,0.4c3.5-0.4,5.2-0.9,7.4-2.2
		c2.3-1.2-0.5-4.3-0.5-4.8c0-0.5-3.2,1.6-4.1,2.4C890,32.1,891.8,32.9,887.9,33.4z M627.6,223.2c-1.7,4.6-4.4,6.7-1.2,5.5
		c3.3-1.3,6.5-5.3,6.4-1.8c-0.2,3.4-3.3,2.9-2.3,6.2c1,3.3,0.3,3.1,5.7,4.3c5.4,1.2,1,0.8,2.3,4c1.3,3.2,2.3,4.2,0.8,5.1
		c-1.4,0.9-5.6-2.9-5.8-1.3c-0.3,1.6,0.6,2.8,1.6,5.1c1,2.3-0.7,3.6-3.8,5c-3.2,1.5-0.4,2.4,2,2.3c2.4-0.1,8.5-1.3,7.5,0.9
		c-1,2.1-3.9-0.4-6,3.2c-2.1,3.6-9.8,6.6-5.8,6.4c4-0.2,3.4-1.3,15.4-3c12-1.7,3.7-0.1,11.5-2.6c7.9-2.4,5.4-3.1,1-2.3
		c-4.4,0.7,2.8-4.3,1.8-8.9c-1-4.6-3.8-0.2-5.7-3.1c-1.8-2.9-1.6-3.8,1.9-2.7c3.5,1.1,3.2-0.7-3.6-5c-6.8-4.3-2.6-3.5-5.7-7.1
		c-3.1-3.6-8.4-3.2-8.4-3.2s2.3-1.3,3.6-4c1.3-2.6,1.6-2.4,3-5.6c1.4-3.2-1.4-2.9-5-2.1c-3.6,0.8-4.8,1.1-4-0.3
		c0.8-1.4,1.3-2,2.9-3.8c1.7-1.8,2-2.7-1.1-2c-3.1,0.7-3.6,0.6-6.2,1.8C626.5,216,629.3,218.6,627.6,223.2z M619.2,234.1
		c-5.5,2.2-3.9,3.6-3,4.3c0.9,0.8,2.6-0.7-2.5,2.2c-5.1,2.9-5.2,6.1-2.5,6.7c2.7,0.6,2.3-1.6-0.5,3.8c-2.9,5.3-4.8,8.9,1,7.6
		c5.8-1.4,7.4-4.3,10.1-4.7c2.8-0.4,3.3-2.6,3.3-5.9c0-3.3-1.8-3.4,0.3-6.2c2.2-2.8,2.3-5.7-1.9-7
		C619.2,233.6,622.6,232.7,619.2,234.1z M687.8,308.6c-0.3,0.7,0.4,2.8-1.8,4.2c-2.2,1.4,1.1,2.6,1.8,4c0.7,1.3,1.6-4.5,1.4-7.3
		C689,306.7,688.8,306.2,687.8,308.6z M686.8,319.6c-3.6,1.7-3.8,3-4.3,5.7c-0.4,2.7,2.9,0.5,2.1,2.9c-0.9,2.4-0.1,3.6,3.7,1.4
		c3.8-2.2,1.6-4.3,2.2-7.1C691,319.6,691.5,317.3,686.8,319.6z M742.3,348.7c-3.2-0.3-4.6,1.7,0.9,2.3c5.4,0.6,7.9,0.7,9.9,0.2
		c2-0.5,0.3-0.1-2.3-1.9C748.1,347.5,746.4,349.1,742.3,348.7z M772.5,350.4c-4.4-0.9-3.2,4.4,1.3,3.6c4.5-0.8,2.8,0.3,4.8-3
		C780.6,347.7,777.1,351.4,772.5,350.4z M664,325.8c-3.5,0.5-3.8,1.7-1.1,2.4c2.8,0.7,2.4-0.1,4-1.3
		C668.4,325.8,665.5,325.6,664,325.8z M449.3,261.2c-2.2,1.7-4.7,4.3-7.8,9.8c-3.1,5.5-2.8,5-5.7,8c-3,3.1-1.5,2.4,7.8,4.2
		c9.2,1.8,8.5,3.2,10.6,2.6c2.1-0.6,2.6,1.2,2.6,3.1c0,1.9,2,0.8,3-2.2c1-3-1-8.3-2.9-11.4c-1.9-3.1-2.3-3.1-5.3-2.3
		c-3,0.8-2-0.7-3.1-3.1c-1.1-2.4-2.8-0.5-0.2-4.1C450.8,262.3,451.4,259.5,449.3,261.2z M166.4,254.9c0,2.9,3.1,8,5.5,9.6
		c2.3,1.6,1.8,0.7,0.8-2.8c-1.1-3.5-0.2-3.5-0.7-5.7C171.4,253.8,166.4,253.8,166.4,254.9z M181.9,271c0.6,0.6,2.5,3.3,5.7,5.5
		c3.3,2.2,4.1,2.4,7.5,3.4c3.4,1,4.9-0.3,2.7-2.3c-2.2-2-0.4-1.8-4.3-2.7c-4-0.9-4.8-0.6-6.8-1.8C184.7,271.8,180.5,269.6,181.9,271
		z M95.5,238.2c-2.6-0.6-3.6-0.7-5.3,0.7c-1.8,1.4-2.2,2.6-1.3,4.1c1,1.5,0.4,0.7,2.6-0.8c2.2-1.5,1.2-1.7,4-2.4
		c2.8-0.7,2.2-1.6,2.2-1.6S97,238.5,95.5,238.2z M94.6,234.7c-1.7,1-2.3,1.9-0.4,1.5c1.9-0.4,1.6-1.5,2.9-1.2
		c1.2,0.2,1.6-0.2,1.6-0.2S96.4,233.7,94.6,234.7z M45.5,226.9c-2.3,1.1-4.6-0.2-3.1,0.7c1.4,0.9,3.4,1.7,4.9,1.5
		c1.5-0.2,2.6-0.2,2-0.9c-0.6-0.7-0.7-0.9-0.7-1.7C48.5,225.4,47.9,225.7,45.5,226.9z M830,549.4c-2.7,5.9-8.4,3-12.9,7.4
		c-4.5,4.4-3.8,3-0.4,9.1c3.4,6.1-2.8,5.4-4.4,12.5c-1.6,7.1,1.8,5.8,3.7,11.9c1.9,6.1,2.7,4.2,6.1,3.4c3.4-0.8,5.8-2.4,5.8-2.4
		s0.6-5.3,2.8-13.1c2.3-7.8,3.8-13.5,4.3-18.6c0.4-5.1,0.9-8.8,2-7.3c1.1,1.6,1.3,1.6,1.3-0.9c0-2.5-1.4-9.6-3.5-11.2
		C830.8,537.4,832.7,543.5,830,549.4z M834,143.4c-3.7,0.9-5.5,3.1-2.8,4c2.7,0.9,2.4,0.4,6.9-1.2
		C842.6,144.7,837.6,142.6,834,143.4z M903.4,76c-1.3-2-2.4,0.7-15.4,6.3c-13,5.7-12.9,0.8-25.1,10.4c-12.2,9.6-9.5,8.4-10.2,14.3
		c-0.7,5.8-3.5,3.3-4.7,8.6c-1.1,5.3-7.4,5.5-4.3,9.9c3.1,4.4,7.2,6.9,13.7,8.7c6.5,1.8,8.4-0.1,7-0.8c-1.4-0.7-6.4-8.4-5.4-17.3
		c1-8.8,4.3-7.5,7.1-10.8c2.8-3.3,10.2-11.9,15-14.8c4.7-2.8,17.1-6.8,23.4-8.9c0.2-0.1,0.4-0.1,0.5-0.2
		C910.1,75.9,904.7,78,903.4,76z M868.3,135.3c-1.5,0.2-2.3,0.3,0.6,3c2.8,2.8,5.3,4.9,4.4,1.2C872.3,135.8,869.7,135.1,868.3,135.3
		z M914.8,108.5c-2.1-1-3.2-2-3.7-0.4c-0.5,1.6,2.3,3.7,5.1,4.2C919,112.8,916.8,109.4,914.8,108.5z M426.9,274.6
		c-3.1-1.6-6.2-2.8-8.3-2.8c-2.1,0,0.4,2.2,3.7,4C425.6,277.5,428.8,275.5,426.9,274.6z M419.4,287.8c0.2-2.6-1.7,3,0.6,4.3
		c2.3,1.3,3.6,1.6,5,0.1c1.5-1.5,0.3-0.6-1.8-0.9C421.2,290.9,419.3,290,419.4,287.8z M1347.9,196.9c-3.8,0.4-6.7-0.7-6.7-0.7
		s-0.2,3.1-1.4,4.6c-1.2,1.5-0.3,3.1-0.3,3.1s-3.8-1.7-6.1-2.5c-2.2-0.8-4.3-0.1-5.5-3.5c-1.3-3.4-5.1-2.8-8.1-2.8
		c-3,0-2.1-3.9-2.1-3.9s0,0-1.8,0.1c-1.8,0.1-1.5,4.5-3.8,5.8c-2.3,1.4-9.7,2.3-9.7,2.3s4.7,3.4,5.6,6.1c0.9,2.8,2.8,5.4,2.8,5.4
		s-0.4,1.3-6.1,0.2c-5.6-1.1-5.3,1.1-11.4,3.6c-6.1,2.5-13,6.2-14.7,7.6c-1.7,1.4-1.8,0.6-7.1-0.7c-5.3-1.3-6.4,1.5-7.8,2.2
		c-1.4,0.7-0.8-3.2-0.8-3.2s-1.9,0-4.3,1.2c-24.2,12.3-7.5,11.7-8.3,14.1c0,0-2.6,9.6-2.6,9.6c-3.6,10.6-6,5.1-9,13.5
		c-9.6,26.7-15.1-4.1-15.1-11.2c0-4.4-1-10,1.8-11.3c23.8-11.1,2.2-1.5,24.6-16.8c7.2-4.9,3.3-7.9,4.9-9.3c1.6-1.4,4.1-1.8,4.1-1.8
		s0,0-3.9-0.4c-3.9-0.4-4,0.5-7.1,3.9c-3.1,3.4-5.5,4-4.9,1.4c0.6-2.6,0.7-5.2-1.6-3.9c-2.3,1.4-3.3,1.2-7.7,2.1
		c-4.4,0.9-9,3-13,7.9c-3.9,5-1.7,4.4-0.4,5.5c1.3,1.2-6.3,0.9-9.9,0.6c-3.6-0.3-1.7-1,0.4-1.7c2.1-0.7-3.2-1.3-7.9-2.3
		c-4.7-1-2.9,0.8-5.6,1.9c-2.8,1.1-2.7-1-4-1.3c-1.4-0.3-7.5-0.7-11.9-1.2c-4.4-0.5-4,0.3-5.2,1.8c-1.2,1.5-9.2,8.6-12.8,12.7
		c-3.5,4.1-7.9,4.9-11.8,8.7c-3.9,3.8-4.6,3.6-1.4,4.2c3.2,0.6,3.6,0.3,4.1,3.3c0.5,3,2,4,5.4,4c3.4,0,2.4,0.9,3.1-1.7
		c0.6-2.6-0.9-5.5,2-3.3c2.9,2.3,5.2,4,6.1,7.2c0.9,3.3-0.2,5.6-1.7,11.1c-1.5,5.4-2,13.3-4,17.2c-2,4-3.6,6.9-5.8,11.3
		c-2.2,4.4-13.1,15.3-15.5,16.3c-2.4,1-4,1.1-5.2-1.1c-1.2-2.2-2-1.8-4.8,0.7c-2.8,2.5-4,4-5.1,7.9c-1.1,4-3.4,4-5.9,6.9
		c-2.4,3-3.1,2.3-1.3,5.6c1.8,3.4,4.8,6.9,5.1,10.2c0.3,3.3-1.5,8-2.7,10.1c-1.2,2.1-6.7,3.1-6.6,2.1c0.1-1,0.2-5.9,0-8.8
		c-0.2-2.9-2.3-2.9-1.6-3.8c0.8-0.9,3.8-2.4,1.6-4.5c-2.2-2.1-3.8-0.3-4.8-2.8c-1-2.5,0.4-4.5-0.1-5.3c-0.5-0.9-2.1-1.9-5.4-2.2
		c-3.3-0.3-4,3-4.8,0.1c-0.7-2.9,0.3-3.2-1.2-4.4c-1.5-1.2-2.8-0.4-6.6,2.9c-3.8,3.3-4.6,2.6-7.8,4c-3.2,1.4-3.2,2.2-2.4,3.3
		c0.7,1.1,3.4,5.8,5.6,6.3c2.2,0.5,3.8-1,7.2-1c3.4,0,4,0.5,3.2,1.8c-0.9,1.3-3.2,2.6-7.3,6.7c-4.1,4.2-2.9,3.4-1.5,5.1
		c1.4,1.7,3.4,3.8,4.9,7c1.5,3.3,0,4.4-0.2,6.3c-0.2,1.9-0.5,4.8,2.2,7.7c2.8,3,0.8,2,0.5,3.1c-0.3,1.1-5,9.6-7.1,13.9
		c-2.1,4.3-2.1,4.6-9,9.5c-6.9,4.9-10,5.3-13.7,6c-3.7,0.7-6.9,1.8-8.8,2.6c-1.9,0.8-1.2,2.4-1.4,3.4c-0.2,1-2,0.1-1.7-1.4
		c0.3-1.5,0.1-2.6-0.8-3c-1-0.4-3.9-1.6-7,1.4c-3.1,3-6.8,3.2-8.1,6.9c-1.3,3.8-1.1,2.5,0.3,4.1c1.4,1.6,8.1,8,9.7,11.5
		c1.6,3.5,1.9,6,2,9.8c0.1,3.8-7.7,10.7-11.1,13c-3.4,2.3-4.1,4.5-3.6,0.9c0.5-3.6-1.5-5.6-3.9-8.3c-2.4-2.7-9.9-4.9-11.3-5.1
		c-1.4-0.3,0.5-2.5-0.4-2.4c-0.9,0.1-3.2-0.5-2.9,3c0.3,3.5-2.2,2.4-2.8,5.8c-0.5,3.5-1.2,7,1.1,6.7c2.2-0.3,1.8,3.1,3.5,6.8
		c1.7,3.8,1.1,1.7,5.3,5.1c4.3,3.5,3.2,2.9,4.1,6.3c0.9,3.5,0.6,5.4,2.8,8.6c2.1,3.2,2.2,3.9-1.3,2.1c-3.5-1.8-6.4-4-7.8-6.1
		c-1.4-2.2-2.2-7.7-3.1-10.5c-0.9-2.8-6.6-6-8.5-8c-1.9-2-0.7-3.6,0.2-8.1c1-4.6-0.4-8.9-0.7-11.7c-0.3-2.8-2.5-10.5-3.6-13.2
		c-1.1-2.6-0.6-2.3-2.3,0c-1.6,2.3-2.9,3.7-4.5,3.7c-1.6,0-3.9-0.2-3.7-1.3c0.2-1,1.8-5,1.3-6.5c-0.5-1.5-2-6.2-4.2-7.9
		c-2.2-1.7-4.8-4-6.2-7.9c-1.4-3.9-1.8-2.8-4.6-0.7c-2.8,2-9.1,2.3-12.1,2.5c-3,0.2-0.5,1.7-1.3,3.2c-0.7,1.5-4.3,3.4-11.5,10.9
		c-7.2,7.5-8.3,7.7-10.1,8.5c-1.9,0.8-3,0.5-3,3.6c0.1,3.1,0.3,4.7,0,7.5c-0.4,2.7-1.2,3.9-2,5.6c-0.8,1.7-1.6,4.9-1.9,6.6
		c-0.2,1.6-1.8,3.6-4.2,5.2c-2.3,1.7-2.3,1.4-3.4-1.1c-1.1-2.5-6.6-12-11.1-20.9c-4.5-8.9-3.4-10.5-3.8-13.1
		c-0.4-2.6-0.5-18-0.3-19.2c0.1-0.7-2.2,1.8-2.8,3.1c-0.6,1.3-0.6,2.8-3.1,3c-2.6,0.2-3.1,0.3-5.5-2.1c-2.4-2.4-3.5-3.8-3.1-3.7
		c0.4,0.1,3.2-0.3,4.8-1.1c1.6-0.8,1.1-1.7,1.1-1.7s-1.7,0.2-3.8,0.3c-2.1,0.1-1.1-0.5-3.9-1.6c-2.7-1.1-3.3-1.2-3.8-2.4
		c-0.5-1.2-1.1-2.9-1.5-3.9c-0.4-0.9-0.7-1-1.2-2.1c-0.5-1.2-1.8,0.2-4.7,0.3c-2.9,0.1-2.3,0.2-5.8,1.6c-3.5,1.4-4.1,0.9-8.1,0.8
		c-4-0.1-6.8-1.9-8.8-2.5c-2-0.7-2.3-0.4-5.3-0.8c-3-0.4-2.3-1.9-3.1-3.2c-0.7-1.3-2-1.6-5.9-1.3c-3.9,0.3-4,0.1-6.2-0.5
		c-2.2-0.6-2.4-1.4-4.2-3.2c-1.8-1.9-1.2-0.4-2.4-1.4c-1.2-1-2.4-2.3-3.4-4.8c-1-2.6-0.7-3.1-1.8-4.3c-1.1-1.2-1-0.9-4.5-0.9
		c-3.4,0-1.9,0.2-2.3,0.5c-0.4,0.2-1.5,1.7-2.4,2.9c-1,1.2,0.8,2.8,2.2,4.5c1.4,1.6,0.2,1.4,2.4,3.9c2.2,2.4,1.4,2.2,3,5.6
		c1.6,3.4,2.6,4.3,2.9,5.3c0.4,1,0.7-0.4,1-1.3c0.4-0.9-0.1-4.2-0.1-4.2s0.7,1.4,1.3,3.8c0.6,2.4,0.2,2.5,0.6,4
		c0.4,1.6,0,1.3,2.7,1.3c2.7,0,4.3,0.1,7.2-0.6c2.9-0.7,4.2-3.4,5.6-4.2c1.4-0.8,1.4-3.6,2.3-3.3c0.9,0.3,0,3.3,0.9,5.2
		c0.9,1.9,1.1,1.3,3.1,2.1c2,0.9,2.6,1.4,4.7,2.1c2.1,0.8,0.7,0.9,1.8,3c1.1,2.1,1.1,0.9,2.2,1.6c1.1,0.7,0.7,0.2-0.1,2.7
		c-0.8,2.5-0.9,2.5-2.8,4.5c-1.8,2-1.8,1.4-2.1,1.3c-0.3-0.1-0.9-1.5-0.9-1.5s-1.2,2.4-1.3,5.2c-0.2,2.8,0.9,1.8-2.4,3.1
		c-3.4,1.4-5.4,1.9-6.7,3c-1.3,1.1-1.3,2.6-2.1,3.3c-0.7,0.7-1.8,0.1-4,0.9c-2.3,0.8-1.6,0.6-3.5,2.1c-1.9,1.4-0.2,1.3-2.7,2.2
		c-2.4,0.9-6.9,3.1-9.1,3.3c-2.2,0.2-1.8,0.8-2.3,1.6c-0.6,0.8-0.6,1.3-3.4,1.7c-2.8,0.4-6.4,0.8-8.1,1.7c-1.7,0.9-4.3,2.8-6.1,2.4
		c-1.8-0.4-1.3-0.4-1.9-2.1c-0.6-1.6-0.9-2.8-1.2-5.5c-0.3-2.7-1.2-6.8-2.8-9.4c-1.6-2.6-1.5-2.8-3.2-5.5c-1.7-2.7-2.8-5-4.3-6.1
		c-1.5-1.1-2.2-1.1-2.9-1.9c-0.7-0.8-0.3-3.5-1-5.8c-0.7-2.3-1.2-4.6-2.3-5.8c-1.1-1.3-2.8-2.8-4.3-5.5c-1.5-2.7-1.6-3-3.8-7.3
		c-2.2-4.2-3-4.8-4.4-7.6c-1.5-2.8-0.5-2.3-1-4c-0.5-1.7-1.9,2.7-3,3.6c-1.1,0.9-1.7,0.4-2.6-2.1c-0.9-2.5-1.6-4.7-2.3-3.7
		c-0.7,1-1.2,2-0.3,4.7c0.9,2.7,1.4,2.1,2.6,4.6c1.2,2.5,4.5,8.9,5.8,11.6c1.3,2.6,0.8,1.4,2.1,5.3c1.2,4,1.9,4.5,3.6,6.1
		c1.7,1.7,1.4,0.8,2.1,3.5c0.7,2.7,0.5,5.9,0.6,7.5c0.1,1.6,1,2.5,3,4.2c2,1.6,1,1.1,1.9,2.8c0.9,1.7,1.8,4.2,2.4,5.9
		c0.5,1.7,1.2,2.9,2.7,3.7c1.6,0.8,2,0.9,3.5,1.4c1.6,0.6,1,1,2.1,2.3c1.1,1.4,3.1,2.4,4.4,4.5c1.3,2.1,0.4,1.5,0.3,3.6
		c-0.1,2.1-0.7,1.1,0.2,2.2c0.9,1.1,2.5,2,5.2,3.8c2.7,1.8,0.5,0.5,2.9,0.5c2.4-0.1,2.9-0.7,5.5-1.3c2.6-0.6,5.9-1.5,9.1-2.3
		c3.2-0.8,6.3-1.3,7.9-1.8c1.6-0.5,1.7,1.3,0.4,4c-1.2,2.8-1.8,5.1-2.9,7.3c-1.1,2.2-1.5,2.4-2.2,4.3c-0.8,1.8-6,9.2-7.1,11.6
		c-1.1,2.3-2.4,4.2-4,6.2c-1.6,1.9-6.6,5.5-8.9,7.4c-2.3,1.9-1.7,1.9-3.5,4.1c-1.7,2.2-7,8.3-8.4,10.5c-1.4,2.2-2.2,3-3.3,5.1
		c-1.1,2.1-4.1,5.2-4.3,6.7c-0.2,1.6-1.9,1.8-0.6,3.1c1.3,1.4,1.9,1.6,2.4,3.3c0.5,1.7-1.4,3.7-0.2,6.8c1.2,3.1,0.4,0.9,2.2,3.4
		c1.8,2.5,1.7,4.1,1.9,7.8c0.2,3.7,0.4,7.3-0.2,9.7c-0.6,2.4-1.3,3.9-2.2,6.1c-0.8,2.1-5.3,3.6-7.9,4.7c-2.6,1.2-2.5,0.7-3.7,2.1
		c-1.2,1.5-4.7,4.5-5.8,6.7c-1.2,2.2-2.1,2-1.6,3.4c0.5,1.4,1.4,3.3,2.7,5.9c1.2,2.6,0.4,2.4,0.1,4.7c-0.3,2.3-0.2,1.9-0.6,4.7
		c-0.3,2.8-3.6,2.8-7.3,4.3c-3.7,1.4-2.4,0.7-2.8,2.7c-0.4,2-0.2,6-0.3,8.3c-0.1,2.4-1.3,1.4-3.3,4.4c-2,2.9-2.8,4.3-5,7.9
		c-2.2,3.5-2,3-4.7,5.2c-2.7,2.2-4.9,2.8-6.1,5.3c-1.2,2.5-2.6,0.9-8.4,2.7c-5.8,1.9-1.6,1-7.2,1.6c-5.6,0.6-7.6,1.1-10.5,1.6
		c-2.9,0.5-2.6-0.2-4.4-2.1c-1.8-2-2.1-1.8-2.9-3.5c-0.8-1.6-0.2-2-0.5-5c-0.2-3-0.5-3.1-1.6-4.9c-1.1-1.8-1-2.1-2.2-5.1
		c-1.2-2.9-1.7-3.8-3.1-5.7c-1.3-2-1.7-1.4-3-2.6c-1.2-1.3-1.3-2.4-1.6-4.2c-0.3-1.8-0.7-6.1-1.3-10.6c-0.6-4.5-0.1-2.1-0.8-4
		c-0.7-1.9-1.6-4.2-2.8-6.8c-1.2-2.5-0.8-1.9-2.6-5c-1.8-3.1-1.7-2.7-2.8-5.4c-1.2-2.7-1.3-1.5-1.4-2.6c-0.1-1.1,0.6-3,0.7-4.8
		c0.1-1.9,0.7-4,1.1-6.8c0.5-2.8-0.6-2.8,0.6-4.8c1.2-1.9,2.4-3.7,3.2-5.9c0.8-2.2,0.7-2.3,0.7-5.1c0-2.8-0.3-2.6-1.1-4.9
		c-0.9-2.3-1.2-5.1-2.2-8.8c-1-3.8-1-3.6-1.1-5.1c-0.1-1.4-0.8-4.7-1.6-6.7c-0.7-2-1.1-1.2-2.6-2.5c-1.6-1.3-0.5-0.7-1.9-2.2
		c-1.3-1.4-1.1-1.9-2.4-3.4c-1.3-1.6-1.5-1.6-2.6-3.4c-1.1-1.7-0.5-0.7-0.3-3.6c0.1-2.9,1-8.5,1.5-11.8c0.5-3.2,0.6-3.1-0.6-4.4
		c-1.2-1.4-2.1-3.3-3.1-3.6c-1-0.3-3.3,0.3-6.6,0.3c-3.4-0.1-3.2-0.8-4.7-2.5c-1.5-1.7-3.4-4-4-4.6c-0.7-0.6-1.8-0.6-7.6-0.2
		c-5.7,0.4-2.3,0.5-6.1,1.1c-3.8,0.6-5.3,2.6-8.3,3.6c-2.9,1-3.8,0.8-9-0.3c-5.2-1-7.8,1.2-10.4,2.3c-2.6,1.1-3.9,0.6-5.8-0.7
		c-1.9-1.3-3-2.4-6-3.9c-2.9-1.5-2.3-2.2-5.2-3.7c-2.9-1.4-2-1.5-4.4-3.8c-2.4-2.3-2.6-4.6-4.3-7c-1.7-2.4-3.1-5.7-5.3-8.2
		c-2.2-2.5-4.4-7.6-5.5-9.1c-1.1-1.5-1.9-1.7-1.9-2.4c0-0.7,2.2-5,3.1-7.2c0.9-2.2,1.1-1.9,1.5-3.3c0.4-1.4-0.5-5.4-1.4-7.6
		c-0.9-2.2-1.8-6.8-2.5-8.9c-0.7-2.1,0.3-2.2,1.2-3.4c0.8-1.2,2.8-3.8,4.8-7.5c2-3.8,3.2-5.6,4.2-7.4c1.1-1.7,3.5-7.1,5.1-8.6
		c1.6-1.5,5.7-4.4,7.4-5.2c1.7-0.9,3.2-1.4,3.4-2.2c0.3-0.8,1-7.3,1.5-10.1c0.5-2.7-0.2-4.3,1.8-5.3c2-1.1,5.2-3,6.8-4
		c1.7-0.9,1.9-2.3,2.8-4.3c0.9-2,1.2-4.6,2.5-5.4c1.3-0.8,0.9,0.4,2.6,1.5c1.7,1.1,1.9,1.2,2.7,1.4c0.8,0.2,1.5-0.6,3.4-0.7
		c1.9,0,2.2,0.2,3.3,0.9c1.2,0.6,0.5,0.6,3.9-1.4c3.3-2,6-3.3,10.3-4.9c4.4-1.6,7.3-2.5,9.4-2.7c2-0.2,1,0,3.3,0.9
		c2.3,0.9,2.4,1.3,2.8,0.6c0.5-0.7,1.9-2.5,2.9-2.4c1,0.1,2.1,0.5,4.5,0.9c2.4,0.4,3.5,0.2,4.5-0.3c1-0.5,2.3-1.6,2.5-1.6
		c0.2,0,2.3,0.7,4,1.4c1.7,0.6,1.7,0.7,1.4,1.1c-0.4,0.4-0.9,0.9-1.7,2.7c-0.8,1.9-0.4,0.9,0.4,2.8c0.8,1.9,1.3,1.8,1,3.3
		c-0.4,1.4-1.9,2.7-3.1,4.1c-1.2,1.4-0.9,1.6,2,3.2c2.9,1.6,2.2,1.4,5.4,2.8c3.2,1.5,3.4,0.9,7.1,2c3.8,1.1,3.3,1.3,4.6,2.8
		c1.3,1.5,1.4,3,3.6,3.8c2.3,0.8,4.7,0.8,6,1.6c1.3,0.8,2.4,2,4.1,2.3c1.8,0.3,1.8,0.6,2.6-0.7c0.9-1.3,1.6-2.4,1.2-3.1
		c-0.3-0.7-1.3-1.7-1.1-2.3c0.2-0.6,1.7-3.1,2.2-3.9c0.5-0.8,1.6-1,4.4-1.1c2.8-0.1,4.7-0.5,5.2,1.1c0.5,1.7,0.4,0.9,2.5,1.8
		c2.2,0.9,2.4,0.9,4.2,1.6c1.8,0.7,0.9,1.7,1.8,1.6c0.9-0.1,2.4-0.2,4.1,0.3c1.7,0.5,4.8,2,8.1,2.1c3.3,0.1,4.6-0.9,5.1-1.1
		c0.5-0.2,2.8-3.1,4.2-1.1c1.4,2,3.2,2,6.7,1.8c3.5-0.2,3.5-0.7,4.3-1.6c0.8-0.9,2.9-4.3,3.5-6.6c0.7-2.3,2.5-7.4,3-9.6
		c0.5-2.3,0-4.1-0.2-5.4c-0.2-1.4,0.1-2.3,0.7-3.8c0.5-1.5-1.7-0.6-2.6-0.3c-0.9,0.3-1.1-0.5-1.9-0.7c-0.8-0.2-1.7-0.4-2.3,1.1
		c-0.6,1.5-0.3,2.3-3.6,2.1c-3.3-0.2-2.7-0.4-3.7-1.5c-1.1-1.1-2.9-1.4-4.3-1.9c-1.4-0.4-1.6-0.4-1.7,0.6c-0.1,0.9-0.1,1.6-1.2,1.9
		c-1.1,0.4-3.5-0.1-5.5-1c-2-1-2.6-1.4-4.6-3.4c-2-1.9-1.7-1.9-2.5-4.9c-0.8-3-0.8-5.6-0.5-6.5c0.3-0.9,0.9-1.2-0.6-0.7
		c-1.5,0.5-2.6,0.7-1.5-1.6c1-2.3,2-2.4,3.1-2.7c1.1-0.3,2.7-0.3,4.7-0.5c2-0.1,3.6-1.2,4.3-1.5c0.7-0.3,2.2-0.8,1.4-1
		c-0.7-0.2-3-0.4-2.6-1.1c0.4-0.6,0.6-0.6,1.8-0.7c1.2-0.1,3.1-0.2,4.7-0.3c1.6-0.1,2.5,0.2,3.1-0.8c0.5-1,1.2-2.4,2.4-3.1
		c1.2-0.8,2.6-0.4,5.9-0.5c3.3-0.1,2.8,0.7,3.8,1.4c1.1,0.8,1.8,0.4,3.2,0.7c1.4,0.3,0.5,1.1,1.6,1.5c1.1,0.4,3,0.9,5.4,1.6
		c2.4,0.8,0.8,0.4,3.7,0.4c2.9,0,2.8,0,5.1-0.4c2.3-0.4,3.3-1.3,4.9-2.4c1.6-1.1,0.5-3.7-0.1-5.6c-0.6-1.9-3.2-3.2-4.3-4.1
		c-1.2-0.9-3.7-3.7-5-4.9c-1.4-1.2-2.9-1.5-4.4-2.3c-1.5-0.8-4.1-2.2-4.4-3.3c-0.2-1.1,0.6-1.1,2.8-1.6c2.2-0.5,1.5-1,1.9-2.1
		c0.4-1.1,0.6-1.1,2.4-1.8c1.8-0.7-2.1-2-2.6-2.8c-0.5-0.8,1.2-0.5,3-1c1.8-0.4,2-1.3,2.2-2c0.3-0.8,0.2-1.1-1.9-1.1
		c-2.1,0-4.8,0.9-8.4,1.9c-3.6,1-1.9,1-4.1,2.7c-2.2,1.7-2.3,1-2,1.9c0.3,0.9,0.4,1.8,2.6,3c2.2,1.2,1.3,1.2,1.9,1.4
		c0.6,0.2,2.1,0.4,1.4,0.6c-0.7,0.2-1.3,1.2-2.3,1.2c-1,0-1.4,1-3.1,2c-1.7,1-2.4,1.1-3.7,1.3c-1.2,0.2-2.1-0.2-2-2.3
		c0.2-2.1-0.6-0.7-1.9-1.2c-1.3-0.5-1.8-1.1-1.8-1.1s1.3-0.5,2.6-1.3c1.3-0.8,1.9-1.3,2.6-2.9c0.6-1.6-1.4-0.7-2.9-0.9
		c-1.5-0.2-1.1-0.3-2.5-0.5c-1.4-0.2-2-1.4-2-1.4s0.7,0.3,1.9,0.1c1.2-0.1,1-0.5,1.4-0.8c0.5-0.3,0.8-0.6,0.5-0.6
		c-0.4,0-1.9,0.2-2.9,0.1c-1-0.1-1.6-0.2-3.1,0c-1.5,0.2-0.9,0.8-1.9,1.5c-1.1,0.7-1.1,0.9-1.7,2c-0.6,1-0.7,0.9-1.1,1.5
		c-0.4,0.7-0.4,2.3-0.4,3.4c0,1.1-0.3,1.5-1,2.4c-0.7,0.9-0.7,0.5-1.8,1.1c-1.1,0.6-0.4,1-0.5,2.1c-0.1,1.1-0.5,1.6-0.6,3
		c-0.1,1.4-0.7,1.5-1.6,2.5c-0.9,1-1.4,1-1.5,2.1c-0.1,1.1-0.2,1.5,0,3.6c0.2,2,0.8,1.5,2.4,3.6c1.6,2.1,2.4,1.3,1.9,2.3
		c-0.6,1.1-0.5,0.7-2.4,0.4c-1.9-0.2-2.3,0.1-3.7,1.4c-1.4,1.4-1.7,2.1-2.4,2.6c-0.7,0.5-0.5-1-0.8-1.7c-0.3-0.7-3.5-0.9-5.8-1.6
		c-2.2-0.7-2.8-1.1-3.4-1.1c-0.6,0-1.4-0.1-3.8,1.2c-2.3,1.3-1.8,2-1.6,3.7c0.2,1.7,2,2,1.5,6c-0.5,4,2,2.1,3,4.6
		c1.1,2.4,0.1,2.2-0.5,2.5c-0.6,0.3-1.3,2.4-1.8,4.4c-0.5,2,0.1,2.2-0.5,2.1c-0.6-0.1-1.3,0.3-2.4-1.3c-1.1-1.6-2-0.1-2.2-1
		c-0.2-0.9-1.5-2.5-1-4.7c0.5-2.2,1.4-2.4-0.5-3.5c-1.9-1.1-1.4-1.3-2.3-3.6c-0.9-2.3-1.1-2.8-2.9-4.9c-1.8-2.1-1.6-1.5-1.1-3.7
		c0.5-2.1,0.9-4.9-0.2-6.4c-1.1-1.5-5.5-5.6-9.1-7.5c-3.6-1.9-4.4-0.4-6-3.5c-1.6-3.1-2.3-6.3-5-8.2c-2.7-1.9-1.3-2-3.9-1.1
		c-2.6,0.9-2.6,1.3-2.4,2.1c0.2,0.7,0.8,1.7,0.4,3.8c-0.4,2-0.9,1.4,1.8,3c2.7,1.6,1.5,1.2,2.9,4.2c1.3,2.9,1.5,3.5,2.6,4.7
		c1.1,1.2,1.4,2.2,4.1,2.8c2.7,0.6,2.2-0.1,2.9,0.5c0.7,0.6-1.9,0.9-1.4,1.2c0.5,0.3,1.1,1.1,3.3,2.5c2.2,1.4,4.5,2.8,5.1,3.9
		c0.6,1.1,2.5,5.2-0.3,2.2c-2.9-3-2.9-1.6-3.7,0.4c-0.8,2.1,0.7,3.7,0.6,5.2c-0.1,1.5-1.4,0.9-2.3,2.2c-0.9,1.2-1.4,2.7-2.4,3.5
		c-1.1,0.8-0.7-0.9-1.3-0.9c-0.6,0-0.8,0.7-1.5,2.2c-0.7,1.4,0,2,0.3,4c0.3,1.9,0.9,2.1-1.2,2c-2.1-0.1-1.6-2-3.5-3.3
		c-1.9-1.3-3-0.8-4.6-1.8c-1.6-1,0.7-1.2,4.7-1.7c4-0.5,4.5-0.9,5.7-1.8c1.2-0.9,0.8-1.2,2.1-3.1c1.3-1.9,0-2.6-0.9-4.9
		c-0.9-2.3-2.6-3.3-3.2-3.8c-0.6-0.4-1.9-1.8-3.1-3.1c-1.2-1.3-2.4-1.5-4.4-2c-2-0.5-1.6-2.3-2.8-2.9c-1.1-0.5-2.2-2.1-4.8-4.5
		c-2.5-2.4-1.6-4.2-2.8-6.2c-1.2-2.1-2.3-3.7-4.9-3.7c-2.5,0-4.5,1.8-7,4.3c-2.6,2.5-2,3.7-5,1.8c-3-1.9-4-1.7-6.2,0.1
		c-2.1,1.8-2.5,3.6-2.5,7.1c0,3.6-2.6,2.1-4.6,3.1c-2,1-3.8,3.5-6.9,9.3c-3.1,5.8,0.2,3.1-0.4,5c-0.6,2,0.2,3.6-2.7,6.1
		c-2.9,2.6-1.6-0.3-3.3,1.8c-1.7,2.1-4,3.8-8.1,3.3c-4-0.5-2.9,1.1-5.4,1.7c-2.5,0.6-3.9,1.5-3.3-1.4c0.6-2.9,0.1-2.5-4.8-2.3
		c-4.9,0.2-6.6,1.5-6.2,0.8c0.4-0.7,0.6-1.9,1.2-4.7c0.5-2.8,1.3-3.7,0.5-3.7c-0.7,0-2.3,0.4-1.2-4.6c1.2-5,1.6-5.8,1.1-8.7
		c-0.5-2.9,0.2-6.7-0.4-8.4c-0.6-1.7,1.3-3.4,0.4-4.3c-0.9-0.9-1.8-2.1-1.2-2.1c0.6,0,3.3,0.1,6.7,0.7c3.4,0.6,6.9-0.5,8.9-0.3
		c2,0.2,6.3,1.1,10.5,1.8c4.3,0.7,4.1-0.6,3.7-6.8c-0.4-6.2,0.3-9.1-1-10.4c-1.3-1.3-2.6-1.2-4-2.9c-1.4-1.7-0.3-4.2-3.3-5.1
		c-3-0.9-6.3-0.2-4.7-0.8c1.6-0.6,2.2-0.8,0.5-2.1c-1.7-1.3-2.1-2.7-0.9-2.9c1.3-0.2,4.9-0.2,4.9-0.2s0.3,1.8,2.2,1
		c1.9-0.8,4.4-1.6,3.8-2.9c-0.5-1.3-1.5-2.9-1.2-2.9c0.3,0,1.1,1.8,5.1,1.8c4,0,3.7-0.6,3.4-2.3c-0.3-1.7,2.7-1.6,4.7-3
		c2-1.4-0.7-3-0.3-4.3c0.4-1.3,2.8-2.1,6.9-2.4c4.1-0.3,3.4-1,3-1.5c-0.4-0.5,0.1-2.6,0.4-5.2c0.3-2.7-0.3-3.6,1.8-4.9
		c2.1-1.3,1.5-0.8,5.8-1.2c4.4-0.4,1.7-1.4,2.4-1.6c0.8-0.2,6-1.5,6.9-1.9c1-0.4,0.9-0.3,0-2.2c-0.9-1.9-2-3-3-11.7
		c-1-8.7-0.7-8.7,4.6-10.3c5.3-1.6,4.1-1.1,3.7,3.8c-0.4,4.9-2.8,4.9-3.3,8.4c-0.5,3.6-0.1,5.7,2.1,9.5c2.2,3.8,2,1.9,6.8,1.9
		c4.8,0,3.7,1.2,6.9,2.3c3.2,1.1,2.1-2,5.2-3.1c3.1-1.1,2.4,0.7,9.7-0.4c2.8-0.4,3.7-0.5,3.9-0.5c-0.2,0-1,0-0.2-0.5
		c1.7-1,2.1-2.8,4.6-3.1c2.4-0.3,4.1,0.7,4-3.1c-0.1-3.8-1.5-3.2-1.1-6c0.4-2.9,0.5-1.6,0.7-3.9c0.2-2.3-0.3-2.7,2.8-3.5
		c3.1-0.8,1,2.8,4.7,3.6c3.7,0.8,3.2,1.4,3.8-1.5c0.6-2.9,2.7-6.6,0.8-6.4c-1.8,0.2-2.2-0.1-4-2.8c-1.8-2.7-2.9-3.3-1.7-3.3
		c1.2,0,5.1-1.1,10.7-0.9c5.6,0.2,7.2,0.7,7.5,0.1c0.3-0.6-1-1.2,1-2.4c1.9-1.2,8.2,0.6,7.2-0.5c-1-1.1-6.5-2.6-10.2-2
		c-3.7,0.6-12.8,1.7-14.1,1.6c-1.4-0.1-3.9-1.1-4.6-1.8c-0.6-0.7-2.7-1.2-2.7-4.5c0-3.3,1.2-4.6-0.7-7.7c-1.9-3.2,3.5-5.8,7.2-9.2
		c3.7-3.4,2.8-6.1,5-6.3c2.2-0.2,3.1-1.4,2-2.5c-1.1-1.1-5-4.9-6.9-5.2c-1.9-0.4-4.8-2.6-7.8,2.6c-3,5.1,0.2,5.6,0.7,8.3
		c0.5,2.7-4.1,4.7-7.7,7.1c-3.5,2.5-4.8,1.9-5.8,8.2c-1.1,6.3-2.1,6.5,1.8,8.7c3.9,2.2,4.7,3.3,2.9,5.1c-1.8,1.9-5.6,1.8-8,6.2
		c-2.3,4.4-1.4,6.6-2.3,8.6c-1,2-3.9,2.9-4.8,4.9c-0.8,2-0.8,5.7-4.5,5.1c-3.6-0.6-1.6-5.4-3.2-7.9c-1.6-2.5-2.9-4.6-4.8-7.6
		c-1.9-3.1-0.4-6-2.2-7.6c-1.8-1.6-2.2-4.7-2.2-4.7s0,0-0.6,1.5c-0.6,1.5-0.3,2.4-3.9,6.8c-3.6,4.5-9,4.7-11.7,3.7
		c-2.7-1.1-2.2-3.7-2.2-6.9c0-3.3-0.6-7.6-0.1-12.8c0.5-5.1,2-4.8,7.7-8.1c5.6-3.4,5.7-3.2,7.1-5.3c1.4-2.2,5.4-5.2,7.8-7.2
		c2.3-2,6.4-9.5,8.5-14.8c2.1-5.3,6.1-8.6,9.9-14.4c3.8-5.7,10.6-10.8,19.3-14.4c8.7-3.7,7.2-4.1,9.2-6.9c2-2.9,2.9-1.2,6.3-1.9
		c3.4-0.7,2.9,0-0.5,3.4c-3.4,3.4-4.9,6.9-2,4.3c2.9-2.7,5.1-5.8,9.6-5.6c4.5,0.2,2.7,0,7,2c4.4,2,5.1,2.2,2.7,3.8
		c-2.5,1.6-6.6,1.2-6.6,1.2s1.4,3.3,5.4,3.8c4,0.5,6.3-3.2,8.9-1.8c2.7,1.4,3.4,2.4-0.2,2.1c-3.6-0.3-4.7,2-0.2,3.6
		c4.5,1.6,4.9,1.8,10.7,2.6c5.8,0.8,8.4,5,12.9,6.9c4.5,1.9,9.7,0.3,8.2,4.4c-1.5,4.1,1.2,8-6.6,9.9c-7.8,1.9-7.6-0.6-14-2.6
		c-6.5-2-11.1-4-11.1-4s1.7,2.3,4.7,5.1c3,2.8,3.3,5.3,3,10.4c-0.3,5-1.7,6.4,3.4,8.9c5.1,2.5,4.4,1.8,5.9,1.4
		c1.6-0.4,4.3-0.9,3.6-1.7c-0.6-0.8-1.2-2.3-2.9-3.1c-1.7-0.8-1.8-2.7-0.1-3.6c1.7-0.9,3.3,0.8,7,0.6c3.7-0.2,0-1.4,1.8-3.3
		c1.8-1.9,1.9-5,6.3-6.7c4.4-1.7,9,0.8,10.2-1.1c1.2-1.9,2.4-4.1,0-6.9c-2.4-2.9-4.4-3.9-2.9-5.2c1.5-1.4,4.5-5,5.9-3
		c1.4,2.1,4.9,4.4,0.4,4c-4.5-0.4-1.4,6.6,2.7,6.2c4-0.4,3.7-1.7,7-3.3c3.3-1.6,9.8-6.8,14.3-8.4c4.6-1.6,5.5-1.2,7.3-0.4
		c1.8,0.8,1.8,2.3,6.8,1.3c5-1,6.5-2.2,11.2-3c4.7-0.8-0.3,1.7,1.8,2.4c2.1,0.7,2.3,1.3,3.9,0.2c1.6-1.1,6.7-2.9,4.4-4.7
		c-2.3-1.8-4-3-4-3s1.7-3.8,6.2-3.5c4.5,0.3,11.3,4.5,15.6,7.4c4.4,3,9.7,9.3,9.7,9.3s1.9-3.3,0.3-8.7c-1.6-5.4-5.6-4.2-5.6-9.3
		c0-5.1-3.7-3.8-2.4-7.4c1.3-3.7,4.9-5.1,5.9-9.7c0.9-4.6,1.8-8.5,5.1-8.5c3.3,0,10.4,1,10.4,1s0,4.3-2.7,10.6
		c-2.7,6.3,1.4,7,0.7,14.7c-0.6,7.7-0.7,8.7,1.1,10.5c1.8,1.8,5.2,4,3.9,7.3c-1.3,3.4-1.9,5.4-6.7,7.3c-4.8,1.9-10.8,0.8-8.6,2.3
		c2.2,1.5,5.1,2.8,8.3,3.3c3.2,0.5,1.6-0.2,4.1-2.3c2.6-2.1,8.3-6.2,8.1-8.2c-0.2-2-3.3-5-1.2-6.5c2.1-1.5,3-3.8,6.3-1.9
		c3.3,1.9,6.5,8.9,6.5,8.6c0-0.3-0.6-6.9-4.6-10.9c-3.9-4-10.4-0.2-10.4-3.7c0-3.5,1.8-8.2,1.4-12c-0.4-3.8-1.9-7.5,0.5-10.8
		c2.4-3.3,2.6-5.8,2.6-5.8s1.1,3.1,0.2,6.9c-0.8,3.9,0.4,6.1,2.2,6.1c1.8,0,9.9,0.1,5.5-1.2c-4.4-1.3-5.6-2.5-1.3-4.9
		c4.4-2.4,4.1-0.8,10.5,0.7c6.4,1.5,7.9,2.6,10,2.5c2.1-0.1,1.8-0.3,1.1-2.2c-0.7-1.9-1.7-3.2-3.7-4.5c-2-1.3-3.4,0.3-4-1.7
		c-0.6-2-1.8-6.9-2.3-8.8c-0.5-1.9,1.6-0.4,5-0.4c3.4,0,12.6-0.5,19.8-0.7c7.1-0.2,0.1-7.6-0.4-12.9c-0.5-5.2,13.2-5.4,19.9-6.4
		c6.7-1,14.5-0.7,27-3.7c12.5-3,4.5-2.5,6.3-6c1.8-3.6,4.9-4.2,8.6-4.2c3.7,0,7.1,0.7,5.7,1.2c-1.4,0.5-5.5,2.6,1,4
		c6.5,1.4,4.8,1.3,1.4,2.5c-3.4,1.2-0.5,3.4,6.1,3.4c6.6,0,2.7-0.6,1.6-2.8c-1.1-2.2,1-1.4,6.4-0.5c5.4,0.9,7.5,1.8,10.5,4.6
		c3,2.8,3.5,2.1,4.6,5.9c1.1,3.9-0.1,3.3-4.7,6.8c-4.6,3.6-7.3,3.6-13.9,7.7c-6.6,4.2-5,6.3-8.6,9.1c-3.6,2.8-2.7,2,5,0
		c7.7-2,11.8-3.3,15.7-2.9c3.9,0.4,5.8,1.9,8.8,1.9c3,0-0.2,0.5,9.1,0.5c9.4,0,8,0,4.6,2.7c-3.4,2.7,0.6,3.5,4.8,3.5
		c4.1,0,9.2,0.2,13.1-0.4c3.8-0.6,0.5-3.5,5.1-3.7c4.6-0.2,6.1-0.6,10.9-0.6c4.9,0,3.4,2,5.1,3.8c1.7,1.8,4,3,2.4,6.5
		c-1.6,3.6-2.4,3.7-1.5,8.5c1,4.9,3.4,5.5,6.4,6.4c3,0.9,3-4.4,5.8-6.1c2.9-1.8,3.5,3.6,6.8,2.8c3.3-0.8,7-0.4,9.9,0.5
		c2.9,0.9,5.3,1.4,9.4,0.5c4-0.9,2.8-2.5,1.4-4.9c-1.4-2.5-1.5-2.3,1.1-4.9c2.6-2.6,4.3-1.3,12.5,0.9c8.3,2.2,5.6,2.2,10.3,3.5
		c4.7,1.3,3.2,1,10.3,4.3c7.1,3.3,5.7,7.1,9,9.2c3.3,2.1,3.5,0,10.1-0.6c6.6-0.6,6.5,0.8,13.7,2.7c7.2,1.9,5.3,4.3,5.3,6.3
		c0,2.1-2,3.7,2.4,4.6c4.5,1,6.3,1.9,10.1,0.9c3.8-1,0.4,1,8.9,1.1c8.5,0.1,5.6-1,8.2,0.8c2.5,1.8,3.2,5.3,7.3,5
		c4.1-0.4,3.8-0.3,2.1-4c-1.7-3.7-2.8-4.3-0.3-4.2c2.4,0.1,7.4,1.2,16.7,2.7c9.3,1.5,9.6,3.2,17.1,7.9c7.5,4.8,9.7,5.1,15.2,9.4
		c2.1,1.6,2.5,2.1,2.6,2.2c0.1,0,0.7,0.2,2.9,1.2c5.9,2.8,4.9,1.9,10,4.4c5.1,2.5,9.4,5.9,9.4,5.9S1351.7,196.5,1347.9,196.9z
		 M852,297.5c0,0-0.6,0.8,2.4-1.6c3-2.4-1.4-0.1-3.1-0.6c-1.7-0.5-2.2-1.3-1.7-3.5c0.5-2.2-0.2-2.2-2-5.1c0,0-1-0.6-3,0.6
		c-2,1.2-3.2-1.2-5.6-0.3c-2.4,0.9-5.1,0.5-6.6,4.2c-1.5,3.7-3.2,1.3-3.7,4.3c-0.5,3-5.1,4.6-5.1,4.6s1.8,1.8,3.2,3.5
		c1.4,1.7,0.4,0.6,1.8,6.1c1.4,5.5,2.3,5,4.3,5.8c1.9,0.8,4.9,2.7,4.9,2.7s-1.8-1.1-1.8,1.9s-2.9,5-2.6,9.4c0.3,4.4-3.9,8.4-0.5,8.8
		c3.4,0.4,2.3,1.9,6.1,2.9c3.7,1,5.8,1.7,11.3,1.7c5.4,0,2.4-2.1,1.7-5.1c-0.7-3.1-1.2-5-1.4-8.4c-0.2-3.4-1.5-2.5-2.3-4.6
		c-0.9-2.1,0.4-3.3,3-3.3c2.6,0,2.9-0.1,1.5-2.4c-1.4-2.3-0.5-3.2-2.2-4.2c-1.7-1-2.4,3.3-2.4,3.3s-1.1-1-0.6-5.1
		c0.4-4.2,0.7-2.2-0.5-3c-1.3-0.8-2,0.2-3.7-2.6c-1.7-2.8-0.2-2.2-2.2-5.5c-2-3.4-1-1.6,1.3-1.6c2.2,0,1.1-0.5,0-1.6
		c-1.1-1.1-1.8-2.8,1.1-2.6c2.9,0.2,6.6,0.8,8,0.9C852.5,297.2,852,297.5,852,297.5z M455.4,145c-1,1.7,1.7,3.9,3.6,3.2
		c1.9-0.7,2.5,0.1,3.6-0.8c1.1-0.9,1.2-2.1-0.1-3.4c-1.3-1.3-0.8-2-1-2.1C459.1,140.3,456.4,143.3,455.4,145z M980.9,35.8
		c-2.9,0.1-6.1,0.2-3.4,1.1c2.7,0.9,1.6,5.3,6.7,2.9c5.1-2.5,4-2.7,7.6-4.2c3.5-1.5,1.5-0.8-2.8-1.9
		C986.3,33.1,983.7,35.7,980.9,35.8z"/>
</g>
<g>
	<rect x="98.8" y="222.2" fill="#FFFFFF" width="254.1" height="254.1"/>
	<circle fill="#FFFFFF" cx="225.8" cy="349.2" r="127.1"/>
	<circle fill="#FFFFFF" cx="225.8" cy="349.2" r="126.6"/>
	<circle fill="#FFFFFF" cx="225.8" cy="349.2" r="126.1"/>
	<circle fill="#FEFEFF" cx="225.8" cy="349.2" r="125.6"/>
	<circle fill="#FEFEFE" cx="225.8" cy="349.2" r="125.1"/>
	<circle fill="#FDFEFE" cx="225.8" cy="349.2" r="124.6"/>
	<circle fill="#FDFDFE" cx="225.8" cy="349.2" r="124.2"/>
	<circle fill="#FCFDFE" cx="225.8" cy="349.2" r="123.7"/>
	<circle fill="#FCFDFD" cx="225.8" cy="349.2" r="123.2"/>
	<circle fill="#FBFCFD" cx="225.8" cy="349.2" r="122.7"/>
	<circle fill="#FAFCFD" cx="225.8" cy="349.2" r="122.2"/>
	<circle fill="#FAFBFC" cx="225.8" cy="349.2" r="121.7"/>
	<circle fill="#F9FBFC" cx="225.8" cy="349.2" r="121.3"/>
	<circle fill="#F9FAFC" cx="225.8" cy="349.2" r="120.8"/>
	<circle fill="#F8FAFB" cx="225.8" cy="349.2" r="120.3"/>
	<circle fill="#F7F9FB" cx="225.8" cy="349.2" r="119.8"/>
	<circle fill="#F6F9FB" cx="225.8" cy="349.2" r="119.3"/>
	<circle fill="#F6F8FA" cx="225.8" cy="349.2" r="118.8"/>
	<circle fill="#F5F8FA" cx="225.8" cy="349.2" r="118.3"/>
	<circle fill="#F4F7F9" cx="225.8" cy="349.2" r="117.9"/>
	<circle fill="#F3F6F9" cx="225.8" cy="349.2" r="117.4"/>
	<circle fill="#F2F6F8" cx="225.8" cy="349.2" r="116.9"/>
	<circle fill="#F2F5F8" cx="225.8" cy="349.2" r="116.4"/>
	<circle fill="#F1F5F8" cx="225.8" cy="349.2" r="115.9"/>
	<circle fill="#F0F4F7" cx="225.8" cy="349.2" r="115.4"/>
	<circle fill="#EFF3F7" cx="225.8" cy="349.2" r="115"/>
	<circle fill="#EEF3F6" cx="225.8" cy="349.2" r="114.5"/>
	<circle fill="#EDF2F6" cx="225.8" cy="349.2" r="114"/>
	<circle fill="#ECF1F5" cx="225.8" cy="349.2" r="113.5"/>
	<circle fill="#EBF1F5" cx="225.8" cy="349.2" r="113"/>
	<circle fill="#EAF0F4" cx="225.8" cy="349.2" r="112.5"/>
	<circle fill="#E9EFF4" cx="225.8" cy="349.2" r="112.1"/>
	<circle fill="#E8EEF3" cx="225.8" cy="349.2" r="111.6"/>
	<circle fill="#E7EEF3" cx="225.8" cy="349.2" r="111.1"/>
	<circle fill="#E6EDF2" cx="225.8" cy="349.2" r="110.6"/>
	<circle fill="#E5ECF2" cx="225.8" cy="349.2" r="110.1"/>
	<circle fill="#E4EBF1" cx="225.8" cy="349.2" r="109.6"/>
	<circle fill="#E3EBF1" cx="225.8" cy="349.2" r="109.1"/>
	<circle fill="#E2EAF0" cx="225.8" cy="349.2" r="108.7"/>
	<circle fill="#E1E9F0" cx="225.8" cy="349.2" r="108.2"/>
	<circle fill="#E0E8EF" cx="225.8" cy="349.2" r="107.7"/>
	<circle fill="#DFE8EF" cx="225.8" cy="349.2" r="107.2"/>
	<circle fill="#DEE7EE" cx="225.8" cy="349.2" r="106.7"/>
	<circle fill="#DDE6ED" cx="225.8" cy="349.2" r="106.2"/>
	<circle fill="#DCE5ED" cx="225.8" cy="349.2" r="105.8"/>
	<circle fill="#DBE4EC" cx="225.8" cy="349.2" r="105.3"/>
	<circle fill="#DAE4EC" cx="225.8" cy="349.2" r="104.8"/>
	<circle fill="#D9E3EB" cx="225.8" cy="349.2" r="104.3"/>
	<circle fill="#D7E2EB" cx="225.8" cy="349.2" r="103.8"/>
	<circle fill="#D6E1EA" cx="225.8" cy="349.2" r="103.3"/>
	<circle fill="#D5E0E9" cx="225.8" cy="349.2" r="102.8"/>
	<circle fill="#D4DFE9" cx="225.8" cy="349.2" r="102.4"/>
	<circle fill="#D3DFE8" cx="225.8" cy="349.2" r="101.9"/>
	<circle fill="#D2DEE8" cx="225.8" cy="349.2" r="101.4"/>
	<circle fill="#D0DDE7" cx="225.8" cy="349.2" r="100.9"/>
	<circle fill="#CFDCE6" cx="225.8" cy="349.2" r="100.4"/>
	<circle fill="#CEDBE6" cx="225.8" cy="349.2" r="99.9"/>
	<circle fill="#CDDAE5" cx="225.8" cy="349.2" r="99.5"/>
	<circle fill="#CCD9E4" cx="225.8" cy="349.2" r="99"/>
	<circle fill="#CAD8E4" cx="225.8" cy="349.2" r="98.5"/>
	<circle fill="#C9D7E3" cx="225.8" cy="349.2" r="98"/>
	<circle fill="#C8D7E2" cx="225.8" cy="349.2" r="97.5"/>
	<circle fill="#C7D6E2" cx="225.8" cy="349.2" r="97"/>
	<circle fill="#C5D5E1" cx="225.8" cy="349.2" r="96.6"/>
	<circle fill="#C4D4E0" cx="225.8" cy="349.2" r="96.1"/>
	<circle fill="#C3D3E0" cx="225.8" cy="349.2" r="95.6"/>
	<circle fill="#C2D2DF" cx="225.8" cy="349.2" r="95.1"/>
	<circle fill="#C0D1DE" cx="225.8" cy="349.2" r="94.6"/>
	<circle fill="#BFD0DE" cx="225.8" cy="349.2" r="94.1"/>
	<circle fill="#BECFDD" cx="225.8" cy="349.2" r="93.6"/>
	<circle fill="#BCCEDC" cx="225.8" cy="349.2" r="93.2"/>
	<circle fill="#BBCDDC" cx="225.8" cy="349.2" r="92.7"/>
	<circle fill="#BACCDB" cx="225.8" cy="349.2" r="92.2"/>
	<circle fill="#B8CBDA" cx="225.8" cy="349.2" r="91.7"/>
	<circle fill="#B7CADA" cx="225.8" cy="349.2" r="91.2"/>
	<circle fill="#B6C9D9" cx="225.8" cy="349.2" r="90.7"/>
	<circle fill="#B4C8D8" cx="225.8" cy="349.2" r="90.3"/>
	<circle fill="#B3C7D8" cx="225.8" cy="349.2" r="89.8"/>
	<circle fill="#B2C6D7" cx="225.8" cy="349.2" r="89.3"/>
	<circle fill="#B0C5D6" cx="225.8" cy="349.2" r="88.8"/>
	<circle fill="#AFC4D5" cx="225.8" cy="349.2" r="88.3"/>
	<circle fill="#ADC3D5" cx="225.8" cy="349.2" r="87.8"/>
	<circle fill="#ACC2D4" cx="225.8" cy="349.2" r="87.3"/>
	<circle fill="none" cx="225.8" cy="349.2" r="127.1"/>
</g>
<g>
	<circle fill="#FFFFFF" cx="227.4" cy="330.1" r="111.1"/>
</g>
<g>
	
		<ellipse transform="matrix(0.7071 -0.7071 0.7071 0.7071 -166.8008 257.4312)" fill="#E16241" cx="227.3" cy="330.1" rx="100.1" ry="100.1"/>
</g>
<g>
	<rect x="418.9" y="222.2" fill="#FFFFFF" width="254.1" height="254.1"/>
	<circle fill="#FFFFFF" cx="546" cy="349.2" r="127.1"/>
	<circle fill="#FFFFFF" cx="546" cy="349.2" r="126.6"/>
	<circle fill="#FFFFFF" cx="546" cy="349.2" r="126.1"/>
	<circle fill="#FEFEFF" cx="546" cy="349.2" r="125.6"/>
	<circle fill="#FEFEFE" cx="546" cy="349.2" r="125.1"/>
	<circle fill="#FDFEFE" cx="546" cy="349.2" r="124.6"/>
	<circle fill="#FDFDFE" cx="546" cy="349.2" r="124.2"/>
	<circle fill="#FCFDFE" cx="546" cy="349.2" r="123.7"/>
	<circle fill="#FCFDFD" cx="546" cy="349.2" r="123.2"/>
	<circle fill="#FBFCFD" cx="546" cy="349.2" r="122.7"/>
	<circle fill="#FAFCFD" cx="546" cy="349.2" r="122.2"/>
	<circle fill="#FAFBFC" cx="546" cy="349.2" r="121.7"/>
	<circle fill="#F9FBFC" cx="546" cy="349.2" r="121.3"/>
	<circle fill="#F9FAFC" cx="546" cy="349.2" r="120.8"/>
	<circle fill="#F8FAFB" cx="546" cy="349.2" r="120.3"/>
	<circle fill="#F7F9FB" cx="546" cy="349.2" r="119.8"/>
	<circle fill="#F6F9FB" cx="546" cy="349.2" r="119.3"/>
	<circle fill="#F6F8FA" cx="546" cy="349.2" r="118.8"/>
	<circle fill="#F5F8FA" cx="546" cy="349.2" r="118.3"/>
	<circle fill="#F4F7F9" cx="546" cy="349.2" r="117.9"/>
	<circle fill="#F3F6F9" cx="546" cy="349.2" r="117.4"/>
	<circle fill="#F2F6F8" cx="546" cy="349.2" r="116.9"/>
	<circle fill="#F2F5F8" cx="546" cy="349.2" r="116.4"/>
	<circle fill="#F1F5F8" cx="546" cy="349.2" r="115.9"/>
	<circle fill="#F0F4F7" cx="546" cy="349.2" r="115.4"/>
	<circle fill="#EFF3F7" cx="546" cy="349.2" r="115"/>
	<circle fill="#EEF3F6" cx="546" cy="349.2" r="114.5"/>
	<circle fill="#EDF2F6" cx="546" cy="349.2" r="114"/>
	<circle fill="#ECF1F5" cx="546" cy="349.2" r="113.5"/>
	<circle fill="#EBF1F5" cx="546" cy="349.2" r="113"/>
	<circle fill="#EAF0F4" cx="546" cy="349.2" r="112.5"/>
	<circle fill="#E9EFF4" cx="546" cy="349.2" r="112.1"/>
	<circle fill="#E8EEF3" cx="546" cy="349.2" r="111.6"/>
	<circle fill="#E7EEF3" cx="546" cy="349.2" r="111.1"/>
	<circle fill="#E6EDF2" cx="546" cy="349.2" r="110.6"/>
	<circle fill="#E5ECF2" cx="546" cy="349.2" r="110.1"/>
	<circle fill="#E4EBF1" cx="546" cy="349.2" r="109.6"/>
	<circle fill="#E3EBF1" cx="546" cy="349.2" r="109.1"/>
	<circle fill="#E2EAF0" cx="546" cy="349.2" r="108.7"/>
	<circle fill="#E1E9F0" cx="546" cy="349.2" r="108.2"/>
	<circle fill="#E0E8EF" cx="546" cy="349.2" r="107.7"/>
	<circle fill="#DFE8EF" cx="546" cy="349.2" r="107.2"/>
	<circle fill="#DEE7EE" cx="546" cy="349.2" r="106.7"/>
	<circle fill="#DDE6ED" cx="546" cy="349.2" r="106.2"/>
	<circle fill="#DCE5ED" cx="546" cy="349.2" r="105.8"/>
	<circle fill="#DBE4EC" cx="546" cy="349.2" r="105.3"/>
	<circle fill="#DAE4EC" cx="546" cy="349.2" r="104.8"/>
	<circle fill="#D9E3EB" cx="546" cy="349.2" r="104.3"/>
	<circle fill="#D7E2EB" cx="546" cy="349.2" r="103.8"/>
	<circle fill="#D6E1EA" cx="546" cy="349.2" r="103.3"/>
	<circle fill="#D5E0E9" cx="546" cy="349.2" r="102.8"/>
	<circle fill="#D4DFE9" cx="546" cy="349.2" r="102.4"/>
	<circle fill="#D3DFE8" cx="546" cy="349.2" r="101.9"/>
	<circle fill="#D2DEE8" cx="546" cy="349.2" r="101.4"/>
	<circle fill="#D0DDE7" cx="546" cy="349.2" r="100.9"/>
	<circle fill="#CFDCE6" cx="546" cy="349.2" r="100.4"/>
	<circle fill="#CEDBE6" cx="546" cy="349.2" r="99.9"/>
	<circle fill="#CDDAE5" cx="546" cy="349.2" r="99.5"/>
	<circle fill="#CCD9E4" cx="546" cy="349.2" r="99"/>
	<circle fill="#CAD8E4" cx="546" cy="349.2" r="98.5"/>
	<circle fill="#C9D7E3" cx="546" cy="349.2" r="98"/>
	<circle fill="#C8D7E2" cx="546" cy="349.2" r="97.5"/>
	<circle fill="#C7D6E2" cx="546" cy="349.2" r="97"/>
	<circle fill="#C5D5E1" cx="546" cy="349.2" r="96.6"/>
	<circle fill="#C4D4E0" cx="546" cy="349.2" r="96.1"/>
	<circle fill="#C3D3E0" cx="546" cy="349.2" r="95.6"/>
	<circle fill="#C2D2DF" cx="546" cy="349.2" r="95.1"/>
	<circle fill="#C0D1DE" cx="546" cy="349.2" r="94.6"/>
	<circle fill="#BFD0DE" cx="546" cy="349.2" r="94.1"/>
	<circle fill="#BECFDD" cx="546" cy="349.2" r="93.6"/>
	<circle fill="#BCCEDC" cx="546" cy="349.2" r="93.2"/>
	<circle fill="#BBCDDC" cx="546" cy="349.2" r="92.7"/>
	<circle fill="#BACCDB" cx="546" cy="349.2" r="92.2"/>
	<circle fill="#B8CBDA" cx="546" cy="349.2" r="91.7"/>
	<circle fill="#B7CADA" cx="546" cy="349.2" r="91.2"/>
	<circle fill="#B6C9D9" cx="546" cy="349.2" r="90.7"/>
	<circle fill="#B4C8D8" cx="546" cy="349.2" r="90.3"/>
	<circle fill="#B3C7D8" cx="546" cy="349.2" r="89.8"/>
	<circle fill="#B2C6D7" cx="546" cy="349.2" r="89.3"/>
	<circle fill="#B0C5D6" cx="546" cy="349.2" r="88.8"/>
	<circle fill="#AFC4D5" cx="546" cy="349.2" r="88.3"/>
	<circle fill="#ADC3D5" cx="546" cy="349.2" r="87.8"/>
	<circle fill="#ACC2D4" cx="546" cy="349.2" r="87.3"/>
	<circle fill="none" cx="546" cy="349.2" r="127.1"/>
</g>
<g>
	<circle fill="#FFFFFF" cx="547.5" cy="330.1" r="111.1"/>
</g>
<g>
	
		<ellipse transform="matrix(0.233 -0.9725 0.9725 0.233 99.0063 785.6478)" fill="#EFC928" cx="547.5" cy="330.1" rx="100.1" ry="100.1"/>
</g>
<g>
	<rect x="739.1" y="222.2" fill="#FFFFFF" width="254.1" height="254.1"/>
	<circle fill="#FFFFFF" cx="866.2" cy="349.2" r="127.1"/>
	<circle fill="#FFFFFF" cx="866.2" cy="349.2" r="126.6"/>
	<circle fill="#FFFFFF" cx="866.2" cy="349.2" r="126.1"/>
	<circle fill="#FEFEFF" cx="866.2" cy="349.2" r="125.6"/>
	<circle fill="#FEFEFE" cx="866.2" cy="349.2" r="125.1"/>
	<circle fill="#FDFEFE" cx="866.2" cy="349.2" r="124.6"/>
	<circle fill="#FDFDFE" cx="866.2" cy="349.2" r="124.2"/>
	<circle fill="#FCFDFE" cx="866.2" cy="349.2" r="123.7"/>
	<circle fill="#FCFDFD" cx="866.2" cy="349.2" r="123.2"/>
	<circle fill="#FBFCFD" cx="866.2" cy="349.2" r="122.7"/>
	<circle fill="#FAFCFD" cx="866.2" cy="349.2" r="122.2"/>
	<circle fill="#FAFBFC" cx="866.2" cy="349.2" r="121.7"/>
	<circle fill="#F9FBFC" cx="866.2" cy="349.2" r="121.3"/>
	<circle fill="#F9FAFC" cx="866.2" cy="349.2" r="120.8"/>
	<circle fill="#F8FAFB" cx="866.2" cy="349.2" r="120.3"/>
	<circle fill="#F7F9FB" cx="866.2" cy="349.2" r="119.8"/>
	<circle fill="#F6F9FB" cx="866.2" cy="349.2" r="119.3"/>
	<circle fill="#F6F8FA" cx="866.2" cy="349.2" r="118.8"/>
	<circle fill="#F5F8FA" cx="866.2" cy="349.2" r="118.3"/>
	<circle fill="#F4F7F9" cx="866.2" cy="349.2" r="117.9"/>
	<circle fill="#F3F6F9" cx="866.2" cy="349.2" r="117.4"/>
	<circle fill="#F2F6F8" cx="866.2" cy="349.2" r="116.9"/>
	<circle fill="#F2F5F8" cx="866.2" cy="349.2" r="116.4"/>
	<circle fill="#F1F5F8" cx="866.2" cy="349.2" r="115.9"/>
	<circle fill="#F0F4F7" cx="866.2" cy="349.2" r="115.4"/>
	<circle fill="#EFF3F7" cx="866.2" cy="349.2" r="115"/>
	<circle fill="#EEF3F6" cx="866.2" cy="349.2" r="114.5"/>
	<circle fill="#EDF2F6" cx="866.2" cy="349.2" r="114"/>
	<circle fill="#ECF1F5" cx="866.2" cy="349.2" r="113.5"/>
	<circle fill="#EBF1F5" cx="866.2" cy="349.2" r="113"/>
	<circle fill="#EAF0F4" cx="866.2" cy="349.2" r="112.5"/>
	<circle fill="#E9EFF4" cx="866.2" cy="349.2" r="112.1"/>
	<circle fill="#E8EEF3" cx="866.2" cy="349.2" r="111.6"/>
	<circle fill="#E7EEF3" cx="866.2" cy="349.2" r="111.1"/>
	<circle fill="#E6EDF2" cx="866.2" cy="349.2" r="110.6"/>
	<circle fill="#E5ECF2" cx="866.2" cy="349.2" r="110.1"/>
	<circle fill="#E4EBF1" cx="866.2" cy="349.2" r="109.6"/>
	<circle fill="#E3EBF1" cx="866.2" cy="349.2" r="109.1"/>
	<circle fill="#E2EAF0" cx="866.2" cy="349.2" r="108.7"/>
	<circle fill="#E1E9F0" cx="866.2" cy="349.2" r="108.2"/>
	<circle fill="#E0E8EF" cx="866.2" cy="349.2" r="107.7"/>
	<circle fill="#DFE8EF" cx="866.2" cy="349.2" r="107.2"/>
	<circle fill="#DEE7EE" cx="866.2" cy="349.2" r="106.7"/>
	<circle fill="#DDE6ED" cx="866.2" cy="349.2" r="106.2"/>
	<circle fill="#DCE5ED" cx="866.2" cy="349.2" r="105.8"/>
	<circle fill="#DBE4EC" cx="866.2" cy="349.2" r="105.3"/>
	<circle fill="#DAE4EC" cx="866.2" cy="349.2" r="104.8"/>
	<circle fill="#D9E3EB" cx="866.2" cy="349.2" r="104.3"/>
	<circle fill="#D7E2EB" cx="866.2" cy="349.2" r="103.8"/>
	<circle fill="#D6E1EA" cx="866.2" cy="349.2" r="103.3"/>
	<circle fill="#D5E0E9" cx="866.2" cy="349.2" r="102.8"/>
	<circle fill="#D4DFE9" cx="866.2" cy="349.2" r="102.4"/>
	<circle fill="#D3DFE8" cx="866.2" cy="349.2" r="101.9"/>
	<circle fill="#D2DEE8" cx="866.2" cy="349.2" r="101.4"/>
	<circle fill="#D0DDE7" cx="866.2" cy="349.2" r="100.9"/>
	<circle fill="#CFDCE6" cx="866.2" cy="349.2" r="100.4"/>
	<circle fill="#CEDBE6" cx="866.2" cy="349.2" r="99.9"/>
	<circle fill="#CDDAE5" cx="866.2" cy="349.2" r="99.5"/>
	<circle fill="#CCD9E4" cx="866.2" cy="349.2" r="99"/>
	<circle fill="#CAD8E4" cx="866.2" cy="349.2" r="98.5"/>
	<circle fill="#C9D7E3" cx="866.2" cy="349.2" r="98"/>
	<circle fill="#C8D7E2" cx="866.2" cy="349.2" r="97.5"/>
	<circle fill="#C7D6E2" cx="866.2" cy="349.2" r="97"/>
	<circle fill="#C5D5E1" cx="866.2" cy="349.2" r="96.6"/>
	<circle fill="#C4D4E0" cx="866.2" cy="349.2" r="96.1"/>
	<circle fill="#C3D3E0" cx="866.2" cy="349.2" r="95.6"/>
	<circle fill="#C2D2DF" cx="866.2" cy="349.2" r="95.1"/>
	<circle fill="#C0D1DE" cx="866.2" cy="349.2" r="94.6"/>
	<circle fill="#BFD0DE" cx="866.2" cy="349.2" r="94.1"/>
	<circle fill="#BECFDD" cx="866.2" cy="349.2" r="93.6"/>
	<circle fill="#BCCEDC" cx="866.2" cy="349.2" r="93.2"/>
	<circle fill="#BBCDDC" cx="866.2" cy="349.2" r="92.7"/>
	<circle fill="#BACCDB" cx="866.2" cy="349.2" r="92.2"/>
	<circle fill="#B8CBDA" cx="866.2" cy="349.2" r="91.7"/>
	<circle fill="#B7CADA" cx="866.2" cy="349.2" r="91.2"/>
	<circle fill="#B6C9D9" cx="866.2" cy="349.2" r="90.7"/>
	<circle fill="#B4C8D8" cx="866.2" cy="349.2" r="90.3"/>
	<circle fill="#B3C7D8" cx="866.2" cy="349.2" r="89.8"/>
	<circle fill="#B2C6D7" cx="866.2" cy="349.2" r="89.3"/>
	<circle fill="#B0C5D6" cx="866.2" cy="349.2" r="88.8"/>
	<circle fill="#AFC4D5" cx="866.2" cy="349.2" r="88.3"/>
	<circle fill="#ADC3D5" cx="866.2" cy="349.2" r="87.8"/>
	<circle fill="#ACC2D4" cx="866.2" cy="349.2" r="87.3"/>
	<circle fill="none" cx="866.2" cy="349.2" r="127.1"/>
</g>
<g>
	<circle fill="#FFFFFF" cx="867.7" cy="330.1" r="111.1"/>
</g>
<g>
	
		<ellipse transform="matrix(0.7071 -0.7071 0.7071 0.7071 20.7543 710.2294)" fill="#547F41" cx="867.7" cy="330.1" rx="100.1" ry="100.1"/>
</g>
<g>
	<rect x="1059.2" y="222.2" fill="#FFFFFF" width="254.1" height="254.1"/>
	<circle fill="#FFFFFF" cx="1186.3" cy="349.2" r="127.1"/>
	<circle fill="#FFFFFF" cx="1186.3" cy="349.2" r="126.6"/>
	<circle fill="#FFFFFF" cx="1186.3" cy="349.2" r="126.1"/>
	<circle fill="#FEFEFF" cx="1186.3" cy="349.2" r="125.6"/>
	<circle fill="#FEFEFE" cx="1186.3" cy="349.2" r="125.1"/>
	<circle fill="#FDFEFE" cx="1186.3" cy="349.2" r="124.6"/>
	<circle fill="#FDFDFE" cx="1186.3" cy="349.2" r="124.2"/>
	<circle fill="#FCFDFE" cx="1186.3" cy="349.2" r="123.7"/>
	<circle fill="#FCFDFD" cx="1186.3" cy="349.2" r="123.2"/>
	<circle fill="#FBFCFD" cx="1186.3" cy="349.2" r="122.7"/>
	<circle fill="#FAFCFD" cx="1186.3" cy="349.2" r="122.2"/>
	<circle fill="#FAFBFC" cx="1186.3" cy="349.2" r="121.7"/>
	<circle fill="#F9FBFC" cx="1186.3" cy="349.2" r="121.3"/>
	<circle fill="#F9FAFC" cx="1186.3" cy="349.2" r="120.8"/>
	<circle fill="#F8FAFB" cx="1186.3" cy="349.2" r="120.3"/>
	<circle fill="#F7F9FB" cx="1186.3" cy="349.2" r="119.8"/>
	<circle fill="#F6F9FB" cx="1186.3" cy="349.2" r="119.3"/>
	<circle fill="#F6F8FA" cx="1186.3" cy="349.2" r="118.8"/>
	<circle fill="#F5F8FA" cx="1186.3" cy="349.2" r="118.3"/>
	<circle fill="#F4F7F9" cx="1186.3" cy="349.2" r="117.9"/>
	<circle fill="#F3F6F9" cx="1186.3" cy="349.2" r="117.4"/>
	<circle fill="#F2F6F8" cx="1186.3" cy="349.2" r="116.9"/>
	<circle fill="#F2F5F8" cx="1186.3" cy="349.2" r="116.4"/>
	<circle fill="#F1F5F8" cx="1186.3" cy="349.2" r="115.9"/>
	<circle fill="#F0F4F7" cx="1186.3" cy="349.2" r="115.4"/>
	<circle fill="#EFF3F7" cx="1186.3" cy="349.2" r="115"/>
	<circle fill="#EEF3F6" cx="1186.3" cy="349.2" r="114.5"/>
	<circle fill="#EDF2F6" cx="1186.3" cy="349.2" r="114"/>
	<circle fill="#ECF1F5" cx="1186.3" cy="349.2" r="113.5"/>
	<circle fill="#EBF1F5" cx="1186.3" cy="349.2" r="113"/>
	<circle fill="#EAF0F4" cx="1186.3" cy="349.2" r="112.5"/>
	<circle fill="#E9EFF4" cx="1186.3" cy="349.2" r="112.1"/>
	<circle fill="#E8EEF3" cx="1186.3" cy="349.2" r="111.6"/>
	<circle fill="#E7EEF3" cx="1186.3" cy="349.2" r="111.1"/>
	<circle fill="#E6EDF2" cx="1186.3" cy="349.2" r="110.6"/>
	<circle fill="#E5ECF2" cx="1186.3" cy="349.2" r="110.1"/>
	<circle fill="#E4EBF1" cx="1186.3" cy="349.2" r="109.6"/>
	<circle fill="#E3EBF1" cx="1186.3" cy="349.2" r="109.1"/>
	<circle fill="#E2EAF0" cx="1186.3" cy="349.2" r="108.7"/>
	<circle fill="#E1E9F0" cx="1186.3" cy="349.2" r="108.2"/>
	<circle fill="#E0E8EF" cx="1186.3" cy="349.2" r="107.7"/>
	<circle fill="#DFE8EF" cx="1186.3" cy="349.2" r="107.2"/>
	<circle fill="#DEE7EE" cx="1186.3" cy="349.2" r="106.7"/>
	<circle fill="#DDE6ED" cx="1186.3" cy="349.2" r="106.2"/>
	<circle fill="#DCE5ED" cx="1186.3" cy="349.2" r="105.8"/>
	<circle fill="#DBE4EC" cx="1186.3" cy="349.2" r="105.3"/>
	<circle fill="#DAE4EC" cx="1186.3" cy="349.2" r="104.8"/>
	<circle fill="#D9E3EB" cx="1186.3" cy="349.2" r="104.3"/>
	<circle fill="#D7E2EB" cx="1186.3" cy="349.2" r="103.8"/>
	<circle fill="#D6E1EA" cx="1186.3" cy="349.2" r="103.3"/>
	<circle fill="#D5E0E9" cx="1186.3" cy="349.2" r="102.8"/>
	<circle fill="#D4DFE9" cx="1186.3" cy="349.2" r="102.4"/>
	<circle fill="#D3DFE8" cx="1186.3" cy="349.2" r="101.9"/>
	<circle fill="#D2DEE8" cx="1186.3" cy="349.2" r="101.4"/>
	<circle fill="#D0DDE7" cx="1186.3" cy="349.2" r="100.9"/>
	<circle fill="#CFDCE6" cx="1186.3" cy="349.2" r="100.4"/>
	<circle fill="#CEDBE6" cx="1186.3" cy="349.2" r="99.9"/>
	<circle fill="#CDDAE5" cx="1186.3" cy="349.2" r="99.5"/>
	<circle fill="#CCD9E4" cx="1186.3" cy="349.2" r="99"/>
	<circle fill="#CAD8E4" cx="1186.3" cy="349.2" r="98.5"/>
	<circle fill="#C9D7E3" cx="1186.3" cy="349.2" r="98"/>
	<circle fill="#C8D7E2" cx="1186.3" cy="349.2" r="97.5"/>
	<circle fill="#C7D6E2" cx="1186.3" cy="349.2" r="97"/>
	<circle fill="#C5D5E1" cx="1186.3" cy="349.2" r="96.6"/>
	<circle fill="#C4D4E0" cx="1186.3" cy="349.2" r="96.1"/>
	<circle fill="#C3D3E0" cx="1186.3" cy="349.2" r="95.6"/>
	<circle fill="#C2D2DF" cx="1186.3" cy="349.2" r="95.1"/>
	<circle fill="#C0D1DE" cx="1186.3" cy="349.2" r="94.6"/>
	<circle fill="#BFD0DE" cx="1186.3" cy="349.2" r="94.1"/>
	<circle fill="#BECFDD" cx="1186.3" cy="349.2" r="93.6"/>
	<circle fill="#BCCEDC" cx="1186.3" cy="349.2" r="93.2"/>
	<circle fill="#BBCDDC" cx="1186.3" cy="349.2" r="92.7"/>
	<circle fill="#BACCDB" cx="1186.3" cy="349.2" r="92.2"/>
	<circle fill="#B8CBDA" cx="1186.3" cy="349.2" r="91.7"/>
	<circle fill="#B7CADA" cx="1186.3" cy="349.2" r="91.2"/>
	<circle fill="#B6C9D9" cx="1186.3" cy="349.2" r="90.7"/>
	<circle fill="#B4C8D8" cx="1186.3" cy="349.2" r="90.3"/>
	<circle fill="#B3C7D8" cx="1186.3" cy="349.2" r="89.8"/>
	<circle fill="#B2C6D7" cx="1186.3" cy="349.2" r="89.3"/>
	<circle fill="#B0C5D6" cx="1186.3" cy="349.2" r="88.8"/>
	<circle fill="#AFC4D5" cx="1186.3" cy="349.2" r="88.3"/>
	<circle fill="#ADC3D5" cx="1186.3" cy="349.2" r="87.8"/>
	<circle fill="#ACC2D4" cx="1186.3" cy="349.2" r="87.3"/>
	<circle fill="none" cx="1186.3" cy="349.2" r="127.1"/>
</g>
<g>
	<circle fill="#FFFFFF" cx="1187.9" cy="330.1" r="111.1"/>
</g>
<g>
	
		<ellipse transform="matrix(0.2299 -0.9732 0.9732 0.2299 593.5242 1410.209)" fill="#48CCCC" cx="1187.9" cy="330.1" rx="100.1" ry="100.1"/>
</g>
<g>
	<g>
		<g>
			<path d="M1187.9,469.2c-75.9,0-137.8-61.1-139.1-136.8h-44.3c-1.3,0-2.3-1-2.3-2.3c0-74.1-60.3-134.4-134.4-134.4
				c-74.1,0-134.4,60.3-134.4,134.4c0,1.3-1,2.3-2.3,2.3h-44.3c-1.3,75.6-63.2,136.8-139.1,136.8S409.7,408,408.5,332.4h-44.3
				c-1.3,0-2.3-1-2.3-2.3c0-74.1-60.3-134.4-134.4-134.4S93,255.9,93,330.1c0,1.3-1,2.3-2.3,2.3H11.8c-1.3,0-2.3-1-2.3-2.3
				c0-1.3,1-2.3,2.3-2.3h76.5C89.6,252.1,151.5,191,227.4,191s137.8,61.1,139.1,136.8h44.3c1.3,0,2.3,1,2.3,2.3
				c0,74.1,60.3,134.4,134.4,134.4S682,404.2,682,330.1c0-1.3,1-2.3,2.3-2.3h44.3c1.3-75.6,63.2-136.8,139.1-136.8
				c75.9,0,137.8,61.1,139.1,136.8h44.3c1.3,0,2.3,1,2.3,2.3c0,74.1,60.3,134.4,134.4,134.4s134.4-60.3,134.4-134.4
				c0-1.3,1-2.3,2.3-2.3h76.4c1.3,0,2.3,1,2.3,2.3c0,1.3-1,2.3-2.3,2.3h-74.1C1325.7,408,1263.8,469.2,1187.9,469.2z"/>
		</g>
	</g>
	<g>
		<g>
			<path d="M1400.6,321.3c4.8,0,8.8,3.9,8.8,8.8c0,4.8-3.9,8.8-8.8,8.8c-4.8,0-8.8-3.9-8.8-8.8
				C1391.8,325.2,1395.7,321.3,1400.6,321.3z"/>
		</g>
	</g>
	<g>
		<g>
			<path d="M12.2,321.3c-4.8,0-8.8,3.9-8.8,8.8c0,4.8,3.9,8.8,8.8,8.8c4.8,0,8.8-3.9,8.8-8.8C21,325.2,17.1,321.3,12.2,321.3z"/>
		</g>
	</g>
</g>
<g>
	<g>
		<path fill="#FFFFFF" d="M581.4,331.2c0-1.1-0.1-2.1-0.2-3.2l10.1-5.2c-0.7-3.6-1.9-7-3.4-10.3l-11.2,1.7c-1.1-1.8-2.3-3.5-3.7-5.1
			l5.1-10.1c-2.6-2.5-5.6-4.6-8.7-6.4l-8,8c-1.9-0.8-3.9-1.5-6-1.9l-1.8-11.2c-1.8-0.2-3.6-0.4-5.4-0.4c-1.8,0-3.6,0.1-5.4,0.4
			l-1.8,11.2c-2.1,0.5-4.1,1.1-6,1.9l-8-8c-3.2,1.8-6.1,3.9-8.7,6.4l5.1,10.1c-1.4,1.6-2.6,3.3-3.7,5.1l-11.2-1.7
			c-1.5,3.2-2.7,6.7-3.4,10.3L515,328c-0.1,1-0.2,2.1-0.2,3.2c0,1.1,0.1,2.1,0.2,3.2l-10.1,5.2c0.7,3.6,1.9,7,3.4,10.3l11.2-1.7
			c1.1,1.8,2.3,3.5,3.7,5.1l-5.1,10.1c2.6,2.5,5.5,4.6,8.7,6.4l8-8c1.9,0.8,3.9,1.5,6,1.9l1.8,11.2c1.8,0.2,3.6,0.4,5.4,0.4
			c1.8,0,3.6-0.1,5.4-0.4l1.8-11.2c2.1-0.5,4.1-1.1,6-1.9l8,8c3.2-1.8,6.1-3.9,8.7-6.4l-5.1-10.1c1.4-1.6,2.6-3.3,3.7-5.1l11.2,1.7
			c1.5-3.2,2.7-6.7,3.4-10.3l-10.1-5.2C581.3,333.3,581.4,332.2,581.4,331.2z M548.1,352c-11.5,0-20.9-9.3-20.9-20.8
			c0-11.5,9.3-20.8,20.9-20.8c11.5,0,20.8,9.3,20.8,20.8C569,342.7,559.6,352,548.1,352z"/>
	</g>
</g>
<g id="Icon_awesome-phone-alt_2_">
	<g id="Icon_awesome-phone-alt_3_">
		<path fill="#FFFFFF" d="M266.9,346.8l-18-7.7c-1.6-0.7-3.4-0.2-4.5,1.1l-8,9.7c-12.5-5.9-22.5-15.9-28.4-28.4l9.7-8
			c1.3-1.1,1.8-2.9,1.1-4.5l-7.7-18c-0.7-1.7-2.6-2.6-4.4-2.2l-16.7,3.9c-1.7,0.4-3,2-3,3.8c0,41.1,33.3,74.4,74.4,74.4c0,0,0,0,0,0
			c1.8,0,3.4-1.2,3.8-3l3.8-16.7C269.6,349.5,268.7,347.6,266.9,346.8z"/>
	</g>
</g>
<g id="Icon_ionic-ios-time_2_">
	<g id="Icon_ionic-ios-time_3_">
		<path fill="#FFFFFF" d="M867.7,280.5c-25.8,0-46.6,20.9-46.6,46.6s20.9,46.6,46.6,46.6c25.8,0,46.6-20.9,46.6-46.6
			C914.4,301.4,893.5,280.5,867.7,280.5C867.7,280.5,867.7,280.5,867.7,280.5z M870.8,331.2c0,1.7-1.4,3.1-3.1,3.1h-21.5
			c-1.7,0-3.1-1.4-3.1-3.1c0-1.7,1.4-3.1,3.1-3.1h18.4v-29.6c0-1.7,1.4-3.1,3.1-3.1s3.1,1.4,3.1,3.1L870.8,331.2z"/>
	</g>
</g>
<g id="Icon_awesome-hand-holding_2_">
	<g id="Icon_awesome-hand-holding_3_">
		<path fill="#FFFFFF" d="M1245.9,311.4c-2.5-2.1-6.2-2.1-8.7,0l-18.8,15c-2.3,1.9-5.2,2.9-8.1,2.9h-24.1c-1.8,0-3.3-1.4-3.3-3.2
			c0-1.8,1.4-3.3,3.2-3.3c0,0,0.1,0,0.1,0h15.9c3.3,0.1,6.1-2.2,6.8-5.4c0.6-3.5-1.8-6.9-5.3-7.5c-0.4-0.1-0.7-0.1-1.1-0.1h-32.6
			c-5.5,0-10.8,1.9-15.1,5.4l-9.5,7.7h-11.3c-1.8,0-3.2,1.5-3.3,3.3v19.5c0,1.8,1.5,3.3,3.3,3.3h72.6c3,0,5.8-1,8.1-2.9l30.8-24.6
			c2.8-2.2,3.3-6.3,1-9.1C1246.4,311.9,1246.1,311.6,1245.9,311.4z"/>
	</g>
</g>
</svg>
