<?xml version="1.0" encoding="utf-8"?>
<!-- Generator: Adobe Illustrator 24.3.0, SVG Export Plug-In . SVG Version: 6.00 Build 0)  -->
<svg version="1.1" xmlns="http://www.w3.org/2000/svg" xmlns:xlink="http://www.w3.org/1999/xlink" x="0px" y="0px"
	 viewBox="0 0 1332.8 1433.9" enable-background="new 0 0 1332.8 1433.9" xml:space="preserve">
<g id="Layer_1">
</g>
<g id="Layer_3">
</g>
<g id="Layer_2">
</g>
<g id="Layer_4">
</g>
<g id="Layer_5">
</g>
<g id="Layer_6">
</g>
<g id="Layer_7">
</g>
<g id="Layer_8">
	<g>
		<g>
			<polygon fill="#E6DCC1" points="1303.1,352.1 1303.1,1049.7 22.7,1049.7 22.7,352.3 663.1,7.1 			"/>
		</g>
		<g>
			<circle fill="#EFC928" cx="662.1" cy="646" r="412.3"/>
		</g>
		<g>
			<circle fill="#E16241" cx="662.1" cy="646" r="312.3"/>
		</g>
		<g>
			<polygon fill="#43372B" points="22.7,794.4 22.7,443 147.8,322.7 225.1,440.7 306,417.5 324.5,466.1 356.9,468.4 447.1,641.9 
				502.6,624.9 557,671.9 687.6,752.9 782.4,752.9 939.6,794.4 			"/>
		</g>
		<g>
			<polygon fill="#547F41" points="1303.1,693.9 1303.1,1081.7 1132.2,1173.8 663.1,1426.8 179.9,1166.3 22.7,1081.5 22.7,693.9 			
				"/>
		</g>
		<g>
			<polygon fill="#E6DCC1" points="134.9,389.8 114,433.7 147.8,449.9 114,574.8 181.1,644.2 317.6,681.2 257.4,607.2 199.6,581.7 
				225.1,514.7 185.7,454.5 176.5,410.6 			"/>
		</g>
		<g>
			<polygon fill="#E6DCC1" points="250.5,456.9 289.8,438.4 301.4,456.9 287.5,505.4 266.7,558.6 262.1,486.9 			"/>
		</g>
		<g>
			<polygon fill="#E6DCC1" points="334.1,507.2 308.2,571.3 334.1,571.3 346.2,637 422.4,657.8 372.2,601.8 365.3,552.2 			"/>
		</g>
		<g>
			<path fill="#E6DCC1" d="M490.8,639.8l-17.4,8.1c-6.2,5.7-12.4,11.5-18.7,17.2c30.1,4.9,60.2,9.7,90.4,14.6
				c-10.1-9.1-20.2-18.2-30.3-27.3C506.8,648.2,498.8,644,490.8,639.8z"/>
		</g>
		<g>
			<path fill="#2D2D2D" d="M1020,746c-0.6,10.9,16.5,19.9,33.2,31.1c15.8,10.6,31.3,23,31.4,40.9c0.1,16.5-16.4,25.7-34.5,37.4
				c-4.4,2.8-8.9,5.8-13.3,9.1c-0.9,0.7-1.8,1.3-2.6,2c-1.5,1.2-3,2.4-4.5,3.8c-4.5,3.9-8.8,8.3-12.5,13.3c-0.6,0.8-1.2,1.6-1.7,2.5
				c-3.1,4.6-5.7,9.7-7.7,15.4c-0.4,1.2-0.8,2.4-1.1,3.5c-0.4,1.6-0.8,3.1-1.1,4.7c-1.2,5.7-1.5,11.3-1.1,17.1
				c0,0.5,0.1,1.1,0.1,1.6c0.2,2.2,0.5,4.5,0.9,6.7c0.2,1.4,0.5,2.9,0.8,4.3c0.1,0.6,0.2,1.1,0.4,1.7c0.3,1.2,0.6,2.4,0.9,3.6
				c0,0,0,0,0,0.1c0,0.1,0,0.1,0,0.2l0,0c0,0.1,0,0.1,0.1,0.2c0,0,0,0,0,0c0,0.1,0,0.1,0,0.2v0c0.1,0.2,0.1,0.5,0.2,0.8
				c0,0,0,0.1,0,0.1c0,0,0,0.1,0,0.1c0,0,0,0.1,0,0.1c0,0,0,0,0,0c0,0.1,0,0.1,0.1,0.2c0,0,0,0,0,0s0,0,0,0c0,0,0,0.1,0,0.1
				c0,0,0,0,0,0.1c0,0.1,0,0.1,0,0.1l0,0v0c0,0.1,0.1,0.3,0.1,0.4l0,0l0,0l0.1,0.2c0,0.1,0.1,0.3,0.1,0.4c0,0.1,0.1,0.2,0.1,0.3
				c0,0.1,0,0.2,0.1,0.2c0,0,0,0,0,0.1c0.1,0.2,0.1,0.4,0.2,0.6c0,0.1,0.1,0.2,0.1,0.4c0.2,0.8,0.5,1.7,0.8,2.5
				c1,3.2,2.1,6.4,3.3,9.8c0.5,1.5,1.1,3.1,1.7,4.6c2.4,6.4,5.1,13.3,8,20.8c0.5,1.4,1.1,2.8,1.7,4.2c1.3,3.3,2.6,6.4,3.9,9.6
				c2.7,6.6,5.4,12.9,8,18.7c1.1,2.5,2.2,4.8,3.2,7.1c4,8.9,7.7,16.5,10.8,22.5c0.1,0.1,0.1,0.3,0.2,0.4c3.7,7.3,6.4,12.3,7.8,14.5
				c17.7,28.8,36.7,57,55.1,82.8c2.7,3.7,5.3,7.4,7.9,11.1c0.8,1.1,1.5,2.1,2.3,3.2c3,4.1,5.9,8.1,8.8,12.1l-469.1,252.9
				l-483.2-260.5c3.4-3.9,6.7-7.7,10-11.4c0.9-1,1.8-2,2.7-3c2.9-3.2,5.7-6.3,8.6-9.3c30.3-32.1,57.5-55,77.3-70.3
				c10.1-7.8,20.5-15.4,30.9-22.6c3.8-2.7,7.7-5.3,11.5-7.8c4.8-3.2,9.6-6.3,14.4-9.4c0.3-0.2,0.6-0.4,0.9-0.6
				c5.3-3.4,10.7-6.8,16-10c4.2-2.6,8.4-5.1,12.6-7.6c20.2-11.9,40-22.7,58.5-32.1c33.9-17.4,63.4-30.5,83-39
				c8.4-3.7,17.7-7.8,27.9-12.2c16.5-7.2,35.3-15.2,56.4-23.4c19-7.5,39.9-15.1,62.6-22.5c24.3-8,50.8-15.7,79.3-22.5
				c13.6-3.3,26.8-6.2,39.4-8.8c6.4-1.3,12.7-2.6,18.9-3.7c8.6-1.6,16.9-3.2,25-4.6c7.7-1.4,15.1-2.6,22.2-3.8
				c15.1-2.6,28.8-4.8,41.1-7.1c6.1-1.1,11.9-2.2,17.2-3.4c5.6-1.2,10.7-2.4,15.3-3.7c2.1-0.6,4-1.1,5.9-1.7
				c2.9-0.9,5.5-1.8,7.8-2.8c10.4-4.3,16.3-9.4,16.8-16.4c0.1-0.8,0-1.7-0.1-2.5c-0.4-3.1-1.8-6-4.1-8.9c-0.2-0.3-0.4-0.5-0.7-0.8
				c-0.1-0.1-0.2-0.2-0.2-0.3c-0.1-0.2-0.3-0.3-0.4-0.5c-1.7-1.8-3.6-3.6-5.8-5.3c-7.5-6-17.5-11.5-26.4-17
				c-0.4-0.2-0.7-0.4-1.1-0.7c-0.1-0.1-0.3-0.2-0.5-0.3c-5.1-3.3-9.8-6.5-13.2-9.9c-2.2-2.1-3.9-4.3-5-6.6c-0.2-0.4-0.4-0.8-0.5-1.2
				c-0.5-1.4-0.7-2.8-0.6-4.2c0.2-4.4,3.2-8.4,8.4-12.1c0.1,0,0.1-0.1,0.2-0.1c2.5-1.7,5.5-3.4,9-5c0.6-0.3,1.3-0.6,1.9-0.9
				c14.8-6.4,37.1-11.6,63.8-15.9c30.4-4.9,66.5-8.5,103.5-11.1c98.1-7.1,202.8-7.5,226.2-7.1c3.1,0.1,4.8,0.1,4.8,0.2
				c0,0.1-1.7,0.2-4.8,0.3c-26.5,1.2-156.7,5.1-228.7,22.3C1039.8,725.8,1020.6,734.5,1020,746z"/>
		</g>
		<g>
			<g>
				<g>
					<g>
						<g>
							
								<rect x="1006.1" y="860.2" transform="matrix(0.8152 -0.5792 0.5792 0.8152 -361.4295 757.7631)" fill="#9B9B9B" width="1.4" height="170.2"/>
						</g>
					</g>
					<g>
						<g>
							
								<rect x="1006.2" y="860.3" transform="matrix(0.6925 -0.7214 0.7214 0.6925 -372.4322 1017.1453)" fill="#9B9B9B" width="1.4" height="170.2"/>
						</g>
					</g>
					<g>
						<g>
							
								<rect x="1006.3" y="860.2" transform="matrix(0.5477 -0.8366 0.8366 0.5477 -335.4734 1270.0413)" fill="#9B9B9B" width="1.4" height="170.2"/>
						</g>
					</g>
					<g>
						<g>
							
								<rect x="1006.6" y="860.4" transform="matrix(0.396 -0.9182 0.9182 0.396 -259.8318 1495.9697)" fill="#9B9B9B" width="1.4" height="170.2"/>
						</g>
					</g>
				</g>
				<g>
					<g>
						<g>
							
								<rect x="1006.5" y="860.9" transform="matrix(0.2354 -0.9719 0.9719 0.2354 -149.3 1702.2327)" fill="#9B9B9B" width="1.4" height="170.2"/>
						</g>
					</g>
					<g>
						<g>
							
								<rect x="1006.7" y="860.9" transform="matrix(4.926458e-02 -0.9988 0.9988 4.926458e-02 12.8541 1905.5981)" fill="#9B9B9B" width="1.4" height="170.2"/>
						</g>
					</g>
					<g>
						<g>
							
								<rect x="922.3" y="945.2" transform="matrix(0.9908 -0.1354 0.1354 0.9908 -118.799 145.115)" fill="#9B9B9B" width="170.2" height="1.4"/>
						</g>
					</g>
					<g>
						<g>
							
								<rect x="922.6" y="945.1" transform="matrix(0.9529 -0.3033 0.3033 0.9529 -239.4184 350.2188)" fill="#9B9B9B" width="170.2" height="1.4"/>
						</g>
					</g>
				</g>
				<g>
					<g>
						<g>
							
								<rect x="923.4" y="945.8" transform="matrix(0.1239 -0.9923 0.9923 0.1239 -55.6395 1829.9309)" fill="#9B9B9B" width="170.2" height="1.4"/>
						</g>
					</g>
					<g>
						<g>
							
								<rect x="1007.8" y="861.5" transform="matrix(0.998 -6.392019e-02 6.392019e-02 0.998 -58.4484 66.3971)" fill="#9B9B9B" width="1.4" height="170.2"/>
						</g>
					</g>
					<g>
						<g>
							
								<rect x="1007.9" y="861.5" transform="matrix(0.9691 -0.2467 0.2467 0.9691 -202.335 278.0343)" fill="#9B9B9B" width="1.4" height="170.2"/>
						</g>
					</g>
					<g>
						<g>
							
								<rect x="1008" y="861.8" transform="matrix(0.9124 -0.4093 0.4093 0.9124 -299.2352 495.8288)" fill="#9B9B9B" width="1.4" height="170.2"/>
						</g>
					</g>
				</g>
				<g>
					<g>
						<g>
							
								<rect x="923.7" y="946.3" transform="matrix(0.7715 -0.6362 0.6362 0.7715 -371.9872 858.2017)" fill="#9B9B9B" width="170.2" height="1.4"/>
						</g>
					</g>
					<g>
						<g>
							
								<rect x="923.8" y="946.2" transform="matrix(0.6391 -0.7691 0.7691 0.6391 -364.1395 1117.6417)" fill="#9B9B9B" width="170.2" height="1.4"/>
						</g>
					</g>
					<g>
						<g>
							
								<rect x="923.7" y="946.1" transform="matrix(0.4865 -0.8737 0.8737 0.4865 -309.1629 1367.4794)" fill="#9B9B9B" width="170.2" height="1.4"/>
						</g>
					</g>
					<g>
						<g>
							
								<rect x="923.9" y="945.8" transform="matrix(0.3292 -0.9442 0.9442 0.3292 -216.9262 1587.5823)" fill="#9B9B9B" width="170.2" height="1.4"/>
						</g>
					</g>
				</g>
				<g>
					<g>
						
							<rect x="921.5" y="947.6" transform="matrix(0.8774 -0.4798 0.4798 0.8774 -331.722 598.6373)" fill="#9B9B9B" width="167.9" height="1.4"/>
					</g>
				</g>
				<g>
					<circle fill="#282828" cx="1008.5" cy="948.9" r="14.1"/>
				</g>
				<g>
					<g>
						<path fill="#282828" d="M1092.8,942.8c-0.3-7.6-1.6-15-3.8-22.1c-0.1-0.5-0.3-0.9-0.4-1.4c-8.1-24.8-26.9-45.2-51.9-54.8
							c-5.4-2.1-11-3.6-16.9-4.6c-1.5-0.3-3.1-0.5-4.6-0.7c-11.7-1.4-23.2-0.3-33.9,2.8c-3.3,0.9-6.5,2.1-9.6,3.3c0,0,0,0-0.1,0
							c-0.2,0.1-0.4,0.2-0.6,0.3c-2.2,0.9-4.3,1.9-6.4,3c-9.7,5.1-18.4,11.9-25.6,20.1c-4.5,5.1-8.4,10.8-11.6,17
							c-4.2,8-7.2,16.7-8.8,26.1c-2.1,12.4-1.5,24.6,1.4,36c4.2,16.5,13.1,31.4,25.4,42.9c8.7,8.1,19.1,14.5,30.8,18.6
							c4.6,1.6,9.4,2.9,14.3,3.7c3.8,0.6,7.6,1,11.4,1.2c0,0,0,0,0,0c4.3,0.2,8.6,0,12.8-0.5c8.6-0.9,16.9-3.1,24.7-6.5
							c1.8-0.8,3.6-1.6,5.4-2.5c24-12.2,42.1-35.1,47-63.6C1092.7,954.9,1093,948.8,1092.8,942.8z M1073.4,987.9
							c-0.2,0.4-0.5,0.8-0.8,1.2c-2.4,3.8-5.1,7.4-8.1,10.7c-0.3,0.3-0.6,0.7-1,1c-3.1,3.3-6.4,6.3-10,9.1c-0.4,0.3-0.8,0.6-1.1,0.8
							c-3.3,2.4-6.8,4.6-10.5,6.5h0c-0.2,0.1-0.5,0.3-0.7,0.4c-0.4,0.2-0.9,0.4-1.3,0.6c-1.3,0.6-2.5,1.2-3.8,1.7
							c-2.4,1-4.9,1.9-7.4,2.7c-0.5,0.1-0.9,0.3-1.4,0.4c-4.3,1.2-8.6,2.1-13.1,2.7c-0.5,0.1-0.9,0.1-1.4,0.1
							c-4.4,0.4-9,0.5-13.6,0.2c-0.5,0-0.9-0.1-1.4-0.1c-2-0.2-4-0.4-6.1-0.8c-3-0.5-5.9-1.2-8.8-2c-0.5-0.1-0.9-0.3-1.4-0.4
							c-0.5-0.1-1-0.3-1.5-0.5c-3.5-1.2-6.9-2.6-10.2-4.2c-0.4-0.2-0.9-0.4-1.3-0.6c-4.1-2.1-7.9-4.5-11.5-7.2
							c-0.4-0.3-0.8-0.6-1.1-0.9c-3-2.3-5.8-4.9-8.4-7.6c-0.6-0.7-1.2-1.3-1.8-2c-0.3-0.4-0.6-0.7-0.9-1.1
							c-3.2-3.7-6.1-7.7-8.6-11.9c-0.2-0.4-0.5-0.8-0.7-1.2c-2.5-4.5-4.7-9.2-6.3-14.1c-0.1-0.4-0.3-0.9-0.4-1.4
							c-0.8-2.6-1.5-5.3-2.1-8v0c-0.3-1.5-0.6-3-0.8-4.5c-0.1-0.5-0.1-0.9-0.2-1.4c-0.6-4.5-0.8-9-0.5-13.6c0-0.5,0-0.9,0.1-1.4
							c0.2-2.7,0.5-5.5,1-8.2c0.3-1.9,0.7-3.8,1.2-5.6c0.1-0.5,0.2-0.9,0.3-1.4c0.6-2.4,1.4-4.7,2.2-7c0,0,0,0,0,0
							c0.6-1.8,1.3-3.5,2.1-5.1c0.2-0.4,0.4-0.9,0.6-1.3c1.8-3.8,3.9-7.5,6.2-10.9c0.3-0.4,0.5-0.8,0.8-1.2c1.3-1.9,2.8-3.8,4.3-5.5
							c1.4-1.6,2.8-3.2,4.3-4.7c0.3-0.3,0.7-0.7,1-1c3.3-3.2,6.8-6.1,10.6-8.7c0.4-0.3,0.8-0.5,1.2-0.8c1.8-1.2,3.6-2.2,5.4-3.3
							c2.2-1.2,4.5-2.4,6.9-3.4c0.4-0.2,0.8-0.3,1.1-0.5c0.4-0.2,0.9-0.4,1.3-0.6c2.4-1,4.9-1.8,7.5-2.5c1.5-0.4,3-0.8,4.6-1.2
							c0.5-0.1,0.9-0.2,1.4-0.3c4.3-0.9,8.8-1.4,13.3-1.5c0.5,0,0.9,0,1.4,0c2.1,0,4.3,0,6.5,0.2c2.4,0.2,4.7,0.4,7.1,0.8
							c0.3,0,0.5,0.1,0.8,0.1c0.2,0,0.4,0.1,0.6,0.1c3.6,0.6,7.1,1.5,10.5,2.6c1.6,0.5,3.2,1.1,4.7,1.7c0.4,0.2,0.9,0.3,1.3,0.5
							c3.8,1.6,7.4,3.4,10.8,5.5c0.4,0.2,0.8,0.5,1.2,0.7c3.8,2.4,7.3,5,10.6,7.9c0.4,0.3,0.7,0.6,1.1,1c3.2,3,6.2,6.2,8.9,9.7
							c0.3,0.4,0.6,0.8,0.9,1.1c2.5,3.4,4.8,7,6.8,10.7c0.2,0.4,0.5,0.8,0.7,1.3c1.9,3.7,3.5,7.5,4.7,11.4c0.1,0.5,0.3,0.9,0.4,1.4
							c1.2,3.8,2,7.6,2.6,11.6c0.1,0.5,0.1,0.9,0.2,1.4c0.6,4.3,0.8,8.7,0.6,13.1c0,0.5,0,1-0.1,1.4c-0.2,3-0.5,6.1-1,9.1
							c-0.2,1.3-0.5,2.6-0.8,3.9c-0.1,0.5-0.2,0.9-0.3,1.4c-0.9,3.7-2,7.3-3.4,10.8c-0.2,0.4-0.4,0.9-0.5,1.3
							C1077.3,980.9,1075.5,984.5,1073.4,987.9z"/>
					</g>
				</g>
			</g>
			<g>
				<path fill="#E16241" d="M927.3,895.8c23.7-27.6,59.3-40.8,92.5-33.7c32.8,7.1,53.2,32,59.4,42.7c6.1,10.4,8.7,21.1,8.7,21.1
					c1.7,6.8,2.1,12.7,2.1,17.1c4.2-0.2,8.4-0.4,12.6-0.6c0.7-7.9,0.8-20.2-3.8-34.1c-10.6-32.1-37.9-47-46.1-51.5
					c-8.4-4.6-34.2-17.3-67.6-11.5c-41.2,7.2-63.7,37.3-68.4,43.9C920.2,891.4,923.7,893.6,927.3,895.8z"/>
			</g>
		</g>
		<g>
			<polygon fill="none" points="1296.7,1048.6 1296.7,363.9 661.7,21.6 26.8,363.9 26.8,1048.6 661.7,1390.9 			"/>
		</g>
		<g>
			<path fill="#48CCCC" d="M18,861.8c55.4-48.7,102-60.5,135.3-61.7c58.3-2.1,100.4,27.2,151.1,2.7c24.4-11.8,37-29.1,44.3-38.3
				c83.4-104.2,373.6-62.8,373.5-58.2c-0.2,5.2-229.5-48.1-329.2,70.1c-28.1,33.2-34.2,66.3-78.8,90.9
				c-54.6,30.1-95.7,0.2-156.1,15.9c-38.4,10-87.9,38.6-135.3,121C21.1,956.7,19.5,909.3,18,861.8z"/>
		</g>
		<g>
			<g>
				<path fill="#EDAC29" d="M571.1,789.7c3.3-10.2,2.6-14.4,4-18.2c5.2-15.1,36.6-18.1,42.4-18.6c104.1-8.8,126.2-8.3,126.2-8.3
					s85.9,2,168.6,20.4c4.9,1.1,20,4.7,28.8,17.1c1.2,1.7,9.2,13,4.6,19.3c-3.1,4.2-11.2,5.2-14.5,2c-4.1-4,1.7-11.7-0.8-18.9
					c-4.4-12.8-32.2-14.1-36.9-14.3c-60.4-2.9-22.9-11.9-129.7-15.9c-105.1-3.9-64.4,7.7-130.4,5.3c-9.2-0.3-37.4-1.6-45.2,12.8
					c-5.4,9.9,1.3,22.7-7.1,29.7c-4.4,3.7-11.4,4.5-13.4,2.1C565.7,802.2,568.3,798.4,571.1,789.7z"/>
			</g>
			<g>
				<path fill="#ED9437" d="M536.4,763.5C577.8,729.7,653.3,677,761,647.2c94.1-26.1,175-24.2,225.7-19.1
					c-43.4,32.4-113.7,77-209.6,106.4C677.6,765,591.4,766.7,536.4,763.5z"/>
			</g>
			<g>
				<path fill="#A38062" d="M529.9,740.4c46.7-26,130.2-64.7,241.5-75.2c97.2-9.2,176.6,6.8,225.6,20.7
					c-48.4,24.3-125.5,56-225,68.1C668.6,766.6,583.4,753.1,529.9,740.4z"/>
			</g>
			<g>
				<path fill="#43372B" d="M337.4,1111.4c-7.2,14.4,14.2,37.4,16.8,40.3c16.3,17.5,40.1,24.2,60.8,21.1c19.4-2.9,44.4-15.4,44.4-30
					c0-3.1-1.2-9.9-16.1-20.2C406.9,1097.4,347.4,1091.5,337.4,1111.4z"/>
			</g>
			<g>
				<path fill="#43372B" d="M640.1,1120.6c-10.7,42,35.9,80.5,40,83.8c7.4,6,18.3,14.5,34.9,16.6c18.7,2.4,33.1-4.7,37.6-7.2
					c15.7-8.6,22.8-21.5,28.9-32.5c3-5.4,13.4-25.3,14.1-53.9c0.5-19.8,1-40.3-13.7-58c-20-24-51.5-22.9-53-22.8
					c-23,1.2-37.9,15.1-58,33.9C653,1097.4,643.9,1105.9,640.1,1120.6z"/>
			</g>
			<g>
				<path fill="#43372B" d="M943.4,1020.1c-2.7,13.4-13.4,67.6,16,106c8.2,10.7,15.3,14.7,20.7,16.7c18.4,6.9,35.7-2.5,37.5-3.5
					c14.8-8.3,19.9-22.7,25.4-38c3.9-11,12-34.3,5.1-63.3c-3.1-13.3-8.8-37.2-30.8-51.2c-15.5-9.8-41.3-16.1-58-3.7
					C949.5,990.6,947.1,1001.6,943.4,1020.1z"/>
			</g>
			<g>
				<path fill="#EFC928" d="M330.6,986.5c7.7-12.3,18.9-17.7,41.3-28.5c8.7-4.2,17.5-7.8,62.4-21.1c39.2-11.7,50.6-14.3,61.5-26.5
					c5.5-6.1,7.2-10.6,14.5-27.8c21-49.6,31.7-74.5,41.1-83.3c10.4-9.7,28-13.3,63.2-20.4c11.1-2.3,38-7.3,101.1-10.5
					c33.1-1.7,49.7-2.5,67.9-1.9c48.1,1.5,79.3,8.8,118.1,18.1c41.1,9.9,58,17.6,66.3,33.2c1.9,3.5,2.1,5,8.3,26.9
					c7.8,27.4,11.7,41.1,14.4,49c15,44,35.8,76.7,35.8,76.7c8.5,13.4,15.7,22.2,12.3,27.9c-4.4,7.5-20-1.9-37.5,5.1
					c-22,8.8-30.8,36.8-37.9,59.3c-5.6,17.7-7.2,32.9-7.8,42.7c-53.4,9.7-106.9,19.4-160.3,29.1c0.6-7.2,1.5-29-12.6-49.5
					c-4.3-6.2-17.4-25.3-37.9-27.2c-23.5-2.2-41.8,19.9-53.4,34c-24.8,30-31.3,64-33.1,84.7c-58.2-1.2-108.2-4.9-148.1-8.8
					c-130.9-13-73.5-21.3-142.8-29.9c-8-1-31.2-3.7-38.6-18.7c-2.7-5.4-4.9-15.6-1.7-25.3c2.1-6.3,4.8-7.2,6.2-12.5
					c2.8-10.4-4.2-19.6-7.7-26.4C314.2,1033,320.4,1002.8,330.6,986.5z"/>
			</g>
			<g>
				<path fill="#E16241" d="M559.4,1018.8c4.4-12.5,17.6-16.9,21.1-18c2.5-0.8,20.7-6.6,34.1,5c12.1,10.4,15.1,30.2,7.1,40.5
					c-4.4,5.7-11.3,7.4-19.9,9.6c-8.2,2.1-15.9,4-23.9,1C564.7,1051.7,554.1,1033.8,559.4,1018.8z"/>
			</g>
			<g>
				<path fill="#E16241" d="M331,981.2c4.9-4.8,14.4-3.4,20.1-0.7c14.1,6.7,14.2,26,14.2,27.9c0,3.7-0.1,10.9-5.2,17
					c-5.5,6.7-16.1,11.2-22.6,7.5c-2.1-1.2-4-3.4-6.8-24.6C327.7,986,329.1,983.1,331,981.2z"/>
			</g>
			<g>
				<path fill="#E6DCC1" d="M335.4,981.9c-7.5,0.8-13.5,15.2-12.5,27.1c1,11.8,9.2,25.5,17.7,24.9c7-0.5,12.3-10.7,13.5-18.4
					C356.7,999.3,344.3,981,335.4,981.9z"/>
			</g>
			<g>
				<path fill="#E6DCC1" d="M563.2,1011.9c-9.2,9.1-9,25.8-0.1,36c7.1,8.1,20.3,12.8,31.3,6.8c11.4-6.2,14.5-20.7,10.9-31.4
					c-3-8.8-10.8-16.1-20.8-17.7C583.2,1005.5,571.4,1003.8,563.2,1011.9z"/>
			</g>
			<g>
				<path fill="#E6DCC1" d="M596.3,1093.6c5.2-1.8,13.1,4.6,14.3,12c0.7,4.7-1.1,11.5-5.9,13c-5.1,1.6-10.5-3.5-12.5-8.1
					C589.4,1104.2,591.5,1095.4,596.3,1093.6z"/>
			</g>
			<g>
				<path fill="#E6DCC1" d="M340.5,1064.9c3.8-1.2,10.5,4.9,10.6,11.3c0,3.2-1.6,7.4-4.5,8.2c-3.7,1-8.3-3.9-9.4-8.7
					C336.1,1071.5,337.5,1065.9,340.5,1064.9z"/>
			</g>
			<g>
				<path fill="#E16241" d="M358.5,1104.6c-13.4-18.1,1.8-49,4.3-53.8c3-5.9,10.7-20.8,26-25.8c7.7-2.5,14.3-1.5,17.8-1
					c31.7,4.4,115.2,12.9,118.6,13.2c3.4,0.3,9.5,0.9,16.8,4.1c4,1.7,16.3,7.6,27.8,26c13.3,21.2,25,58.3,11.7,69
					c-5.1,4.1-11.1,2-33.4-1.7c-18-3-36.1-4.2-54.2-6.7c-15-2.1-36.9-4.7-80.7-9.9C372.2,1113.2,364.4,1112.6,358.5,1104.6z"/>
			</g>
			<g>
				<path fill="#E6DCC1" d="M717,1099.7c-19.3,12-18,39.8-17.7,48.3c0.4,8.2,1.7,38.4,21.2,45.5c12.1,4.4,25.9-1.9,33.6-9.1
					c14.4-13.4,12.4-33.9,11.2-46.9c-1.3-13.1-3.2-33.3-18.2-40.6C736.9,1092,724.8,1094.9,717,1099.7z"/>
			</g>
			<g>
				<path fill="#E6DCC1" d="M1009.8,1032.3c-11.6-1-20.6,14.7-23.3,19.4c-9.4,16.5-13.6,43.6,0.9,57.5c0.8,0.7,10.7,10,21.3,7.4
					c11.9-2.9,16.5-18.6,19.5-28.8c2.2-7.4,6.2-21.3,0-36.2C1026.6,1047.7,1020.6,1033.2,1009.8,1032.3z"/>
			</g>
			<g>
				<path fill="#99D7CA" d="M513.9,904c16-32,32-64.1,48-96.1c24.6-8.2,65.1-18.2,115.6-15.8c51.5,2.5,91.4,17,115.3,27.7
					c-0.2,16.8-1.7,31-3.4,41.7c-2.7,17.3-6.3,30.4-9.6,42.4c-3.4,12.4-6.9,22.8-9.6,30.5c-9.9-3.7-25.1-8.9-44.1-13.6
					c-34.8-8.5-60.2-9.7-118.7-12.4C587,907.5,549.4,905.7,513.9,904z"/>
			</g>
			<g>
				<path fill="#81C1B2" d="M550.4,885.8c-2.4-6.3,36.4-30.8,78.5-45.1c8.4-2.8,35.6-7.2,90.1-16c35.7-5.8,48-7.4,53.8,0
					c8.5,10.8-2.1,34.1-10.2,51.6c-7.4,16.2-11.1,24.4-17.4,28.3c-21,13.3-41.7-15.6-98.9-20.4c-11-0.9-33.4-1.8-59.6,0
					C561.8,886,551.5,888.9,550.4,885.8z"/>
			</g>
			<g>
				<path fill="#99D7CA" d="M802,934.4c0.4-24.2,3.4-52.7,12.3-83.5c2.2-7.8,4.7-15.2,7.3-22.3c24.6-1.1,49.3-2.3,73.9-3.4
					c4.6,32.3,9.1,64.7,13.7,97C873.5,926.3,837.7,930.3,802,934.4z"/>
			</g>
			<g>
				<path fill="#81C1B2" d="M838.2,841.5c-11.5,16.4,9.6,42.7,13.8,48c12.4,15.4,33.3,28.7,40.7,23.3c4.6-3.4,0.3-11.1-1.5-40.7
					c-1.3-22,0.6-26-3.6-31.3C877.6,828.4,848.3,827.2,838.2,841.5z"/>
			</g>
			<g>
				<path fill="#99D7CA" d="M911.2,825.2c6.5,32.5,13,65.1,19.5,97.6c6.4,1.1,16.5,2,28.5-0.4c9.7-1.9,17.2-5.4,22.4-8.2
					c-1.2-12.1-3.7-27.5-9.3-44.5c-5.4-16.3-12.1-29.7-18.1-39.9c-4-2.2-10.2-4.9-18.1-6.1C925.2,821.9,916.2,823.7,911.2,825.2z"/>
			</g>
			<g>
				<path fill="#81C1B2" d="M924,848.1c-4.4,17.6,14.8,40.6,18.6,45.2c11.3,13.5,27.7,23.7,31.5,17.4c2.4-3.9-2-10.9-9-39.7
					c-5.2-21.4-4.7-25.6-8.6-30.2C947.5,830,927.8,832.8,924,848.1z"/>
			</g>
			<g>
				<path fill="#EDAC29" d="M806.2,951.8c14.5-13.9,36.4,7.6,78.7-7.5c8.8-3.1,19.5-8.3,25.5-3.4c5,4.1,3.1,12.5,3.1,25.6
					c0,5.7,2.1,17.3,6.2,40.4c9.9,55.2,26.3,78.7,15.5,89.4c-4.4,4.3-10.5,3.9-17.9,3.9c-60.7,0-86.4,30.4-103.4,17.1
					c-11.8-9.2-1.2-25.3-3.1-75.4C808.7,984.4,793,964.4,806.2,951.8z"/>
			</g>
			<g opacity="0.5">
				<path fill="#FFFFFF" d="M871,963.4c-0.2-1,19.5-11.4,29.3-3.1c3.7,3.2,6.7,9.6,4.6,12.4c-1.1,1.4-3.6,1.9-5.4,1.2
					c-3.2-1.3-2.7-5.5-5-8.5C889,958.1,871.2,964.3,871,963.4z"/>
			</g>
			<g>
				<g>
					
						<rect x="682" y="523.4" transform="matrix(0.9716 -0.2368 0.2368 0.9716 -109.6447 178.1887)" fill="#43372B" width="9.8" height="44.1"/>
				</g>
				<g>
					
						<rect x="733.1" y="511" transform="matrix(0.9716 -0.2368 0.2368 0.9716 -105.2404 189.9387)" fill="#43372B" width="9.8" height="44.1"/>
				</g>
				<g>
					<path fill="#43372B" d="M737.7,511l-0.2-1c-0.6-2.4-2.9-3.8-5.3-3.2L680,519.4c-2.4,0.6-3.8,2.9-3.2,5.3l0.2,1
						c0.6,2.4,2.9,3.8,5.3,3.2l52.1-12.7C736.8,515.7,738.3,513.3,737.7,511z"/>
				</g>
			</g>
			<g>
				<path fill="#547F41" d="M804.2,720.8l-89.7,21.9c-11.5,2.8-23.1-4.2-25.9-15.8l-31.5-129.4c-2.8-11.5,4.2-23.1,15.8-25.9
					l89.7-21.9c11.5-2.8,23.1,4.2,25.9,15.8L820,694.9C822.8,706.4,815.7,718,804.2,720.8z"/>
			</g>
			<g opacity="0.29">
				<path fill="#FFFFFF" d="M808,719.3c-27.4,6.7-54.9,13.4-82.3,20.1c23.3-26.3,24.5-40.4,21.2-48.5c-6.6-16-33.2-13.8-43.5-36.7
					c-1.2-2.7-5.8-13-2.6-23.9c5.2-17.6,26.2-17.3,41.6-34.7c7-8,14.4-21.2,15-44.5c5.2-1.4,14.2-2.9,21.6,1.7
					c6.9,4.3,9.2,12,10.3,15.6c15,49.2,18.6,74.5,31.6,129.8c0.3,1.5,1.4,6.6-1.4,12.1C815.9,717.2,809,719,808,719.3z"/>
			</g>
			<g>
				<g>
					
						<rect x="819.4" y="528.9" transform="matrix(0.9894 0.1451 -0.1451 0.9894 88.6382 -113.7486)" fill="#43372B" width="9.8" height="44.1"/>
				</g>
				<g>
					
						<rect x="871.5" y="536.5" transform="matrix(0.9894 0.1451 -0.1451 0.9894 90.2958 -121.2186)" fill="#43372B" width="9.8" height="44.1"/>
				</g>
				<g>
					<path fill="#43372B" d="M884.4,538l0.1-1c0.4-2.4-1.3-4.6-3.7-5l-53.1-7.8c-2.4-0.4-4.6,1.3-5,3.7l-0.1,1
						c-0.4,2.4,1.3,4.6,3.7,5l53.1,7.8C881.8,542,884,540.4,884.4,538z"/>
				</g>
			</g>
			<g>
				<path fill="#48CCCC" d="M867.3,757.5l-91.4-13.4c-11.7-1.7-19.8-12.6-18.1-24.3L777.2,588c1.7-11.7,12.6-19.8,24.3-18.1
					l91.4,13.4c11.7,1.7,19.8,12.6,18.1,24.3l-19.3,131.8C889.9,751.1,879,759.2,867.3,757.5z"/>
			</g>
			<g opacity="0.3">
				<path fill="#FFFFFF" d="M871.3,757.5c-28-4.1-55.9-8.2-83.9-12.3c31.5-15.6,37.9-28.3,37.8-37c-0.1-17.3-25.6-25.2-26.6-50.4
					c-0.1-3-0.5-14.2,6.5-23.2c11.4-14.4,30.8-6.2,51.6-16.6c9.5-4.7,21.3-14.3,30.6-35.6c5.4,0.6,14.3,2.6,19.4,9.7
					c4.8,6.6,4.1,14.6,3.7,18.3c-4.5,51.2-10.7,76-19.4,132.1c-0.2,1.5-1.2,6.7-5.9,10.7C879.5,758.5,872.4,757.6,871.3,757.5z"/>
			</g>
			<g>
				<path fill="#E16241" d="M763.1,746.4l-98.2,6.4c-10.6,0.7-19.8-7.4-20.5-18l-3.9-60.6c-0.7-10.6,7.4-19.8,18-20.5l98.2-6.4
					c10.6-0.7,19.8,7.4,20.5,18l3.9,60.6C781.8,736.5,773.7,745.7,763.1,746.4z"/>
			</g>
			<g>
				<path fill="#E6DCC1" d="M642.5,703.4l136.6-8.9l-1.9-29.1c-0.7-10.6-9.9-18.6-20.5-18l-98.2,6.4c-10.6,0.7-18.6,9.9-18,20.5
					L642.5,703.4z"/>
			</g>
			<g>
				<path fill="#43372B" d="M722.1,706.3l-21.7,1.4c-3.3,0.2-6.2-2.3-6.4-5.6l-0.1-2c-0.2-3.3,2.3-6.2,5.6-6.4l21.7-1.4
					c3.3-0.2,6.2,2.3,6.4,5.6l0.1,2C727.9,703.2,725.4,706.1,722.1,706.3z"/>
			</g>
			<g>
				<g>
					<path fill="#FAAF40" d="M604.7,761.5l23.7-49.7l23.9-49.6l11.9-24.8l6-12.4c2-4.1,4.1-8.2,6.2-12.3c4.2-8.2,8.5-16.3,12.8-24.4
						c4.3-8.1,8.8-16.1,13.4-24.1l0.4,0.2c-3.6,8.5-7.2,16.9-11.1,25.3c-3.8,8.4-7.7,16.7-11.7,25c-2,4.1-4,8.3-6,12.4l-6.2,12.3
						l-12.6,24.5l-25.1,49l-25.3,48.9L604.7,761.5z"/>
				</g>
				<g>
					<path fill="#FAAF40" d="M755.1,754.8l-7.4-49.1l-7.2-49.2l-3.7-24.6l-1.7-12.3c-0.6-4.1-1.1-8.2-1.5-12.3
						c-0.9-8.2-1.9-16.5-2.6-24.7c-0.8-8.2-1.5-16.5-2-24.8l0.4-0.1c1.7,8.1,3.2,16.3,4.6,24.5c1.4,8.2,2.7,16.4,3.9,24.5
						c0.6,4.1,1.2,8.2,1.7,12.3l1.5,12.3l2.9,24.7l5.9,49.3l5.7,49.4L755.1,754.8z"/>
				</g>
				<g>
					<path fill="#FAAF40" d="M823,759.1l-16.7-52.1l-16.5-52.2l-8.3-26.1l-4.1-13.1c-1.3-4.4-2.6-8.7-3.9-13.1
						c-2.5-8.8-5-17.6-7.3-26.4c-2.4-8.8-4.6-17.7-6.7-26.6l0.4-0.1c3.2,8.6,6.3,17.2,9.2,25.8c3,8.6,5.8,17.3,8.6,26
						c1.4,4.4,2.7,8.7,4.1,13.1l3.9,13.1l7.5,26.3l15.3,52.6l15.1,52.7L823,759.1z"/>
				</g>
				<g>
					<path fill="#FAAF40" d="M837.8,759l-2.1-46.2l-1.9-46.2l-1-23.1l-0.4-11.5c-0.1-3.8-0.2-7.7-0.2-11.6c-0.1-7.7-0.1-15.4,0-23.1
						c0.1-7.7,0.3-15.4,0.7-23.1l0.4,0c0.8,7.7,1.4,15.4,1.9,23.1c0.5,7.7,0.9,15.4,1.3,23.1c0.2,3.8,0.3,7.7,0.4,11.5l0.2,11.6
						l0.2,23.1l0.6,46.2l0.4,46.2L837.8,759z"/>
				</g>
				<g>
					<path fill="#FAAF40" d="M903,771.1l-2.1-47l-1.9-47l-1-23.5l-0.4-11.8c-0.1-3.9-0.2-7.8-0.2-11.8c-0.1-7.8-0.1-15.7,0-23.5
						c0.1-7.8,0.3-15.7,0.7-23.5l0.4,0c0.8,7.8,1.5,15.6,2,23.5c0.5,7.8,0.9,15.7,1.3,23.5c0.2,3.9,0.3,7.8,0.4,11.8l0.2,11.8
						l0.2,23.5l0.6,47l0.4,47L903,771.1z"/>
				</g>
			</g>
		</g>
	</g>
	<g>
		<polygon fill="none" points="1305.8,1063.4 1305.8,370.4 663.1,23.9 20.4,370.4 20.4,1063.4 663.1,1410 		"/>
	</g>
	<g>
		<g>
			<path fill="#43372B" d="M517.3,226.7c9.3-3.3,14.9-9.5,16.8-18.4c0.3-1.4,0.5-2.8,0.5-4.2c0-4.2-1.1-8.1-3.2-11.7
				c-1.4-2.3-3.2-4.2-5.4-5.7c-2.2-1.5-4.8-2.2-7.7-2.2c-3.6,0-7.4,1.7-11.5,5c-1.2,0.9-2,1.4-2.4,1.4c-0.4,0-0.6-0.9-0.6-2.6
				c0-1.4-0.2-2.7-0.8-4c-0.5-1.3-1.9-2-4.3-2.2c-2.3,0-4,1.3-5.1,3.9c-1,2.3-1.9,6.8-2.6,13.6c-0.7,6.8-1.2,13.1-1.4,18.8
				c-0.2,5.8-0.3,10.2-0.3,13.2c0,14.6,1.1,23.9,3.2,27.9c1.5,2.7,3.7,4,6.6,4l0.7-0.1c3.3-0.3,5.5-2.1,6.5-5.2
				c0.8-2.5,1.3-6.5,1.4-11.9c0-3.8,0.2-5.8,0.4-6c0.2-0.1,0.4-0.2,0.5-0.2c0.4,0,1.4,0.7,3,2.1c7.7,6.8,13,10.1,16,10.1
				c1.9,0,3.3-0.7,4.4-2c0.8-1,1.2-2.2,1.2-3.5c0-2.7-1.7-5.3-5.1-8.1c-2.2-1.8-4.5-3.4-6.9-4.9c-4.3-2.7-6.4-4.6-6.4-5.5
				C514.7,227.8,515.5,227.3,517.3,226.7z M509.9,215.5c-2.6,0-3.9-0.7-3.9-2.1c0-1.4,0-2.1,0-2.2c0-2.5,0.5-5.2,1.6-8.1
				c1.9-5.3,4.2-8,7.1-8c0.7,0,1.4,0.2,2.1,0.5c2,1,3,3,3,5.7c0,1.8-0.3,3.9-1,6.1c-0.6,2.2-1.7,4.1-3.1,5.7
				C514.2,214.7,512.3,215.5,509.9,215.5z"/>
		</g>
		<g>
			<path fill="#43372B" d="M592.8,239.5c-0.3-6-0.7-13.6-1.3-23c-1.2-19.6-2.3-30.3-3.3-32.1c-1.5-2.9-3.9-4.3-7.2-4.3
				c-3.8,0-6.3,1.7-7.7,5.1c-0.9,2.1-1.4,7.7-1.8,16.8c-0.1,5.2-0.4,10.4-0.9,15.6c-1.1,12.9-3.9,19.3-8.4,19.3
				c-1.6,0-3.1-1.7-4.4-5.1c-1.4-3.6-2.1-9.6-2.3-17.8c-0.3-13.5-1.8-20.5-4.6-21c-1-0.2-1.6-0.2-1.9-0.2c-1.5,0-2.9,0.8-4.2,2.5
				c-2.1,2.5-3.6,5.9-4.6,10.3c-1,4.4-1.5,8.2-1.7,11.3c-0.1,3.2-0.2,5.5-0.2,7c0,2.4,0.1,4.6,0.2,6.4c0.6,6.2,2.8,11.9,6.7,16.9
				c0.8,1,1.6,2,2.4,2.8c2.7,2.9,5.2,4.5,7.3,4.7c2.8,0.3,4.5,0.4,5.3,0.4c3.9,0,7.5-1,10.8-3.1c1.7-1.1,2.7-1.6,3.2-1.6
				c0.4,0,0.7,0,0.8,0c0.7,0,1.1,0.3,1.3,0.9c0.2,0.6,0.4,1.4,0.5,2.5c0.1,1,0.3,2.1,0.7,3.2c0.4,1.1,1.1,2,2.1,2.5
				c1,0.6,2.4,0.9,4,0.9c2.9,0,5.2-0.8,7-2.4c1.6-1.4,2.5-3.4,2.5-5.9C593.2,249.3,593.1,245.1,592.8,239.5z"/>
		</g>
		<g>
			<path fill="#43372B" d="M651.2,192.6c-0.9-2.2-2.1-4-3.6-5.4c-6.1-6.1-13.2-9.1-21.3-9.1c-5.4,0-10.3,1.3-14.9,4
				c-4.6,2.7-8.2,6.2-10.8,10.5c-2.6,4.3-3.9,9.3-3.9,15c0.1,9.8,4.9,17.3,14.3,22.4c3.7,2,7.2,3.7,10.5,4.9
				c0.6,0.2,1.2,0.4,1.7,0.7c0,0,0,0,0,0c1.6,0.7,3,1.3,4.1,1.9c1.5,0.8,2.2,1.7,2.2,2.8c0,1.7-1,2.9-3,3.6
				c-1.6,0.6-3.8,1.2-6.8,1.8c-2.4,0.6-4.1,1.6-5.1,3.1c-1,1.5-1.5,3.1-1.5,4.7c0,3.2,1.2,5.5,3.8,6.9c2.1,1.2,4.3,1.8,6.4,1.8
				c2.1,0,4.6-0.4,7.3-1.3c5.8-1.8,10.1-4.3,13-7.6s4.3-7,4.3-11c0-3.1-0.6-5.9-1.7-8.2c-0.3-0.7-0.7-1.3-1.1-1.9
				c-1.9-2.8-4.3-5.1-7.3-7c-2.9-1.9-6-3.6-9.2-5.1c-3.7-1.8-6.9-3.6-9.7-5.6s-4.2-4.5-4.2-7.6c0-3,1.1-5.6,3.2-7.7
				c2.7-2.6,5.9-3.9,9.7-3.9c3.1,0,5.6,0.6,7.6,1.9c2.4,1.6,4.4,3.2,5.9,5c2.2,2.5,3.9,3.8,5.2,3.8c0.9,0,1.8-0.4,2.8-1.2
				c1.9-1.5,2.9-2.9,3-4.1c0.1-1.3,0.1-2.1,0.1-2.4C652.4,196.2,652,194.4,651.2,192.6z"/>
		</g>
		<g>
			<path fill="#43372B" d="M698.5,240.2c-3.5-0.4-6.6-0.6-9.1-0.6c-1.2,0-2.4,0-3.6,0.1c-1.2,0.1-2.2,0.1-3.1,0.1
				c-2.2,0-3.3-0.3-3.3-0.9c0-0.8,1.2-2.3,3.7-4.7c0.8-0.8,1.7-1.6,2.7-2.5c7.5-6.6,14.5-13.5,21.3-20.8c5.1-5.5,7.6-10.5,7.6-15
				c0-4.6-3.8-7.6-11.3-8.9c-4.2-0.7-9.7-1.1-16.7-1.1c-2.3,0-4.8,0.1-7.4,0.2c-4.3,0.3-7.9,1.3-10.7,3.1c-1.8,1.1-2.6,2.5-2.6,4.2
				c0,2,1,3.6,2.9,4.7c1.6,0.9,3.3,1.5,5.2,1.8c2.9,0.4,5.4,0.6,7.6,0.8c3.2,0.3,5.5,0.6,7.1,1c1.5,0.4,2.3,1,2.3,2
				c0,2.8-9.2,12.2-27.5,28.3c-0.7,0.6-1.4,1.2-2.1,1.8c-3.4,3-5.9,5.3-7.4,6.8c-1.6,1.8-2.5,3.8-2.5,6c0,4.7,2.3,7.6,6.9,9
				c3.9,1.2,7.6,1.8,11.2,1.9c3.6,0.1,5.7,0.1,6.2,0.1c6.1,0,12.1-0.4,17.9-1.1c6.4-0.9,11.2-2.2,14.4-4c1.4-0.8,2-1.8,2-3.2
				c0-1.5-0.6-2.9-1.9-4.1C705.3,242.2,702,240.6,698.5,240.2z"/>
		</g>
		<g>
			<path fill="#43372B" d="M771.2,248.3c-0.1-11.9-0.8-22.7-2-32.4c-3.4-25.1-12-37.7-25.7-37.7c-14.1,0-22.4,11.7-24.9,35
				c-0.7,7-1.1,15-1.1,24.2v6.2c0,8.9,2.1,13.4,6.3,13.5c2,0,3.4-1.1,4.1-3.3c1-3.2,1.7-7.4,1.9-12.6c0-0.7,0.1-1.3,0.1-2
				c0.3-4,1.2-6.2,2.7-6.8c1.7-0.7,3.8-1.2,6.3-1.7s4.9-0.7,7-0.7c3.5,0,6,0.7,7.5,2.2s2.5,4.4,2.9,8.9c0.1,1.2,0.2,2.3,0.3,3.4
				c0.2,2.1,0.3,4.2,0.5,6.3c0.2,3.1,0.5,5.4,0.8,6.9c0.3,1.4,1,2.5,2.2,3.3c1.1,0.9,2.4,1.3,3.8,1.3h0.2c4.8-0.1,7.3-3.9,7.3-11.5
				C771.2,250,771.2,249.1,771.2,248.3z M750.3,218.1c-2,0.8-4.1,1.3-6.2,1.6c-2.1,0.3-3.9,0.5-5.2,0.5c-3.6,0-5.4-0.8-5.4-2.3
				c0-0.8,0.1-2.4,0.4-4.9c1.4-13.2,4.5-19.9,9.3-19.9c4.2,0,7.2,4.7,9,14.2c0.7,3.6,1.1,6.4,1.1,8.4
				C753.3,216.6,752.3,217.4,750.3,218.1z"/>
		</g>
		<g>
			<path fill="#43372B" d="M825.6,192.8c-2.5-7.9-7.1-11.9-13.9-12h-1.9c-13,0-19.5,1.7-19.5,5c0,1.7,2.6,2.7,7.8,3.2l8.4,0.8
				c3.2,0.3,5.3,2.1,6.2,5.2c0.9,3.1,1.4,6.3,1.4,9.6c0,6.4-1.1,13.4-3.3,20.9c-1.6,5.3-3.5,9.8-5.6,13.3c-2.1,3.6-4.2,5.4-6.2,5.4
				c-1.8,0-3.5-1.3-4.9-4c-1.4-2.7-2.4-7-2.9-13c-0.2-2.1-0.5-4.1-0.8-6c-0.3-1.9-0.8-3.4-1.5-4.6c-0.7-1.2-1.6-1.8-2.9-1.8
				c-2.1,0-3.8,0.8-5.2,2.5c-1.4,1.7-2.4,3.7-3,6.2c-0.6,2.5-0.9,5-0.9,7.5c0,4,0.6,7.8,1.8,11.5c1.1,3.6,2.6,6.7,4.5,9.3v0
				c1.9,2.6,4.2,4.6,6.9,6.2c2.9,1.7,6.2,2.5,10.1,2.5c2.2,0,4.3-0.2,6.3-0.8h0c5.7-1.4,10.2-4.9,13.7-10.5c5.3-8.6,8-21.1,8-37.3
				C828.2,204.6,827.3,198.3,825.6,192.8z"/>
		</g>
	</g>
	<g>
		<g>
			<path fill="#43372B" d="M406.4,322.6c-2.1-2.2-4.7-3.3-7.8-3.3c-4.3,0-7.6,2.3-10.1,6.9c-1.1,2-1.9,6.5-2.4,13.6
				c-0.2,2.9-0.4,6.2-0.5,10c-0.8,24.3-3.5,36.4-8.2,36.4c-1.8,0-4.2-2.7-7.2-8.1c-2.4-4.4-4.2-8.5-5.2-12.2
				c-0.4-1.5-0.8-2.9-1.1-4.4c-0.5-2.2-0.9-4.3-1.2-6.4c-0.7-4.3-1.9-8.8-3.6-13.5c-1.6-4.3-4.3-6.4-8.2-6.5c-2.1,0-4,0.6-5.8,1.8
				c-2.9,2-5.1,8.6-6.8,19.7c-2.4,15.9-7.2,27.8-14.4,35.7c-1.6,1.7-3.1,2.6-4.5,2.6c-2,0-3.7-2-4.9-5.9c-2-6-4-17.7-5.9-35.2
				c-1.1-10.2-2.4-19.8-3.9-28.7c-2.6-14.8-6.7-22.2-12.5-22.2c-2.8,0-5.1,1.5-6.8,4.4c-2.2,4-3.6,9.8-4.2,17.6s-0.8,14.9-0.8,21.4
				c0,11.3,0.3,20.5,1,27.5c0.6,6.8,1.9,13.6,3.9,20.2c2,6.6,5.7,12.2,11,16.9c5,4.4,10.4,6.6,16.4,6.6c2.5,0,5-0.3,7.2-1
				c2.8-0.8,5.5-2.2,7.8-4.1c4.3-3.4,7.9-7.4,10.8-12.1c2.9-4.7,5.2-8.7,6.8-12.2c1.5-3.2,2.5-4.8,3-5c0.7,0.2,2,2.1,3.6,5.6
				c3.4,6.8,6.7,12.2,10.2,16.2c5.4,6.2,11.6,9.3,18.7,9.3c5,0,9.4-1.8,13.2-5.4c3.8-3.6,7-8.4,9.6-14.2c2.6-5.9,4.6-12.2,6-19.1
				c1.4-6.9,2.3-12.6,2.6-17.2c0.3-4.6,0.4-8,0.4-10.2C412.5,335.1,410.4,326.8,406.4,322.6z"/>
		</g>
		<g>
			<path fill="#43372B" d="M537.5,310.8c-5.7-8.7-12.9-13.1-21.8-13.1c-6.8,0-12.9,2.4-18.4,7.2c-2.1,1.8-3.7,2.7-4.8,2.7
				c-1.1,0-2.6-1-4.5-2.9c-1.5-1.5-3-2.3-4.8-2.3c-2.2,0-4,1-5.4,3.1c-4.5,6.6-6.9,18.4-7.4,35.4c-0.2,6.2-0.3,11.3-0.3,15.4
				c0,14.9,0.4,26.8,1.1,35.6c0.2,2.3,0.4,4.4,0.6,6.3c0.7,5.1,1.7,9,2.9,11.8c1.6,3.6,4.2,5.4,7.6,5.4c2.4-0.1,4.4-0.7,6-1.8
				c0.9-0.6,1.8-0.8,2.9-0.8c1.3,0,2.8,0.2,4.3,0.6c3.5,1.1,6.9,1.7,10.1,1.7c9-0.1,16.7-3.4,23.1-10.1c6.2-6.3,10.9-14.1,14.2-23.3
				c3.1-8.8,4.8-17.7,5.1-26.6c0-0.9,0-1.8,0-2.7C548.3,335.8,544.7,321.9,537.5,310.8z M522.9,372.1c-4.1,13.6-11.2,20.8-21.3,21.8
				l-0.9,0.1c-2.5,0-4.9-1.1-7.3-3.4c-1-1-1.8-3-2.1-6.1c-0.2-1.6-0.3-3.4-0.3-5.6c0-7.7,1-16.9,3.1-27.6c1.8-9.3,4.3-17.5,7.5-24.5
				c3.4-7.5,7.4-11.2,12.1-11.2c2.8,0,5.3,2.4,7.6,7.1c3.3,7.1,4.9,15.8,4.9,26.2c0,5.8-0.5,11.3-1.6,16.6
				C524.1,367.8,523.6,370,522.9,372.1z"/>
		</g>
		<g>
			<path fill="#43372B" d="M625.1,315c-2.2-3.7-5-6.6-8.5-8.9c-3.5-2.3-7.5-3.4-12.1-3.4c-5.6,0-11.6,2.6-18,7.8
				c-1.8,1.5-3.1,2.2-3.8,2.2s-1-1.4-1-4.1c0-2.1-0.4-4.2-1.2-6.2c-0.8-2-3-3.2-6.7-3.5c-3.5,0-6.2,2-8,6
				c-1.6,3.6-2.9,10.7-4.1,21.3c-0.9,8.8-1.6,17-2,24.7c-0.1,1.6-0.2,3.1-0.2,4.7c-0.3,9-0.5,15.9-0.5,20.6c0,22.9,1.7,37.4,5,43.5
				c2.3,4.2,5.8,6.3,10.3,6.3l1.1-0.1c5.2-0.5,8.6-3.2,10.2-8.1c1.3-4,2-10.2,2.1-18.6c0.1-6,0.3-9.1,0.6-9.3
				c0.4-0.2,0.6-0.4,0.7-0.4c0.6,0,2.2,1.1,4.8,3.3c12,10.5,20.3,15.8,25,15.8c2.9,0,5.2-1,6.9-3.1c1.3-1.6,1.9-3.4,1.9-5.4
				c0-4.1-2.6-8.3-7.9-12.6c-3.5-2.8-7.1-5.3-10.8-7.7c-6.6-4.3-10-7.1-10-8.6c0-0.7,1.4-1.5,4.1-2.5c14.5-5.2,23.2-14.8,26.2-28.8
				c0.3-1.5,0.5-3,0.6-4.4c0.1-0.7,0.1-1.4,0.1-2.1C630,326.6,628.4,320.5,625.1,315z M600.6,347.4c-2.3,2.5-5.2,3.8-9,3.8
				c-4,0-6.1-1.1-6.1-3.2c0-2.2-0.1-3.3-0.1-3.5c0-0.4,0-0.8,0-1.2c0.1-3.6,1-7.5,2.4-11.5c2.9-8.3,6.6-12.4,11.1-12.4
				c1,0,2.1,0.3,3.2,0.8c3.2,1.6,4.8,4.6,4.8,9c0,2.9-0.5,6-1.5,9.5c0,0.1-0.1,0.3-0.1,0.4C604.3,342.1,602.7,345,600.6,347.4z"/>
		</g>
		<g>
			<path fill="#43372B" d="M968.8,370.4c-0.8-13.4-7.4-21.2-19.8-23.6c-1.3-0.2-2.5-0.4-3.8-0.6c-3.9-0.6-7.6-0.8-11.1-0.8
				c-5.1,0-8.3-0.6-9.7-1.9c-2.6-2.4-4.9-3.6-7.1-3.6c-4.5,0-8.3,4.9-11.5,14.8c-1.4,4.2-2.1,8.3-2.1,12.4c0,8.8,4.1,13.2,12.3,13.2
				c3.1,0,5.5-1,7.1-2.9c1.6-1.9,2.5-4.4,2.5-7.5c1.5-0.2,3.4-0.4,5.8-0.4c11.7,0,17.6,2.8,17.6,8.5c0,4.5-2,8.5-6,12.1
				c-4.2,3.8-9.2,6.9-14.9,9.3c-5.7,2.4-10.6,3.5-14.6,3.5c-4.8,0-8.8-1.7-12.2-5c-3.4-3.4-6-7.8-7.8-13.3
				c-1.8-5.5-2.7-11.6-2.7-18.5c0-7.4,1.3-14.7,3.8-22c2.6-7.3,6.6-13.7,12.2-19.1c2.1-2.1,4.5-3.9,7.2-5.5
				c4.1-2.4,8.9-4.1,14.2-5.1l5.8-1.1c6.8-1.1,12.1-2.7,15.9-4.8c1.6-0.9,2.5-1.8,2.6-2.6c0.1-0.8,0.1-1.3,0.1-1.3
				c0-1.6-0.7-2.9-2.2-3.9c-5.9-4.3-13.4-6.5-22.5-6.5c-13,0-24.2,3.6-33.6,10.8c0,0-0.1,0.1-0.1,0.1c-9,6.9-15.8,15.8-20.4,26.6
				c-4.7,10.8-7,22.2-7,34.2c0,7.4,1,14.4,3,21.1c4.3,14,12.2,23.9,23.7,29.7c5.9,2.9,12.8,4.4,20.7,4.4c8.3,0,16.8-2.2,25.5-6.7
				s15.8-10.2,21.3-17.3c5.5-7.1,8.2-15,8.2-23.6C968.9,372.3,968.8,371.3,968.8,370.4z"/>
		</g>
		<g>
			<path fill="#43372B" d="M1038.3,305.1c-3.7-2-13.5-2.9-29.5-2.9c-13.3,0-23.1,1.9-29.2,5.6c-2.3,1.4-3.5,3.2-3.5,5.4
				c0,1.6,1.3,3.1,3.8,4.5c1.6,0.9,2.5,1.6,2.7,2.1c0.1,0.5,0.2,0.9,0.2,1.3c0,0.6-0.1,1.4-0.4,2.2c-0.2,0.9-0.5,2.1-0.7,3.6
				c-2.7,17.8-4,35.7-4,53.7l0.3,19c0,1.8-0.6,3.2-1.8,4.4c-1.2,1.2-1.8,2.5-1.8,4.1c0,4.1,4.4,6.1,13.1,6.1c1.5,0,4.2,0.1,8.1,0.4
				c3,0.2,5.7,0.3,8.2,0.4c5.3,0.2,9.7,0.4,13.1,0.4c5.2,0,9.4-0.4,12.4-1.1c4.5-1.1,6.7-4.1,6.9-9.1c0-1.1-0.4-2.5-1.1-3.9
				c-2.1-4-10-6-23.6-6c-5.4,0-8.2-0.2-8.4-0.5c-0.4-0.6-0.6-4.4-0.6-11.4c0-6.6,0.3-12.3,0.8-17.2c0.4-2.9,2.1-4.8,5.2-5.7
				c3.1-0.8,7.4-1.5,12.9-1.8c3.8-0.2,6.4-2,7.8-5.4c0.5-1.2,0.7-2.3,0.7-3.4c0-1.4-0.4-2.7-1.1-4c-1.7-3-4.9-4.5-9.7-4.5
				c-3.1,0-5.9,0.4-8.4,1.2c-1.7,0.6-3.1,0.8-4.3,0.8c-1.6,0-2.5-1-2.6-2.9c-0.1-1.7-0.2-3.5-0.2-5.4c0-7.9,0.6-13.1,1.7-15.5
				c0.9-1.8,2.7-2.7,5.3-2.7c2.9,0,6.5,0.2,10.8,0.6c3.7,0.4,7,0.6,9.9,0.6c1.9,0,3.6-0.2,5-0.5c3.8-0.7,5.8-3,5.8-6.8
				C1042,308.3,1040.8,306.4,1038.3,305.1z"/>
		</g>
	</g>
	<g>
		
			<rect x="659.3" y="377.7" transform="matrix(0.6565 -0.7544 0.7544 0.6565 -51.7599 643.4721)" fill="#4D5052" width="42.7" height="1.8"/>
	</g>
	<g>
		
			<rect x="670.3" y="383" transform="matrix(0.2684 -0.9633 0.9633 0.2684 136.2488 947.1046)" fill="#4D5052" width="42.7" height="1.8"/>
	</g>
	<g>
		
			<rect x="703" y="362.5" transform="matrix(0.985 -0.1724 0.1724 0.985 -55.6328 127.0795)" fill="#4D5052" width="1.8" height="42.7"/>
	</g>
	<g>
		
			<rect x="714.1" y="357.3" transform="matrix(0.8151 -0.5793 0.5793 0.8151 -87.1448 484.1885)" fill="#4D5052" width="1.8" height="42.7"/>
	</g>
	<g>
		
			<rect x="721.8" y="347.8" transform="matrix(0.4867 -0.8736 0.8736 0.4867 48.5382 820.8306)" fill="#4D5052" width="1.8" height="42.7"/>
	</g>
	<g>
		
			<rect x="724.7" y="335.9" transform="matrix(6.360119e-02 -0.998 0.998 6.360119e-02 322.9759 1058.6273)" fill="#4D5052" width="1.8" height="42.7"/>
	</g>
	<g>
		
			<rect x="701.8" y="344.3" transform="matrix(0.9283 -0.3718 0.3718 0.9283 -76.5108 293.5739)" fill="#4D5052" width="42.7" height="1.8"/>
	</g>
	<g>
		
			<rect x="694.3" y="334.6" transform="matrix(0.6781 -0.7349 0.7349 0.6781 -16.1939 633.9437)" fill="#4D5052" width="42.7" height="1.8"/>
	</g>
	<g>
		
			<rect x="683.5" y="329" transform="matrix(0.2961 -0.9552 0.9552 0.2961 181.0229 905.3471)" fill="#4D5052" width="42.7" height="1.8"/>
	</g>
	<g>
		
			<rect x="691.7" y="308.1" transform="matrix(0.9896 -0.1436 0.1436 0.9896 -40.1389 102.8743)" fill="#4D5052" width="1.8" height="42.7"/>
	</g>
	<g>
		
			<rect x="680.4" y="313.1" transform="matrix(0.8316 -0.5553 0.5553 0.8316 -70.9934 434.6495)" fill="#4D5052" width="1.8" height="42.7"/>
	</g>
	<g>
		
			<rect x="672.4" y="322.4" transform="matrix(0.5119 -0.859 0.859 0.5119 33.4031 746.1478)" fill="#4D5052" width="1.8" height="42.7"/>
	</g>
	<g>
		
			<rect x="669.2" y="334.2" transform="matrix(9.260806e-02 -0.9957 0.9957 9.260806e-02 254.0361 989.7577)" fill="#4D5052" width="1.8" height="42.7"/>
	</g>
	<g>
		
			<rect x="650.9" y="366.7" transform="matrix(0.9386 -0.3451 0.3451 0.9386 -85.5532 254.5941)" fill="#4D5052" width="42.7" height="1.8"/>
	</g>
	<g>
		<g>
			<path fill="#43372B" d="M756.7,355.5c0-1.2-0.1-2.5-0.2-3.7c-0.1-1.3-0.2-2.5-0.4-3.8c-0.3-2.1-0.7-4.3-1.3-6.3
				c-0.2-0.6-0.4-1.3-0.5-1.9c-0.3-1.1-0.7-2.2-1.1-3.3c-0.9-2.6-2-5.1-3.3-7.5c-9.9-18.8-29.7-31.7-52.4-31.7
				c-24.8,0-46,15.3-54.8,36.9c-2.8,6.9-4.3,14.4-4.3,22.2c0,32.6,26.5,59.1,59.1,59.1c21.7,0,40.7-11.7,51-29.2
				c1.4-2.3,2.5-4.6,3.6-7.1c0.5-1.1,0.9-2.3,1.3-3.5c0.2-0.6,0.4-1.3,0.6-1.9c1-3.1,1.7-6.4,2.1-9.7c0.3-2.3,0.5-4.6,0.5-7
				c0-0.3,0-0.5,0-0.8C756.7,356.2,756.7,355.8,756.7,355.5z M697.6,406.9c-27.8,0-50.4-22.6-50.4-50.4c0-8.2,1.9-15.9,5.4-22.7
				c8.3-16.4,25.3-27.7,45-27.7c21.8,0,40.5,14,47.4,33.5c0.7,1.8,1.2,3.7,1.7,5.6c0.8,3.6,1.3,7.4,1.3,11.2
				c0,6.8-1.3,13.2-3.8,19.1C736.6,393.9,718.6,406.9,697.6,406.9z"/>
		</g>
	</g>
	<g>
		<path fill="#2D2D2D" d="M745.3,344.9c-0.3-1.1-0.6-2.3-0.9-3.4c-0.4-1.2-0.8-2.3-1.2-3.4c-0.2-0.5-0.4-1.1-0.7-1.6
			c-7.7-17.2-24.9-29.1-44.9-29.1c-18.9,0-35.4,10.7-43.6,26.4c-3.6,6.8-5.6,14.5-5.6,22.7c0,15.4,7.1,29.1,18.2,38.1
			c0,0,0,0,0.1,0.1c0,0,0,0,0,0c0.2,0.1,0.4,0.3,0.6,0.5c5.2,4.1,11.2,7.1,17.8,8.9c0.6,0.1,1.1,0.3,1.7,0.4
			c3.5,0.8,7.1,1.2,10.8,1.2c3.1,0,6.1-0.3,9.1-0.8c0.6-0.1,1.1-0.2,1.7-0.4c6.6-1.5,12.8-4.3,18.1-8.2c0.5-0.3,0.9-0.7,1.4-1.1
			c5.2-4.1,9.6-9.2,12.8-15.1c0.3-0.5,0.6-1,0.8-1.6c0.8-1.6,1.5-3.2,2.1-4.9c1.7-4.5,2.7-9.3,3-14.3c0-0.6,0-1.2,0.1-1.8
			c0-0.4,0-0.8,0-1.2C746.7,352.5,746.2,348.6,745.3,344.9z M734.5,376.7c-2.7,4.9-6.4,9.3-10.8,12.8c-0.5,0.4-0.9,0.7-1.4,1.1
			c-4.5,3.3-9.6,5.7-15.2,7c-0.6,0.1-1.1,0.2-1.7,0.4c-2.6,0.5-5.2,0.7-7.9,0.7c-3,0-6-0.3-8.9-0.9c-0.6-0.1-1.1-0.3-1.7-0.4
			c-5.6-1.4-10.7-4-15.1-7.4c-0.5-0.3-0.9-0.7-1.4-1.1c-5-4.2-8.9-9.4-11.6-15.4c-0.2-0.5-0.5-1.1-0.7-1.6
			c-1.8-4.7-2.9-9.9-2.9-15.2c0-0.5,0-1,0-1.5c0-0.6,0.1-1.2,0.1-1.8c0.4-5.8,2.1-11.4,4.7-16.3c0.3-0.5,0.5-1,0.9-1.5
			c0.3-0.6,0.7-1.2,1.1-1.7c2.7-4.2,6.2-7.9,10.2-11c0.5-0.4,0.9-0.7,1.4-1c4.6-3.2,10-5.4,15.7-6.5c0.6-0.1,1.2-0.2,1.7-0.3
			c2.1-0.3,4.1-0.5,6.3-0.5c3.7,0,7.2,0.5,10.6,1.4c0.6,0.1,1.1,0.3,1.7,0.5c5.5,1.7,10.5,4.5,14.8,8.1c0.5,0.4,0.9,0.8,1.3,1.2
			c4.1,3.8,7.5,8.4,9.9,13.6c0.2,0.5,0.5,1.1,0.7,1.6c0.3,0.7,0.5,1.4,0.8,2.1c1.5,4.3,2.3,8.9,2.3,13.7c0,0.2,0,0.5,0,0.7
			c0,0.6,0,1.2-0.1,1.8c-0.3,5.8-1.8,11.2-4.3,16.2C735.1,375.7,734.8,376.2,734.5,376.7z"/>
	</g>
	<g>
		<circle fill="#2D2D2D" cx="697.8" cy="356.8" r="7.9"/>
	</g>
	<g>
		<circle fill="#43372B" cx="697.8" cy="356.8" r="5.2"/>
	</g>
	<g>
		<g>
			<path fill="#43372B" d="M749.3,348.3c-0.1-0.8-0.3-1.6-0.5-2.5c-0.7-3.1-1.6-6.1-2.8-9c-7.9-19.2-26.7-32.7-48.7-32.7
				c-20.8,0-38.8,12.2-47.4,29.7c-3.3,6.9-5.2,14.7-5.2,22.9c0,29,23.6,52.6,52.6,52.6c21.2,0,39.5-12.6,47.8-30.7
				c1.6-3.5,2.8-7.2,3.7-11c0.8-3.5,1.1-7.2,1.1-10.9C749.9,353.9,749.7,351.1,749.3,348.3z M742.1,359.1c0,0.9-0.1,1.8-0.2,2.8
				c-0.6,5.2-2.1,10-4.3,14.5c-0.2,0.5-0.5,1-0.8,1.6c-2.9,5.3-6.8,10-11.4,13.7c-0.5,0.4-0.9,0.7-1.4,1.1
				c-4.8,3.6-10.3,6.2-16.3,7.6c-0.6,0.1-1.1,0.3-1.7,0.4c-2.8,0.6-5.6,0.8-8.6,0.8c-3.2,0-6.4-0.4-9.5-1c-0.6-0.1-1.1-0.2-1.7-0.4
				c-6-1.5-11.5-4.3-16.3-8c-0.5-0.4-0.9-0.7-1.4-1.1c-5.3-4.5-9.6-10.2-12.4-16.7c-0.2-0.5-0.4-1.1-0.7-1.6c-1.9-5-3-10.4-3-16
				c0-0.7,0-1.3,0.1-2c0-0.6,0.1-1.2,0.1-1.8c0.5-6.3,2.3-12.2,5.2-17.5c0.3-0.5,0.6-1,0.9-1.5c0.1-0.1,0.1-0.2,0.2-0.3
				c3.1-5.1,7.2-9.6,12-13.1c0.5-0.4,1-0.7,1.4-1c5-3.4,10.6-5.7,16.8-6.8c0.6-0.1,1.1-0.2,1.7-0.3c2.1-0.3,4.2-0.5,6.4-0.5
				c4,0,7.9,0.5,11.6,1.5c0.6,0.1,1.1,0.3,1.7,0.5c5.8,1.8,11.2,4.8,15.7,8.6c0.4,0.4,0.9,0.8,1.3,1.2c4.4,4,8,8.9,10.5,14.4
				c0.2,0.5,0.5,1.1,0.7,1.6c0.5,1.2,0.9,2.4,1.3,3.6c1,3.2,1.6,6.6,1.9,10c0.1,1.1,0.1,2.1,0.1,3.2c0,0.2,0,0.4,0,0.6
				C742.1,358,742.1,358.6,742.1,359.1z"/>
		</g>
	</g>
	<g>
		
			<rect x="762.6" y="380.1" transform="matrix(0.6565 -0.7544 0.7544 0.6565 -18.1124 722.2692)" fill="#4D5052" width="42.7" height="1.8"/>
	</g>
	<g>
		
			<rect x="773.7" y="385.4" transform="matrix(0.2684 -0.9633 0.9633 0.2684 209.4832 1048.4454)" fill="#4D5052" width="42.7" height="1.8"/>
	</g>
	<g>
		
			<rect x="806.4" y="365" transform="matrix(0.985 -0.1724 0.1724 0.985 -54.5105 144.9318)" fill="#4D5052" width="1.8" height="42.7"/>
	</g>
	<g>
		
			<rect x="817.4" y="359.7" transform="matrix(0.8151 -0.5793 0.5793 0.8151 -69.463 544.5048)" fill="#4D5052" width="1.8" height="42.7"/>
	</g>
	<g>
		
			<rect x="825.2" y="350.2" transform="matrix(0.4867 -0.8736 0.8736 0.4867 99.4368 912.3639)" fill="#4D5052" width="1.8" height="42.7"/>
	</g>
	<g>
		
			<rect x="828.1" y="338.3" transform="matrix(6.360119e-02 -0.998 0.998 6.360119e-02 417.2875 1164.0529)" fill="#4D5052" width="1.8" height="42.7"/>
	</g>
	<g>
		
			<rect x="805.1" y="346.8" transform="matrix(0.9283 -0.3718 0.3718 0.9283 -70.0175 332.1673)" fill="#4D5052" width="42.7" height="1.8"/>
	</g>
	<g>
		
			<rect x="797.7" y="337" transform="matrix(0.6781 -0.7349 0.7349 0.6781 15.26 710.6785)" fill="#4D5052" width="42.7" height="1.8"/>
	</g>
	<g>
		
			<rect x="786.8" y="331.4" transform="matrix(0.2961 -0.9552 0.9552 0.2961 251.4116 1005.777)" fill="#4D5052" width="42.7" height="1.8"/>
	</g>
	<g>
		
			<rect x="795" y="310.6" transform="matrix(0.9896 -0.1436 0.1436 0.9896 -39.4205 117.7404)" fill="#4D5052" width="1.8" height="42.7"/>
	</g>
	<g>
		
			<rect x="783.8" y="315.5" transform="matrix(0.8316 -0.5553 0.5553 0.8316 -54.9575 492.4581)" fill="#4D5052" width="1.8" height="42.7"/>
	</g>
	<g>
		
			<rect x="775.8" y="324.8" transform="matrix(0.5119 -0.859 0.859 0.5119 81.7305 836.1166)" fill="#4D5052" width="1.8" height="42.7"/>
	</g>
	<g>
		
			<rect x="772.5" y="336.6" transform="matrix(9.263076e-02 -0.9957 0.9957 9.263076e-02 345.3387 1094.8679)" fill="#4D5052" width="1.8" height="42.7"/>
	</g>
	<g>
		
			<rect x="754.2" y="369.1" transform="matrix(0.9386 -0.3451 0.3451 0.9386 -80.0513 290.4099)" fill="#4D5052" width="42.7" height="1.8"/>
	</g>
	<g>
		<g>
			<path fill="#43372B" d="M800.9,299.8c-21.7,0-40.7,11.7-51,29.2c-1.5,2.5-2.8,5.2-3.9,7.9c-0.4,0.9-0.7,1.8-1,2.7
				c-0.2,0.6-0.4,1.3-0.6,1.9c-0.3,0.9-0.6,1.9-0.8,2.9c-0.8,3-1.3,6-1.6,9.1c-0.1,1.3-0.2,2.5-0.2,3.8c0,0.5,0,1.1,0,1.6v0.2
				c0,0.9,0,1.9,0.1,2.8c0.2,4.1,0.8,8,1.8,11.8c0.2,0.7,0.3,1.3,0.5,1.9c0.3,1,0.6,2,1,3c1,2.7,2.1,5.3,3.4,7.8
				c9.9,18.8,29.7,31.7,52.4,31.7c19.1,0,36.1-9.1,47-23.2c7.6-10,12.2-22.4,12.2-35.9C860.1,326.3,833.5,299.8,800.9,299.8z
				 M800.9,409.3c-21.8,0-40.5-14-47.4-33.4c-1.9-5.3-2.9-11-2.9-16.9c0-4.2,0.5-8.3,1.5-12.1c0.6-2.4,1.4-4.7,2.3-7
				c7.5-18.3,25.6-31.2,46.6-31.2c27.8,0,50.4,22.6,50.4,50.4c0,11.6-3.9,22.3-10.5,30.8C831.5,401.7,817.1,409.3,800.9,409.3z"/>
		</g>
	</g>
	<g>
		<path fill="#2D2D2D" d="M846.5,340.6c-0.2-0.5-0.4-1.1-0.7-1.6c-7.7-17.2-24.9-29.1-44.9-29.1c-21.1,0-39.1,13.3-46,31.9
			c-0.7,1.8-1.2,3.6-1.7,5.4c-0.9,3.8-1.4,7.7-1.4,11.8c0,5.2,0.8,10.3,2.3,15c2.9,9.2,8.5,17.2,15.8,23.1l0,0l0.7,0.6
			c5.2,4.1,11.2,7.1,17.8,8.9c0.6,0.1,1.1,0.3,1.7,0.4c3.5,0.8,7.1,1.2,10.8,1.2c3.1,0,6.1-0.3,9.1-0.9c0.6-0.1,1.1-0.2,1.7-0.4
			c6.6-1.5,12.7-4.3,18.1-8.2c0.5-0.3,0.9-0.7,1.4-1.1c3.2-2.5,6.1-5.4,8.6-8.6c1.6-2,3-4.2,4.3-6.5c0.3-0.5,0.6-1,0.8-1.6
			c2.9-5.8,4.7-12.3,5.1-19.2c0-0.6,0.1-1.2,0.1-1.8c0-0.4,0-0.8,0-1.2C850.1,352.5,848.8,346.2,846.5,340.6z M843,359.7
			c0,0.6,0,1.2-0.1,1.8c-0.3,5.8-1.8,11.2-4.3,16.2c-0.2,0.5-0.5,1-0.8,1.6c-1.1,2.1-2.5,4.1-4,6c-2,2.5-4.3,4.8-6.8,6.8
			c-0.5,0.4-0.9,0.7-1.4,1.1c-4.5,3.3-9.6,5.7-15.2,7c-0.6,0.1-1.1,0.3-1.7,0.4c-2.6,0.5-5.2,0.8-7.9,0.8c-3,0-6-0.3-8.9-0.9
			c-0.6-0.1-1.1-0.3-1.7-0.4c-5.6-1.4-10.7-4-15.1-7.4c-0.5-0.4-0.9-0.7-1.4-1.1c-4.9-4.2-8.9-9.4-11.6-15.4
			c-0.2-0.5-0.5-1.1-0.7-1.6c-1.8-4.7-2.9-9.9-2.9-15.2c0-0.5,0-1,0-1.5c0-0.6,0.1-1.2,0.1-1.8c0.2-2.2,0.5-4.3,1-6.4
			c0.8-3.5,2.1-6.8,3.7-9.9c0.3-0.5,0.5-1,0.9-1.5c2.9-5,6.8-9.3,11.3-12.7c0.5-0.4,0.9-0.7,1.4-1c4.6-3.2,10-5.4,15.7-6.6
			c0.6-0.1,1.1-0.2,1.7-0.3c2.1-0.3,4.1-0.5,6.3-0.5c3.7,0,7.2,0.5,10.6,1.4c0.6,0.1,1.1,0.3,1.7,0.5c5.5,1.7,10.5,4.5,14.8,8.1
			c0.5,0.4,0.9,0.8,1.3,1.2c4.1,3.8,7.5,8.4,9.9,13.6c0.2,0.5,0.5,1.1,0.7,1.6c2,4.9,3.1,10.2,3.1,15.8
			C843,359.2,843,359.4,843,359.7z"/>
	</g>
	<g>
		<circle fill="#2D2D2D" cx="801.2" cy="359.2" r="7.9"/>
	</g>
	<g>
		<circle fill="#43372B" cx="801.2" cy="359.2" r="5.2"/>
	</g>
	<g>
		<g>
			<path fill="#43372B" d="M800.7,306.6c-20.9,0-39,12.2-47.4,29.9c-1.5,3.1-2.6,6.3-3.5,9.6c-0.2,0.7-0.4,1.4-0.5,2.2
				c-0.8,3.5-1.1,7.2-1.1,10.9c0,2.9,0.2,5.7,0.7,8.4c0.7,4.1,1.8,8,3.3,11.7c7.9,19,26.7,32.4,48.6,32.4c17,0,32.2-8.2,41.8-20.8
				c6.7-8.8,10.7-19.9,10.7-31.8C853.3,330.2,829.7,306.6,800.7,306.6z M840.1,380.4c-1.2,2.2-2.5,4.2-4,6.2
				c-2.2,2.8-4.7,5.3-7.4,7.6c-0.5,0.4-0.9,0.7-1.4,1.1c-4.8,3.6-10.3,6.2-16.3,7.6c-0.6,0.1-1.1,0.3-1.7,0.4
				c-2.8,0.5-5.6,0.8-8.6,0.8c-3.2,0-6.4-0.3-9.5-1c-0.6-0.1-1.1-0.2-1.7-0.4c-6-1.5-11.5-4.3-16.3-8c-0.5-0.4-0.9-0.7-1.4-1.1
				c-5.3-4.5-9.6-10.2-12.4-16.6c-0.2-0.5-0.5-1.1-0.7-1.6c-1.3-3.5-2.2-7.1-2.7-10.9c-0.2-1.7-0.3-3.4-0.3-5.1c0-0.7,0-1.3,0-2
				c0-0.6,0.1-1.2,0.1-1.8c0.1-1.2,0.2-2.4,0.5-3.6c0.2-1.1,0.4-2.3,0.7-3.4c0.9-3.7,2.3-7.2,4-10.4c0.3-0.5,0.6-1,0.9-1.5
				c3.1-5.3,7.3-9.8,12.2-13.4c0.5-0.3,1-0.7,1.4-1c5-3.3,10.6-5.7,16.8-6.8c0.6-0.1,1.1-0.2,1.7-0.3c2.1-0.3,4.2-0.5,6.4-0.5
				c4,0,7.9,0.5,11.6,1.5c0.6,0.2,1.1,0.3,1.7,0.5h0c5.8,1.8,11.1,4.8,15.7,8.6c0.5,0.4,0.9,0.8,1.3,1.2c4.4,4,8,8.9,10.5,14.4
				c0.2,0.5,0.5,1.1,0.7,1.6c2.1,5.2,3.3,10.9,3.3,16.9c0,0.2,0,0.4,0,0.6c0,0.6,0,1.2,0,1.8c-0.3,6.2-1.9,12-4.5,17.3
				C840.7,379.4,840.4,379.9,840.1,380.4z"/>
		</g>
	</g>
	<g>
		<path fill="#3B2314" d="M1303.1,352.1l-640-345L22.7,352.3l-17.4,9.4v710.4l17.4,9.4l157.2,84.7l483.2,260.5l469.1-252.9
			l170.8-92.1l17.8-9.6V361.7L1303.1,352.1z M1302.2,1061l-181.1,97.6l-458,246.9l-470.5-253.6L24,1061V372.9l2.8-1.5L663.1,28.3
			l633.6,341.6l5.5,3V1061z"/>
	</g>
</g>
</svg>
