<?xml version="1.0" encoding="utf-8"?>
<!-- Generator: Adobe Illustrator 24.3.0, SVG Export Plug-In . SVG Version: 6.00 Build 0)  -->
<svg version="1.1" xmlns="http://www.w3.org/2000/svg" xmlns:xlink="http://www.w3.org/1999/xlink" x="0px" y="0px"
	 viewBox="0 0 1332.8 1433.9" style="enable-background:new 0 0 1332.8 1433.9;" xml:space="preserve">
<style type="text/css">
	.st0{fill:none;stroke:#4D5052;stroke-miterlimit:10;}
	.st1{fill:none;stroke:#4D4F52;stroke-width:5;stroke-miterlimit:10;}
	.st2{fill:none;stroke:#8D8E91;stroke-width:5;stroke-miterlimit:10;}
	.st3{fill:#8D8E91;}
	.st4{fill:none;stroke:#000000;stroke-width:5;stroke-miterlimit:10;}
	.st5{fill:none;stroke:#000000;stroke-miterlimit:10;}
	.st6{fill:#4D4F52;}
	.st7{fill:none;stroke:#4D4F52;stroke-width:7;stroke-miterlimit:10;}
	.st8{fill:none;stroke:#4D4F52;stroke-width:3;stroke-miterlimit:10;}
	.st9{fill:none;stroke:#000000;stroke-width:3;stroke-miterlimit:10;}
	.st10{fill:none;stroke:url(#SVGID_1_);stroke-width:8;stroke-miterlimit:10;}
	.st11{fill:none;stroke:#FFDD15;stroke-linecap:square;stroke-miterlimit:10;}
	.st12{fill:none;stroke:#FFDD15;stroke-linecap:square;stroke-miterlimit:10;stroke-dasharray:31.6411,31.6411;}
	.st13{fill:#4D5052;}
	.st14{fill:none;stroke:#4D4F52;stroke-width:20;stroke-miterlimit:10;}
	.st15{fill:none;stroke:#929497;stroke-width:20;stroke-miterlimit:10;}
	.st16{fill:none;stroke:#4D5052;stroke-width:15;stroke-miterlimit:10;}
	.st17{fill:none;stroke:#F3BB27;stroke-width:4;stroke-miterlimit:10;}
	.st18{fill:none;stroke:#F3BB27;stroke-width:4;stroke-miterlimit:10;stroke-dasharray:44.9657,29.9771;}
	.st19{fill:none;stroke:#4D5153;stroke-width:5;stroke-miterlimit:10;}
	.st20{fill:#4D5153;}
	.st21{fill:none;stroke:#4D5153;stroke-width:3;stroke-miterlimit:10;}
	.st22{fill:#929497;}
	.st23{fill:#F3BB27;}
	.st24{fill:#FFFFFF;}
	.st25{fill:#8C5338;}
	.st26{fill:none;stroke:#8C5338;stroke-width:3;stroke-miterlimit:10;}
	.st27{fill:#E39B44;stroke:#8C5338;stroke-width:2;stroke-miterlimit:10;}
	.st28{fill:none;}
	.st29{fill:#FFC609;}
	.st30{fill:none;stroke:#F5CB53;stroke-miterlimit:10;}
	.st31{fill:#8C5338;stroke:#CA8131;stroke-width:2;stroke-miterlimit:10;}
	.st32{fill:#CA8131;}
	.st33{fill:none;stroke:#CA8131;stroke-width:6.4;stroke-miterlimit:10;}
	.st34{fill:none;stroke:#F5CB53;stroke-width:2;stroke-miterlimit:10;stroke-dasharray:10,10;}
	.st35{fill:#B72F3D;}
	.st36{fill:#402138;}
	.st37{fill:#F4E784;}
	.st38{fill:#F8D73C;}
	.st39{fill:#A2CCED;}
	.st40{fill:#FFFFFF;stroke:#0D0D0D;stroke-width:4;stroke-miterlimit:10;}
	.st41{fill:#C4E0F5;stroke:#231F20;stroke-miterlimit:10;}
	.st42{fill:#EE6251;}
	.st43{fill:#F1CF1D;}
	.st44{fill:#DF423D;stroke:#231F20;stroke-width:4;stroke-miterlimit:10;}
	.st45{fill:#F9F5EA;}
	.st46{fill:#F2F2F2;}
	.st47{fill:none;stroke:#23190F;stroke-width:3;stroke-miterlimit:10;}
	.st48{fill:#23190F;stroke:#57595E;stroke-width:3;stroke-miterlimit:10;}
	.st49{fill:none;stroke:#4D4F52;stroke-width:11;stroke-miterlimit:10;}
	.st50{fill:none;stroke:#FFDD15;stroke-width:3;stroke-miterlimit:10;}
	.st51{fill:none;stroke:#FFDD15;stroke-width:3;stroke-miterlimit:10;stroke-dasharray:28.2,28.2;}
	.st52{fill:#A31D42;}
	.st53{fill:none;stroke:#FFFFFF;stroke-width:14;stroke-miterlimit:10;}
	.st54{fill:none;stroke:#A31D42;stroke-width:10;stroke-miterlimit:10;}
	.st55{fill:none;stroke:#FFFFFF;stroke-width:2;stroke-miterlimit:10;stroke-dasharray:10,10;}
	.st56{fill:none;stroke:#FFDD15;stroke-width:3;stroke-miterlimit:10;stroke-dasharray:28.4288,28.4288;}
	.st57{fill:#FEE193;}
	.st58{fill:none;stroke:#231F20;stroke-width:7;stroke-miterlimit:10;}
	.st59{fill:none;stroke:#FFF100;stroke-miterlimit:10;stroke-dasharray:10,10;}
	.st60{fill:none;stroke:#A31D42;stroke-width:10;stroke-linecap:round;stroke-miterlimit:10;}
	.st61{fill:none;stroke:#FFFFFF;stroke-width:4;stroke-linecap:round;stroke-miterlimit:10;stroke-dasharray:6,10;}
	.st62{fill:#A7D6B6;}
	.st63{fill:#E1F2F7;}
	.st64{fill:#58402B;}
	.st65{fill:#9FC038;}
	.st66{fill:#62AA89;}
	.st67{fill:#B95931;}
	.st68{fill:#7C2C17;}
	.st69{fill:#F07A39;}
	.st70{fill:#FFE4A9;}
	.st71{fill:#F9C747;}
	.st72{fill:#CE5C2E;}
	.st73{fill:#D3EFDB;}
	.st74{fill:#A5DFBC;}
	.st75{fill:#ED9D29;}
	.st76{opacity:0.5;fill:#FFFFFF;}
	.st77{fill:#72A631;}
	.st78{fill:#349922;}
	.st79{fill:#C3865A;}
	.st80{fill:#57C8BF;}
	.st81{fill:#ED3833;}
	.st82{fill:#F4A35B;}
	.st83{fill:#A58142;}
	.st84{fill:#64C3CC;}
	.st85{fill:none;stroke:#B95931;stroke-linecap:round;stroke-miterlimit:10;}
	.st86{fill:#3D3D3D;}
	.st87{fill:#FFFFFF;stroke:#231F20;stroke-miterlimit:10;}
	.st88{fill:#E6DCC1;stroke:#3B2314;stroke-width:8.9712;stroke-miterlimit:10;}
	.st89{clip-path:url(#SVGID_3_);}
	.st90{fill:#E6DCC1;}
	.st91{fill:#EFC928;}
	.st92{fill:#E16241;}
	.st93{fill:#43372B;}
	.st94{fill:#547F41;}
	.st95{fill:#48CCCC;}
	.st96{fill:#2D2D2D;}
	.st97{fill:#9B9B9B;}
	.st98{fill:#282828;}
	.st99{fill:#EDAC29;}
	.st100{fill:#ED9437;}
	.st101{fill:#A38062;}
	.st102{fill:#99D7CA;}
	.st103{fill:#81C1B2;}
	.st104{opacity:0.29;fill:#FFFFFF;}
	.st105{opacity:0.3;fill:#FFFFFF;}
	.st106{fill:#FAAF40;}
	.st107{fill:#479694;}
	.st108{fill:#E6DCC1;stroke:#3B2314;stroke-width:2.5303;stroke-miterlimit:10;}
	.st109{fill:#231F20;}
	.st110{fill:#B29C67;}
	.st111{fill:#3C2D15;}
	.st112{fill:#22211D;}
	.st113{fill:#4D4845;}
	.st114{fill:#F9C747;stroke:#58402B;stroke-width:3;stroke-miterlimit:10;}
	.st115{fill:none;stroke:#58402B;stroke-width:3;stroke-miterlimit:10;}
	.st116{fill:none;stroke:#58402B;stroke-miterlimit:10;}
	.st117{fill:none;stroke:#22211D;stroke-width:2;stroke-miterlimit:10;}
	.st118{fill:none;stroke:#22211D;stroke-width:2;stroke-miterlimit:10;stroke-dasharray:11.9685,11.9685;}
	.st119{fill:#662F14;}
	.st120{fill:#51210E;}
	.st121{opacity:0.36;fill:#D39359;}
	.st122{fill:#D39359;}
	.st123{fill:#CE7F42;}
	.st124{fill:#DFA164;}
	.st125{opacity:0.56;fill:#CE7F42;}
	.st126{opacity:0.15;fill:#CE7F42;}
	.st127{fill:#FCC495;}
	.st128{fill:#D39301;}
	.st129{fill:#432693;}
	.st130{fill:#B10001;}
	.st131{fill:#D17302;}
	.st132{fill:#C83F01;}
	.st133{fill:#AEABAF;}
	.st134{fill:#512310;}
	.st135{fill:#602913;}
	.st136{opacity:0.27;fill:#CE7F42;}
	.st137{opacity:0.27;fill:#EFB27B;}
	.st138{fill:#F4C095;}
	.st139{clip-path:url(#SVGID_5_);}
	.st140{clip-path:url(#SVGID_7_);}
	.st141{clip-path:url(#SVGID_9_);}
	.st142{clip-path:url(#SVGID_11_);}
	.st143{clip-path:url(#SVGID_13_);}
	.st144{clip-path:url(#SVGID_13_);fill:none;}
	.st145{clip-path:url(#SVGID_15_);}
	.st146{clip-path:url(#SVGID_15_);fill:none;}
	.st147{clip-path:url(#SVGID_17_);}
	.st148{clip-path:url(#SVGID_17_);fill:none;}
	.st149{clip-path:url(#SVGID_19_);}
	.st150{fill:none;stroke:#4D5052;stroke-width:0.8417;stroke-miterlimit:10;}
	.st151{clip-path:url(#SVGID_21_);}
	.st152{clip-path:url(#SVGID_23_);}
	.st153{clip-path:url(#SVGID_25_);}
	.st154{fill:#3B2314;}
	.st155{clip-path:url(#SVGID_27_);}
	.st156{opacity:0.5;}
	.st157{opacity:0.29;}
	.st158{opacity:0.3;}
</style>
<g id="Layer_1">
</g>
<g id="Layer_3">
</g>
<g id="Layer_2">
</g>
<g id="Layer_4">
</g>
<g id="Layer_5">
</g>
<g id="Layer_6">
</g>
<g id="Layer_7">
</g>
<g id="Layer_8">
	<g>
		<polygon class="st90" points="1311.5,1066.5 1311.5,367.3 663.1,17.7 14.6,367.3 14.6,1066.5 663.1,1416.2 		"/>
		<path class="st154" d="M663.1,1426.8L5.3,1072.1V361.7L663.1,7.1l657.8,354.7v710.4L663.1,1426.8z M24,1061l639.1,344.6
			l639.1-344.6V372.9L663.1,28.3L24,372.9V1061z"/>
	</g>
	<g>
		<defs>
			<polygon id="SVGID_26_" points="1305.8,1063.4 1305.8,370.4 663.1,23.9 20.4,370.4 20.4,1063.4 663.1,1410 			"/>
		</defs>
		<clipPath id="SVGID_1_">
			<use xlink:href="#SVGID_26_"  style="overflow:visible;"/>
		</clipPath>
		<g style="clip-path:url(#SVGID_1_);">
			<g>
				<rect x="22.7" y="-1" class="st90" width="1280.4" height="1050.7"/>
			</g>
			<g>
				<circle class="st91" cx="662.1" cy="646" r="412.3"/>
			</g>
			<g>
				<circle class="st92" cx="662.1" cy="646" r="312.3"/>
			</g>
			<g>
				<polygon class="st93" points="22.7,794.4 22.7,443 147.8,322.7 225.1,440.7 306,417.5 324.5,466.1 356.9,468.4 447.1,641.9 
					502.6,624.9 557,671.9 687.6,752.9 782.4,752.9 939.6,794.4 				"/>
			</g>
			<g>
				<rect x="22.7" y="693.9" class="st94" width="1280.4" height="751.8"/>
			</g>
			<g>
				<polygon class="st90" points="134.9,389.8 114,433.7 147.8,449.9 114,574.8 181.1,644.2 317.6,681.2 257.4,607.2 199.6,581.7 
					225.1,514.7 185.7,454.5 176.5,410.6 				"/>
			</g>
			<g>
				<polygon class="st90" points="250.5,456.9 289.8,438.4 301.4,456.9 287.5,505.4 266.7,558.6 262.1,486.9 				"/>
			</g>
			<g>
				<polygon class="st90" points="334.1,507.2 308.2,571.3 334.1,571.3 346.2,637 422.4,657.8 372.2,601.8 365.3,552.2 				"/>
			</g>
			<g>
				<path class="st90" d="M490.8,639.8l-17.4,8.1c-6.2,5.7-12.4,11.5-18.7,17.2c30.1,4.9,60.2,9.7,90.4,14.6
					c-10.1-9.1-20.2-18.2-30.3-27.3C506.8,648.2,498.8,644,490.8,639.8z"/>
			</g>
			<g>
				<path class="st96" d="M22.7,1445.7c75.7-218.7,197.8-328.5,255.8-373.3c84-65,182.5-109.3,228-129.1
					c47.7-20.7,123.4-55.9,226.2-80.7c120-29,207.6-28.3,209.6-56c1.7-23.3-59.5-37.4-58.6-58.2c2.5-53.9,417.8-53.2,417.8-52
					c0,1-279.3,5.4-281.5,49.6c-1.1,21.2,64.4,35.3,64.5,72c0.2,31.7-60.7,36.3-76.9,83.5c-8.7,25.3,0,48.3,14.9,86.1
					c16.1,40.8,31.6,70.5,35.6,77c50,81.5,111.2,158.1,135.4,190.2c31.6,41.9,72.6,104.3,109.5,190.7
					C876.3,1445.7,449.5,1445.7,22.7,1445.7z"/>
			</g>
			<g>
				<g>
					<g>
						<g>
							<g>
								
									<rect x="1006.1" y="860.2" transform="matrix(0.8152 -0.5792 0.5792 0.8152 -361.4295 757.7631)" class="st97" width="1.4" height="170.2"/>
							</g>
						</g>
						<g>
							<g>
								
									<rect x="1006.2" y="860.3" transform="matrix(0.6925 -0.7214 0.7214 0.6925 -372.4322 1017.1453)" class="st97" width="1.4" height="170.2"/>
							</g>
						</g>
						<g>
							<g>
								
									<rect x="1006.3" y="860.2" transform="matrix(0.5477 -0.8366 0.8366 0.5477 -335.4734 1270.0413)" class="st97" width="1.4" height="170.2"/>
							</g>
						</g>
						<g>
							<g>
								
									<rect x="1006.6" y="860.4" transform="matrix(0.396 -0.9182 0.9182 0.396 -259.8318 1495.9697)" class="st97" width="1.4" height="170.2"/>
							</g>
						</g>
					</g>
					<g>
						<g>
							<g>
								
									<rect x="1006.5" y="860.9" transform="matrix(0.2354 -0.9719 0.9719 0.2354 -149.3 1702.2327)" class="st97" width="1.4" height="170.2"/>
							</g>
						</g>
						<g>
							<g>
								
									<rect x="1006.7" y="860.9" transform="matrix(4.926458e-02 -0.9988 0.9988 4.926458e-02 12.8541 1905.5981)" class="st97" width="1.4" height="170.2"/>
							</g>
						</g>
						<g>
							<g>
								
									<rect x="922.3" y="945.2" transform="matrix(0.9908 -0.1354 0.1354 0.9908 -118.799 145.115)" class="st97" width="170.2" height="1.4"/>
							</g>
						</g>
						<g>
							<g>
								
									<rect x="922.6" y="945.1" transform="matrix(0.9529 -0.3033 0.3033 0.9529 -239.4184 350.2188)" class="st97" width="170.2" height="1.4"/>
							</g>
						</g>
					</g>
					<g>
						<g>
							<g>
								
									<rect x="923.4" y="945.8" transform="matrix(0.1239 -0.9923 0.9923 0.1239 -55.6395 1829.9309)" class="st97" width="170.2" height="1.4"/>
							</g>
						</g>
						<g>
							<g>
								
									<rect x="1007.8" y="861.5" transform="matrix(0.998 -6.392019e-02 6.392019e-02 0.998 -58.4484 66.3971)" class="st97" width="1.4" height="170.2"/>
							</g>
						</g>
						<g>
							<g>
								
									<rect x="1007.9" y="861.5" transform="matrix(0.9691 -0.2467 0.2467 0.9691 -202.335 278.0343)" class="st97" width="1.4" height="170.2"/>
							</g>
						</g>
						<g>
							<g>
								
									<rect x="1008" y="861.8" transform="matrix(0.9124 -0.4093 0.4093 0.9124 -299.2352 495.8288)" class="st97" width="1.4" height="170.2"/>
							</g>
						</g>
					</g>
					<g>
						<g>
							<g>
								
									<rect x="923.7" y="946.3" transform="matrix(0.7715 -0.6362 0.6362 0.7715 -371.9872 858.2017)" class="st97" width="170.2" height="1.4"/>
							</g>
						</g>
						<g>
							<g>
								
									<rect x="923.8" y="946.2" transform="matrix(0.6391 -0.7691 0.7691 0.6391 -364.1395 1117.6417)" class="st97" width="170.2" height="1.4"/>
							</g>
						</g>
						<g>
							<g>
								
									<rect x="923.7" y="946.1" transform="matrix(0.4865 -0.8737 0.8737 0.4865 -309.1629 1367.4794)" class="st97" width="170.2" height="1.4"/>
							</g>
						</g>
						<g>
							<g>
								
									<rect x="923.9" y="945.8" transform="matrix(0.3292 -0.9442 0.9442 0.3292 -216.9262 1587.5823)" class="st97" width="170.2" height="1.4"/>
							</g>
						</g>
					</g>
					<g>
						<g>
							
								<rect x="921.5" y="947.6" transform="matrix(0.8774 -0.4798 0.4798 0.8774 -331.722 598.6373)" class="st97" width="167.9" height="1.4"/>
						</g>
					</g>
					<g>
						<circle class="st98" cx="1008.5" cy="948.9" r="14.1"/>
					</g>
					<g>
						<g>
							<path class="st98" d="M990.5,1032.9c-47.7-8.1-80-53.5-71.9-101.2c8.1-47.7,53.5-80,101.2-71.9c47.7,8.1,80,53.5,71.9,101.2
								S1038.2,1041,990.5,1032.9z M1018.4,867.6c-43.5-7.4-84.8,22-92.2,65.5c-7.4,43.5,22,84.8,65.5,92.2
								c43.5,7.4,84.8-22,92.2-65.5S1061.9,874.9,1018.4,867.6z"/>
						</g>
					</g>
				</g>
				<g>
					<path class="st92" d="M927.3,895.8c23.7-27.6,59.3-40.8,92.5-33.7c32.8,7.1,53.2,32,59.4,42.7c6.1,10.4,8.7,21.1,8.7,21.1
						c1.7,6.8,2.1,12.7,2.1,17.1c4.2-0.2,8.4-0.4,12.6-0.6c0.7-7.9,0.8-20.2-3.8-34.1c-10.6-32.1-37.9-47-46.1-51.5
						c-8.4-4.6-34.2-17.3-67.6-11.5c-41.2,7.2-63.7,37.3-68.4,43.9C920.2,891.4,923.7,893.6,927.3,895.8z"/>
				</g>
			</g>
			<g>
				<polygon class="st28" points="1296.7,1048.6 1296.7,363.9 661.7,21.6 26.8,363.9 26.8,1048.6 661.7,1390.9 				"/>
			</g>
			<g>
				<path class="st95" d="M18,861.8c55.4-48.7,102-60.5,135.3-61.7c58.3-2.1,100.4,27.2,151.1,2.7c24.4-11.8,37-29.1,44.3-38.3
					c83.4-104.2,373.6-62.8,373.5-58.2c-0.2,5.2-229.5-48.1-329.2,70.1c-28.1,33.2-34.2,66.3-78.8,90.9
					c-54.6,30.1-95.7,0.2-156.1,15.9c-38.4,10-87.9,38.6-135.3,121C21.1,956.7,19.5,909.3,18,861.8z"/>
			</g>
			<g>
				<g>
					<path class="st99" d="M571.1,789.7c3.3-10.2,2.6-14.4,4-18.2c5.2-15.1,36.6-18.1,42.4-18.6c104.1-8.8,126.2-8.3,126.2-8.3
						s85.9,2,168.6,20.4c4.9,1.1,20,4.7,28.8,17.1c1.2,1.7,9.2,13,4.6,19.3c-3.1,4.2-11.2,5.2-14.5,2c-4.1-4,1.7-11.7-0.8-18.9
						c-4.4-12.8-32.2-14.1-36.9-14.3c-60.4-2.9-22.9-11.9-129.7-15.9c-105.1-3.9-64.4,7.7-130.4,5.3c-9.2-0.3-37.4-1.6-45.2,12.8
						c-5.4,9.9,1.3,22.7-7.1,29.7c-4.4,3.7-11.4,4.5-13.4,2.1C565.7,802.2,568.3,798.4,571.1,789.7z"/>
				</g>
				<g>
					<path class="st100" d="M536.4,763.5C577.8,729.7,653.3,677,761,647.2c94.1-26.1,175-24.2,225.7-19.1
						c-43.4,32.4-113.7,77-209.6,106.4C677.6,765,591.4,766.7,536.4,763.5z"/>
				</g>
				<g>
					<path class="st101" d="M529.9,740.4c46.7-26,130.2-64.7,241.5-75.2c97.2-9.2,176.6,6.8,225.6,20.7
						c-48.4,24.3-125.5,56-225,68.1C668.6,766.6,583.4,753.1,529.9,740.4z"/>
				</g>
				<g>
					<path class="st93" d="M337.4,1111.4c-7.2,14.4,14.2,37.4,16.8,40.3c16.3,17.5,40.1,24.2,60.8,21.1c19.4-2.9,44.4-15.4,44.4-30
						c0-3.1-1.2-9.9-16.1-20.2C406.9,1097.4,347.4,1091.5,337.4,1111.4z"/>
				</g>
				<g>
					<path class="st93" d="M640.1,1120.6c-10.7,42,35.9,80.5,40,83.8c7.4,6,18.3,14.5,34.9,16.6c18.7,2.4,33.1-4.7,37.6-7.2
						c15.7-8.6,22.8-21.5,28.9-32.5c3-5.4,13.4-25.3,14.1-53.9c0.5-19.8,1-40.3-13.7-58c-20-24-51.5-22.9-53-22.8
						c-23,1.2-37.9,15.1-58,33.9C653,1097.4,643.9,1105.9,640.1,1120.6z"/>
				</g>
				<g>
					<path class="st93" d="M943.4,1020.1c-2.7,13.4-13.4,67.6,16,106c8.2,10.7,15.3,14.7,20.7,16.7c18.4,6.9,35.7-2.5,37.5-3.5
						c14.8-8.3,19.9-22.7,25.4-38c3.9-11,12-34.3,5.1-63.3c-3.1-13.3-8.8-37.2-30.8-51.2c-15.5-9.8-41.3-16.1-58-3.7
						C949.5,990.6,947.1,1001.6,943.4,1020.1z"/>
				</g>
				<g>
					<path class="st91" d="M330.6,986.5c7.7-12.3,18.9-17.7,41.3-28.5c8.7-4.2,17.5-7.8,62.4-21.1c39.2-11.7,50.6-14.3,61.5-26.5
						c5.5-6.1,7.2-10.6,14.5-27.8c21-49.6,31.7-74.5,41.1-83.3c10.4-9.7,28-13.3,63.2-20.4c11.1-2.3,38-7.3,101.1-10.5
						c33.1-1.7,49.7-2.5,67.9-1.9c48.1,1.5,79.3,8.8,118.1,18.1c41.1,9.9,58,17.6,66.3,33.2c1.9,3.5,2.1,5,8.3,26.9
						c7.8,27.4,11.7,41.1,14.4,49c15,44,35.8,76.7,35.8,76.7c8.5,13.4,15.7,22.2,12.3,27.9c-4.4,7.5-20-1.9-37.5,5.1
						c-22,8.8-30.8,36.8-37.9,59.3c-5.6,17.7-7.2,32.9-7.8,42.7c-53.4,9.7-106.9,19.4-160.3,29.1c0.6-7.2,1.5-29-12.6-49.5
						c-4.3-6.2-17.4-25.3-37.9-27.2c-23.5-2.2-41.8,19.9-53.4,34c-24.8,30-31.3,64-33.1,84.7c-58.2-1.2-108.2-4.9-148.1-8.8
						c-130.9-13-73.5-21.3-142.8-29.9c-8-1-31.2-3.7-38.6-18.7c-2.7-5.4-4.9-15.6-1.7-25.3c2.1-6.3,4.8-7.2,6.2-12.5
						c2.8-10.4-4.2-19.6-7.7-26.4C314.2,1033,320.4,1002.8,330.6,986.5z"/>
				</g>
				<g>
					<path class="st92" d="M559.4,1018.8c4.4-12.5,17.6-16.9,21.1-18c2.5-0.8,20.7-6.6,34.1,5c12.1,10.4,15.1,30.2,7.1,40.5
						c-4.4,5.7-11.3,7.4-19.9,9.6c-8.2,2.1-15.9,4-23.9,1C564.7,1051.7,554.1,1033.8,559.4,1018.8z"/>
				</g>
				<g>
					<path class="st92" d="M331,981.2c4.9-4.8,14.4-3.4,20.1-0.7c14.1,6.7,14.2,26,14.2,27.9c0,3.7-0.1,10.9-5.2,17
						c-5.5,6.7-16.1,11.2-22.6,7.5c-2.1-1.2-4-3.4-6.8-24.6C327.7,986,329.1,983.1,331,981.2z"/>
				</g>
				<g>
					<path class="st90" d="M335.4,981.9c-7.5,0.8-13.5,15.2-12.5,27.1c1,11.8,9.2,25.5,17.7,24.9c7-0.5,12.3-10.7,13.5-18.4
						C356.7,999.3,344.3,981,335.4,981.9z"/>
				</g>
				<g>
					<path class="st90" d="M563.2,1011.9c-9.2,9.1-9,25.8-0.1,36c7.1,8.1,20.3,12.8,31.3,6.8c11.4-6.2,14.5-20.7,10.9-31.4
						c-3-8.8-10.8-16.1-20.8-17.7C583.2,1005.5,571.4,1003.8,563.2,1011.9z"/>
				</g>
				<g>
					<path class="st90" d="M596.3,1093.6c5.2-1.8,13.1,4.6,14.3,12c0.7,4.7-1.1,11.5-5.9,13c-5.1,1.6-10.5-3.5-12.5-8.1
						C589.4,1104.2,591.5,1095.4,596.3,1093.6z"/>
				</g>
				<g>
					<path class="st90" d="M340.5,1064.9c3.8-1.2,10.5,4.9,10.6,11.3c0,3.2-1.6,7.4-4.5,8.2c-3.7,1-8.3-3.9-9.4-8.7
						C336.1,1071.5,337.5,1065.9,340.5,1064.9z"/>
				</g>
				<g>
					<path class="st92" d="M358.5,1104.6c-13.4-18.1,1.8-49,4.3-53.8c3-5.9,10.7-20.8,26-25.8c7.7-2.5,14.3-1.5,17.8-1
						c31.7,4.4,115.2,12.9,118.6,13.2c3.4,0.3,9.5,0.9,16.8,4.1c4,1.7,16.3,7.6,27.8,26c13.3,21.2,25,58.3,11.7,69
						c-5.1,4.1-11.1,2-33.4-1.7c-18-3-36.1-4.2-54.2-6.7c-15-2.1-36.9-4.7-80.7-9.9C372.2,1113.2,364.4,1112.6,358.5,1104.6z"/>
				</g>
				<g>
					<path class="st90" d="M717,1099.7c-19.3,12-18,39.8-17.7,48.3c0.4,8.2,1.7,38.4,21.2,45.5c12.1,4.4,25.9-1.9,33.6-9.1
						c14.4-13.4,12.4-33.9,11.2-46.9c-1.3-13.1-3.2-33.3-18.2-40.6C736.9,1092,724.8,1094.9,717,1099.7z"/>
				</g>
				<g>
					<path class="st90" d="M1009.8,1032.3c-11.6-1-20.6,14.7-23.3,19.4c-9.4,16.5-13.6,43.6,0.9,57.5c0.8,0.7,10.7,10,21.3,7.4
						c11.9-2.9,16.5-18.6,19.5-28.8c2.2-7.4,6.2-21.3,0-36.2C1026.6,1047.7,1020.6,1033.2,1009.8,1032.3z"/>
				</g>
				<g>
					<path class="st102" d="M513.9,904c16-32,32-64.1,48-96.1c24.6-8.2,65.1-18.2,115.6-15.8c51.5,2.5,91.4,17,115.3,27.7
						c-0.2,16.8-1.7,31-3.4,41.7c-2.7,17.3-6.3,30.4-9.6,42.4c-3.4,12.4-6.9,22.8-9.6,30.5c-9.9-3.7-25.1-8.9-44.1-13.6
						c-34.8-8.5-60.2-9.7-118.7-12.4C587,907.5,549.4,905.7,513.9,904z"/>
				</g>
				<g>
					<path class="st103" d="M550.4,885.8c-2.4-6.3,36.4-30.8,78.5-45.1c8.4-2.8,35.6-7.2,90.1-16c35.7-5.8,48-7.4,53.8,0
						c8.5,10.8-2.1,34.1-10.2,51.6c-7.4,16.2-11.1,24.4-17.4,28.3c-21,13.3-41.7-15.6-98.9-20.4c-11-0.9-33.4-1.8-59.6,0
						C561.8,886,551.5,888.9,550.4,885.8z"/>
				</g>
				<g>
					<path class="st102" d="M802,934.4c0.4-24.2,3.4-52.7,12.3-83.5c2.2-7.8,4.7-15.2,7.3-22.3c24.6-1.1,49.3-2.3,73.9-3.4
						c4.6,32.3,9.1,64.7,13.7,97C873.5,926.3,837.7,930.3,802,934.4z"/>
				</g>
				<g>
					<path class="st103" d="M838.2,841.5c-11.5,16.4,9.6,42.7,13.8,48c12.4,15.4,33.3,28.7,40.7,23.3c4.6-3.4,0.3-11.1-1.5-40.7
						c-1.3-22,0.6-26-3.6-31.3C877.6,828.4,848.3,827.2,838.2,841.5z"/>
				</g>
				<g>
					<path class="st102" d="M911.2,825.2c6.5,32.5,13,65.1,19.5,97.6c6.4,1.1,16.5,2,28.5-0.4c9.7-1.9,17.2-5.4,22.4-8.2
						c-1.2-12.1-3.7-27.5-9.3-44.5c-5.4-16.3-12.1-29.7-18.1-39.9c-4-2.2-10.2-4.9-18.1-6.1C925.2,821.9,916.2,823.7,911.2,825.2z"
						/>
				</g>
				<g>
					<path class="st103" d="M924,848.1c-4.4,17.6,14.8,40.6,18.6,45.2c11.3,13.5,27.7,23.7,31.5,17.4c2.4-3.9-2-10.9-9-39.7
						c-5.2-21.4-4.7-25.6-8.6-30.2C947.5,830,927.8,832.8,924,848.1z"/>
				</g>
				<g>
					<path class="st99" d="M806.2,951.8c14.5-13.9,36.4,7.6,78.7-7.5c8.8-3.1,19.5-8.3,25.5-3.4c5,4.1,3.1,12.5,3.1,25.6
						c0,5.7,2.1,17.3,6.2,40.4c9.9,55.2,26.3,78.7,15.5,89.4c-4.4,4.3-10.5,3.9-17.9,3.9c-60.7,0-86.4,30.4-103.4,17.1
						c-11.8-9.2-1.2-25.3-3.1-75.4C808.7,984.4,793,964.4,806.2,951.8z"/>
				</g>
				<g class="st156">
					<path class="st24" d="M871,963.4c-0.2-1,19.5-11.4,29.3-3.1c3.7,3.2,6.7,9.6,4.6,12.4c-1.1,1.4-3.6,1.9-5.4,1.2
						c-3.2-1.3-2.7-5.5-5-8.5C889,958.1,871.2,964.3,871,963.4z"/>
				</g>
				<g>
					<g>
						
							<rect x="682" y="523.4" transform="matrix(0.9716 -0.2368 0.2368 0.9716 -109.6447 178.1887)" class="st93" width="9.8" height="44.1"/>
					</g>
					<g>
						
							<rect x="733.1" y="511" transform="matrix(0.9716 -0.2368 0.2368 0.9716 -105.2404 189.9387)" class="st93" width="9.8" height="44.1"/>
					</g>
					<g>
						<path class="st93" d="M737.7,511l-0.2-1c-0.6-2.4-2.9-3.8-5.3-3.2L680,519.4c-2.4,0.6-3.8,2.9-3.2,5.3l0.2,1
							c0.6,2.4,2.9,3.8,5.3,3.2l52.1-12.7C736.8,515.7,738.3,513.3,737.7,511z"/>
					</g>
				</g>
				<g>
					<path class="st94" d="M804.2,720.8l-89.7,21.9c-11.5,2.8-23.1-4.2-25.9-15.8l-31.5-129.4c-2.8-11.5,4.2-23.1,15.8-25.9
						l89.7-21.9c11.5-2.8,23.1,4.2,25.9,15.8L820,694.9C822.8,706.4,815.7,718,804.2,720.8z"/>
				</g>
				<g class="st157">
					<path class="st24" d="M808,719.3c-27.4,6.7-54.9,13.4-82.3,20.1c23.3-26.3,24.5-40.4,21.2-48.5c-6.6-16-33.2-13.8-43.5-36.7
						c-1.2-2.7-5.8-13-2.6-23.9c5.2-17.6,26.2-17.3,41.6-34.7c7-8,14.4-21.2,15-44.5c5.2-1.4,14.2-2.9,21.6,1.7
						c6.9,4.3,9.2,12,10.3,15.6c15,49.2,18.6,74.5,31.6,129.8c0.3,1.5,1.4,6.6-1.4,12.1C815.9,717.2,809,719,808,719.3z"/>
				</g>
				<g>
					<g>
						
							<rect x="819.4" y="528.9" transform="matrix(0.9894 0.1451 -0.1451 0.9894 88.6382 -113.7486)" class="st93" width="9.8" height="44.1"/>
					</g>
					<g>
						
							<rect x="871.5" y="536.5" transform="matrix(0.9894 0.1451 -0.1451 0.9894 90.2958 -121.2186)" class="st93" width="9.8" height="44.1"/>
					</g>
					<g>
						<path class="st93" d="M884.4,538l0.1-1c0.4-2.4-1.3-4.6-3.7-5l-53.1-7.8c-2.4-0.4-4.6,1.3-5,3.7l-0.1,1
							c-0.4,2.4,1.3,4.6,3.7,5l53.1,7.8C881.8,542,884,540.4,884.4,538z"/>
					</g>
				</g>
				<g>
					<path class="st95" d="M867.3,757.5l-91.4-13.4c-11.7-1.7-19.8-12.6-18.1-24.3L777.2,588c1.7-11.7,12.6-19.8,24.3-18.1
						l91.4,13.4c11.7,1.7,19.8,12.6,18.1,24.3l-19.3,131.8C889.9,751.1,879,759.2,867.3,757.5z"/>
				</g>
				<g class="st158">
					<path class="st24" d="M871.3,757.5c-28-4.1-55.9-8.2-83.9-12.3c31.5-15.6,37.9-28.3,37.8-37c-0.1-17.3-25.6-25.2-26.6-50.4
						c-0.1-3-0.5-14.2,6.5-23.2c11.4-14.4,30.8-6.2,51.6-16.6c9.5-4.7,21.3-14.3,30.6-35.6c5.4,0.6,14.3,2.6,19.4,9.7
						c4.8,6.6,4.1,14.6,3.7,18.3c-4.5,51.2-10.7,76-19.4,132.1c-0.2,1.5-1.2,6.7-5.9,10.7C879.5,758.5,872.4,757.6,871.3,757.5z"/>
				</g>
				<g>
					<path class="st92" d="M763.1,746.4l-98.2,6.4c-10.6,0.7-19.8-7.4-20.5-18l-3.9-60.6c-0.7-10.6,7.4-19.8,18-20.5l98.2-6.4
						c10.6-0.7,19.8,7.4,20.5,18l3.9,60.6C781.8,736.5,773.7,745.7,763.1,746.4z"/>
				</g>
				<g>
					<path class="st90" d="M642.5,703.4l136.6-8.9l-1.9-29.1c-0.7-10.6-9.9-18.6-20.5-18l-98.2,6.4c-10.6,0.7-18.6,9.9-18,20.5
						L642.5,703.4z"/>
				</g>
				<g>
					<path class="st93" d="M722.1,706.3l-21.7,1.4c-3.3,0.2-6.2-2.3-6.4-5.6l-0.1-2c-0.2-3.3,2.3-6.2,5.6-6.4l21.7-1.4
						c3.3-0.2,6.2,2.3,6.4,5.6l0.1,2C727.9,703.2,725.4,706.1,722.1,706.3z"/>
				</g>
				<g>
					<g>
						<path class="st106" d="M604.7,761.5l23.7-49.7l23.9-49.6l11.9-24.8l6-12.4c2-4.1,4.1-8.2,6.2-12.3c4.2-8.2,8.5-16.3,12.8-24.4
							c4.3-8.1,8.8-16.1,13.4-24.1l0.4,0.2c-3.6,8.5-7.2,16.9-11.1,25.3c-3.8,8.4-7.7,16.7-11.7,25c-2,4.1-4,8.3-6,12.4l-6.2,12.3
							l-12.6,24.5l-25.1,49l-25.3,48.9L604.7,761.5z"/>
					</g>
					<g>
						<path class="st106" d="M755.1,754.8l-7.4-49.1l-7.2-49.2l-3.7-24.6l-1.7-12.3c-0.6-4.1-1.1-8.2-1.5-12.3
							c-0.9-8.2-1.9-16.5-2.6-24.7c-0.8-8.2-1.5-16.5-2-24.8l0.4-0.1c1.7,8.1,3.2,16.3,4.6,24.5c1.4,8.2,2.7,16.4,3.9,24.5
							c0.6,4.1,1.2,8.2,1.7,12.3l1.5,12.3l2.9,24.7l5.9,49.3l5.7,49.4L755.1,754.8z"/>
					</g>
					<g>
						<path class="st106" d="M823,759.1l-16.7-52.1l-16.5-52.2l-8.3-26.1l-4.1-13.1c-1.3-4.4-2.6-8.7-3.9-13.1
							c-2.5-8.8-5-17.6-7.3-26.4c-2.4-8.8-4.6-17.7-6.7-26.6l0.4-0.1c3.2,8.6,6.3,17.2,9.2,25.8c3,8.6,5.8,17.3,8.6,26
							c1.4,4.4,2.7,8.7,4.1,13.1l3.9,13.1l7.5,26.3l15.3,52.6l15.1,52.7L823,759.1z"/>
					</g>
					<g>
						<path class="st106" d="M837.8,759l-2.1-46.2l-1.9-46.2l-1-23.1l-0.4-11.5c-0.1-3.8-0.2-7.7-0.2-11.6c-0.1-7.7-0.1-15.4,0-23.1
							c0.1-7.7,0.3-15.4,0.7-23.1l0.4,0c0.8,7.7,1.4,15.4,1.9,23.1c0.5,7.7,0.9,15.4,1.3,23.1c0.2,3.8,0.3,7.7,0.4,11.5l0.2,11.6
							l0.2,23.1l0.6,46.2l0.4,46.2L837.8,759z"/>
					</g>
					<g>
						<path class="st106" d="M903,771.1l-2.1-47l-1.9-47l-1-23.5l-0.4-11.8c-0.1-3.9-0.2-7.8-0.2-11.8c-0.1-7.8-0.1-15.7,0-23.5
							c0.1-7.8,0.3-15.7,0.7-23.5l0.4,0c0.8,7.8,1.5,15.6,2,23.5c0.5,7.8,0.9,15.7,1.3,23.5c0.2,3.9,0.3,7.8,0.4,11.8l0.2,11.8
							l0.2,23.5l0.6,47l0.4,47L903,771.1z"/>
					</g>
				</g>
			</g>
		</g>
	</g>
	<g>
		<g>
			<path class="st93" d="M499,263.4c-2.9,0-5.1-1.3-6.6-4c-2.1-3.9-3.2-13.2-3.2-27.9c0-3,0.1-7.4,0.3-13.2
				c0.2-5.8,0.7-12.1,1.4-18.8c0.7-6.8,1.6-11.3,2.6-13.6c1.1-2.6,2.8-3.9,5.1-3.9c2.3,0.2,3.8,0.9,4.3,2.2c0.5,1.3,0.8,2.6,0.8,4
				c0,1.8,0.2,2.6,0.6,2.6c0.4,0,1.2-0.5,2.4-1.4c4.1-3.3,7.9-5,11.5-5c2.9,0,5.5,0.7,7.7,2.2c2.2,1.5,4,3.4,5.4,5.7
				c2.1,3.6,3.2,7.4,3.2,11.7c0,1.4-0.2,2.8-0.5,4.2c-1.9,9-7.5,15.1-16.7,18.4c-1.8,0.6-2.6,1.2-2.6,1.6c0,0.9,2.1,2.8,6.4,5.5
				c2.4,1.5,4.7,3.2,6.9,4.9c3.4,2.7,5.1,5.4,5.1,8.1c0,1.3-0.4,2.4-1.2,3.5c-1.1,1.3-2.5,2-4.4,2c-3,0-8.3-3.4-16-10.1
				c-1.6-1.4-2.7-2.1-3-2.1c-0.1,0-0.2,0.1-0.5,0.2c-0.2,0.2-0.4,2.1-0.4,6c-0.1,5.4-0.5,9.4-1.3,11.9c-1,3.2-3.2,4.9-6.5,5.2
				L499,263.4z M509.9,215.5c2.4,0,4.3-0.8,5.7-2.4c1.4-1.6,2.5-3.5,3.1-5.7c0.6-2.2,1-4.2,1-6.1c0-2.8-1-4.7-3-5.7
				c-0.7-0.4-1.4-0.5-2-0.5c-2.9,0-5.2,2.7-7.1,8c-1.1,2.9-1.6,5.6-1.6,8.1c0,0.1,0,0.9,0,2.3C506,214.8,507.3,215.5,509.9,215.5z"
				/>
		</g>
		<g>
			<path class="st93" d="M583.7,260.2c-1.6,0-3-0.3-4-0.9c-1-0.6-1.7-1.4-2.1-2.5c-0.4-1.1-0.6-2.2-0.7-3.2c-0.1-1-0.2-1.9-0.5-2.5
				c-0.2-0.6-0.7-0.9-1.3-0.9c-0.1,0-0.3,0-0.8,0c-0.4,0-1.5,0.6-3.2,1.6c-3.4,2.1-7,3.1-10.8,3.1c-0.8,0-2.5-0.1-5.3-0.4
				c-2.8-0.3-6-2.8-9.7-7.5c-3.9-5-6.1-10.6-6.7-16.9c-0.2-1.9-0.2-4-0.2-6.4c0-1.5,0.1-3.9,0.2-7c0.1-3.1,0.7-6.9,1.7-11.3
				c1-4.4,2.5-7.8,4.6-10.3c1.4-1.6,2.8-2.5,4.2-2.5c0.3,0,0.9,0.1,1.9,0.2c2.8,0.5,4.4,7.5,4.6,21c0.2,8.2,1,14.2,2.3,17.8
				c1.3,3.4,2.8,5.2,4.4,5.2c4.5,0,7.3-6.4,8.4-19.3c0.4-5.2,0.7-10.4,0.9-15.6c0.3-9.1,0.9-14.7,1.8-16.8c1.4-3.4,4-5.1,7.7-5.1
				c3.2,0,5.6,1.4,7.1,4.3c1,1.9,2.1,12.6,3.3,32.2c1.1,18.2,1.7,30,1.7,35.4c0,2.5-0.8,4.5-2.5,5.9
				C588.9,259.4,586.6,260.2,583.7,260.2z"/>
		</g>
		<g>
			<path class="st93" d="M623.4,262.1c-2.1,0-4.3-0.6-6.4-1.8c-2.5-1.3-3.7-3.6-3.7-6.9c0-1.6,0.5-3.2,1.5-4.7s2.7-2.6,5.1-3.1
				c3-0.6,5.2-1.2,6.8-1.8c2-0.7,3-1.9,3-3.6c0-1-0.7-1.9-2.2-2.8c-1.5-0.8-3.4-1.7-5.8-2.6c-3.3-1.2-6.8-2.9-10.5-4.9
				c-9.4-5.1-14.2-12.6-14.3-22.4c0-5.7,1.3-10.7,3.9-15s6.2-7.8,10.8-10.5c4.6-2.7,9.5-4,14.9-4c8.1,0,15.2,3,21.3,9.1
				c1.5,1.4,2.7,3.3,3.6,5.4c0.8,1.8,1.2,3.6,1.2,5.4c0,0.4-0.1,1.2-0.1,2.4c-0.1,1.3-1.1,2.6-3,4.1c-1,0.8-1.9,1.2-2.8,1.2
				c-1.3,0-3-1.2-5.2-3.7c-1.6-1.8-3.5-3.5-5.9-5c-2-1.2-4.5-1.9-7.6-1.9c-3.8,0-7.1,1.3-9.7,3.9c-2.1,2.1-3.2,4.7-3.2,7.7
				c0,3.1,1.4,5.6,4.2,7.6c2.8,2,6,3.9,9.7,5.6c3.2,1.5,6.2,3.2,9.2,5.1c2.9,1.9,5.4,4.2,7.3,7c1.9,2.8,2.8,6.1,2.8,10.2
				c0,4-1.4,7.7-4.3,11c-2.8,3.3-7.2,5.8-13,7.6C628,261.6,625.5,262.1,623.4,262.1z"/>
		</g>
		<g>
			<path class="st93" d="M675.9,257.4c-0.5,0-2.6,0-6.2-0.1c-3.6-0.1-7.3-0.7-11.2-1.8c-4.6-1.3-6.9-4.3-6.9-9c0-2.2,0.8-4.2,2.5-6
				c1.8-1.8,4.9-4.7,9.4-8.6c18.4-16.1,27.5-25.5,27.5-28.3c0-0.9-0.8-1.6-2.3-2c-1.5-0.4-3.9-0.7-7.1-1c-2.1-0.2-4.6-0.5-7.6-0.8
				c-1.9-0.2-3.6-0.8-5.2-1.8c-2-1.1-2.9-2.7-2.9-4.7c0-1.8,0.9-3.2,2.6-4.2c2.8-1.8,6.4-2.8,10.7-3c2.6-0.2,5-0.2,7.4-0.2
				c6.9,0,12.5,0.4,16.7,1.1c7.5,1.3,11.3,4.3,11.3,8.9c0,4.6-2.5,9.6-7.6,15.1c-6.7,7.3-13.8,14.2-21.3,20.8
				c-4.3,3.8-6.4,6.2-6.4,7.2c0,0.6,1.1,0.9,3.3,0.9c0.9,0,1.9,0,3.1-0.1c1.2-0.1,2.4-0.1,3.6-0.1c2.5,0,5.5,0.2,9.1,0.6
				c3.6,0.4,6.8,2,9.8,4.8c1.3,1.2,1.9,2.6,1.9,4.1c0,1.3-0.7,2.4-2,3.2c-3.2,1.8-8,3.1-14.4,4C687.9,257,682,257.4,675.9,257.4z"/>
		</g>
		<g>
			<path class="st93" d="M764,262.3h-0.2c-1.4,0-2.7-0.4-3.8-1.3c-1.1-0.8-1.9-1.9-2.2-3.3c-0.3-1.5-0.6-3.8-0.8-6.9
				c-0.2-3.1-0.4-6.3-0.8-9.7c-0.4-4.5-1.4-7.4-2.9-8.9c-1.5-1.5-4-2.2-7.5-2.2c-2.2,0-4.5,0.2-7.1,0.7c-2.5,0.5-4.6,1-6.3,1.7
				c-1.7,0.7-2.6,3.6-2.8,8.8c-0.2,5.2-0.8,9.4-1.9,12.6c-0.7,2.2-2.1,3.3-4.1,3.3c-4.2,0-6.3-4.5-6.3-13.5V238
				c0-9.4,0.4-17.7,1.1-24.8c2.5-23.3,10.8-35,24.9-35c13.7,0,22.3,12.6,25.7,37.7c1.4,10.3,2,22,2,34.9
				C771.2,258.4,768.8,262.2,764,262.3z M738.9,220.2c1.3,0,3.1-0.2,5.2-0.5c2.1-0.3,4.2-0.9,6.2-1.6c2-0.8,3-1.6,3-2.4
				c0-2-0.4-4.7-1.1-8.4c-1.8-9.4-4.8-14.2-9-14.2c-4.8,0-7.9,6.6-9.3,19.9c-0.2,2.4-0.4,4-0.4,4.9
				C733.5,219.5,735.3,220.2,738.9,220.2z"/>
		</g>
		<g>
			<path class="st93" d="M800.1,260.4c-3.9,0-7.2-0.8-10.1-2.5c-5.5-3.1-9.3-8.3-11.5-15.5c-1.2-3.7-1.8-7.6-1.8-11.5
				c0-2.5,0.3-5,0.9-7.5c0.6-2.5,1.6-4.5,3-6.2c1.4-1.7,3.2-2.5,5.2-2.5c1.2,0,2.2,0.6,2.9,1.8c0.7,1.2,1.2,2.7,1.5,4.6
				c0.3,1.9,0.6,3.9,0.8,6c0.5,6,1.5,10.3,2.9,13c1.4,2.7,3,4,4.9,4c2,0,4.1-1.8,6.2-5.4c2.1-3.6,4-8,5.6-13.3
				c2.2-7.5,3.3-14.5,3.3-20.9c0-3.2-0.4-6.4-1.3-9.6c-0.9-3.1-3-4.9-6.2-5.2l-8.4-0.8c-5.2-0.4-7.8-1.5-7.8-3.2c0-3.3,6.5-5,19.5-5
				h1.9c6.8,0.1,11.4,4.1,13.9,12c1.7,5.5,2.6,11.8,2.6,19c0,16.2-2.7,28.7-8,37.3C815.5,256.6,808.8,260.4,800.1,260.4z"/>
		</g>
	</g>
	<g>
		<g>
			<path class="st93" d="M312.6,417.1c-5.9,0-11.4-2.2-16.4-6.6c-5.3-4.6-9-10.3-11-16.9c-2-6.6-3.3-13.3-3.9-20.2
				c-0.7-7.1-1-16.2-1-27.5c0-6.5,0.3-13.7,0.8-21.4c0.5-7.7,1.9-13.6,4.2-17.6c1.7-2.9,4-4.4,6.8-4.4c5.8,0,10,7.4,12.5,22.2
				c1.5,8.9,2.8,18.5,3.9,28.7c2,17.5,3.9,29.2,5.9,35.2c1.3,4,2.9,5.9,4.9,5.9c1.4,0,2.9-0.9,4.5-2.6c7.2-7.9,12-19.8,14.4-35.7
				c1.6-11.1,3.9-17.7,6.8-19.7c1.8-1.2,3.7-1.8,5.8-1.8c3.9,0.1,6.6,2.2,8.2,6.5c1.7,4.8,2.9,9.3,3.6,13.5
				c0.5,3.5,1.3,7.1,2.4,10.7c1,3.7,2.8,7.8,5.2,12.2c3,5.4,5.5,8.1,7.2,8.1c4.7,0,7.4-12.1,8.2-36.4c0.4-12.9,1.4-20.8,2.9-23.6
				c2.4-4.6,5.8-6.9,10.1-6.9c9.3,0,13.9,9.4,13.9,28.3c0,2.3-0.1,5.7-0.4,10.2c-0.3,4.6-1.1,10.3-2.6,17.2
				c-1.4,6.9-3.4,13.3-6,19.1c-2.6,5.9-5.8,10.6-9.6,14.2c-3.8,3.6-8.2,5.4-13.2,5.4c-7.1,0-13.3-3.1-18.7-9.3
				c-3.4-4-6.8-9.4-10.2-16.2c-1.7-3.5-2.9-5.3-3.7-5.6c-0.5,0.2-1.6,1.9-3,5c-1.6,3.5-3.9,7.5-6.8,12.2c-2.9,4.7-6.5,8.7-10.8,12.1
				C323.3,415.4,318.3,417.1,312.6,417.1z"/>
		</g>
		<g>
			<path class="st93" d="M482.5,415.4c-3.4,0-5.9-1.8-7.6-5.4c-1.8-3.8-3-9.9-3.6-18.1c-0.7-8.8-1.1-20.6-1.1-35.6
				c0-4.1,0.1-9.2,0.3-15.4c0.5-17,3-28.8,7.4-35.4c1.4-2.1,3.2-3.1,5.4-3.1c1.7,0,3.3,0.8,4.8,2.3c1.9,2,3.4,2.9,4.5,2.9
				c1,0,2.6-0.9,4.8-2.7c5.5-4.8,11.6-7.2,18.4-7.2c8.8,0,16.1,4.4,21.8,13.1c7.2,11.2,10.8,25,10.8,41.6c0,9.8-1.7,19.6-5.1,29.3
				c-3.3,9.2-8,17-14.2,23.3c-6.5,6.6-14.2,10-23.1,10.1c-3.2,0-6.5-0.5-10.1-1.6c-1.5-0.4-3-0.6-4.3-0.6c-1.1,0-2.1,0.3-2.9,0.8
				C486.9,414.7,484.9,415.3,482.5,415.4z M500.7,394l0.9-0.1c10.1-0.9,17.2-8.2,21.3-21.8c2.2-7.3,3.3-15,3.3-23.2
				c0-10.4-1.6-19.2-4.9-26.2c-2.3-4.8-4.8-7.1-7.6-7.1c-4.6,0-8.7,3.7-12.1,11.2c-3.2,7-5.7,15.2-7.5,24.5
				c-2.1,10.7-3.1,19.9-3.1,27.6c0,6.3,0.8,10.2,2.4,11.7C495.8,392.9,498.2,394,500.7,394z"/>
		</g>
		<g>
			<path class="st93" d="M574.5,425.9c-4.6,0-8-2.1-10.3-6.3c-3.4-6.2-5-20.7-5-43.5c0-4.7,0.2-11.6,0.5-20.6
				c0.3-9,1.1-18.8,2.2-29.4c1.1-10.6,2.5-17.7,4.1-21.3c1.8-4,4.4-6,8-6c3.7,0.3,5.9,1.5,6.7,3.5c0.8,2,1.2,4.1,1.2,6.2
				c0,2.7,0.3,4.1,1,4.1c0.7,0,1.9-0.7,3.7-2.2c6.4-5.2,12.4-7.8,18-7.8c4.6,0,8.6,1.1,12.1,3.4c3.5,2.3,6.3,5.3,8.5,8.9
				c3.3,5.5,4.9,11.6,4.9,18.2c0,2.2-0.2,4.4-0.7,6.6c-2.9,14-11.6,23.6-26.2,28.8c-2.7,1-4.1,1.8-4.1,2.5c0,1.5,3.3,4.3,10,8.6
				c3.7,2.4,7.3,4.9,10.8,7.7c5.3,4.3,8,8.5,8,12.6c0,2-0.6,3.8-1.9,5.4c-1.6,2.1-3.9,3.1-6.9,3.1c-4.6,0-13-5.3-25-15.8
				c-2.6-2.2-4.1-3.3-4.8-3.3c-0.1,0-0.4,0.1-0.7,0.4c-0.4,0.2-0.6,3.4-0.6,9.3c-0.1,8.5-0.8,14.7-2.1,18.7c-1.6,4.9-5,7.7-10.2,8.1
				L574.5,425.9z M591.6,351.1c3.7,0,6.7-1.2,9-3.8c2.3-2.5,3.9-5.5,4.9-8.9c1-3.4,1.5-6.6,1.5-9.5c0-4.3-1.6-7.3-4.8-9
				c-1.1-0.5-2.2-0.8-3.2-0.8c-4.5,0-8.1,4.1-11.1,12.4c-1.6,4.5-2.5,8.8-2.5,12.7c0,0.2,0,1.4,0,3.5
				C585.6,350,587.6,351.1,591.6,351.1z"/>
		</g>
		<g>
			<path class="st93" d="M913.9,421c-7.9,0-14.8-1.5-20.7-4.4c-11.5-5.8-19.4-15.7-23.7-29.7c-2-6.7-3-13.7-3-21.1
				c0-11.9,2.3-23.3,7-34.2c4.7-10.8,11.5-19.7,20.5-26.7c9.4-7.2,20.7-10.8,33.7-10.8c9.1,0,16.6,2.2,22.5,6.5
				c1.5,1,2.2,2.3,2.2,3.9c0,0.1,0,0.5-0.1,1.3c-0.1,0.8-0.9,1.7-2.6,2.6c-3.8,2.1-9.1,3.7-15.9,4.8l-5.8,1.1
				c-8.7,1.6-15.9,5.1-21.4,10.6c-5.5,5.5-9.6,11.8-12.2,19.1c-2.6,7.3-3.8,14.6-3.8,22c0,6.8,0.9,13,2.7,18.5
				c1.8,5.5,4.4,9.9,7.8,13.3c3.4,3.4,7.5,5,12.2,5c4,0,8.9-1.2,14.6-3.5c5.7-2.3,10.7-5.4,14.9-9.3c4-3.6,6-7.6,6-12.1
				c0-5.7-5.9-8.5-17.6-8.5c-2.3,0-4.2,0.1-5.8,0.4c0,3-0.8,5.5-2.5,7.5c-1.6,2-4,2.9-7.1,2.9c-8.2,0-12.3-4.4-12.3-13.2
				c0-4,0.7-8.1,2.1-12.3c3.2-9.9,7.1-14.8,11.5-14.8c2.2,0,4.6,1.2,7.1,3.6c1.4,1.3,4.6,1.9,9.7,1.9c4.6,0,9.5,0.5,14.8,1.5
				c13.3,2.5,19.9,11.3,19.9,26.5c0,8.7-2.7,16.5-8.2,23.6c-5.5,7.1-12.6,12.9-21.3,17.3C930.7,418.8,922.2,421,913.9,421z"/>
		</g>
		<g>
			<path class="st93" d="M1016.9,415.4c-5.1,0-12.3-0.3-21.4-0.8c-4-0.2-6.7-0.4-8.1-0.4c-8.7,0-13.1-2-13.1-6.1
				c0-1.6,0.6-3,1.8-4.1s1.8-2.6,1.8-4.4l-0.3-19c0-18,1.3-35.9,4-53.7c0.2-1.5,0.5-2.7,0.7-3.6c0.2-0.9,0.4-1.6,0.4-2.2
				c0-0.4-0.1-0.8-0.2-1.3c-0.1-0.5-1-1.2-2.7-2.1c-2.6-1.4-3.8-2.9-3.8-4.5c0-2.2,1.2-4,3.5-5.4c6.1-3.7,15.8-5.6,29.2-5.6
				c16,0,25.9,1,29.5,2.9c2.5,1.3,3.7,3.2,3.7,5.8c0,3.8-1.9,6-5.8,6.8c-1.5,0.3-3.1,0.5-5,0.5c-2.9,0-6.2-0.2-9.9-0.6
				c-4.3-0.4-7.9-0.6-10.8-0.6c-2.6,0-4.4,0.9-5.3,2.7c-1.2,2.4-1.7,7.5-1.7,15.5c0,1.9,0.1,3.7,0.2,5.4c0.1,2,1,2.9,2.7,2.9
				c1.2,0,2.6-0.3,4.3-0.8c2.5-0.8,5.3-1.2,8.4-1.2c4.8,0,8,1.5,9.7,4.5c0.7,1.3,1.1,2.6,1.1,4c0,1.1-0.2,2.2-0.7,3.4
				c-1.4,3.4-4,5.2-7.8,5.4c-5.5,0.4-9.9,1-12.9,1.8c-3.1,0.9-4.8,2.7-5.2,5.7c-0.5,4.9-0.8,10.6-0.8,17.2c0,7,0.2,10.8,0.6,11.4
				c0.2,0.4,3,0.5,8.4,0.5c13.6,0,21.5,2,23.6,6c0.7,1.5,1.1,2.8,1.1,3.9c-0.1,4.9-2.4,8-6.9,9.1
				C1026.3,415,1022.1,415.4,1016.9,415.4z"/>
		</g>
	</g>
	<g>
		
			<rect x="659.3" y="377.7" transform="matrix(0.6565 -0.7544 0.7544 0.6565 -51.7599 643.4721)" class="st13" width="42.7" height="1.8"/>
	</g>
	<g>
		
			<rect x="670.3" y="383" transform="matrix(0.2684 -0.9633 0.9633 0.2684 136.2488 947.1046)" class="st13" width="42.7" height="1.8"/>
	</g>
	<g>
		
			<rect x="703" y="362.5" transform="matrix(0.985 -0.1724 0.1724 0.985 -55.6328 127.0795)" class="st13" width="1.8" height="42.7"/>
	</g>
	<g>
		
			<rect x="714.1" y="357.3" transform="matrix(0.8151 -0.5793 0.5793 0.8151 -87.1448 484.1885)" class="st13" width="1.8" height="42.7"/>
	</g>
	<g>
		
			<rect x="721.8" y="347.8" transform="matrix(0.4867 -0.8736 0.8736 0.4867 48.5382 820.8306)" class="st13" width="1.8" height="42.7"/>
	</g>
	<g>
		
			<rect x="724.7" y="335.9" transform="matrix(6.360119e-02 -0.998 0.998 6.360119e-02 322.9759 1058.6273)" class="st13" width="1.8" height="42.7"/>
	</g>
	<g>
		
			<rect x="701.8" y="344.3" transform="matrix(0.9283 -0.3718 0.3718 0.9283 -76.5108 293.5739)" class="st13" width="42.7" height="1.8"/>
	</g>
	<g>
		
			<rect x="694.3" y="334.6" transform="matrix(0.6781 -0.7349 0.7349 0.6781 -16.1939 633.9437)" class="st13" width="42.7" height="1.8"/>
	</g>
	<g>
		
			<rect x="683.5" y="329" transform="matrix(0.2961 -0.9552 0.9552 0.2961 181.0229 905.3471)" class="st13" width="42.7" height="1.8"/>
	</g>
	<g>
		
			<rect x="691.7" y="308.1" transform="matrix(0.9896 -0.1436 0.1436 0.9896 -40.1389 102.8743)" class="st13" width="1.8" height="42.7"/>
	</g>
	<g>
		
			<rect x="680.4" y="313.1" transform="matrix(0.8316 -0.5553 0.5553 0.8316 -70.9934 434.6495)" class="st13" width="1.8" height="42.7"/>
	</g>
	<g>
		
			<rect x="672.4" y="322.4" transform="matrix(0.5119 -0.859 0.859 0.5119 33.4031 746.1478)" class="st13" width="1.8" height="42.7"/>
	</g>
	<g>
		
			<rect x="669.2" y="334.2" transform="matrix(9.260806e-02 -0.9957 0.9957 9.260806e-02 254.0361 989.7577)" class="st13" width="1.8" height="42.7"/>
	</g>
	<g>
		
			<rect x="650.9" y="366.7" transform="matrix(0.9386 -0.3451 0.3451 0.9386 -85.5532 254.5941)" class="st13" width="42.7" height="1.8"/>
	</g>
	<g>
		<g>
			<path class="st93" d="M697.6,415.6c-32.6,0-59.1-26.5-59.1-59.1c0-32.6,26.5-59.1,59.1-59.1c32.6,0,59.1,26.5,59.1,59.1
				C756.7,389.1,730.2,415.6,697.6,415.6z M697.6,306.1c-27.8,0-50.4,22.6-50.4,50.4c0,27.8,22.6,50.4,50.4,50.4
				s50.4-22.6,50.4-50.4C748,328.7,725.4,306.1,697.6,306.1z"/>
		</g>
	</g>
	<g>
		<path class="st96" d="M697.6,314.4c23.2,0,42.1,18.9,42.1,42.1c0,23.2-18.9,42.1-42.1,42.1c-23.2,0-42.1-18.9-42.1-42.1
			C655.5,333.3,674.4,314.4,697.6,314.4 M697.6,307.4c-27.1,0-49.1,22-49.1,49.1c0,27.1,22,49.1,49.1,49.1c27.1,0,49.1-22,49.1-49.1
			C746.7,329.4,724.7,307.4,697.6,307.4L697.6,307.4z"/>
	</g>
	<g>
		<circle class="st96" cx="697.8" cy="356.8" r="7.9"/>
	</g>
	<g>
		<circle class="st93" cx="697.8" cy="356.8" r="5.2"/>
	</g>
	<g>
		<g>
			<path class="st93" d="M697.4,409.3c-29,0-52.6-23.6-52.6-52.6c0-29,23.6-52.6,52.6-52.6c29,0,52.6,23.6,52.6,52.6
				C749.9,385.7,726.4,409.3,697.4,409.3z M697.4,312c-24.7,0-44.8,20.1-44.8,44.8s20.1,44.8,44.8,44.8s44.8-20.1,44.8-44.8
				S722.1,312,697.4,312z"/>
		</g>
	</g>
	<g>
		
			<rect x="762.6" y="380.1" transform="matrix(0.6565 -0.7544 0.7544 0.6565 -18.1124 722.2692)" class="st13" width="42.7" height="1.8"/>
	</g>
	<g>
		
			<rect x="773.7" y="385.4" transform="matrix(0.2684 -0.9633 0.9633 0.2684 209.4832 1048.4454)" class="st13" width="42.7" height="1.8"/>
	</g>
	<g>
		
			<rect x="806.4" y="365" transform="matrix(0.985 -0.1724 0.1724 0.985 -54.5105 144.9318)" class="st13" width="1.8" height="42.7"/>
	</g>
	<g>
		
			<rect x="817.4" y="359.7" transform="matrix(0.8151 -0.5793 0.5793 0.8151 -69.463 544.5048)" class="st13" width="1.8" height="42.7"/>
	</g>
	<g>
		
			<rect x="825.2" y="350.2" transform="matrix(0.4867 -0.8736 0.8736 0.4867 99.4368 912.3639)" class="st13" width="1.8" height="42.7"/>
	</g>
	<g>
		
			<rect x="828.1" y="338.3" transform="matrix(6.360119e-02 -0.998 0.998 6.360119e-02 417.2875 1164.0529)" class="st13" width="1.8" height="42.7"/>
	</g>
	<g>
		
			<rect x="805.1" y="346.8" transform="matrix(0.9283 -0.3718 0.3718 0.9283 -70.0175 332.1673)" class="st13" width="42.7" height="1.8"/>
	</g>
	<g>
		
			<rect x="797.7" y="337" transform="matrix(0.6781 -0.7349 0.7349 0.6781 15.26 710.6785)" class="st13" width="42.7" height="1.8"/>
	</g>
	<g>
		
			<rect x="786.8" y="331.4" transform="matrix(0.2961 -0.9552 0.9552 0.2961 251.4116 1005.777)" class="st13" width="42.7" height="1.8"/>
	</g>
	<g>
		
			<rect x="795" y="310.6" transform="matrix(0.9896 -0.1436 0.1436 0.9896 -39.4205 117.7404)" class="st13" width="1.8" height="42.7"/>
	</g>
	<g>
		
			<rect x="783.8" y="315.5" transform="matrix(0.8316 -0.5553 0.5553 0.8316 -54.9575 492.4581)" class="st13" width="1.8" height="42.7"/>
	</g>
	<g>
		
			<rect x="775.8" y="324.8" transform="matrix(0.5119 -0.859 0.859 0.5119 81.7305 836.1166)" class="st13" width="1.8" height="42.7"/>
	</g>
	<g>
		
			<rect x="772.5" y="336.6" transform="matrix(9.263076e-02 -0.9957 0.9957 9.263076e-02 345.3387 1094.8679)" class="st13" width="1.8" height="42.7"/>
	</g>
	<g>
		
			<rect x="754.2" y="369.1" transform="matrix(0.9386 -0.3451 0.3451 0.9386 -80.0513 290.4099)" class="st13" width="42.7" height="1.8"/>
	</g>
	<g>
		<g>
			<path class="st93" d="M800.9,418.1c-32.6,0-59.1-26.5-59.1-59.1c0-32.6,26.5-59.1,59.1-59.1c32.6,0,59.1,26.5,59.1,59.1
				C860.1,391.6,833.5,418.1,800.9,418.1z M800.9,308.6c-27.8,0-50.4,22.6-50.4,50.4c0,27.8,22.6,50.4,50.4,50.4
				s50.4-22.6,50.4-50.4C851.3,331.2,828.7,308.6,800.9,308.6z"/>
		</g>
	</g>
	<g>
		<path class="st96" d="M800.9,316.8c23.2,0,42.1,18.9,42.1,42.1c0,23.2-18.9,42.1-42.1,42.1c-23.2,0-42.1-18.9-42.1-42.1
			C758.8,335.7,777.7,316.8,800.9,316.8 M800.9,309.8c-27.1,0-49.1,22-49.1,49.1c0,27.1,22,49.1,49.1,49.1c27.1,0,49.1-22,49.1-49.1
			C850.1,331.8,828.1,309.8,800.9,309.8L800.9,309.8z"/>
	</g>
	<g>
		<circle class="st96" cx="801.2" cy="359.2" r="7.9"/>
	</g>
	<g>
		<circle class="st93" cx="801.2" cy="359.2" r="5.2"/>
	</g>
	<g>
		<g>
			<path class="st93" d="M800.7,411.8c-29,0-52.6-23.6-52.6-52.6c0-29,23.6-52.6,52.6-52.6c29,0,52.6,23.6,52.6,52.6
				C853.3,388.2,829.7,411.8,800.7,411.8z M800.7,314.4c-24.7,0-44.8,20.1-44.8,44.8c0,24.7,20.1,44.8,44.8,44.8
				s44.8-20.1,44.8-44.8C845.5,334.5,825.4,314.4,800.7,314.4z"/>
		</g>
	</g>
</g>
</svg>
