<svg id="Layer_1" data-name="Layer 1" xmlns="http://www.w3.org/2000/svg" viewBox="0 0 1337.36 739.91"><defs><style>.cls-1{fill:#e8e8e8;opacity:0.5;}</style></defs><path class="cls-1" d="M122.69,164.08c2.63,0,3,1,5.22,0s8.93-5.35,11.2-6,3.71.2.37,2-10,5.87-8.82,5.57a82.79,82.79,0,0,0,9.36-4c4.79-2.26,4.36-1.25,5.59-3.66l1.89-3.66s7.59,7.77,8.29,8.07,1,0,1.34-1,1.19-2.31,2.27-1.86.15,2.31.8,2.56,1.72-.05,3.71-.7,1-2.1,1-2.1-.21-.06,2.1-.26,9.58,2.46,11.73,3.31,8.67,1.56,10.5,2.15,2.52-1.05,5.06.31,4.42,3.15,2.53,4.1-6.62,1.66-4.2,2.26a36.82,36.82,0,0,0,9.58,1.25c3.5-.1,9.79-1.4,11.73-1.4s3.12,1.21,5,4.26,3.28,4.26,4,4.51-.7-1.45-.32-3-.38-4.46-.81-5.46,0-1.5-.86-3-2.26-1.2.33-2.45,4.35-3.1,7.48-2.71,4,4.37,6.67,4.66,3.18,1.35,7.8,1.71,2.7.05,7.86.4,3.29-.56,4.36-3.21,2.26-3.16,3.5-3,5.59.7,5.59,1.25-1.83,3.4-.91,4.81,4.63,3.71,4.63,3.71-.8-3.21-.8-3.56-.27-2.85.26-3.31,3.61.25,5.55-3.51-1.3-3.56-1.3-3.56-1.18.06-.59-1.5,4-2.5,4-2.5.22.7-.21-.56-2.69-1-5.11-1.15-4.09-.5-4.52-2.55a59.75,59.75,0,0,1-.59-9.33c0-3,2.37-1.9,2.79-3.55s-.11-9.72-.69-11.38.85-5.22,1.18-7.57,2.74-1.3,2.74-1.3c-.43-.81.7-3.06,3.93-4s9.37,0,9.37,0-.54.05-2.05,2-.53,5.42-2.8,7.87-8,1.66-8,1.66,1.78,4.06,1,5.35a16.07,16.07,0,0,0-1.24,4s5.06,1.4,5.33,4.61,2.79,3.76,3.39,6.71-2.48,5.42-1.83,5.87.86.65,2.69.75,4.3.45,4.3.45a3.08,3.08,0,0,0-.1,3.11c.91,1.6.21,2.6.32,4.31s1.13,3.15,1.55,2.86,2.43-4.67,2.86-6.62.76-3,1.61-3,3.77,2.66,4.09,3.61.54,2.26-1.07,4.86-1.45,3.81-.05,4.81,1.45.71,4,1.91,2.05,1.1,3.6.65-.64-4.41-.48-4.51,3.72-.5,2.91-2.51-1.62-3,0-4,2.85-1.8,2.85-1.8a19.29,19.29,0,0,1-2.09-4.71c-1.19-3.36,1-2.45,5.65-2.11s4.84,2,7.32,3.21.91,1.7,1.71,3.71-2,2.3-2,2.3-1.88.35-1.45,1.91a27.74,27.74,0,0,0,2.64,5.81c1.34,2.41-.38,4.06-2.48,6a10.15,10.15,0,0,1-7.05,2.55c-2.48.05-3.55,1.05-3.71.35s-1.35-1.35-2.69-1-4.42,1.51-3.34,1.9,3.93.31,2.74,2.51-2.21,2.21-4.57,2-4.57-.25-6.09-.36l-8.93-.55a50.58,50.58,0,0,0,9,4.31,19.33,19.33,0,0,0,8.19.5s-1.62,3-3.56,6.22-3.77,1.8-5.38,2-2.59,1.51-5.6,1.91-9.31-.86-8.34-.4,1.4,1.25,3.12,1.5a7.35,7.35,0,0,1,4.31,1.81c1.5,1.25-1,1.55-3,1.9s-2.53.7-3.45,2-4.31,6.12-5.38,7.62a16.59,16.59,0,0,0-2.48,7c-.43,3-2.95,6.51-1.82,7.26s5.37.86,7.15,2,3.77,6.51,5.11,8.57,2.43,3.61,3.93,2,4.47-1.2,7.27-.19,8.5,4.95,10.28,6.71,4.89,1.45,8.39,1.95S314.4,247,314.4,247s3.65.19,2.14,1.74-1.94.05-.43,2.66a11.73,11.73,0,0,1,1,7.87c-.43,1.75,4.83.87,7,2.17s2.32,6.6,3.46,5.95,3-1.81,3.23-3.21a27.71,27.71,0,0,0-.27-5.67c-.22-2.4-.81-6.81-2-8.57s2.13-2.45,1.59-3.2-.41-2.26,1.85-2.86,2.42,0,3.66-1,1.45-5.41,1.66-7a17.24,17.24,0,0,0-.91-6.36,41.2,41.2,0,0,0-3.54-6.37c-.82-.9-1.84-1.15.37-4s.91-2.2.59-3.05-.8-3-1.23-4.86.91-4,.1-6.72-1.67-2.1-1.5-2.71,5.27-.45,9-.05,5.27-.4,6.34-.4,3,1.06,5.12,2.41,2.9,1,4,2.65,1.67,2.56,3.87,2.46a11.89,11.89,0,0,1,4.58.95s-1.56.91-1.29,3.86-.32,5.11-.27,6.31.65,1.26,1.66,1.41,3.78,2.6,6.62,3.61,3.61.7,4.52-1.61,1.14-2.1,2.27-2.25,1.5.25,2-.25-.86-1.51-.54-3.11a11.21,11.21,0,0,1,3.18-4.91c1.28-1.2,2.2,1.21,3.33,3.41s5.06,9.37,6.19,11.72,2.59,2.51,1.24,4.72-2,3.15.11,4.15,4,2.76,3.82,4.41-.6,1.71.11,2.16,3.23-.9,5.06-.1,4,1.56,5.32,2.85,1.19,1.76-.64,2.41a31.75,31.75,0,0,0-4.58,1.85c-.92.56-2.37,1.61-2.31,2.46s-.38,2.26,1.08,1.15a19.37,19.37,0,0,1,5.54-2.7c1.72-.5.43-.05,2-.25s3.07.75,5.22,1.35,1.56,2,1,3.21-1,2.45-.16,3.86-.37,2.65-2.26,4.36-3.28,1.95-6.35,2.35-4.53,2.26-6.67,4.26-3.23,1.5-6.35,1.65-1.89-1.55-2.85-1.2-2.21,1.41-4.2,1.61-8.73.3-11.31,1.05-1.77,2.5-2.42,4-1.67.85-3.6,1.5-4.26,3.51-6.51,7.42a24.32,24.32,0,0,1-5.33,6.31,16.9,16.9,0,0,0,5.38-4c1.56-1.9,8.07-6.41,10.06-7.81s6.3-3.46,7.32-3.16,3.56,2.26,3.56,3.26-.76,1.8-2.59,3.5-4.25,0-4.09.7a4.71,4.71,0,0,0,2.85,2.66c1.4.35,1.34,2.06,1.34,2.91s-.8,1.95,2.42,4.66,5.5,2.91,7.87,2.75,1.13.81,2.1.71,1.18-1.95,1.5-3.46a6.35,6.35,0,0,1,1.72-3.56c.87-.65,1.51-1.85,1.78.46s-1,5.46-2.21,6.16-1,1.6-1,2.3-1.4.75-4.74,2.61-4.42,2.3-5,2.05-1.83.31-3.44,1.76-3.33,3.41-4.52,3.35-2.21-.55-.59-2.2,2.16-4,3.76-4.76a6.5,6.5,0,0,1,3.72-.7c1.34,0,.7-.81,1.77-1.6s-.81-.56-2.64-.86-.42-1.91-.42-1.91l-1.89,1a24.46,24.46,0,0,1-3.61,1.61c-.74.09-.58.59-.8.9s-2.91.5-2.91.5-1.4,2.85-3.5,3.25-.64.25-2.15.9-1.23-.75-1.56-.35a9.75,9.75,0,0,1-2.25,2c-1.68,1.26-2.65,1.65-3.83,6.22s.21,6.21.16,6.91-2.1-.45-2.68.1-2,2.26-3.72,2.76-5.28,1.4-6.08,2.25-.87,2.06-1.24,3.81a38.73,38.73,0,0,1-2.48,5.87,2.84,2.84,0,0,0-1-2.86c-1.45-1.2-1.23-2.31-1.23-2.31a7.54,7.54,0,0,0,.21,3.36c.55,1.7,1.61,3.41,1.13,5.26s-1.4,4.17-2.52,4.81.26-1.25.26-2.75-.75-1.61-1.24-2.35-.48-2.66.38-5.22-.81-1-1.78.7-1.66,4.86-.16,6.92-1,1.85.06,4.81-1.24,4.41-.82,4.86,1.62-.2,2.16,1.25-1.07.81-1.61,1.21-.28.95.05,1.75,1,.3.7.55a5.84,5.84,0,0,1-2.42,1.71c-1.4.45-1.51-.26-2.37.75s-1.5,1.9-2.42,3.05-1.56.76-2.53,1.56-1.34,1.45-2.53,2.45-3.87,2.56-5.33,4.51-1.08,2.46-1.78,5.62,1.78,8.67,3.34,13.88,2.21,3.76,2,5.41a8.86,8.86,0,0,1-2,4.81c-1.12,1.16-1.76-.8-3.32-1.95s-.33-2-1.83-4.36a8.45,8.45,0,0,1-1.57-5,22.08,22.08,0,0,0-1.23-6.16c-.81-1.92-2.54-4.32-5.12-3.36s-1.93.5-3.33.09-5.11-1.9-7-.9-7.85-.3-9.1,0-2.15.41-2.15,1.26-.53,1,1.67,1.6,1.89,1.25,1.73,2.2-1.78-.5-2.65-.85-1.66.7-3.17.7-1.78-1.45-3.12-1.65a11.36,11.36,0,0,1-3.18-.5c-1.29-.51-3-1.35-4.52-1.25s-7.32,4-10.06,6-4.85,4.06-5.49,5.71-.7,1.81,1.51,4.26,1.18,2.06.75,3.46-1.72,3.11-3.28,6.72-.65,5.36,1.23,8.82a32.42,32.42,0,0,0,5.06,7.41c1.51,1.46,2.58,3,3.88,3.56a5,5,0,0,1,2.15,1.36c.59.6.43.85,2.48.3s3.55-1.36,5-1.36,2.81,0,3.61.81.91.3.91-.1a10.32,10.32,0,0,1,.86-2.31c.22-.4,2.16-3.16,2.48-4.66s.32-4.51,2.21-4.71,5.91-1.15,9.58-.9,2,2.05,1.07,3.95-1.35,2.11-1.35,3.56.44,1.46-.74,2.31-.44-.5-.92.35a7.81,7.81,0,0,1-2,1.86c.21-.2.75,1.44.75,2.25s-.16,1.2-.16,3.16-3.82,4-3.82,4a7.52,7.52,0,0,0,3.44.8,15.74,15.74,0,0,1,6.67,1c2.16,1,6.24-.8,9.26.7s1.94,2.41,2.15,3.81a43,43,0,0,1,.33,7.32c-.22,1.1-1.62,4.21-2.37,6.41s2.15,3.81,4.85,5.62a22.51,22.51,0,0,0,6.46,3c1.38.4,4-2.1,8.71-1.8A7.47,7.47,0,0,1,336.4,467a20.47,20.47,0,0,1,2.69-5.92c2.16-3.4,2.26-4.41,5.16-5.51s3.88-1.3,8.62-2.8,3.87-.4,6.34-.2A69,69,0,0,1,373.1,455c5.71,1.7,14.43,2.21,17.76,3.61s4.85,5.32,8.29,8.52,7.75,6.11,9.58,7.62,12.06,2.91,14.32,3.81,5.38,4.6,5.59,6.81,2.48,3.31,5.59,4.61,4.1,2.81,6.15,6.82,1.39,5.11,4.19,6.11,22.18,6.21,27,8.12,11,7,12.6,7.62,4.52-.51,5.82.2-.76,4.51.86,7.21,1.72,2.91.75,4.92-4.85,6.81-6.35,9.22-4.74,3.91-6.56,4.92-3.45,0-1.84,2,.11,3.7-1.29,5.51.11,1.6-.32,7.42,0,12.12-.65,14.63-4.41-2.21-8.72,3.21-5.48,9.52-8.07,10.12-8.61,3.61-10.65,5.51a12.9,12.9,0,0,0-3.77,5.42c-1.29,2.8-2.58,8.51-4,12s-3.66,5.52-8.83,10.22-7.43,9.53-10.77,13.24-2.47,2.9-3.17,3.61c-1.78,1.78-9.13-2.89-7.23-.3,1.4,1.9-.79,0,.39,1.8s2.05,2.5-.53,5.71-5.57,2.58-7.61,3.08-5.1-2.11-5.31-.8-1.4,4.54-3,5.34-5.92,2-5.81,2.51c2,9.49,6.21,10.48,1.79,10-12.14-1.18-3.48-4.07-11.92,13.6-1.28,2.71-2.57,1.3-2.36,4.51s0,5.61,1.73,7.62.53,1.9-2.37,4.61-3.13,2.31-5.82,6.42-5.27,3.9-4.31,7,1.19,7.72,2.8,12.33,4.95,3.8,10.23,7,5.92,1.5,8.5,2.3-1.83,1-6.46,1.8-7.64,1.71-10.87,1-10.86-5.11-13.45-7-6.78-5.31-8.29-8.62-2.58-6.61-4.52-11.12-.54-7.32.33-17.24,1.5-17.64,2.9-23,5.71-29,6.89-35.09,6.67-31,7.1-34.88a94.07,94.07,0,0,1,1.62-10.83c.86-3.9.32-11.83.32-12.22s-.32-.7-1.51-4.41-3.12-5.22-5.81-6.82-5.49-3.61-7.64-5.11a32.66,32.66,0,0,1-6.89-6.31c-2.16-2.71-4.2-8.22-5.27-10.53a141.52,141.52,0,0,0-8.72-15.53c-3.66-5.42-3.88-5.52-5.71-11.24s1.62-5.81,2.26-9,2.8-6.41,5.17-10.92,5.49-5.81,7.32-9.82.43-4-.22-7.92.22-3.3-1-5.41-1.82-4.71-2.9-5.41-2.69-1.21-3.66-.1-2.69,4.3-3.77,4.51-1.51-1-2.15-1.71-3.77-.7-4.41-1.4-2.26-.81-3.33-1.3a47.69,47.69,0,0,1-6.47-3.71,8.63,8.63,0,0,1-2.69-6c0-2.6-2.25-3.61-7.31-7.21s-7.22-4.12-13.36-5.62-8.6-5.81-10.65-7-1.83-2.51-6.35-2-10-2-13.46-3.41-9.58-2.4-12.16-4.1-7.1-2.31-9-6.42-1.62-2.51-.86-6.11-4.41-6.62-7.54-10-5.49-3.9-7.1-8.12-4-4-7.1-7-3.23-6.82-4.53-10.23-9.89-8.32-9.89-8.32,2.25,5.72,3.22,8a86.69,86.69,0,0,0,5.82,11.93c2.58,4.11,4.84,5.11,7.21,9.22s.11,6.62-.76,5-4.3-2.31-4.3-4.22-.86-3.1-1.62-4.6-4.09-3.22-7.32-5.83-5.48-3.8-3.44-3.8,4.95,1.9,4.41.7-4.2-4.91-5.92-7.52-2.26-5.51-4-9.92-8.07-8.62-11.2-8.92-4-1.8-5.05-5-1.29-6.62-2.69-9.12-7.43-10.93-7.54-14.13-1.83-12.53.32-17.75,1.62-16.83,1.3-19.14-4.21-6.71-4.21-8.42,2.27-.7,4-.21,5.38,2,5.38,2-2.79-5.21-4.52-7-6.78-4.11-9-4.62-5.16-1.3-6.35-3.2-2.47-4.41-3.34-6-4.52-3.5-5.37-5.21-.65-5-1.84-6.71-2.91-2.71-4.85-2-2.57-1-4.08-3.51-4.84-3.7-5.81-4-4.31-4.72-4.52-5.82-5.5-6.92-7.22-8.12-18.4-6.61-18.83-6.61-5.28.7-6.57.3-5.7-4.21-8-5-3.89.9-5,3.41-6.35,6.81-9.26,8.71-5.28,2.11-5.06,1.11a19.2,19.2,0,0,1,1.08-5c1-2.4,1.51-3.1,4.52-4.61s2.9-1.6,1.72-1.5-2-.2.32-1.6,3.34-1.61,3.23-2.81-5.17,1.61-8.4,4.21a29.34,29.34,0,0,0-8,9c-2.8,4.61.32,2.91-2.05,5.91s-10.43,9.13-12.8,11.43S26.2,256.3,22.21,257.5s-5.59,1.71-7.53,3.31-6.78,2.1-5.17,1,4.63-3.61,6.68-4.81a88,88,0,0,1,9.14-4,29.47,29.47,0,0,0,8.4-5.91A51.63,51.63,0,0,0,39,239.26c1.51-2.41,1.83-3.51-1.28-2.51a13.12,13.12,0,0,1-8,0c-1.62-.6-5.82,1.91-7.32.81s.11-3.41-.87-4.52-4.3-.39-6.45-.8-5.17-2.1-5.17-5.11-2.15-5.61-1-7.92,2.91-2.91,4.85-4.2a27.87,27.87,0,0,1,8.39-3c1.08,0,2.59-1.11,3.55-2.11s-2.26-4.61-2.26-4.61.54-.4,1.83-1.2.33-2.51-1.94-2.21-7.1,2.61-10.11,3.41-7.1.3-7-1S7,202.17,6,201.17s-1.94-2.11-.86-2.6,7.75-4.21,7.75-4.21,2.37,2.6,5,2.9,8.07-4.51,8.07-4.51c-3.44-2.1-2.69-2.7-2.69-2.7s-5.6-.1-6.89-.91-1.72-2.4-2-3.8-5.81-2.51-4.31-4.82,4.31-3.1,6.14-5.41,3.44-6.62,8.72-9,11.62-4.61,14.42-6.62,4.09-.09,5.17.2,7.75-.29,10.33-.29,3,2.9,3.87,3.6,23.58,1.4,23.58,1.4,19.26.31,23.14,1.41,10.87,4,10.87,4C120.43,169.25,120.06,164.08,122.69,164.08ZM381.5,47.81s-1.94,8-9.68,10.23-22,8.42-22.61,8.82.86,4.81,2.79,7,3.77,3.71,5.49,5.92,4.74,2,7.11,4.31,4.08,1.5,10.55,1.6,4.73.6,12,1,14.74,1,17.22,3.2,6,10.83,8.29,16,6.24,13.83,6.24,14.64-2.48,7.11-2.48,8.11,1.29,2.71,2.48,4.11.54,2.51.32,3.81,1.29,4.61,1.51,5,3.44-3.2,5.49-3.81,7.1,3.61,7.1,6.52c0,6.59,1.8,4.34-8.93,12.13-1.41,1-2.8,8.92-1.72,12.72s3.66,8.33,5.7,13.74,8.07,13,10,16.54,2.48,8.32,6.78,9.42,8.4,2.61,11.52,3.31,5.16,1.7,6.67-1.21,4.52-13.93,7-22-.22-10.42,5.59-12.22,15.07-5.42,17.55-6.52,2-9,7.53-11.63,6.24-2.4,11.63-4.11a73.28,73.28,0,0,0,18.3-8.92c5.38-3.81,6.88-1.8,8.82-5.31s-1.94-8.62-2.36-13.83,1.72-5.52,2.79-10.23,1.62-7.82,5.81-11,6.46-5,5.71-8-2.9-7.52-2.9-10.83.75-1.4-1-6-1.73-5.21-.12-9.52,5.93-3.21,5.6-5.12-6.89-4.8-7-10.12,1.18-6.91,2.26-8.22,12.05-10,12.81-10.82-.22-3,5.16-5.62,7.22-4.3,9.26-5.11,5.28-.7-1-2.5-7.64-2.61-11.73-2.11-5.48,2.81-12.81,3.52-15.61,4.1-15.61,4.1,2.48-2.2.33-4.31,5.59-9,6.89-9.83-10.12-3.6-16-4.7-17.54-4.61-24.21-4.12-16.47.41-19.81,1.51-2.9,5.41-6.67,5.62S464.38,10.83,459,11.63s-14,4.51-15,4.71,3.35,2.81,6.14,3.41,6.46,6.42,6.46,6.42-7.53-2.51-15.18-4.62-16.58,0-19.7.91-7.21,2.6-13.45,2.9S395,30.78,391.4,33.18,376.77,42,374,43.5s-1.72,2.21,1.3,3S381.5,47.81,381.5,47.81ZM222,130.67c.85,3.68.85,9-1.16,6.69s-3.66-6.89-6.88-5-6.75,1.34-6.17.94-.08-2.41-1.73-3-2.65.34-4.37,1.34-7.18,2.34-5,.6,1.5-2.67.71-4.68-6.46,1.4-9.47,3.55-4.8,5.41-6.6,7.61-.5,3.62,2.22,4.41,7.11,1.34,3.45,2.68-6.46,2.27-4.59,3.41,5.09,1.33,8.32.93,6-1.27,11.12.14a32.27,32.27,0,0,0,8.25,1.33,16.42,16.42,0,0,1-5.38,1.81c-3.44.59-9.76,0-13,.59s-8.32,1.47-7,2.68,2.3,3.07,6.74,4.47,5.25.07,7.9.74,1.22,3.67,1.94,4.14,5.74-.4,10.76-1.33,3.16-1.74,7.11-2.75,4.08-4,6.38-4.67.65,1.54,3.37,2.2,1.22.87,4.17,1.34,2.36,1.61,5.23,1.4,6.25-2.13,5.81-2.47a2.5,2.5,0,0,1-.56-2.54c.28-1.33-2.88.27-4,.94s-1.07-1.81,1.36-3,4.61,0,6,0,.14-4.15-2.45-4.81-3.72-2.27-7.6-4.41-1.87-3.07-3-5.88-3.6-11.1-5.75-12.56-4.45-1.07-6.6-2.54A14.56,14.56,0,0,0,222,130.67ZM162.43,125c.93,2.67,1.07,1-.79,3.93s-.8,4-2.09,6.22-4.73,5.15-3.66,6.62,4.52,2.33,6,3.47,2.87,3.47,5.45,2.61a28,28,0,0,0,5.24-2.41c1.8-.93,3.3-2,3.23-4.35s-.14-3.46.58-3.27,1.86,1.27,2.43-.26a14.23,14.23,0,0,1,2.8-4.75c1.22-1.2,4.74-2.4,6.39-3.81s4.45-2.93,5.24-4.14-1.44-2.14-2.8-2.67-2.94-2.67-6.1-2.67-4.88,2.4-4.74,1.33-2.15-1.6-3.44-2.07-2.51-1.2-6.6-.73a44.92,44.92,0,0,0-9,1.67C157.69,120.52,161.49,122.32,162.43,125Zm93.42,32c-.42.6-2.29,1.2-3.44,2.54s2.44.6,3.58,1,2,1.54,2.95,1.88,5.95.53,8-.48,2.29-1.33,2.07-1.8a31.35,31.35,0,0,0-7.32-6.08c-3-1.6-3.08-1.67-3.73-1.27S256.28,156.4,255.85,157Zm-13.56-31.27c-1.95,1-3.36,2.13-.07,3.81s4.38,3.07,6.6,4.48,3.16,5.41,7.82,3.61,6.53-3.95,7.18-5.82-.65-2.27-1.79-4-1.44-2.47-3.81-2.21-3.16.27-3.16.27a13.29,13.29,0,0,1,4.17-3.27c2.58-1.27.42-2.14,1.64-3.34s-3.08-1.81-4.94-1.34-1.94-.13-5-.27-8,2.68-7.75,3.68,2.51.6,4.67,1.8,2.79,1.07.64,4.48-3.3-.8-4-1.34S244.3,124.73,242.29,125.73Zm-13.77-6.15c-3.23.31-4.32,2.54-3.09,2.88s2-.34,3.94,1.73,3.66,3.21,4.45-.2S233.46,119.11,228.52,119.58ZM176.7,93.72c-3.59,2.88-4.3,5.15-7.1,7s-2.15,3.35-1.22,4.34,3.73-.06,5-.73,2.37-2.34,3.16-1.33,4.09-3.41,5.38-4.89,3.3-3,3.67-2.93-1.23,1.74-.65,3.14,3.15,1.47,5.45-.94.22-4.61,2-6.48,3.3-1.61-.21-3.28-5.75.21-6.47,1.08S183.74,88.11,176.7,93.72Zm21.89,4.55c-2,.09-2.94.4-6.32,1.87s-4.8,5.28-5.59,7.35.36,2.07,3.45,3.27,7.39-.33,8.39-3.21,2.23.67,1.65,2.14,2.15.14,3.45-.54,5.16-.93,5.45-.93-3.16,2.61-6.54,3.74a46.64,46.64,0,0,1-7,1.87c-.93.14.87,1.54,4.81,2.35s6.32-2.41,12-4.55,5.38-2.54,7.24-2,3.88-.94,6.17-1.48,3.23.34,4.24-3.07,2.8-6.68-.43-6.89-3.45-.19-3.88,3.48-.72,1.41-.72,1.41-2.15-3.21-3.44-4.89-2.22-4.27-3.66-5.67-2.08.6-4.3,3.07-.43,3.41,1.79,4.48,3.8,3.81,2.73,4.54-2.3-.13-6.39.34-4-1.27-5.1-1.81,1.94-1.67-2.44-3.47S200,98.19,198.59,98.27Zm-13.28,3.47c.46-.77-5.44,3.48-6.34,4.84s.9,1.14,2.69,1.07S183.81,104.31,185.31,101.74Zm11.35-8.85c-1.48.66-1.48,1.16.92,1.43s3.81-.8,3.31-1.8S197.84,92.35,196.66,92.89ZM208.89,80.2c-1.58.26-6.24,1.9-6.5,2.69a6.34,6.34,0,0,0,.76,3.92c.72,1.36,1,1.57,5,.5s6.79-3.14,5.45-3.51a28.56,28.56,0,0,0-3.32-1.14c-1.19-.17,1-.8,3.69-1.63S217.5,78.75,208.89,80.2Zm-13.6,2.1c-1.13.52-1.54.53.83,1.43s4.91.84,4.59.1A4,4,0,0,0,195.29,82.3Zm9.25-6.59c-2.24.89-2.75,2.51-3.26,3.14s2.55-.46,3.95-.8,1.72.5,3.09-.7,4.05,0,6.49-.51,2.83-2.13,2.3-3.53S211,73.17,204.54,75.71Zm24.33,6.05c-.66.32-.43,1.37.15,2.61s.72.93,1.93,1.4a9.47,9.47,0,0,1,2.73,1.74c.29.3.46.4,1-.8s-.25-1-1.62-2.61S230.6,80.92,228.87,81.76Zm8.29,10.49c-1.86-.5-2.9.57-3.59.9s.36,1.1.83,2.54.07,1.91,2.79,2.11,3.56-.31,3.77-2S238.88,92.72,237.16,92.25Zm10.59,3.14c-1.69-1.24-2.52-2.24-4.24-1.53s-.29,1.56-.29,2,2.08-.07,2.12,1.06.68,1.6-1.83,1.74-3.2,0-4.16.77,1.87-.1,2.73,1,2.33,1.27,4.73.91,5.67-.91,5.67-.91a19.39,19.39,0,0,0-2.48,2.84c-.71,1.17-1,2.84.25,3.68s1.4-.87,4.89-.94,4.52-1.87,4.52-1.87a3.28,3.28,0,0,1-.69-2.5,7.2,7.2,0,0,0,0-2.14,14.74,14.74,0,0,1,1.72,1.4s-.25-1-.75-2.91-.11-2-.65-4.54-.43-3.08-3.05-3-4.41,1-6.57,1-3.09.39-1.5,1.2,1.8,1.77,2.54,2.67.61,3.07.65,3S247.75,95.39,247.75,95.39Zm-13.1,9.52-.12,0a3.11,3.11,0,0,0-1.53,2.59c-.07.88,1.44.37,3.84-.46S238.06,103.82,234.65,104.91Zm33.87-4.54a17.82,17.82,0,0,0-4.74,3.84c-1.14,1.31-.14,1.47,2.84,3s6.17,1.8,7.56.23S273.54,97.63,268.52,100.37Zm13.84-11.66c-3.81.38-2.63,1-7.05-.5a41.34,41.34,0,0,0-11.46-1.61c-1.51,0-.8.71.76,3.27s2,3.45,5.22,2.65,5.86-1.35,8.23,2,3.61,4.47,1.67,5.72-1,3.25.11,5.86,3.71,2.5,7.32,2.5,26.42-.34,30-1,6.73-3.65,8.62-5,2.9-3.46.32-5-6.25-3-9.15-3-5.38,1.51-9.8,2-3.44,2.56-7.42,2.66-2.05,1.85-6.95-.16-8.5-4.51-6.18-4.86,4.19-.65,2.9-1.75S285.92,88.36,282.36,88.71ZM236.73,70.07c2.37.8,3,1.4.32,2.1s-4.68,2.55-2,2.2,4.9.26,8.28.81,3.12.2,4.63,2.1,3.12,1.91,5.44,1.36,2.63-.71,1.13-2.36-3.07-4.71-5.11-5.91-3.77-2.91-5.82-2.71-2.52.25-4.3-2.15-3.17-1.26-5.76-.61-3.41,2.5-4.41,3.31C227,69.87,234.36,69.26,236.73,70.07Zm31-24.56c-2.8,3.51-5.06,6.46-1.89,6.81s4.58-.25,4.79.76-.54,1.7-5.27,1.7-3.28,1.06-.65,4.16,2.91,2.05,7,2,5.38-1.55,8.72-.69,4.36,1.7,1.34,2.6-10.12,2.6-8.5,4.11,6.62,5.11,8.88,5.46,2.74-1.5,7.64-1,3.72,1,4.25-.3,3.23-4.81,3.77-6.07,1.89-2,4.57-2.65,3.56-1.45,1-2.36-5.38-1.3-5.11-2,1.83-2.76.74-3.81-2.79-1-4.19-1.56-3-3.1-4.74-4.2-3.33-1.21-5.49-2.86-5.59-5.69-9.9-5.46C271.77,40.3,270.53,42,267.73,45.51Zm-5.49,29.32c-1.08.55-3.77.65-1.77,2.3s1.45,1.71,4,.76,6.19-3.32,6.52-4-2.53-2.05-4.47-2.65-3.28-2.15-7.32-3.26C253.3,66.36,263.31,74.27,262.24,74.83ZM393.91,22.69c-4.45-1.2-20.38-4.28-25.54-3.08s-4.89-2.67-12.06-1.73-18.22.4-21.67.93,1.72,2,3.59,3.21-8.9-1.33-17.08.94-13.49,3.47-4.73,6.81,9.9,4.28,9.9,4.28-11.2-2-15.93-3.88-2.15-1.73-11.06.8-17.5,3.88-17.07,6.55,7.18,6.29,11.62,7.22,13.64-1.34,14.36-1.61-3.59,3.62-3.59,3.62,4.59-.94,9.75-2.28,9.19-2.8,14.07-4.54a43.53,43.53,0,0,0,5.74-2.27s-8.46,6.55-14.35,8.82a64.65,64.65,0,0,1-17.08,3.88c-3.58.13-3,2.4.58,4.27s6.31,5.88,8.18,7.21a5.64,5.64,0,0,1,2.15,3.48,10,10,0,0,0-11.77,0c-6.17,4.41-5.31,6.68-3.73,7.22s7,1.07,8,2.94,8.18-1.74,8.18-1.74-3.58,4.54-7,4.54-3.3-2.94-8.32-2.4-4.74,1.74-2.58,3.47,3.88,2.28.14,4-5.45,2.27-5.6,4.41,4.88,2.13,8,2.13,6.17-.27,11.91-.4,5-2,7.18-2,4.3.66,3.44,2.8.86.81,7.18-1.47,3.44-5.75,3-7-2.74-1.6-4.17-2.27,4.31-6.55,3.44-8.55,7-.41,10.62-5.08,2.3-8.15-.28-8.95,4.74-.27,7-1.61,7.32-2.94,9.33-5.48,2.72-3.47-2.15-2.94,7-2.13,12.77-5.88,12.34-8.15,13.77-9.22,2.74-.54-4-.13-14.78-.54-10.33-1.07,17.66-2.14,21.1-4.68A41.66,41.66,0,0,1,393.91,22.69Zm-80.36,92.75c-7.19-.67-17.65-2.41-19.81,3.74A191.59,191.59,0,0,0,288,141.5c-.28,2.54,8.61,6.28,14.78,6.55s16.22.66,14.21-.8-.29-2.28,5.45-2,6.32-1.2,6.32-2.4,1,1.46,5,3.6,7.47,8.16,11.06,11.63,11.62,8.15,10,10.83,1.72,12-10.63,14.17-13.05.66-12.91,3.47.71,4,5.6,4,11.62-4,13.92-1.07a14.72,14.72,0,0,0,7.47,4.68c2,.67-2.45,1.86-3.6,2.27s2.45.8,9.48,4.14,15.49,3.74,11.33,1.34-6.17-6.82-8-8.29-.15-.27,3.16.54,6.31,3.47,7.74,4.67,2.16-.39,3.16-5.08-.43-4.67-6-8.41-7.32-6.68-7.89-9.36,2.87-3.21,4.31-5.08,5.45,3.34,8.18,6.41,5,8.43,7.17,4.55,4.16-12.56,4.16-14.57-2.15.13-11.33-4.41-13.93-6.28-14.78-6.28,2.43-1.74,6.46-3.74,5.73-1.73-2.88-9.89-11.05-9.89-16.65-10.43-7.17-6.41-11.19-8.41-13.35,2.4-16.08,3.07-1.86,1.73-5.31-3.21S313.55,115.44,313.55,115.44Zm6.45,0c-3.57.42,2.16,6.94,6.75,7.22s8.46-2,9.47-2.28S325.6,114.77,320,115.44Zm-16.11,66.28a34.62,34.62,0,0,0-2.26,8.23,14.66,14.66,0,0,1-1.18,4.8c-.53,1.71,1.72-.29,3.23,2.21s.85,3.21,3.55.3,5.71-3.91,9.47-2.7,6.68,1.7,5.38-.6-3-2.11-5.59-5.22-4.52-3.9-7.75-5.11S305.18,178.62,303.89,181.72ZM331,415.9c-1.12-2.31-2.79-6.07-9.77-7.37s-9.33,1.3-11.91,2.17,2.41,1.3,5.73,0,5.85-.28,6.3.32-1.12,1-1.68.32-.68,1.56,3.07,2.91,4.67,2,5,3.61.34,2.47,1.19,3.82,1.18,1.91-.39,2.5-1,.51.13,1.23a15.43,15.43,0,0,0,6.79,2.18c3.28.28,4.36.89,2.08-2.11S331.33,416.63,331,415.9Zm10.42,14.68c1.82,1.87,1.29,3.89,1.16,5s-2.08.24-5.69-.71-3.05-.49.08,1.2,5.16,1.28,5,3.53,2.88.21,4.21-1.09,1.24-.15,6.8.69,6.71,1.84,5.83-.6,2.55-2.24-2.4-4.57S339.34,428.46,341.4,430.58ZM325.55,432c-2.09-2.32-4.71-2.65-4.73-.68s.71,1.86,2.64,2.4S326.89,433.45,325.55,432ZM366,442c-2.28-.78-2.75.93-1.23,2.36s3.84.93,6.13.82S370,443.4,366,442Zm-26.19-279.7c-3,1.27-4.79,2.15-2.15,5.61s4.2,5.62,5.21,3.11S344.9,160.17,339.79,162.33Zm-24.16,37.1c-4.55.74-6,.87-5.31,3.42s1.94,2.13,5,.59S320.58,198.63,315.63,199.43Zm9.47,3.88c-.78.24-1,2,0,3.6s2.94-.53,3.8-2.46S328,202.44,325.1,203.31ZM275.44,80c-4.3.14-10.76,1.66-7.18,1.73s6.54.8,12.35.47,6.38-.73,6.53-3.54S283.34,79.69,275.44,80Zm-26.9-23.59c-4.39,1.36-3.31,2.27,1.86,4.54s5.31,1.2,4.74-3.07S251.12,55.57,248.54,56.37ZM555.27,168.22c-5.44,1.52-7.26.61-8.29,3.37s-3.16,1.27-4.39,1.62-3,8-3.83,6.88a20.62,20.62,0,0,1-2.43-4.41c-1.25-2.64.41-2.17-2-5s-7.11-2.47-7.45-1.33,3.26,2.1,2,3.39-4.15,2.88-5.26,3.81,2.13.52,4.17,0,3.42,1.52,4.25,2.94-.93,2.81-1.81,3.5,3,.53,4.49.81,2.34,1.58,1.29,3.31,4.57.25,7.67.07,3.92,2.13,8.62.66,6.93-1.37,11.21-4.54,3.94-2.42,6.78-4.47,2.16-2.67,2.28-4.93,1.87.63,1.2-2.78-4.16-2.49-6.61-2.76-2.36-2.18-3.59-2.79S560.78,166.68,555.27,168.22ZM918.56,462.64a10.74,10.74,0,0,0-.57,3.54c0,1.8-.22,3.74-.08,5.54s.26,3.08,1.26,3.48a3.33,3.33,0,0,0,3.34,0c1.65-.76,3.19-2.14,2.37-4.21a56.59,56.59,0,0,0-3.27-6.44C920.72,463,919,461.1,918.56,462.64Zm-1.31-2.48c.17.76.42.6.78,1.13s.76.07.25-.63-.44-.79-.44-.79-.63-.22-.63.42m155,106.53c0,.08-.12.13-.18.19-2.94,3-5.62,2.15-10.69,3.72s-14.1,6.82-14.75,9.12,0,2.61-.64,2.3a7.81,7.81,0,0,1-1.73-1.7,11,11,0,0,0-1.07,5.31c.32,2.51,1.5,4,1.4,7.22s-1.29,5.11-1.18,7.32,3.76,6.41,4.73,9,1.62,1.91,2.15,6.62,3,7.31.54,9.82-4.3,2-1.29,4.61,5.49,4.31,10.33,2.6,3.56-3.2,7.33-4,4.51-1.6,7.74-1.8,5.49.1,6.68-2.2.32-2.21,3.55-3.82,2.9-2,5.06-2.4,3.55,1.11,6.45-1.2.76-2.51,7.22-2.51,9.15.91,11.51,1.7,6.25,2.91,7.21,4.41,2.27,3.32,2.69,3.32,1,.09,2.48-1.41a66.45,66.45,0,0,1,5.81-4.51s-.22,3.21-1.18,4.41a5.64,5.64,0,0,0-1,3.51c0,.6,2.48-1.91,2.81-2s.64,4.41,1,4.81,1.29.19,2.26,1.5,2.26,2.31,3.23,4.81,5.06,5,7.64,5.41a21.33,21.33,0,0,0,6.78-.1c1.94-.3,2-2.61,4.09-1.7s-.1,2.8,4.74,2.41,6.13-2,8.07-3.32,2.15,1.81,4.63-1.6,2.9-2.6,3.33-6.71.33-4.92,2.69-8.83,2.92-2,4.53-7.71,3.66-11.13,3.44-15.84.1-1.6-1-6.92-.32-4.7-3.77-6.91-4.3-1.61-5.16-4.71.21-4-1.4-4-3,.7-4-1.4-.86-2.91-2.69-4.92-3.55-1.6-6.89-3.1-1.62-1.91-1.62-4.51.18-5.38-2.47-6.59-1.08.67-1.08-3.61,0-3.67-2.15-4.4-2.87-.67-4.24-3.28-3.15-6.88-3.8-8.61-1.43.2-2.3,1.46a13.49,13.49,0,0,0-2.08,6.69c0,2.6,1.15,4.07,1.15,7.55s-2.43,6.94-3.94,8.95-2.73.2-4-.34-1.57-2.47-4.3-3.8-7.74-2.54-10-4.61-.72-2.14,0-4.28a10.89,10.89,0,0,1,3.44-5.28c1.72-1.4,1.22-1.94-.93-3.14s-5.17-1.27-8.83-1.27-5.81-.27-5.6,1.81,2.37,2.86-.71,2.27-5.74-.87-7.11.59-1.65,2.35-2.44,5.49.22,3.33-1.07,3.33-6.39-2.47-8.11-3.2-2.65-.67-4.66,1.21-9,8-11.56,9.41S1074.81,558.6,1072.19,566.82Zm-95.76-90.34c-1.52-.21-2.37-.6-.5,1.8a28.71,28.71,0,0,0,4.16,4.55c1.79,1.67,2.44-1.21,3.81,2s.86,3.27,2.22,4.47,2.51,1.55,2.87,2.75a8.39,8.39,0,0,0,2.37,4.41c1.58,1.33,1.58,1.14,2.51,3.74s2.37,4.47,3.09,6.68,4.8,4.28,6.88,7,5.6,6.55,6.18,5.48,2.07,0,3.15-.4,1.44-1.94,2.16-5.68-.65-5.48-1.66-6.35-2.87-1.07-3.37-1.87-1.36-3.54-2.58-4.41-1.51.07-1.51-2.07,1.44-1.94-.36-3.14a9.65,9.65,0,0,1-2.59-2.67c-.56-.6-4.44-1.54-5.45-2.61s-5.23-3-7.24-5-4.24-3.6-4.88-5.07S983,477.34,976.43,476.48Zm41.76,43.1c-1.71,0-2.58-1-3.73,1.07s-1,2.07.79,2.07,1.44.94,1.36,1.2-.85-.2,2.8,1.27,6.25.87,7.25.33,1.37,1.34,6.39,2.14,7.68-.46,10.9.34,2.45-.4.15-2.14-2.08-.8-4.38-2.47-5.52-1.74-7-2,1.29,1.61-3.3,1-2.94.41-5.31-1.13-2.37-1.8-3.95-2.07S1018.19,519.58,1018.19,519.58Zm36.46,7.35c-1.29.4-4,1.14-2.73,1.67s.28.87,4.09.53,7.11-.8,7.6-1.6-.64-.27-2.22-.74-1.44.34-3.59.61A4.66,4.66,0,0,1,1054.65,526.93Zm13.35-.27c-2.55.31-2.23.87-.22,1.47a10.32,10.32,0,0,0,5.38.47,24,24,0,0,1,4.52-1.27c2.8-.47,3.73-.4,6-.67l2.23-.27s-.21-.46-1.72-.39-2.58.13-4.09.13-4.09,1.33-5.17,1.27-3.15-.74-3.66-.41S1070.73,526.33,1068,526.66Zm14.35,3.27-.1.07c-1.77,1.22-1.85,1.55-1.69,2.52a1.82,1.82,0,0,1-.19,1.4,7.66,7.66,0,0,0,4.6-2.13c2-2,2.08-2,4.12-2.71a15.57,15.57,0,0,0,4.36-3,12.86,12.86,0,0,1-3.39.2,6.33,6.33,0,0,0-4.09,1.4C1085.4,528.21,1086.53,528.33,1082.35,529.93Zm-15,1.06c-1.87-1.34-3.68-1.15-3.82-.33s-1.62.78,1,1.76,5.14,2.25,5,.92S1068.16,531.56,1067.35,531Zm-17.15-55.72c-1.08,1.54,1,1.14-.58,2.48s-2.79.73-4.37,2.73a22.55,22.55,0,0,1-5,4.15c-1,.74-4.24,1.6-5.67,3.54a1.91,1.91,0,0,0,.5,3s-.86.4-3.16-.47-2.43-1.94-2.43-1.94-1.66-.06-2.58,2.41-1.45,2.73.2,4.21-1.14,1.53-.79,2.54.37,2.87,1.37,3.07,1.22-.93,2.44.6.22,5.88,1.79,6.08,2.73-.46,4.09.14,2.37,1.13,4.16.53a6.14,6.14,0,0,1,4.67.54,15.28,15.28,0,0,0,5.95,1.53c1.66-.13,1.94.27,2.23-2.07s.07-4.54,2.08-6.34,2.08-1.81,2.22-3.48.15-3.41,1.37-5.15,1.94,1,2.58-.33,1.3-1.33.93-2-2.22-.68-2.94-1.94.22-1.94-.65-4.55-1.35-1.6-.14-3.07,2.23-1.74,2.37-2.87.64-1.21,2.16-2.28-.24-.56-1.68-1.63-4.12-5.08-5.79-5C1054.68,469.68,1051.27,473.74,1050.2,475.27Zm212,141.87c-.69-.51-1.28-.14.3,1.73s1.72,1.34,2.72,1.4,1.87,3.75,2.44,4.69a15.83,15.83,0,0,0,1.65,2.07s.58,4,.07,5.81-1.58,2.6-1.93,4.28,1.65,1.2,2.94,1.74,1.08.53.57,2-2,2.14-2,2.41,3,1.93,4.46.13,3.86-4.48,4.52-6.41-1.15-1.08.93-2.48,1.79-.74,2.87-2.47,2.22-3.54,1-4.48-2.58,1.14-3.66,1.54a3.76,3.76,0,0,1-3.44-.27c-1.51-.73-1.8-.73-2.37-2.07a7.58,7.58,0,0,0-1.29-2.08s-.44,2.28-1.51,1.55-.79-1.55-1.58-2.81a24.56,24.56,0,0,1-1.29-2.61c-.5-.93-.08-2.74-2.58-3S1262.88,617.61,1262.23,617.14Zm.44,24.26a27.28,27.28,0,0,0-3.8,4.2,18.32,18.32,0,0,0-2.66,4.75c-.57,1.33-2.65,2.94-6.1,4.74s-4.74,2.54-5.88,4.21-5.24,6.88-5.74,7.49,1.93,1.2,4.45,1.2,6.45,2.27,8.61-.07,4.3-7.88,5.67-9.89,2.65-2.73,4.8-4.67,5.74-5.55,5.74-7a13,13,0,0,0-.93-3.67,2.7,2.7,0,0,1-2.66,1.34C1262.31,643.87,1262.67,641.4,1262.67,641.4Zm-16.92,25.66c-2.53-1.33-3,1.15-3.43,3.7s1.09.39,3.28-.76S1246.71,667.57,1245.75,667.06Zm-85.33-17.51c-2.84-.95-2.37,1.74-1.94,3.74a14.8,14.8,0,0,0,2.08,5.27c1.08,1.68,5.09,2.28,6.68,1.55s2.72-3.21,4.3-5.55,2.29-5,2-6.41-2.29,1.26-3.59,1.86-3,2.14-5.45,1.48S1161.42,649.88,1160.42,649.55Zm-35.74-143.47c-2.29.53-3.44-1.47-5.31-5.35s-3.3-4.4-8-2.67-4,1.34-.87,2.54,3.6,1.6,4,1.6,5,.67,4,1.34-5.31,1.33-2.58,3.21,1.58.53,8.75,4.14,8.33.94,10.63,5.61,2.29,3.88.42,5.09-4.3,2.4-3.3,2.53a66.37,66.37,0,0,0,7.75.81c4.88.26.29,3.07,5.74,3.07s6.89-1.74,9-4.28,2.59-1.2,7.18-.13,6.17,5.07,11.91,6.68,8.18,3.74,4.59.4-4.88-5.74-9.76-9.62-5.16-4.28-6.6-7.22-6.46-6.42-12-8.69-8.8-2.59-15.36-4.41C1128.12,498.86,1127,505.55,1124.68,506.08Zm-37.75-13.36c-2.15,1.5-2.41.58-4-.41s-1.16,2.07-4.74.41-4.91-2.5-8.76.33-1.43,4-1.52,6-3.22,7.66-4.38,9.74-1.15,2.83-.27,4.17,2.15.82,2.68,1.49,0,5.91-.63,7.66,1.53,2.08,3.76,1.58.27-.67.27-2.5,1.07-2.66,1.07-6.08v-5s.63-.34,1.43.82,2,4.42,3,6.08,2,2.91,3.49,1.75,2.94-2.5,2.94-2.5-2.94-.91-2.94-1.91,1.25-1.83-.81-5.16-3.12-3.5-.53-3.66,2.5-2.75,4-3.5a7.72,7.72,0,0,1,3.67-.5,4,4,0,0,0-3.85-.92c-2.32.67-4.38,1-6.35,2.09s-3.66,1.75-4-.26a13.72,13.72,0,0,1-.35-5.24c.27-2.75,3.39-.67,5.72-1.33s2.32-.5,7.42-.17,5.45-.83,7-2.91a21.17,21.17,0,0,0,2.4-4.5S1089.07,491.22,1086.93,492.72Zm12.07-7.29c.45-.83-3.74,2.87-4.52,3.61s0,1.8.56,2.88.44,4.74.65,5.54,2.37,1.54,2.37,1.54-.07-2.47.72-3.61,0-2.54,0-4.61S1097.63,487.9,1099,485.43Zm-8.26,21.94c-3.29-1.26-4.52-.43-4.52,1.29s-.37,2.58,3.14,2.58S1096.84,509.69,1090.74,507.37Zm6.56-1.12c-.81.26-1.66,2.84-1.2,4.39s1,.52,2.87.17,1.56-1.8,3.87-2,7.11,1.64,7.11,1.64,1-1.21-2.67-3.52S1101.91,504.79,1097.3,506.25Zm-65.65-85s-3.3.1-3.8.1-1.66,1.27-2.48,1.77-.82,1.2-.24,2.5,1.53,1.38,3.15,1.81,1-.7,2.23-1.14a3.1,3.1,0,0,0,1.76-2.47,3.71,3.71,0,0,1,1.32-1.74c.28-.33-.93-1.46-.93-1.57A7.2,7.2,0,0,0,1031.65,421.25Zm38.86,4.64c-1.3-1-2,2.41-2.37,4.14s-.79,2.88-.14,4.15.36,1.67.36,1.67l-1.87-1.41a12,12,0,0,0-.5,3c0,1.41-.58,2,1.58,3s2.87.47,3.15,2,.29,2.2,1.72,2.47,3.09.86,3.66,1.81.29-2.48,1.29-2.28,2.16,1.47,2.88,2.61a2.49,2.49,0,0,0,1.78,1.2s-1.64-2.74-.92-3.08.92-.59-.94-1.73-3.37-.87-4.8-1.07-1.44,1-2.52-1.81a8.27,8.27,0,0,1-.21-5.14c0-.6.79.93,1.65-1a10.12,10.12,0,0,0,.93-5.34c-.14-1.87,1.29-2.61.21-2.67S1071.22,426.43,1070.51,425.89Zm17.07,35.91c.22,1.36-1.29-.38-1.85.4s-.86.63-1.78,1a19.42,19.42,0,0,0-3.12,2.44s0-1.33,0-1.63-.67-1.86-1.35-.81a6.11,6.11,0,0,1-2.83,2.48,4.36,4.36,0,0,0-2.63,3.21c-.19,1.35.92,1.31.92,1.31a8.84,8.84,0,0,0,1.59-2c1-1.55,1.17-1.5,3-1.73s1.66-.2,2.24.78.13,2.46.18,3.54,0,2.37,1.8,3,1,.05,2.67-.1,1.67-.1,1.42-1a14.41,14.41,0,0,1-.86-2.6c-.11-1,1-1.43,1.32-1.63s.57,1,1.08,2.26.72,1.2.94.25a14.14,14.14,0,0,0,.59-4.41,16.61,16.61,0,0,1-.32-3.13,3.92,3.92,0,0,0-1.32-2.56c-.49-.36-2.15-1.83-2.15-1.83S1087.37,460.45,1087.58,461.8Zm-8.26-8.18s0-.85-1.51-2.38-1.6-2-4-2.38-4.75.2-3.75,2.76,1.29,2.92,3.31,3.23a4.12,4.12,0,0,0,3.22-.79s.15.41-1.74,1.6-2.12,3.47-.63,4.35,1.45,2.25,2.3,1.57,1.48-3,3.23-4.66,1.85-1.87,2.08-3.61a13.61,13.61,0,0,0,0-3.12Zm4.07-4.9c-.22.17-1.46-.12-.17,1.13s2.48,1.53,2.32,2.45,0,1.11-.78,1-.94-.27-1.27-.29-.37.6-.15,1.18.15-.08.77.89a4.76,4.76,0,0,1,.65,2.44c.19,1.12.67.57.67.57s-.16-2.7-.08-3.25-.22-1.89.7-1.46.67,2,1.21.53a6.87,6.87,0,0,0,0-4c-.27-1.2-1.21-1.25-2.32-1.25A8.79,8.79,0,0,0,1083.39,448.72Zm-18.56,4.64c-.54.13-.87.65-1.19,2.48a6.81,6.81,0,0,1-2.45,3.86c-1.11,1.08-4.1,4-4.25,4.54s-.2.22,2-.84,4-2.45,4.27-3.88-.26-.55,1.71-1.47,1-1.23,1-2.69S1065.81,453.11,1064.83,453.36Zm118.8,54.72c-.24,1.86.54,2.41-1.18,3.78s-3.66,1.37-5.5,1.67-.49-.3-2.76-.37-2.83.1-1.79,1.24.79,2.24,4.12,2.1,6.1-1.93,8.26-2.6,2-2.41,2.15-3.21S1183.88,506.08,1183.63,508.08Zm9.33,4c.92,1.31.57,1.11,1.75,2.84s3.06,2,4.45,2.51,0-.5-1-1.9-1.12-2.18-2.66-3.58S1191.34,509.79,1193,512.09Zm-121.2-112.36c-4.6,2.92-6.67,2.71-4.84,6.42s3,5.28,3.23,6,1.18-.47,2.43-3.41,1.41-6.78,1.91-8S1073.34,398.73,1071.76,399.73Zm78.76-144.17c.5,1.94,1,4.95-.15,5.28s-1.94,2.47-2.22,4.68-.86,5,.35,6.75.36,1.87.36,3.34.43,5.21-.28,7.42-1.15,2.74-.86,5.07,0,2.81,0,6.16-.21,6-.07,7.34.85-.66,1.36-1.13a2.94,2.94,0,0,1,3.51.4l1.09,1.14s1.71.73-.65-4.35-2.8-4-2.16-8.62,1-4.67,3.44-5.15,3.73,2.88,4,3.21-.22-1.13-1.08-3.74-1.65-3.47-1.94-6.74-1.29-6-2.58-7-.64-2.47-.07-3.74a10.48,10.48,0,0,0,.5-5.41,56.18,56.18,0,0,0-1.29-6.48c-.36-1.21-1.8.73-1.8.73Zm-2.16,51.19a6.46,6.46,0,0,1-.71,4.48c-1,1.67-.29,2.07-.86,4.41s-3.38,0-3.38.47a4.84,4.84,0,0,1-1.15,2.73c-.71.6-3.16.74-2.44,3.08a32.92,32.92,0,0,0,2,4.81,11.21,11.21,0,0,1,1.86-1.47l1.58-.46s-.22-.68-1.8-1.41a2.17,2.17,0,0,1-1.22-2.74c.22-.47,2.23.13,3.52,0s2.37-.8,4,.46a10.59,10.59,0,0,0,3.88,1.75,11.76,11.76,0,0,1,1-3.21c.72-1.34,2.81-.74,4.89-1.34s3.65-.93,2.94-1.8-.65-2.81-1.08-4.28-1.8-.07-2.87.47-2.44.13-3.88-.8-4-4.48-4.95-5.88C1149.65,306,1148.22,305.28,1148.36,306.75Zm-6.42,21.92c-.68.33-1.56,2.1-1.4,4.06s1.83-.15-.33,5.86-3.23,7.37-5.32,8.92-4,1.56-4.84,1.15.21-1.75.8-2.15-1.83-.55-2.85-.4-.06,1.3-.16,2.25-2.1,3.51-1.88,4.67.21,1.5-1.08,1.9-2.15-1-2.53-1.16-2.31.36-4.84.7-3.17,1.21-4.25,3.07-3.61,2.15-5.44,2.85-1.13,3.31-3.12,4.21-2,2.56-2.16,3.91,1.24.4,1.46.3.21-1.9,1.45-1.7,1.4.24.75,1.65-1,2.11-1.66,3.31.21,1.75,1.18,3,1.89-.36,3.93-2.51,2.21-2.66,2-5.11-1-2.51-2.48-3.21-1.84,0-.17-1.91,2.43-.05,3.56-.9,3.87-.8,6.51-1.45,5.17-1.5,5.28-.65.91,3.71,1,4.31,1.84-.85,3.61-1.51.11-.94,0-2.1a2,2,0,0,1,.81-1.81s.91,1.91,3.76.56,3.07-1.91,3.83-1.71,1.24,1,2.41.2,1.41-.05,1.19.56,3.45-1.16,4.25-1.71.38-.05,0-2.15-1.34-2.26-.74-5a24,24,0,0,0,.59-4.67c.15-1.7.8-1.95,1.23-2.05s.44-2.36,1.35-3.56.7-1.75.7-4.51-1.51-2.26-1.61-4.21a14.6,14.6,0,0,1,.37-3.86s-3.07,1.16-3.39,1.86l-.33.7S1143,328.17,1141.94,328.67Zm-20.09,30.12a56.54,56.54,0,0,0-7.31,1.47c-1.88.6-2.29,1.43-2,3.31a37.39,37.39,0,0,0,1.29,4.75c.26,1,1.29,0,3.07-.94s1.66-3.69,3.35-3.69,1.07,2,3.36-.79.55-3,.62-4.38S1121.85,358.79,1121.85,358.79ZM1323,210.36c-3.41-.66-4.39-1.4-4.7-.17s-.69,1.64,1.46,2.41,3.23-.57,5.25.93,2.58,1.44,4.12,1.24a3.33,3.33,0,0,0,2.15-1S1325.53,210.86,1323,210.36Zm-38.87-53.54c-1.25.35-2.27-.85-1.94,2.2s1,3.41,4.94,2.86,1-.15,6.36-.55,6.5-1.16,6.5-1.16a9.46,9.46,0,0,0-2.57-2.9c-1.84-1.4-4.26.95-8.4.25A45.5,45.5,0,0,0,1284.08,156.82Zm-121.26-45.16c.06,1.18,5.38,4.46,7.32,5.42s3.44.54,7.54.09,4.41-2.2,4.89-3.2-1.94-.65-4.68-1.2-5,.5-6,0,1.45-1-1-1.91-3,.3-3.56-.1-.64-1.26-1.82-1.35S1162.77,110.56,1162.82,111.66Zm-21.1,6.87c-1.85.74-1.72,1.4.38,3.15s1.4,1.36.49,2.61,0-.05,3,1.3,4.25,3.82,6.14,4.37a4.46,4.46,0,0,0,3.17-.16,17.41,17.41,0,0,0-2.42-4.41c-1.78-2.4-5.6-3.1-6.3-5.21S1144.36,117.47,1141.72,118.53Zm19.22-9.82s-2.74-1.66-6.89-4.26-5.71-3.31-7.11-3.51-1.18,1.46-1.72,2.75-.91,1-3.07,0-4.31-2.65-6.51-3.16-3.55,1.31-6.08,3.82-1.07,3.2,2,6.91,4.41,3.91,6.88,2.46,1.77-2.41,3.55-1.71,7.92-.7,8.13-.7-.38,3.41,2.32,2.51,5.16-1.35,6.4-2.71S1160.94,108.71,1160.94,108.71ZM974.56,37.13c-.78.66-5.38.26-7.75,4s-4,1.14-5.23,3.41a45.93,45.93,0,0,0-2.23,5s2.16,2.54,4.45,2.34a10.19,10.19,0,0,1,8.54,3.88c2.22,3.07,3.88,3.07,9.26,3.94s2.94,1.6,5.74,1.34,6.67.33,5.81-1.07A6.07,6.07,0,0,1,992,55c.35-2.74,2.86-2.6-.08-4.41s-5-.33-4.88-.66,2.66-1.34,1.65-1.41-6-.33-6.53-3.14,1.36-3,2.37-3.21.72-.53-2.16-2.6-6.74-4.21-6.74-4.21C973.85,36.25,975.36,36.45,974.56,37.13Zm27,20.24c-2.09.4-3.81,2.47-5,4.28a33.13,33.13,0,0,1-5.17,5.74c-1.51,1.2-1.08,1.54,1.36,2.41s6.74-1.54,8-1.61,2.16,1.81,6,1.34,9.76-1.2,6.89-3.28a57.36,57.36,0,0,1-5-3.6,13.87,13.87,0,0,0-7.18-2.74s6.53-2.21,5-2.34S1001.55,57.37,1001.55,57.37ZM835.65,24.42c-3.76,1.35-2.44,2-4.88,3.95s-.8,2.47,4.45,1.2,5.52-1.8,8.9-3.34S841.25,22.42,835.65,24.42ZM844,33.85c-3.53,1.56-2.58,3.21-1.65,4.54s3.51-.8,4.23.68.94.86,4.24-1.35,2.08-1.53.79-3.87S850,31.18,844,33.85Zm-19.61-1c-2.25,1.07-2.25.95-.11,1.95s7.38,1.81,10.07.05,2.48-1.4-.92-1.9S826.89,31.67,824.36,32.88ZM791.1,36.94a51.38,51.38,0,0,1,9.53-.15c2.8.3,1.77,2.71-3.39,3.26s.48,1.35,4.14,1.2,1.29-3.16,4.37-4.21,5-.4,8.65-1.7-2.09-2.56-6.35-2.46a83,83,0,0,1-9.25.1c-3.61-.25-6.52,1.37-10.23,2C780.93,36.29,787.61,37.24,791.1,36.94Zm27.45,1c-3.08,0-10.5,1.71-4.25,2.31s5.76,1,8.34,0S821.78,37.89,818.55,37.89ZM840.3,39.2c-4.38-1.45-4.48-.86-7.87-.71s-4.73,2.26-2.52,3.16,3.71.55,5.54.25,1.72-.85.54-1.3S842.88,40.05,840.3,39.2Zm18.4-5.42c-3.36.42-3.55,1-3.88,2.11s.49.85,4,.4a18.29,18.29,0,0,0,7.53-2.21c2.32-1.25-.48-4.31-.48-4.86s-3.28,1.66-4.2,2.45S862.67,33.28,858.7,33.78ZM595.14,226c-1.69,4.68-4.48,6.84-1.18,5.54s6.6-5.32,6.44-1.87S597,232.64,598,236s.26,3.09,5.76,4.31,1,.8,2.37,4,2.28,4.24.84,5.18-5.67-2.95-5.92-1.3.59,2.88,1.61,5.18-.68,3.6-3.89,5.11-.43,2.44,2,2.3,8.63-1.3,7.61.86-4-.36-6.09,3.24-9.91,6.68-5.84,6.47,3.47-1.3,15.58-3,3.71-.14,11.67-2.59,5.42-3.1,1-2.37,2.88-4.32,1.86-9-3.89-.22-5.76-3.17-1.6-3.81,2-2.73,3.22-.72-3.64-5.1-2.62-3.53-5.75-7.2S605,233,605,233a10.82,10.82,0,0,0,3.63-4c1.35-2.66,1.61-2.45,3-5.68s-1.44-2.95-5.07-2.16-4.84,1.15-4.07-.28a15,15,0,0,1,3-3.82c1.7-1.8,2-2.73-1.1-2s-3.61.65-6.26,1.87C594,218.76,596.84,221.35,595.14,226Zm-8.55,11c-5.53,2.19-4,3.6-3,4.39s2.62-.72-2.54,2.23-5.25,6.18-2.54,6.83,2.37-1.58-.5,3.82-4.83,9.06,1,7.69,7.45-4.39,10.24-4.75,3.3-2.58,3.3-6-1.86-3.45.34-6.25,2.37-5.76-2-7.12S590.07,235.66,586.59,237Zm69.52,75.48c-.29.75.37,2.8-1.87,4.2s1.08,2.68,1.8,4,1.65-4.55,1.43-7.36S657.05,310.09,656.11,312.5ZM655,323.59c-3.65,1.73-3.87,3-4.31,5.75s2.95.53,2.08,2.93-.07,3.68,3.73,1.41,1.66-4.34,2.23-7.22S659.85,321.32,655,323.59Zm56.25,29.53c-3.21-.31-4.63,1.7.86,2.31s8,.7,10,.2.31-.1-2.38-1.9S715.38,353.52,711.29,353.12Zm30.56,1.7c-4.41-.95-3.22,4.42,1.3,3.62s2.8.3,4.85-3S746.49,355.83,741.85,354.82ZM631.93,329.93c-3.59.46-3.87,1.68-1.08,2.41s2.44-.13,4-1.27S633.51,329.74,631.93,329.93ZM414.54,264.52c-2.2,1.75-4.74,4.31-7.86,9.92s-2.79,5-5.81,8.12-1.5,2.4,7.86,4.21,8.61,3.21,10.76,2.61,2.59,1.19,2.59,3.11,2,.79,3-2.21-1-8.42-2.9-11.53-2.38-3.11-5.39-2.3-2.05-.7-3.12-3.11-2.8-.5-.21-4.11S416.69,262.82,414.54,264.52ZM128.06,258.1c0,3,3.15,8.09,5.52,9.76s1.87.74.79-2.81-.21-3.54-.72-5.81S128.06,257,128.06,258.1Zm15.71,16.31a27.82,27.82,0,0,0,5.81,5.55,20.4,20.4,0,0,0,7.61,3.47c3.44,1,4.95-.34,2.72-2.34s-.36-1.81-4.37-2.74-4.88-.6-6.89-1.87S142.4,273,143.77,274.41ZM56.28,241.16c-2.59-.58-3.61-.7-5.39.7s-2.25,2.61-1.28,4.17.37.7,2.63-.85,1.19-1.76,4-2.46,2.26-1.66,2.26-1.66A3.12,3.12,0,0,1,56.28,241.16Zm-.91-3.45c-1.75,1-2.32,1.9-.38,1.5s1.66-1.5,2.9-1.25,1.67-.25,1.67-.25S57.2,236.6,55.37,237.71Zm-49.68-8c-2.37,1.15-4.61-.2-3.15.67a9,9,0,0,0,5,1.53c1.56-.17,2.58-.2,2-.95a2.47,2.47,0,0,1-.76-1.73C8.76,228.21,8.06,228.59,5.69,229.74ZM800.06,556.33c-2.73,6-8.48,3.07-13.07,7.48s-3.87,3.08-.43,9.23-2.86,5.47-4.45,12.69,1.87,5.88,3.73,12,2.73,4.28,6.18,3.47a20.11,20.11,0,0,0,5.88-2.4,85.68,85.68,0,0,1,2.87-13.23c2.3-7.88,3.87-13.63,4.3-18.84s.86-9,2-7.36,1.29,1.61,1.29-.93-1.38-9.69-3.59-11.36C800.91,544.17,802.78,550.32,800.06,556.33Zm4-411.09c-3.76.86-5.55,3.16-2.81,4.06s2.48.41,7-1.2S807.78,144.39,804.08,145.24ZM874.39,77c-1.28-2-2.43.67-15.63,6.42s-13.07.8-25.41,10.55-9.61,8.55-10.33,14.44-3.59,3.34-4.74,8.68-7.46,5.62-4.31,10,7.32,7,13.92,8.82,8.47-.13,7-.8-6.46-8.56-5.45-17.51,4.3-7.62,7.17-11,10.33-12,15.22-15,17.36-6.86,23.72-9c.18-.07.41,0,.53-.18C881.14,76.82,875.69,79,874.39,77ZM838.81,137c-1.56.22-2.3.27.57,3.08s5.38,4.94,4.45,1.2S840.24,136.82,838.81,137ZM886,109.83c-2.1-1-3.23-2-3.73-.41s2.37,3.75,5.16,4.28S888,110.76,886,109.83ZM391.9,278c-3.19-1.6-6.31-2.88-8.39-2.88s.43,2.2,3.73,4S393.77,279,391.9,278Zm-7.6,13.43c.17-2.65-1.77,3,.6,4.31s3.6,1.6,5.11.06.27-.57-1.8-.93S384.16,293.66,384.3,291.45Zm940.19-92.08a16.12,16.12,0,0,1-6.78-.71s-.22,3.12-1.4,4.62a2.94,2.94,0,0,0-.33,3.1s-3.87-1.7-6.13-2.5-4.3-.1-5.6-3.51-5.16-2.81-8.18-2.81-2.14-3.9-2.14-3.9l-1.84.09c-1.83.1-1.51,4.52-3.87,5.92s-9.8,2.3-9.8,2.3,4.74,3.41,5.71,6.22a27.05,27.05,0,0,0,2.8,5.51s-.44,1.31-6.14.2-5.38,1.11-11.52,3.61-13.13,6.32-14.85,7.72-1.83.6-7.21-.7-6.46,1.5-7.86,2.2-.86-3.21-.86-3.21a10.45,10.45,0,0,0-4.31,1.21c-24.53,12.46-7.61,11.8-8.39,14.32l-2.59,9.73c-3.6,10.74-6.1,5.12-9.14,13.63-9.69,27.06-15.29-4.17-15.29-11.32,0-4.42-1-10.12,1.83-11.43,24.08-11.21,2.26-1.56,24.86-17,7.33-5,3.34-8,5-9.42a9.77,9.77,0,0,1,4.21-1.81l-4-.4c-4-.39-4.09.51-7.21,3.91s-5.6,4-5,1.4.75-5.31-1.61-3.9-3.34,1.2-7.75,2.1a21.72,21.72,0,0,0-13.14,8c-4,5-1.72,4.41-.43,5.61s-6.35.9-10,.61-1.74-1,.42-1.71-3.23-1.3-8-2.3-2.9.8-5.69,1.9-2.7-1-4.1-1.3-7.64-.7-12-1.21-4.09.3-5.27,1.81-9.37,8.72-12.92,12.83-8,5-12,8.82-4.63,3.61-1.4,4.21,3.66.3,4.2,3.31,2,4,5.49,4,2.47.91,3.12-1.7-.86-5.61,2-3.31,5.27,4,6.13,7.32-.22,5.71-1.72,11.23-2.05,13.43-4.1,17.44-3.65,7-5.92,11.43S1120.62,317,1118.15,318s-4.08,1.11-5.27-1.1-2.05-1.81-4.85.7-4.09,4-5.16,8-3.45,4-5.92,7-3.12,2.31-1.3,5.72,4.84,7,5.17,10.32-1.51,8.12-2.69,10.23-6.78,3.11-6.67,2.1a80.81,80.81,0,0,0,0-8.92c-.22-2.9-2.37-2.9-1.62-3.81s3.88-2.4,1.62-4.51-3.88-.3-4.84-2.8.43-4.52-.11-5.42-2.16-1.9-5.49-2.2-4.09,3-4.85.09.33-3.2-1.18-4.4-2.8-.4-6.67,2.9-4.63,2.61-7.86,4-3.23,2.21-2.48,3.31,3.45,5.91,5.71,6.42,3.88-1,7.32-1,4.09.5,3.23,1.81-3.23,2.61-7.43,6.81-2.91,3.42-1.51,5.12a29.48,29.48,0,0,1,5,7.12c1.51,3.3,0,4.5-.21,6.4a8.78,8.78,0,0,0,2.26,7.83c2.8,3,.86,2,.54,3.1s-5.06,9.72-7.21,14-2.16,4.71-9.15,9.62-10.12,5.41-13.89,6.11a46.55,46.55,0,0,0-8.93,2.61c-1.94.8-1.19,2.4-1.39,3.41s-2,.1-1.74-1.41.12-2.61-.85-3a6.1,6.1,0,0,0-7.11,1.4c-3.12,3-6.89,3.21-8.18,7s-1.07,2.51.33,4.11,8.18,8.12,9.79,11.62a22.69,22.69,0,0,1,2,9.93c.1,3.8-7.76,10.82-11.2,13.13s-4.2,4.51-3.66.9-1.5-5.72-4-8.42-10-4.91-11.41-5.22.54-2.5-.44-2.4-3.22-.5-2.9,3-2.26,2.4-2.79,5.91-1.19,7.12,1.07,6.82,1.83,3.11,3.55,6.92,1.07,1.7,5.38,5.21,3.23,2.9,4.21,6.41.64,5.51,2.8,8.72,2.25,3.91-1.3,2.1-6.45-4-7.86-6.21-2.25-7.82-3.12-10.62-6.67-6.12-8.61-8.12-.75-3.61.22-8.22-.43-9-.76-11.83a82.59,82.59,0,0,0-3.66-13.33c-1.08-2.66-.65-2.31-2.32,0s-2.95,3.71-4.57,3.71-4-.25-3.76-1.31,1.83-5.06,1.35-6.56-2-6.32-4.26-8a17.29,17.29,0,0,1-6.3-8c-1.45-4-1.83-2.8-4.62-.75s-9.21,2.31-12.28,2.56-.53,1.75-1.29,3.26-4.35,3.45-11.62,11-8.36,7.82-10.24,8.62-3.06.55-3,3.66.34,4.79,0,7.57a16.18,16.18,0,0,1-2,5.68,32.91,32.91,0,0,0-1.89,6.65c-.25,1.66-1.87,3.6-4.24,5.31s-2.36,1.4-3.44-1.1-6.67-12.13-11.19-21.15S893,433.61,892.55,431s-.52-18.25-.32-19.44c.11-.67-2.19,1.84-2.84,3.1s-.61,2.81-3.19,3-3.12.27-5.56-2.18-3.56-3.8-3.13-3.73a13.63,13.63,0,0,0,4.85-1.07c1.61-.81,1.07-1.68,1.07-1.68s-1.75.2-3.83.3-1.15-.46-3.91-1.57-3.38-1.2-3.84-2.43-1.15-3-1.55-3.92-.71-1-1.18-2.16-1.79.2-4.77.26-2.3.2-5.89,1.61-4.12.9-8.18.77-6.88-1.88-8.93-2.58-2.37-.4-5.38-.83-2.37-2-3.13-3.25-2-1.57-6-1.26-4.09.1-6.31-.51-2.41-1.4-4.27-3.27-1.26-.4-2.48-1.37a10.42,10.42,0,0,1-3.4-4.91c-1-2.61-.76-3.17-1.87-4.38s-1-.9-4.53-.9-1.89.23-2.33.47a23.21,23.21,0,0,0-2.47,3c-1,1.2.79,2.88,2.19,4.51s.18,1.47,2.4,3.95,1.47,2.23,3,5.67,2.58,4.31,2.94,5.35.69-.4,1.05-1.34-.15-4.28-.15-4.28a20.88,20.88,0,0,1,1.29,3.88c.61,2.47.18,2.51.61,4.08s0,1.37,2.69,1.37a26.74,26.74,0,0,0,7.32-.6c3-.7,4.27-3.41,5.67-4.21s1.4-3.61,2.33-3.31,0,3.31.9,5.28,1.07,1.27,3.16,2.14,2.65,1.37,4.77,2.17.68.9,1.83,3,1.08.93,2.19,1.67.68.2-.11,2.7-.93,2.54-2.8,4.58-1.87,1.41-2.15,1.34-.86-1.51-.86-1.51a15.67,15.67,0,0,0-1.36,5.28c-.18,2.84.93,1.8-2.48,3.18s-5.46,1.94-6.78,3.07-1.33,2.64-2.08,3.37-1.8.07-4.09.87-1.66.64-3.59,2.11-.22,1.34-2.69,2.27-7,3.11-9.22,3.34-1.8.84-2.37,1.67-.61,1.27-3.48,1.7-6.46.84-8.22,1.71-4.34,2.81-6.2,2.44-1.37-.44-2-2.11a20.12,20.12,0,0,1-1.22-5.61,26.19,26.19,0,0,0-2.84-9.55c-1.57-2.64-1.54-2.81-3.26-5.59s-2.87-5.11-4.37-6.18-2.26-1.13-3-1.93-.28-3.55-1-5.88-1.26-4.61-2.37-5.92a28.78,28.78,0,0,1-4.38-5.57c-1.54-2.78-1.65-3.08-3.86-7.36s-3-4.81-4.5-7.68-.5-2.31-1-4-1.94,2.77-3,3.64-1.69.43-2.59-2.11-1.65-4.77-2.33-3.77-1.22,2-.29,4.72,1.37,2.12,2.58,4.7,4.56,9,5.92,11.7.83,1.36,2.09,5.41,2,4.54,3.65,6.21,1.4.8,2.16,3.54.47,5.95.57,7.62,1,2.54,3,4.21,1,1.07,1.94,2.84a41.08,41.08,0,0,1,2.41,6c.53,1.73,1.18,2.94,2.75,3.7a25.25,25.25,0,0,0,3.6,1.44c1.57.57,1,1,2.11,2.34s3.16,2.4,4.45,4.58.43,1.53.35,3.64-.74,1.14.19,2.24,2.54,2,5.26,3.8.55.54,3,.48,2.94-.71,5.56-1.28,6-1.53,9.22-2.3,6.38-1.27,8-1.81,1.69,1.28.42,4.08-1.86,5.14-2.93,7.42-1.48,2.47-2.27,4.31-6.1,9.35-7.2,11.73a29.43,29.43,0,0,1-4.06,6.25c-1.62,2-6.68,5.54-9,7.44s-1.76,1.91-3.52,4.15-7.1,8.45-8.54,10.66a44.88,44.88,0,0,0-3.33,5.17c-1.08,2.17-4.13,5.25-4.31,6.82s-1.9,1.77-.61,3.14,2,1.6,2.44,3.34-1.44,3.71-.21,6.88.35.91,2.19,3.44,1.75,4.15,1.93,7.86.36,7.38-.21,9.79a47.42,47.42,0,0,1-2.19,6.15c-.82,2.16-5.35,3.64-8,4.8s-2.54.7-3.76,2.18-4.73,4.54-5.92,6.81-2.08,2-1.61,3.48,1.46,3.31,2.69,6,.36,2.47.07,4.78-.25,1.94-.57,4.74-3.63,2.87-7.4,4.34-2.4.74-2.83,2.78-.18,6-.33,8.45-1.28,1.44-3.33,4.41-2.87,4.38-5.06,7.95-2,3.08-4.78,5.32-5,2.8-6.16,5.37-2.62.87-8.54,2.77-1.62,1-7.25,1.61-7.64,1.07-10.62,1.6-2.59-.16-4.41-2.16-2.12-1.85-2.94-3.52-.22-2.07-.47-5.08-.5-3.1-1.61-5-1-2.16-2.26-5.14a24.44,24.44,0,0,0-3.13-5.81c-1.36-2-1.76-1.37-3-2.67s-1.29-2.45-1.58-4.28-.72-6.18-1.32-10.76-.08-2.14-.8-4.08-1.58-4.27-2.8-6.84a36.78,36.78,0,0,0-2.65-5.08,30.32,30.32,0,0,1-2.87-5.51c-1.19-2.78-1.36-1.55-1.43-2.62s.6-3,.68-4.87.68-4,1.14-6.92-.64-2.84.58-4.81a32,32,0,0,0,3.27-6c.79-2.24.67-2.34.67-5.18s-.29-2.6-1.14-5-1.19-5.15-2.23-8.95-1-3.67-1.15-5.15a35.47,35.47,0,0,0-1.58-6.78c-.71-2-1.07-1.2-2.65-2.5s-.54-.74-1.9-2.18-1.11-1.9-2.44-3.47a19.64,19.64,0,0,1-2.59-3.41c-1.07-1.77-.49-.7-.35-3.68s1-8.65,1.54-11.93.65-3.1-.61-4.47-2.15-3.34-3.12-3.67-3.3.33-6.71.26-3.26-.83-4.73-2.54-3.42-4.07-4.1-4.71-1.86-.6-7.67-.17-2.3.54-6.18,1.14-5.38,2.64-8.36,3.68-3.83.77-9.07-.27-7.86,1.21-10.52,2.34-3.94.6-5.88-.74a38.09,38.09,0,0,0-6.06-3.91c-3-1.47-2.3-2.27-5.24-3.71s-2-1.5-4.41-3.8-2.62-4.65-4.31-7.05-3.13-5.78-5.38-8.32-4.48-7.66-5.6-9.19-2-1.67-1.94-2.41,2.19-5,3.09-7.28,1.15-1.94,1.54-3.34-.53-5.45-1.39-7.65-1.84-6.85-2.51-9,.35-2.2,1.18-3.43a73.81,73.81,0,0,0,4.84-7.62c2-3.81,3.2-5.68,4.27-7.46s3.55-7.21,5.17-8.68A51.55,51.55,0,0,1,581.3,383c1.76-.9,3.2-1.4,3.48-2.21s1-7.41,1.55-10.19-.18-4.31,1.83-5.38,5.24-3.07,6.93-4,1.93-2.34,2.79-4.37,1.22-4.61,2.52-5.45.93.37,2.61,1.5a6.94,6.94,0,0,0,2.77,1.41c.79.2,1.5-.64,3.48-.67a4.92,4.92,0,0,1,3.37.87c1.18.63.53.64,3.91-1.44a53.51,53.51,0,0,1,10.48-5,45.84,45.84,0,0,1,9.47-2.77c2-.24,1,0,3.3.94s2.4,1.3,2.87.63,2-2.54,2.94-2.47,2.08.47,4.56.9,3.51.2,4.52-.33,2.29-1.61,2.54-1.61a42.91,42.91,0,0,1,4.09,1.37c1.73.64,1.76.74,1.4,1.17a8.84,8.84,0,0,0-1.68,2.77c-.83,1.87-.44.87.35,2.84s1.37,1.87,1,3.31-2,2.78-3.16,4.18-.89,1.63,2,3.28a42,42,0,0,0,5.49,2.83c3.27,1.47,3.41.94,7.21,2.07s3.34,1.27,4.66,2.81,1.4,3,3.7,3.81,4.74.8,6.07,1.63,2.4,2,4.2,2.38,1.78.57,2.65-.74,1.57-2.47,1.26-3.14-1.3-1.7-1.09-2.34,1.73-3.17,2.19-3.93,1.66-1,4.49-1.11,4.81-.54,5.28,1.13.36.91,2.54,1.81,2.41.9,4.24,1.61.9,1.69,1.83,1.63a11.18,11.18,0,0,1,4.16.3c1.72.5,4.88,2,8.21,2.14a8.44,8.44,0,0,0,5.14-1.11c.5-.22,2.86-3.13,4.27-1.13s3.22,2,6.74,1.84,3.55-.74,4.34-1.64a24.18,24.18,0,0,0,3.59-6.65c.68-2.34,2.54-7.45,3-9.76a13.7,13.7,0,0,0-.21-5.47,7.62,7.62,0,0,1,.69-3.85c.53-1.53-1.69-.6-2.59-.3s-1.15-.46-2-.7-1.69-.44-2.3,1.11-.33,2.3-3.62,2.14-2.69-.37-3.77-1.55-2.91-1.46-4.38-1.9-1.61-.37-1.72.57-.14,1.57-1.22,1.94-3.51-.07-5.56-1a13.55,13.55,0,0,1-4.67-3.41c-2-2-1.71-2-2.54-5s-.82-5.65-.47-6.54.94-1.17-.61-.7-2.58.72-1.54-1.58,2-2.4,3.09-2.71a28.47,28.47,0,0,1,4.77-.46,11.82,11.82,0,0,0,4.34-1.47c.71-.31,2.19-.81,1.43-1s-3-.43-2.62-1.06.65-.61,1.87-.74,3.12-.2,4.74-.3,2.58.2,3.12-.77a7.83,7.83,0,0,1,2.47-3.17c1.26-.77,2.62-.37,5.93-.5s2.79.66,3.87,1.43,1.79.4,3.2.67.53,1.1,1.6,1.54,3.06.87,5.46,1.64.82.43,3.76.43a20.14,20.14,0,0,0,5.17-.37c2.33-.4,3.31-1.27,5-2.44s.5-3.71-.1-5.68-3.2-3.23-4.38-4.14-3.73-3.78-5.09-4.94-2.95-1.51-4.46-2.34-4.19-2.21-4.44-3.31.57-1.13,2.8-1.67,1.51-1,1.93-2.17.61-1.14,2.44-1.81-2.11-2.07-2.66-2.83,1.23-.54,3.06-1a2.48,2.48,0,0,0,2.22-2.07c.26-.77.18-1.14-2-1.1s-4.88.93-8.51,1.9-2,1-4.16,2.71-2.33,1-2,1.9.43,1.84,2.65,3,1.29,1.21,1.91,1.38,2.11.39,1.43.6-1.3,1.26-2.3,1.26-1.44,1-3.15,2a9.08,9.08,0,0,1-3.73,1.3c-1.26.2-2.16-.2-2-2.34s-.64-.7-2-1.2a4.9,4.9,0,0,1-1.84-1.07,15.29,15.29,0,0,0,2.66-1.3,5.17,5.17,0,0,0,2.59-3c.64-1.64-1.44-.74-2.95-.94s-1.07-.34-2.54-.54a2.74,2.74,0,0,1-2-1.36,4.59,4.59,0,0,0,1.94.13c1.25-.13,1-.47,1.43-.81s.84-.63.47-.63-1.9.17-2.94.1a11,11,0,0,0-3.16,0c-1.51.23-.9.8-2,1.5a3.87,3.87,0,0,0-1.69,2c-.57,1-.75.86-1.15,1.53a9.36,9.36,0,0,0-.36,3.48,3.36,3.36,0,0,1-1,2.44c-.68.93-.68.53-1.83,1.09s-.39,1-.53,2.11-.54,1.58-.65,3-.68,1.53-1.57,2.57-1.41,1-1.48,2.1a13.05,13.05,0,0,0,0,3.61c.25,2.07.83,1.54,2.44,3.64s2.48,1.31,1.9,2.37-.46.67-2.44.44-2.29.06-3.72,1.44-1.73,2.13-2.48,2.64-.5-1-.79-1.71-3.59-.93-5.85-1.61-2.87-1.07-3.45-1.07-1.44-.13-3.82,1.18-1.83,2.05-1.66,3.75,2,2.06,1.5,6.07,2,2.15,3.07,4.61.11,2.25-.53,2.56-1.3,2.4-1.78,4.41.05,2.25-.54,2.15-1.29.35-2.42-1.3-2-.1-2.21-1.05-1.56-2.56-1-4.76,1.4-2.41-.54-3.56-1.45-1.31-2.37-3.66a13.12,13.12,0,0,0-2.9-5c-1.78-2.16-1.62-1.56-1.13-3.71s.86-5-.22-6.47a36.23,36.23,0,0,0-9.21-7.62c-3.65-1.94-4.41-.44-6-3.55s-2.36-6.37-5.06-8.28-1.34-2.05-3.93-1.09-2.64,1.35-2.42,2.1a6.38,6.38,0,0,1,.43,3.81c-.38,2.05-.92,1.4,1.78,3s1.56,1.26,2.9,4.21,1.56,3.51,2.64,4.72,1.46,2.25,4.15,2.85,2.25-.15,2.95.51-1.88.89-1.4,1.2a25.47,25.47,0,0,0,3.34,2.55c2.26,1.4,4.58,2.86,5.17,4s2.58,5.26-.32,2.2-3-1.64-3.77.46.75,3.71.65,5.26-1.46,1-2.38,2.21-1.39,2.75-2.47,3.55-.75-.9-1.34-.9-.81.75-1.56,2.2,0,2.06.31,4,.87,2.1-1.23,2-1.62-2.05-3.55-3.36-3.07-.85-4.68-1.86.7-1.24,4.73-1.75,4.52-.9,5.76-1.85.81-1.2,2.15-3.11,0-2.65-.91-5a8.54,8.54,0,0,0-3.23-3.81,32.26,32.26,0,0,1-3.12-3.1c-1.19-1.31-2.43-1.51-4.47-2s-1.67-2.36-2.8-2.9-2.26-2.16-4.84-4.57-1.61-4.21-2.8-6.31-2.37-3.71-4.95-3.71-4.52,1.81-7.11,4.31-2,3.71-5.06,1.81-4.08-1.71-6.24.1-2.58,3.61-2.58,7.21-2.58,2.11-4.63,3.11-3.87,3.51-7,9.42.21,3.11-.44,5.11.22,3.61-2.68,6.21-1.62-.29-3.34,1.81a8.4,8.4,0,0,1-8.18,3.31c-4.1-.5-2.91,1.1-5.5,1.7s-4,1.51-3.33-1.4.11-2.51-4.84-2.31-6.68,1.51-6.25.81.65-1.91,1.19-4.72,1.29-3.7.54-3.7-2.37.4-1.18-4.61,1.61-5.92,1.07-8.82.21-6.82-.43-8.53,1.29-3.4.43-4.31-1.83-2.1-1.18-2.1a45.35,45.35,0,0,1,6.78.7c3.45.6,7-.5,9-.3s6.35,1.1,10.65,1.81,4.2-.61,3.77-6.92.32-9.22-1-10.52-2.68-1.21-4.09-2.91-.32-4.21-3.33-5.12-6.36-.19-4.74-.79,2.26-.81.54-2.11-2.16-2.7-.86-2.91,4.94-.2,4.94-.2.33,1.81,2.27,1,4.41-1.6,3.88-2.9-1.51-2.91-1.2-2.91,1.09,1.81,5.17,1.81,3.77-.6,3.45-2.31,2.69-1.6,4.74-3-.76-3-.32-4.3,2.79-2.11,7-2.41,3.44-1,3-1.5.11-2.61.43-5.32-.32-3.61,1.84-4.91,1.5-.8,5.92-1.2,1.71-1.41,2.47-1.6,6-1.51,7-1.92.87-.29,0-2.2-2-3-3-11.82-.75-8.82,4.63-10.43,4.2-1.1,3.76,3.81-2.79,4.92-3.33,8.52-.11,5.81,2.15,9.63,2.05,1.9,6.89,1.9,3.77,1.2,7,2.3,2.16-2,5.29-3.11,2.47.71,9.79-.39c2.79-.43,3.74-.52,4-.54-.23,0-1,0-.2-.47,1.73-1,2.16-2.8,4.64-3.11s4.19.71,4.08-3.1-1.51-3.21-1.08-6.12.54-1.6.76-3.91-.32-2.7,2.8-3.5,1,2.8,4.73,3.6,3.23,1.41,3.88-1.5,2.69-6.72.86-6.51-2.26-.1-4.09-2.81-2.9-3.31-1.72-3.31,5.16-1.1,10.86-.9,7.33.7,7.65.1-1-1.2,1-2.41,8.29.61,7.32-.5-6.57-2.6-10.33-2-12.92,1.71-14.32,1.6a9.9,9.9,0,0,1-4.63-1.8c-.64-.7-2.69-1.2-2.69-4.51s1.19-4.61-.75-7.82,3.55-5.91,7.32-9.32,2.8-6.22,5.05-6.42,3.13-1.4,2-2.5-5.06-4.92-7-5.31-4.84-2.61-7.85,2.6.21,5.72.75,8.42-4.2,4.71-7.75,7.22-4.84,1.9-5.92,8.32-2.16,6.62,1.83,8.82,4.74,3.3,2.91,5.21-5.71,1.8-8.08,6.32-1.39,6.71-2.36,8.71-4,2.91-4.85,4.92-.86,5.81-4.52,5.21-1.61-5.52-3.23-8-2.91-4.61-4.84-7.72-.43-6.11-2.26-7.72-2.26-4.81-2.26-4.81l-.65,1.51c-.64,1.5-.32,2.4-4,6.92s-9.15,4.8-11.84,3.7-2.26-3.7-2.26-7-.65-7.72-.11-12.92,2-4.82,7.76-8.22,5.8-3.21,7.2-5.42,5.5-5.31,7.86-7.32,6.46-9.62,8.61-15,6.13-8.72,10-14.53,10.76-10.93,19.59-14.63,7.32-4.12,9.36-7,2.91-1.2,6.35-1.9,2.91,0-.54,3.41-4.94,7-2,4.31,5.16-5.91,9.69-5.71,2.69,0,7.1,2,5.17,2.21,2.7,3.81-6.68,1.21-6.68,1.21a7,7,0,0,0,5.49,3.8c4.09.51,6.35-3.2,9-1.8s3.45,2.4-.22,2.1-4.73,2-.21,3.61A38,38,0,0,0,753.16,148c5.92.8,8.51,5.11,13,7s9.8.3,8.3,4.42,1.17,8.11-6.68,10-7.65-.61-14.2-2.61a115.72,115.72,0,0,1-11.2-4,42.59,42.59,0,0,0,4.74,5.12c3,2.8,3.33,5.4,3,10.52s-1.73,6.52,3.45,9,4.41,1.8,6,1.4,4.3-.9,3.66-1.7-1.19-2.3-2.91-3.11a1.91,1.91,0,0,1-.1-3.61c1.71-.9,3.33.8,7.1.6s0-1.4,1.83-3.3,1.94-5.11,6.35-6.82,9.14.8,10.34-1.1,2.47-4.11,0-7-4.42-3.9-2.91-5.31,4.52-5.11,5.92-3,5,4.42.43,4-1.41,6.72,2.69,6.32,3.76-1.71,7.11-3.31,9.89-6.92,14.52-8.52,5.6-1.2,7.43-.4,1.83,2.3,6.89,1.3,6.56-2.2,11.3-3-.32,1.71,1.83,2.41,2.37,1.3,4,.2,6.78-2.91,4.41-4.71-4.1-3-4.1-3a6.47,6.47,0,0,1,6.25-3.51c4.52.3,11.4,4.51,15.82,7.52s9.8,9.42,9.8,9.42,1.93-3.3.31-8.82-5.7-4.21-5.7-9.42-3.77-3.81-2.47-7.52,5-5.11,5.92-9.82,1.83-8.62,5.16-8.62S891,116,891,116a30.75,30.75,0,0,1-2.69,10.73c-2.69,6.41,1.4,7.12.76,14.93s-.76,8.82,1.07,10.63,5.28,4,4,7.41-1.94,5.52-6.79,7.42-11,.81-8.72,2.31a21.38,21.38,0,0,0,8.4,3.3c3.23.51,1.61-.2,4.2-2.3s8.39-6.32,8.18-8.32-3.34-5.12-1.19-6.62,3-3.8,6.35-1.9,6.57,9,6.57,8.72-.65-7-4.63-11S896,151.05,896,147.55s1.82-8.32,1.39-12.13-1.93-7.62.54-10.92a11.82,11.82,0,0,0,2.59-5.92,14.15,14.15,0,0,1,.21,7c-.86,3.91.43,6.22,2.26,6.22s10,.1,5.6-1.2-5.7-2.51-1.29-4.91,4.19-.81,10.65.7,8,2.6,10.12,2.51,1.83-.31,1.07-2.21a8.52,8.52,0,0,0-3.76-4.51c-2-1.31-3.44.3-4.09-1.71s-1.83-7-2.37-8.92,1.62-.4,5.06-.4,12.81-.5,20-.7.11-7.72-.43-13,13.34-5.51,20.12-6.51,14.64-.7,27.34-3.71,4.53-2.51,6.35-6.12,5-4.21,8.72-4.21,7.22.7,5.82,1.2-5.6,2.61,1,4,4.85,1.29,1.4,2.5-.53,3.41,6.14,3.41,2.69-.6,1.61-2.81,1-1.4,6.46-.5,7.65,1.81,10.66,4.61,3.55,2.11,4.62,6-.1,3.3-4.73,6.91-7.42,3.61-14.1,7.82-5.06,6.41-8.72,9.22-2.69,2,5.06,0,12-3.31,15.94-2.9,5.91,1.9,8.92,1.9-.21.5,9.26.5,8.07,0,4.63,2.71.65,3.51,4.84,3.51,9.37.2,13.24-.41.54-3.5,5.17-3.71,6.13-.6,11.08-.6,3.45,2,5.17,3.81,4.09,3,2.47,6.62-2.47,3.7-1.51,8.61,3.45,5.62,6.47,6.52,3-4.41,5.92-6.21,3.55,3.6,6.89,2.8a19.78,19.78,0,0,1,10,.5,16.26,16.26,0,0,0,9.47.51c4.09-.91,2.8-2.51,1.4-5s-1.51-2.31,1.07-4.92,4.31-1.3,12.7.9,5.71,2.21,10.44,3.51,3.23,1,10.45,4.31,5.81,7.22,9.14,9.32,3.56,0,10.23-.59,6.57.8,13.89,2.7,5.37,4.31,5.37,6.42-2,3.71,2.48,4.71,6.35,1.9,10.23.9.43,1,9,1.1,5.71-1,8.29.8,3.23,5.42,7.42,5,3.88-.3,2.16-4-2.8-4.32-.32-4.22,7.53,1.21,16.89,2.71,9.68,3.21,17.34,8,9.78,5.21,15.38,9.52a13.07,13.07,0,0,1,2.61,2.24,13.39,13.39,0,0,1,2.89,1.17c6,2.81,5,1.91,10.11,4.41a59.1,59.1,0,0,1,9.57,6S1328.36,199,1324.49,199.37ZM822.3,301.24s-.57.77,2.44-1.64-1.4-.1-3.12-.6-2.27-1.31-1.72-3.51-.22-2.21-2-5.11c0,0-1-.6-3,.6s-3.23-1.2-5.71-.3-5.16.5-6.67,4.21-3.23,1.3-3.77,4.31-5.17,4.61-5.17,4.61,1.84,1.8,3.23,3.51.44.6,1.83,6.21,2.38,5.11,4.31,5.91a42.16,42.16,0,0,1,5,2.72s-1.83-1.11-1.83,1.9-2.91,5.11-2.58,9.52-4,8.52-.54,8.92,2.37,1.9,6.13,2.91a35.64,35.64,0,0,0,11.42,1.7c5.48,0,2.47-2.1,1.72-5.21a42.12,42.12,0,0,1-1.4-8.52c-.22-3.41-1.51-2.51-2.37-4.61s.43-3.31,3-3.31,2.91-.1,1.51-2.41-.53-3.2-2.27-4.21-2.47,3.32-2.47,3.32-1.07-1-.64-5.22.75-2.2-.54-3-2,.2-3.77-2.6-.21-2.21-2.26-5.61-1-1.61,1.29-1.61,1.08-.5,0-1.6-1.82-2.81,1.08-2.61,6.67.8,8.07.91S822.3,301.24,822.3,301.24ZM420.74,146.8c-1,1.71,1.68,3.91,3.62,3.23s2.58.07,3.68-.81,1.21-2.17-.1-3.45-.78-2-1-2.15C424.46,142.11,421.74,145.09,420.74,146.8ZM952.83,36.29c-2.91.1-6.15.2-3.45,1.1s1.62,5.41,6.78,2.91,4.09-2.71,7.64-4.22,1.5-.78-2.79-1.9C958.32,33.48,955.73,36.19,952.83,36.29Z"/></svg>