<svg width="0" height="0" class="hidden">
  <symbol xmlns="http://www.w3.org/2000/svg" xmlns:xlink="http://www.w3.org/1999/xlink" viewBox="0 0 1332.8 1433.9" id="logo">
    <path fill="#E6DCC1" d="M1311.5 1066.5V367.3L663.1 17.7 14.6 367.3v699.2l648.5 349.7z"></path>
    <path fill="#3B2314" d="M663.1 1426.8L5.3 1072.1V361.7L663.1 7.1l657.8 354.7v710.4l-657.8 354.6zM24 1061l639.1 344.6 639.1-344.6V372.9L663.1 28.3 24 372.9V1061z"></path>
    <defs>
      <path id="a" d="M1305.8 1063.4v-693L663.1 23.9 20.4 370.4v693L663.1 1410z"></path>
    </defs>
    <clipPath id="b">
      <use xlink:href="#a" overflow="visible"></use>
    </clipPath>
    <g clip-path="url(#b)">
      <path fill="#E6DCC1" d="M22.7-1h1280.4v1050.7H22.7z"></path>
      <circle fill="#EFC928" cx="662.1" cy="646" r="412.3"></circle>
      <circle fill="#E16241" cx="662.1" cy="646" r="312.3"></circle>
      <path fill="#43372B" d="M22.7 794.4V443l125.1-120.3 77.3 118 80.9-23.2 18.5 48.6 32.4 2.3 90.2 173.5 55.5-17 54.4 47 130.6 81h94.8l157.2 41.5z"></path>
      <path fill="#547F41" d="M22.7 693.9h1280.4v751.8H22.7z"></path>
      <path fill="#E6DCC1" d="M134.9 389.8L114 433.7l33.8 16.2L114 574.8l67.1 69.4 136.5 37-60.2-74-57.8-25.5 25.5-67-39.4-60.2-9.2-43.9zm115.6 67.1l39.3-18.5 11.6 18.5-13.9 48.5-20.8 53.2-4.6-71.7zm83.6 50.3l-25.9 64.1h25.9l12.1 65.7 76.2 20.8-50.2-56-6.9-49.6zm156.7 132.6l-17.4 8.1c-6.2 5.7-12.4 11.5-18.7 17.2 30.1 4.9 60.2 9.7 90.4 14.6l-30.3-27.3-24-12.6z"></path>
      <path fill="#2D2D2D" d="M22.7 1445.7c75.7-218.7 197.8-328.5 255.8-373.3 84-65 182.5-109.3 228-129.1 47.7-20.7 123.4-55.9 226.2-80.7 120-29 207.6-28.3 209.6-56 1.7-23.3-59.5-37.4-58.6-58.2 2.5-53.9 417.8-53.2 417.8-52 0 1-279.3 5.4-281.5 49.6-1.1 21.2 64.4 35.3 64.5 72 .2 31.7-60.7 36.3-76.9 83.5-8.7 25.3 0 48.3 14.9 86.1 16.1 40.8 31.6 70.5 35.6 77 50 81.5 111.2 158.1 135.4 190.2 31.6 41.9 72.6 104.3 109.5 190.7-426.7.2-853.5.2-1280.3.2z"></path>
      <path fill="#9B9B9B" d="M956.971 876.265l1.141-.81 98.58 138.746-1.141.811z"></path>
      <path fill="#9B9B9B" d="M944.982 887.03l.97-1.01 122.782 117.864-.97 1.01z"></path>
      <path fill="#9B9B9B" d="M935.32 899.302l.767-1.171 142.39 93.219-.767 1.17z"></path>
      <path fill="#9B9B9B" d="M928.801 912.428l.554-1.285 156.278 67.399-.554 1.285z"></path>
      <path fill="#9B9B9B" d="M924.339 926.671l.33-1.36 165.417 40.065-.33 1.36z"></path>
      <path fill="#9B9B9B" d="M922.316 942.518l.069-1.398 169.995 8.385-.069 1.398z"></path>
      <path fill="#9B9B9B" d="M922.996 956.74l168.634-23.045.19 1.387-168.635 23.045z"></path>
      <path fill="#9B9B9B" d="M926.376 970.98l162.184-51.622.424 1.334-162.183 51.622z"></path>
      <g fill="#9B9B9B">
        <path d="M997.287 1030.826l21.088-168.89 1.39.174-21.09 168.89z"></path>
        <path d="M1002.403 861.755l1.397-.09 10.88 169.86-1.398.09z"></path>
        <path d="M986.953 864.265l1.357-.345 41.988 164.94-1.357.346z"></path>
        <path d="M973.199 869.56l1.277-.572 69.663 155.29-1.277.573z"></path>
      </g>
      <g fill="#9B9B9B">
        <path d="M942.683 1000.614l131.31-108.281.89 1.08-131.309 108.281z"></path>
        <path d="M953.984 1011.864l108.774-130.901 1.077.894-108.775 130.901z"></path>
        <path d="M966.825 1020.72l82.802-148.703 1.223.68-82.802 148.704z"></path>
        <path d="M980.246 1026.593l56.03-160.703 1.322.461-56.03 160.703z"></path>
      </g>
      <path fill="#9B9B9B" d="M931.46 987.926l147.316-80.559.672 1.229-147.316 80.558z"></path>
      <circle fill="#282828" cx="1008.5" cy="948.9" r="14.1"></circle>
      <path fill="#282828" d="M990.5 1032.9c-47.7-8.1-80-53.5-71.9-101.2 8.1-47.7 53.5-80 101.2-71.9 47.7 8.1 80 53.5 71.9 101.2s-53.5 80-101.2 71.9zm27.9-165.3c-43.5-7.4-84.8 22-92.2 65.5-7.4 43.5 22 84.8 65.5 92.2 43.5 7.4 84.8-22 92.2-65.5s-22-84.9-65.5-92.2z"></path>
      <path fill="#E16241" d="M927.3 895.8c23.7-27.6 59.3-40.8 92.5-33.7 32.8 7.1 53.2 32 59.4 42.7 6.1 10.4 8.7 21.1 8.7 21.1 1.7 6.8 2.1 12.7 2.1 17.1l12.6-.6c.7-7.9.8-20.2-3.8-34.1-10.6-32.1-37.9-47-46.1-51.5-8.4-4.6-34.2-17.3-67.6-11.5-41.2 7.2-63.7 37.3-68.4 43.9 3.5 2.2 7 4.4 10.6 6.6z"></path>
      <path fill="none" d="M1296.7 1048.6V363.9l-635-342.3L26.8 363.9v684.7l634.9 342.3z"></path>
      <path fill="#48CCCC" d="M18 861.8c55.4-48.7 102-60.5 135.3-61.7 58.3-2.1 100.4 27.2 151.1 2.7 24.4-11.8 37-29.1 44.3-38.3 83.4-104.2 373.6-62.8 373.5-58.2-.2 5.2-229.5-48.1-329.2 70.1-28.1 33.2-34.2 66.3-78.8 90.9-54.6 30.1-95.7.2-156.1 15.9-38.4 10-87.9 38.6-135.3 121-1.7-47.5-3.3-94.9-4.8-142.4z"></path>
      <path fill="#EDAC29" d="M571.1 789.7c3.3-10.2 2.6-14.4 4-18.2 5.2-15.1 36.6-18.1 42.4-18.6 104.1-8.8 126.2-8.3 126.2-8.3s85.9 2 168.6 20.4c4.9 1.1 20 4.7 28.8 17.1 1.2 1.7 9.2 13 4.6 19.3-3.1 4.2-11.2 5.2-14.5 2-4.1-4 1.7-11.7-.8-18.9-4.4-12.8-32.2-14.1-36.9-14.3-60.4-2.9-22.9-11.9-129.7-15.9-105.1-3.9-64.4 7.7-130.4 5.3-9.2-.3-37.4-1.6-45.2 12.8-5.4 9.9 1.3 22.7-7.1 29.7-4.4 3.7-11.4 4.5-13.4 2.1-2-2 .6-5.8 3.4-14.5z"></path>
      <path fill="#ED9437" d="M536.4 763.5C577.8 729.7 653.3 677 761 647.2c94.1-26.1 175-24.2 225.7-19.1-43.4 32.4-113.7 77-209.6 106.4-99.5 30.5-185.7 32.2-240.7 29z"></path>
      <path fill="#A38062" d="M529.9 740.4c46.7-26 130.2-64.7 241.5-75.2C868.6 656 948 672 997 685.9c-48.4 24.3-125.5 56-225 68.1-103.4 12.6-188.6-.9-242.1-13.6z"></path>
      <path fill="#43372B" d="M337.4 1111.4c-7.2 14.4 14.2 37.4 16.8 40.3 16.3 17.5 40.1 24.2 60.8 21.1 19.4-2.9 44.4-15.4 44.4-30 0-3.1-1.2-9.9-16.1-20.2-36.4-25.2-95.9-31.1-105.9-11.2zm302.7 9.2c-10.7 42 35.9 80.5 40 83.8 7.4 6 18.3 14.5 34.9 16.6 18.7 2.4 33.1-4.7 37.6-7.2 15.7-8.6 22.8-21.5 28.9-32.5 3-5.4 13.4-25.3 14.1-53.9.5-19.8 1-40.3-13.7-58-20-24-51.5-22.9-53-22.8-23 1.2-37.9 15.1-58 33.9-17.9 16.9-27 25.4-30.8 40.1zm303.3-100.5c-2.7 13.4-13.4 67.6 16 106 8.2 10.7 15.3 14.7 20.7 16.7 18.4 6.9 35.7-2.5 37.5-3.5 14.8-8.3 19.9-22.7 25.4-38 3.9-11 12-34.3 5.1-63.3-3.1-13.3-8.8-37.2-30.8-51.2-15.5-9.8-41.3-16.1-58-3.7-9.8 7.5-12.2 18.5-15.9 37z"></path>
      <path fill="#EFC928" d="M330.6 986.5c7.7-12.3 18.9-17.7 41.3-28.5 8.7-4.2 17.5-7.8 62.4-21.1 39.2-11.7 50.6-14.3 61.5-26.5 5.5-6.1 7.2-10.6 14.5-27.8 21-49.6 31.7-74.5 41.1-83.3 10.4-9.7 28-13.3 63.2-20.4 11.1-2.3 38-7.3 101.1-10.5 33.1-1.7 49.7-2.5 67.9-1.9 48.1 1.5 79.3 8.8 118.1 18.1 41.1 9.9 58 17.6 66.3 33.2 1.9 3.5 2.1 5 8.3 26.9 7.8 27.4 11.7 41.1 14.4 49 15 44 35.8 76.7 35.8 76.7 8.5 13.4 15.7 22.2 12.3 27.9-4.4 7.5-20-1.9-37.5 5.1-22 8.8-30.8 36.8-37.9 59.3-5.6 17.7-7.2 32.9-7.8 42.7-53.4 9.7-106.9 19.4-160.3 29.1.6-7.2 1.5-29-12.6-49.5-4.3-6.2-17.4-25.3-37.9-27.2-23.5-2.2-41.8 19.9-53.4 34-24.8 30-31.3 64-33.1 84.7-58.2-1.2-108.2-4.9-148.1-8.8-130.9-13-73.5-21.3-142.8-29.9-8-1-31.2-3.7-38.6-18.7-2.7-5.4-4.9-15.6-1.7-25.3 2.1-6.3 4.8-7.2 6.2-12.5 2.8-10.4-4.2-19.6-7.7-26.4-11.4-21.9-5.2-52.1 5-68.4z"></path>
      <path fill="#E16241" d="M559.4 1018.8c4.4-12.5 17.6-16.9 21.1-18 2.5-.8 20.7-6.6 34.1 5 12.1 10.4 15.1 30.2 7.1 40.5-4.4 5.7-11.3 7.4-19.9 9.6-8.2 2.1-15.9 4-23.9 1-13.2-5.2-23.8-23.1-18.5-38.1zM331 981.2c4.9-4.8 14.4-3.4 20.1-.7 14.1 6.7 14.2 26 14.2 27.9 0 3.7-.1 10.9-5.2 17-5.5 6.7-16.1 11.2-22.6 7.5-2.1-1.2-4-3.4-6.8-24.6-3-22.3-1.6-25.2.3-27.1z"></path>
      <path fill="#E6DCC1" d="M335.4 981.9c-7.5.8-13.5 15.2-12.5 27.1 1 11.8 9.2 25.5 17.7 24.9 7-.5 12.3-10.7 13.5-18.4 2.6-16.2-9.8-34.5-18.7-33.6zm227.8 30c-9.2 9.1-9 25.8-.1 36 7.1 8.1 20.3 12.8 31.3 6.8 11.4-6.2 14.5-20.7 10.9-31.4-3-8.8-10.8-16.1-20.8-17.7-1.3-.1-13.1-1.8-21.3 6.3zm33.1 81.7c5.2-1.8 13.1 4.6 14.3 12 .7 4.7-1.1 11.5-5.9 13-5.1 1.6-10.5-3.5-12.5-8.1-2.8-6.3-.7-15.1 4.1-16.9zm-255.8-28.7c3.8-1.2 10.5 4.9 10.6 11.3 0 3.2-1.6 7.4-4.5 8.2-3.7 1-8.3-3.9-9.4-8.7-1.1-4.2.3-9.8 3.3-10.8z"></path>
      <path fill="#E16241" d="M358.5 1104.6c-13.4-18.1 1.8-49 4.3-53.8 3-5.9 10.7-20.8 26-25.8 7.7-2.5 14.3-1.5 17.8-1 31.7 4.4 115.2 12.9 118.6 13.2 3.4.3 9.5.9 16.8 4.1 4 1.7 16.3 7.6 27.8 26 13.3 21.2 25 58.3 11.7 69-5.1 4.1-11.1 2-33.4-1.7-18-3-36.1-4.2-54.2-6.7-15-2.1-36.9-4.7-80.7-9.9-41-4.8-48.8-5.4-54.7-13.4z"></path>
      <path fill="#E6DCC1" d="M717 1099.7c-19.3 12-18 39.8-17.7 48.3.4 8.2 1.7 38.4 21.2 45.5 12.1 4.4 25.9-1.9 33.6-9.1 14.4-13.4 12.4-33.9 11.2-46.9-1.3-13.1-3.2-33.3-18.2-40.6-10.2-4.9-22.3-2-30.1 2.8zm292.8-67.4c-11.6-1-20.6 14.7-23.3 19.4-9.4 16.5-13.6 43.6.9 57.5.8.7 10.7 10 21.3 7.4 11.9-2.9 16.5-18.6 19.5-28.8 2.2-7.4 6.2-21.3 0-36.2-1.6-3.9-7.6-18.4-18.4-19.3z"></path>
      <path fill="#99D7CA" d="M513.9 904c16-32 32-64.1 48-96.1 24.6-8.2 65.1-18.2 115.6-15.8 51.5 2.5 91.4 17 115.3 27.7-.2 16.8-1.7 31-3.4 41.7-2.7 17.3-6.3 30.4-9.6 42.4-3.4 12.4-6.9 22.8-9.6 30.5-9.9-3.7-25.1-8.9-44.1-13.6-34.8-8.5-60.2-9.7-118.7-12.4-20.4-.9-58-2.7-93.5-4.4z"></path>
      <path fill="#81C1B2" d="M550.4 885.8c-2.4-6.3 36.4-30.8 78.5-45.1 8.4-2.8 35.6-7.2 90.1-16 35.7-5.8 48-7.4 53.8 0 8.5 10.8-2.1 34.1-10.2 51.6-7.4 16.2-11.1 24.4-17.4 28.3-21 13.3-41.7-15.6-98.9-20.4-11-.9-33.4-1.8-59.6 0-24.9 1.8-35.2 4.7-36.3 1.6z"></path>
      <path fill="#99D7CA" d="M802 934.4c.4-24.2 3.4-52.7 12.3-83.5 2.2-7.8 4.7-15.2 7.3-22.3 24.6-1.1 49.3-2.3 73.9-3.4 4.6 32.3 9.1 64.7 13.7 97-35.7 4.1-71.5 8.1-107.2 12.2z"></path>
      <path fill="#81C1B2" d="M838.2 841.5c-11.5 16.4 9.6 42.7 13.8 48 12.4 15.4 33.3 28.7 40.7 23.3 4.6-3.4.3-11.1-1.5-40.7-1.3-22 .6-26-3.6-31.3-10-12.4-39.3-13.6-49.4.7z"></path>
      <path fill="#99D7CA" d="M911.2 825.2c6.5 32.5 13 65.1 19.5 97.6 6.4 1.1 16.5 2 28.5-.4 9.7-1.9 17.2-5.4 22.4-8.2-1.2-12.1-3.7-27.5-9.3-44.5-5.4-16.3-12.1-29.7-18.1-39.9-4-2.2-10.2-4.9-18.1-6.1-10.9-1.8-19.9 0-24.9 1.5z"></path>
      <path fill="#81C1B2" d="M924 848.1c-4.4 17.6 14.8 40.6 18.6 45.2 11.3 13.5 27.7 23.7 31.5 17.4 2.4-3.9-2-10.9-9-39.7-5.2-21.4-4.7-25.6-8.6-30.2-9-10.8-28.7-8-32.5 7.3z"></path>
      <path fill="#EDAC29" d="M806.2 951.8c14.5-13.9 36.4 7.6 78.7-7.5 8.8-3.1 19.5-8.3 25.5-3.4 5 4.1 3.1 12.5 3.1 25.6 0 5.7 2.1 17.3 6.2 40.4 9.9 55.2 26.3 78.7 15.5 89.4-4.4 4.3-10.5 3.9-17.9 3.9-60.7 0-86.4 30.4-103.4 17.1-11.8-9.2-1.2-25.3-3.1-75.4-2.1-57.5-17.8-77.5-4.6-90.1z"></path>
      <path fill="#FFF" d="M871 963.4c-.2-1 19.5-11.4 29.3-3.1 3.7 3.2 6.7 9.6 4.6 12.4-1.1 1.4-3.6 1.9-5.4 1.2-3.2-1.3-2.7-5.5-5-8.5-5.5-7.3-23.3-1.1-23.5-2z" opacity=".5"></path>
      <path fill="#43372B" d="M676.928 525.227l9.521-2.321 10.443 42.847-9.522 2.321zm51.116-12.399l9.522-2.32 10.443 42.847-9.522 2.32z"></path>
      <path fill="#43372B" d="M737.7 511l-.2-1c-.6-2.4-2.9-3.8-5.3-3.2L680 519.4c-2.4.6-3.8 2.9-3.2 5.3l.2 1c.6 2.4 2.9 3.8 5.3 3.2l52.1-12.7c2.4-.5 3.9-2.9 3.3-5.2z"></path>
      <path fill="#547F41" d="M804.2 720.8l-89.7 21.9c-11.5 2.8-23.1-4.2-25.9-15.8l-31.5-129.4c-2.8-11.5 4.2-23.1 15.8-25.9l89.7-21.9c11.5-2.8 23.1 4.2 25.9 15.8L820 694.9c2.8 11.5-4.3 23.1-15.8 25.9z"></path>
      <path fill="#FFF" d="M808 719.3c-27.4 6.7-54.9 13.4-82.3 20.1 23.3-26.3 24.5-40.4 21.2-48.5-6.6-16-33.2-13.8-43.5-36.7-1.2-2.7-5.8-13-2.6-23.9 5.2-17.6 26.2-17.3 41.6-34.7 7-8 14.4-21.2 15-44.5 5.2-1.4 14.2-2.9 21.6 1.7 6.9 4.3 9.2 12 10.3 15.6 15 49.2 18.6 74.5 31.6 129.8.3 1.5 1.4 6.6-1.4 12.1-3.6 6.9-10.5 8.7-11.5 9z" opacity=".29"></path>
      <path fill="#43372B" d="M822.61 528.44l9.695 1.422-6.399 43.633-9.696-1.422zm52.102 7.61l9.696 1.421-6.399 43.633-9.696-1.422z"></path>
      <path fill="#43372B" d="M884.4 538l.1-1c.4-2.4-1.3-4.6-3.7-5l-53.1-7.8c-2.4-.4-4.6 1.3-5 3.7l-.1 1c-.4 2.4 1.3 4.6 3.7 5l53.1 7.8c2.4.3 4.6-1.3 5-3.7z"></path>
      <path fill="#48CCCC" d="M867.3 757.5l-91.4-13.4c-11.7-1.7-19.8-12.6-18.1-24.3L777.2 588c1.7-11.7 12.6-19.8 24.3-18.1l91.4 13.4c11.7 1.7 19.8 12.6 18.1 24.3l-19.3 131.8c-1.8 11.7-12.7 19.8-24.4 18.1z"></path>
      <path fill="#FFF" d="M871.3 757.5c-28-4.1-55.9-8.2-83.9-12.3 31.5-15.6 37.9-28.3 37.8-37-.1-17.3-25.6-25.2-26.6-50.4-.1-3-.5-14.2 6.5-23.2 11.4-14.4 30.8-6.2 51.6-16.6 9.5-4.7 21.3-14.3 30.6-35.6 5.4.6 14.3 2.6 19.4 9.7 4.8 6.6 4.1 14.6 3.7 18.3-4.5 51.2-10.7 76-19.4 132.1-.2 1.5-1.2 6.7-5.9 10.7-5.6 5.3-12.7 4.4-13.8 4.3z" opacity=".3"></path>
      <path fill="#E16241" d="M763.1 746.4l-98.2 6.4c-10.6.7-19.8-7.4-20.5-18l-3.9-60.6c-.7-10.6 7.4-19.8 18-20.5l98.2-6.4c10.6-.7 19.8 7.4 20.5 18l3.9 60.6c.7 10.6-7.4 19.8-18 20.5z"></path>
      <path fill="#E6DCC1" d="M642.5 703.4l136.6-8.9-1.9-29.1c-.7-10.6-9.9-18.6-20.5-18l-98.2 6.4c-10.6.7-18.6 9.9-18 20.5l2 29.1z"></path>
      <path fill="#43372B" d="M722.1 706.3l-21.7 1.4c-3.3.2-6.2-2.3-6.4-5.6l-.1-2c-.2-3.3 2.3-6.2 5.6-6.4l21.7-1.4c3.3-.2 6.2 2.3 6.4 5.6l.1 2c.2 3.3-2.3 6.2-5.6 6.4z"></path>
      <path fill="#FAAF40" d="M604.7 761.5l23.7-49.7 23.9-49.6 11.9-24.8 6-12.4c2-4.1 4.1-8.2 6.2-12.3 4.2-8.2 8.5-16.3 12.8-24.4 4.3-8.1 8.8-16.1 13.4-24.1l.4.2c-3.6 8.5-7.2 16.9-11.1 25.3-3.8 8.4-7.7 16.7-11.7 25-2 4.1-4 8.3-6 12.4l-6.2 12.3-12.6 24.5-25.1 49-25.3 48.9-.3-.3zm150.4-6.7l-7.4-49.1-7.2-49.2-3.7-24.6-1.7-12.3c-.6-4.1-1.1-8.2-1.5-12.3-.9-8.2-1.9-16.5-2.6-24.7-.8-8.2-1.5-16.5-2-24.8l.4-.1c1.7 8.1 3.2 16.3 4.6 24.5 1.4 8.2 2.7 16.4 3.9 24.5.6 4.1 1.2 8.2 1.7 12.3l1.5 12.3L744 656l5.9 49.3 5.7 49.4-.5.1zm67.9 4.3L806.3 707l-16.5-52.2-8.3-26.1-4.1-13.1c-1.3-4.4-2.6-8.7-3.9-13.1-2.5-8.8-5-17.6-7.3-26.4-2.4-8.8-4.6-17.7-6.7-26.6l.4-.1c3.2 8.6 6.3 17.2 9.2 25.8 3 8.6 5.8 17.3 8.6 26 1.4 4.4 2.7 8.7 4.1 13.1l3.9 13.1 7.5 26.3 15.3 52.6 15.1 52.7-.6.1zm14.8-.1l-2.1-46.2-1.9-46.2-1-23.1-.4-11.5c-.1-3.8-.2-7.7-.2-11.6-.1-7.7-.1-15.4 0-23.1.1-7.7.3-15.4.7-23.1h.4c.8 7.7 1.4 15.4 1.9 23.1.5 7.7.9 15.4 1.3 23.1.2 3.8.3 7.7.4 11.5l.2 11.6.2 23.1.6 46.2.4 46.2h-.5zm65.2 12.1l-2.1-47-1.9-47-1-23.5-.4-11.8c-.1-3.9-.2-7.8-.2-11.8-.1-7.8-.1-15.7 0-23.5.1-7.8.3-15.7.7-23.5h.4c.8 7.8 1.5 15.6 2 23.5.5 7.8.9 15.7 1.3 23.5.2 3.9.3 7.8.4 11.8l.2 11.8.2 23.5.6 47 .4 47h-.6z"></path>
    </g>
    <path fill="#43372B" d="M499 263.4c-2.9 0-5.1-1.3-6.6-4-2.1-3.9-3.2-13.2-3.2-27.9 0-3 .1-7.4.3-13.2.2-5.8.7-12.1 1.4-18.8.7-6.8 1.6-11.3 2.6-13.6 1.1-2.6 2.8-3.9 5.1-3.9 2.3.2 3.8.9 4.3 2.2.5 1.3.8 2.6.8 4 0 1.8.2 2.6.6 2.6.4 0 1.2-.5 2.4-1.4 4.1-3.3 7.9-5 11.5-5 2.9 0 5.5.7 7.7 2.2 2.2 1.5 4 3.4 5.4 5.7 2.1 3.6 3.2 7.4 3.2 11.7 0 1.4-.2 2.8-.5 4.2-1.9 9-7.5 15.1-16.7 18.4-1.8.6-2.6 1.2-2.6 1.6 0 .9 2.1 2.8 6.4 5.5 2.4 1.5 4.7 3.2 6.9 4.9 3.4 2.7 5.1 5.4 5.1 8.1 0 1.3-.4 2.4-1.2 3.5-1.1 1.3-2.5 2-4.4 2-3 0-8.3-3.4-16-10.1-1.6-1.4-2.7-2.1-3-2.1-.1 0-.2.1-.5.2-.2.2-.4 2.1-.4 6-.1 5.4-.5 9.4-1.3 11.9-1 3.2-3.2 4.9-6.5 5.2l-.8.1zm10.9-47.9c2.4 0 4.3-.8 5.7-2.4 1.4-1.6 2.5-3.5 3.1-5.7.6-2.2 1-4.2 1-6.1 0-2.8-1-4.7-3-5.7-.7-.4-1.4-.5-2-.5-2.9 0-5.2 2.7-7.1 8-1.1 2.9-1.6 5.6-1.6 8.1v2.3c0 1.3 1.3 2 3.9 2zm73.8 44.7c-1.6 0-3-.3-4-.9-1-.6-1.7-1.4-2.1-2.5-.4-1.1-.6-2.2-.7-3.2-.1-1-.2-1.9-.5-2.5-.2-.6-.7-.9-1.3-.9h-.8c-.4 0-1.5.6-3.2 1.6-3.4 2.1-7 3.1-10.8 3.1-.8 0-2.5-.1-5.3-.4-2.8-.3-6-2.8-9.7-7.5-3.9-5-6.1-10.6-6.7-16.9-.2-1.9-.2-4-.2-6.4 0-1.5.1-3.9.2-7s.7-6.9 1.7-11.3 2.5-7.8 4.6-10.3c1.4-1.6 2.8-2.5 4.2-2.5.3 0 .9.1 1.9.2 2.8.5 4.4 7.5 4.6 21 .2 8.2 1 14.2 2.3 17.8 1.3 3.4 2.8 5.2 4.4 5.2 4.5 0 7.3-6.4 8.4-19.3.4-5.2.7-10.4.9-15.6.3-9.1.9-14.7 1.8-16.8 1.4-3.4 4-5.1 7.7-5.1 3.2 0 5.6 1.4 7.1 4.3 1 1.9 2.1 12.6 3.3 32.2 1.1 18.2 1.7 30 1.7 35.4 0 2.5-.8 4.5-2.5 5.9-1.8 1.6-4.1 2.4-7 2.4zm39.7 1.9c-2.1 0-4.3-.6-6.4-1.8-2.5-1.3-3.7-3.6-3.7-6.9 0-1.6.5-3.2 1.5-4.7s2.7-2.6 5.1-3.1c3-.6 5.2-1.2 6.8-1.8 2-.7 3-1.9 3-3.6 0-1-.7-1.9-2.2-2.8-1.5-.8-3.4-1.7-5.8-2.6-3.3-1.2-6.8-2.9-10.5-4.9-9.4-5.1-14.2-12.6-14.3-22.4 0-5.7 1.3-10.7 3.9-15s6.2-7.8 10.8-10.5c4.6-2.7 9.5-4 14.9-4 8.1 0 15.2 3 21.3 9.1 1.5 1.4 2.7 3.3 3.6 5.4.8 1.8 1.2 3.6 1.2 5.4 0 .4-.1 1.2-.1 2.4-.1 1.3-1.1 2.6-3 4.1-1 .8-1.9 1.2-2.8 1.2-1.3 0-3-1.2-5.2-3.7-1.6-1.8-3.5-3.5-5.9-5-2-1.2-4.5-1.9-7.6-1.9-3.8 0-7.1 1.3-9.7 3.9-2.1 2.1-3.2 4.7-3.2 7.7 0 3.1 1.4 5.6 4.2 7.6 2.8 2 6 3.9 9.7 5.6 3.2 1.5 6.2 3.2 9.2 5.1 2.9 1.9 5.4 4.2 7.3 7 1.9 2.8 2.8 6.1 2.8 10.2 0 4-1.4 7.7-4.3 11-2.8 3.3-7.2 5.8-13 7.6-3 .9-5.5 1.4-7.6 1.4zm52.5-4.7c-.5 0-2.6 0-6.2-.1s-7.3-.7-11.2-1.8c-4.6-1.3-6.9-4.3-6.9-9 0-2.2.8-4.2 2.5-6 1.8-1.8 4.9-4.7 9.4-8.6 18.4-16.1 27.5-25.5 27.5-28.3 0-.9-.8-1.6-2.3-2-1.5-.4-3.9-.7-7.1-1-2.1-.2-4.6-.5-7.6-.8-1.9-.2-3.6-.8-5.2-1.8-2-1.1-2.9-2.7-2.9-4.7 0-1.8.9-3.2 2.6-4.2 2.8-1.8 6.4-2.8 10.7-3 2.6-.2 5-.2 7.4-.2 6.9 0 12.5.4 16.7 1.1 7.5 1.3 11.3 4.3 11.3 8.9 0 4.6-2.5 9.6-7.6 15.1-6.7 7.3-13.8 14.2-21.3 20.8-4.3 3.8-6.4 6.2-6.4 7.2 0 .6 1.1.9 3.3.9.9 0 1.9 0 3.1-.1 1.2-.1 2.4-.1 3.6-.1 2.5 0 5.5.2 9.1.6 3.6.4 6.8 2 9.8 4.8 1.3 1.2 1.9 2.6 1.9 4.1 0 1.3-.7 2.4-2 3.2-3.2 1.8-8 3.1-14.4 4-5.8.6-11.7 1-17.8 1zm88.1 4.9h-.2c-1.4 0-2.7-.4-3.8-1.3-1.1-.8-1.9-1.9-2.2-3.3-.3-1.5-.6-3.8-.8-6.9-.2-3.1-.4-6.3-.8-9.7-.4-4.5-1.4-7.4-2.9-8.9s-4-2.2-7.5-2.2c-2.2 0-4.5.2-7.1.7-2.5.5-4.6 1-6.3 1.7-1.7.7-2.6 3.6-2.8 8.8-.2 5.2-.8 9.4-1.9 12.6-.7 2.2-2.1 3.3-4.1 3.3-4.2 0-6.3-4.5-6.3-13.5V238c0-9.4.4-17.7 1.1-24.8 2.5-23.3 10.8-35 24.9-35 13.7 0 22.3 12.6 25.7 37.7 1.4 10.3 2 22 2 34.9.2 7.6-2.2 11.4-7 11.5zm-25.1-42.1c1.3 0 3.1-.2 5.2-.5s4.2-.9 6.2-1.6c2-.8 3-1.6 3-2.4 0-2-.4-4.7-1.1-8.4-1.8-9.4-4.8-14.2-9-14.2-4.8 0-7.9 6.6-9.3 19.9-.2 2.4-.4 4-.4 4.9 0 1.6 1.8 2.3 5.4 2.3zm61.2 40.2c-3.9 0-7.2-.8-10.1-2.5-5.5-3.1-9.3-8.3-11.5-15.5-1.2-3.7-1.8-7.6-1.8-11.5 0-2.5.3-5 .9-7.5.6-2.5 1.6-4.5 3-6.2 1.4-1.7 3.2-2.5 5.2-2.5 1.2 0 2.2.6 2.9 1.8.7 1.2 1.2 2.7 1.5 4.6.3 1.9.6 3.9.8 6 .5 6 1.5 10.3 2.9 13 1.4 2.7 3 4 4.9 4 2 0 4.1-1.8 6.2-5.4 2.1-3.6 4-8 5.6-13.3 2.2-7.5 3.3-14.5 3.3-20.9 0-3.2-.4-6.4-1.3-9.6-.9-3.1-3-4.9-6.2-5.2l-8.4-.8c-5.2-.4-7.8-1.5-7.8-3.2 0-3.3 6.5-5 19.5-5h1.9c6.8.1 11.4 4.1 13.9 12 1.7 5.5 2.6 11.8 2.6 19 0 16.2-2.7 28.7-8 37.3-4.6 7.6-11.3 11.4-20 11.4zM312.6 417.1c-5.9 0-11.4-2.2-16.4-6.6-5.3-4.6-9-10.3-11-16.9-2-6.6-3.3-13.3-3.9-20.2-.7-7.1-1-16.2-1-27.5 0-6.5.3-13.7.8-21.4.5-7.7 1.9-13.6 4.2-17.6 1.7-2.9 4-4.4 6.8-4.4 5.8 0 10 7.4 12.5 22.2 1.5 8.9 2.8 18.5 3.9 28.7 2 17.5 3.9 29.2 5.9 35.2 1.3 4 2.9 5.9 4.9 5.9 1.4 0 2.9-.9 4.5-2.6 7.2-7.9 12-19.8 14.4-35.7 1.6-11.1 3.9-17.7 6.8-19.7 1.8-1.2 3.7-1.8 5.8-1.8 3.9.1 6.6 2.2 8.2 6.5 1.7 4.8 2.9 9.3 3.6 13.5.5 3.5 1.3 7.1 2.4 10.7 1 3.7 2.8 7.8 5.2 12.2 3 5.4 5.5 8.1 7.2 8.1 4.7 0 7.4-12.1 8.2-36.4.4-12.9 1.4-20.8 2.9-23.6 2.4-4.6 5.8-6.9 10.1-6.9 9.3 0 13.9 9.4 13.9 28.3 0 2.3-.1 5.7-.4 10.2-.3 4.6-1.1 10.3-2.6 17.2-1.4 6.9-3.4 13.3-6 19.1-2.6 5.9-5.8 10.6-9.6 14.2-3.8 3.6-8.2 5.4-13.2 5.4-7.1 0-13.3-3.1-18.7-9.3-3.4-4-6.8-9.4-10.2-16.2-1.7-3.5-2.9-5.3-3.7-5.6-.5.2-1.6 1.9-3 5-1.6 3.5-3.9 7.5-6.8 12.2-2.9 4.7-6.5 8.7-10.8 12.1-4.2 4-9.2 5.7-14.9 5.7zm169.9-1.7c-3.4 0-5.9-1.8-7.6-5.4-1.8-3.8-3-9.9-3.6-18.1-.7-8.8-1.1-20.6-1.1-35.6 0-4.1.1-9.2.3-15.4.5-17 3-28.8 7.4-35.4 1.4-2.1 3.2-3.1 5.4-3.1 1.7 0 3.3.8 4.8 2.3 1.9 2 3.4 2.9 4.5 2.9 1 0 2.6-.9 4.8-2.7 5.5-4.8 11.6-7.2 18.4-7.2 8.8 0 16.1 4.4 21.8 13.1 7.2 11.2 10.8 25 10.8 41.6 0 9.8-1.7 19.6-5.1 29.3-3.3 9.2-8 17-14.2 23.3-6.5 6.6-14.2 10-23.1 10.1-3.2 0-6.5-.5-10.1-1.6-1.5-.4-3-.6-4.3-.6-1.1 0-2.1.3-2.9.8-1.8 1-3.8 1.6-6.2 1.7zm18.2-21.4l.9-.1c10.1-.9 17.2-8.2 21.3-21.8 2.2-7.3 3.3-15 3.3-23.2 0-10.4-1.6-19.2-4.9-26.2-2.3-4.8-4.8-7.1-7.6-7.1-4.6 0-8.7 3.7-12.1 11.2-3.2 7-5.7 15.2-7.5 24.5-2.1 10.7-3.1 19.9-3.1 27.6 0 6.3.8 10.2 2.4 11.7 2.4 2.3 4.8 3.4 7.3 3.4zm73.8 31.9c-4.6 0-8-2.1-10.3-6.3-3.4-6.2-5-20.7-5-43.5 0-4.7.2-11.6.5-20.6.3-9 1.1-18.8 2.2-29.4 1.1-10.6 2.5-17.7 4.1-21.3 1.8-4 4.4-6 8-6 3.7.3 5.9 1.5 6.7 3.5.8 2 1.2 4.1 1.2 6.2 0 2.7.3 4.1 1 4.1s1.9-.7 3.7-2.2c6.4-5.2 12.4-7.8 18-7.8 4.6 0 8.6 1.1 12.1 3.4s6.3 5.3 8.5 8.9c3.3 5.5 4.9 11.6 4.9 18.2 0 2.2-.2 4.4-.7 6.6-2.9 14-11.6 23.6-26.2 28.8-2.7 1-4.1 1.8-4.1 2.5 0 1.5 3.3 4.3 10 8.6 3.7 2.4 7.3 4.9 10.8 7.7 5.3 4.3 8 8.5 8 12.6 0 2-.6 3.8-1.9 5.4-1.6 2.1-3.9 3.1-6.9 3.1-4.6 0-13-5.3-25-15.8-2.6-2.2-4.1-3.3-4.8-3.3-.1 0-.4.1-.7.4-.4.2-.6 3.4-.6 9.3-.1 8.5-.8 14.7-2.1 18.7-1.6 4.9-5 7.7-10.2 8.1l-1.2.1zm17.1-74.8c3.7 0 6.7-1.2 9-3.8 2.3-2.5 3.9-5.5 4.9-8.9 1-3.4 1.5-6.6 1.5-9.5 0-4.3-1.6-7.3-4.8-9-1.1-.5-2.2-.8-3.2-.8-4.5 0-8.1 4.1-11.1 12.4-1.6 4.5-2.5 8.8-2.5 12.7v3.5c.2 2.3 2.2 3.4 6.2 3.4zM913.9 421c-7.9 0-14.8-1.5-20.7-4.4-11.5-5.8-19.4-15.7-23.7-29.7-2-6.7-3-13.7-3-21.1 0-11.9 2.3-23.3 7-34.2 4.7-10.8 11.5-19.7 20.5-26.7 9.4-7.2 20.7-10.8 33.7-10.8 9.1 0 16.6 2.2 22.5 6.5 1.5 1 2.2 2.3 2.2 3.9 0 .1 0 .5-.1 1.3s-.9 1.7-2.6 2.6c-3.8 2.1-9.1 3.7-15.9 4.8l-5.8 1.1c-8.7 1.6-15.9 5.1-21.4 10.6-5.5 5.5-9.6 11.8-12.2 19.1-2.6 7.3-3.8 14.6-3.8 22 0 6.8.9 13 2.7 18.5 1.8 5.5 4.4 9.9 7.8 13.3 3.4 3.4 7.5 5 12.2 5 4 0 8.9-1.2 14.6-3.5 5.7-2.3 10.7-5.4 14.9-9.3 4-3.6 6-7.6 6-12.1 0-5.7-5.9-8.5-17.6-8.5-2.3 0-4.2.1-5.8.4 0 3-.8 5.5-2.5 7.5-1.6 2-4 2.9-7.1 2.9-8.2 0-12.3-4.4-12.3-13.2 0-4 .7-8.1 2.1-12.3 3.2-9.9 7.1-14.8 11.5-14.8 2.2 0 4.6 1.2 7.1 3.6 1.4 1.3 4.6 1.9 9.7 1.9 4.6 0 9.5.5 14.8 1.5 13.3 2.5 19.9 11.3 19.9 26.5 0 8.7-2.7 16.5-8.2 23.6-5.5 7.1-12.6 12.9-21.3 17.3-8.4 4.5-16.9 6.7-25.2 6.7zm103-5.6c-5.1 0-12.3-.3-21.4-.8-4-.2-6.7-.4-8.1-.4-8.7 0-13.1-2-13.1-6.1 0-1.6.6-3 1.8-4.1s1.8-2.6 1.8-4.4l-.3-19c0-18 1.3-35.9 4-53.7.2-1.5.5-2.7.7-3.6.2-.9.4-1.6.4-2.2 0-.4-.1-.8-.2-1.3s-1-1.2-2.7-2.1c-2.6-1.4-3.8-2.9-3.8-4.5 0-2.2 1.2-4 3.5-5.4 6.1-3.7 15.8-5.6 29.2-5.6 16 0 25.9 1 29.5 2.9 2.5 1.3 3.7 3.2 3.7 5.8 0 3.8-1.9 6-5.8 6.8-1.5.3-3.1.5-5 .5-2.9 0-6.2-.2-9.9-.6-4.3-.4-7.9-.6-10.8-.6-2.6 0-4.4.9-5.3 2.7-1.2 2.4-1.7 7.5-1.7 15.5 0 1.9.1 3.7.2 5.4.1 2 1 2.9 2.7 2.9 1.2 0 2.6-.3 4.3-.8 2.5-.8 5.3-1.2 8.4-1.2 4.8 0 8 1.5 9.7 4.5.7 1.3 1.1 2.6 1.1 4 0 1.1-.2 2.2-.7 3.4-1.4 3.4-4 5.2-7.8 5.4-5.5.4-9.9 1-12.9 1.8-3.1.9-4.8 2.7-5.2 5.7-.5 4.9-.8 10.6-.8 17.2 0 7 .2 10.8.6 11.4.2.4 3 .5 8.4.5 13.6 0 21.5 2 23.6 6 .7 1.5 1.1 2.8 1.1 3.9-.1 4.9-2.4 8-6.9 9.1-2.9.6-7.1 1-12.3 1z"></path>
    <path fill="#4D5052" d="M666.007 394.056l28.033-32.213 1.358 1.182-28.033 32.213zm19.094 10.146l11.46-41.133 1.735.483-11.46 41.133zm14.216-41.257l1.773-.31 7.362 42.059-1.773.31zm2.585-1.199l1.467-1.043 24.736 34.805-1.467 1.042zm1.774-2.206l.876-1.572 37.303 20.782-.876 1.572zm.62-2.8l.114-1.796 42.615 2.716-.115 1.796zm-1.316-4.482l39.64-15.876.669 1.671-39.639 15.876zm-2.472-1.663l28.955-31.38 1.323 1.22-28.955 31.38zm-2.84-.71l12.644-40.787 1.719.533-12.644 40.787zm-9.058-41.443l1.782-.259 6.132 42.256-1.782.259zm-19.918 8.755l1.497-1 23.71 35.51-1.496 1zm-14.146 16.396l.922-1.546 36.679 21.858-.921 1.546zm-5.774 20.792l.167-1.792 42.516 3.954-.166 1.792zm3.158 19.768l40.078-14.736.621 1.69-40.078 14.736z"></path>
    <path fill="#43372B" d="M697.6 415.6c-32.6 0-59.1-26.5-59.1-59.1s26.5-59.1 59.1-59.1 59.1 26.5 59.1 59.1-26.5 59.1-59.1 59.1zm0-109.5c-27.8 0-50.4 22.6-50.4 50.4 0 27.8 22.6 50.4 50.4 50.4s50.4-22.6 50.4-50.4c0-27.8-22.6-50.4-50.4-50.4z"></path>
    <path fill="#2D2D2D" d="M697.6 314.4c23.2 0 42.1 18.9 42.1 42.1 0 23.2-18.9 42.1-42.1 42.1-23.2 0-42.1-18.9-42.1-42.1 0-23.2 18.9-42.1 42.1-42.1m0-7c-27.1 0-49.1 22-49.1 49.1s22 49.1 49.1 49.1 49.1-22 49.1-49.1-22-49.1-49.1-49.1z"></path>
    <circle fill="#2D2D2D" cx="697.8" cy="356.8" r="7.9"></circle>
    <circle fill="#43372B" cx="697.8" cy="356.8" r="5.2"></circle>
    <path fill="#43372B" d="M697.4 409.3c-29 0-52.6-23.6-52.6-52.6s23.6-52.6 52.6-52.6 52.6 23.6 52.6 52.6c-.1 29-23.6 52.6-52.6 52.6zm0-97.3c-24.7 0-44.8 20.1-44.8 44.8s20.1 44.8 44.8 44.8 44.8-20.1 44.8-44.8-20.1-44.8-44.8-44.8z"></path>
    <path fill="#4D5052" d="M769.282 396.5l28.032-32.213 1.358 1.181-28.032 32.213zm19.118 10.082l11.46-41.133 1.735.483-11.461 41.133zm14.32-41.149l1.772-.31 7.362 42.06-1.773.31zm2.454-1.257l1.467-1.042 24.736 34.804-1.467 1.043zm1.822-2.264l.876-1.573 37.303 20.782-.876 1.573zm.583-2.787l.115-1.796 42.614 2.716-.114 1.796zm-1.282-4.359l39.638-15.876.67 1.67-39.639 15.876zm-2.455-1.798l28.955-31.38 1.322 1.22-28.955 31.381zm-2.906-.615l12.644-40.787 1.72.533-12.644 40.787zm-9.022-41.405l1.78-.258 6.133 42.256-1.782.258zm-19.866 8.636l1.497-1 23.71 35.51-1.496 1zm-14.182 16.386l.921-1.547 36.68 21.858-.922 1.547zm-5.817 20.9l.166-1.793 42.517 3.955-.167 1.792zm3.168 19.703l40.078-14.736.622 1.69-40.079 14.735z"></path>
    <path fill="#43372B" d="M800.9 418.1c-32.6 0-59.1-26.5-59.1-59.1s26.5-59.1 59.1-59.1S860 326.4 860 359c.1 32.6-26.5 59.1-59.1 59.1zm0-109.5c-27.8 0-50.4 22.6-50.4 50.4 0 27.8 22.6 50.4 50.4 50.4s50.4-22.6 50.4-50.4c0-27.8-22.6-50.4-50.4-50.4z"></path>
    <path fill="#2D2D2D" d="M800.9 316.8c23.2 0 42.1 18.9 42.1 42.1 0 23.2-18.9 42.1-42.1 42.1-23.2 0-42.1-18.9-42.1-42.1 0-23.2 18.9-42.1 42.1-42.1m0-7c-27.1 0-49.1 22-49.1 49.1s22 49.1 49.1 49.1 49.1-22 49.1-49.1c.1-27.1-21.9-49.1-49.1-49.1z"></path>
    <circle fill="#2D2D2D" cx="801.2" cy="359.2" r="7.9"></circle>
    <circle fill="#43372B" cx="801.2" cy="359.2" r="5.2"></circle>
    <path fill="#43372B" d="M800.7 411.8c-29 0-52.6-23.6-52.6-52.6s23.6-52.6 52.6-52.6 52.6 23.6 52.6 52.6-23.6 52.6-52.6 52.6zm0-97.4c-24.7 0-44.8 20.1-44.8 44.8 0 24.7 20.1 44.8 44.8 44.8s44.8-20.1 44.8-44.8c0-24.7-20.1-44.8-44.8-44.8z"></path>
  </symbol>
</svg>